%TF.GenerationSoftware,KiCad,Pcbnew,10.0.5*%
%TF.CreationDate,2026-08-29T14:22:00+02:00*%
%TF.ProjectId,AVA,4156412e-6b69-4636-9164-5f7063625858,rev?*%
%TF.SameCoordinates,Original*%
%TF.FileFunction,Soldermask,Top*%
%TF.FilePolarity,Negative*%
%FSLAX46Y46*%
G04 Gerber Fmt 4.6, Leading zero omitted, Abs format (unit mm)*
G04 Created by KiCad (PCBNEW 10.0.5) date 2026-08-29 14:22:00*
%MOMM*%
%LPD*%
G01*
G04 APERTURE LIST*
%ADD10R,1.700000X1.700000*%
%ADD11C,1.700000*%
%ADD12C,1.600000*%
%ADD13C,3.200000*%
%ADD14C,1.712000*%
%ADD15R,1.600000X1.600000*%
%ADD16O,1.600000X1.600000*%
G04 APERTURE END LIST*
D10*
%TO.C,J1*%
X136652000Y-62230000D03*
D11*
X134112000Y-62230000D03*
X131572000Y-62230000D03*
%TD*%
D10*
%TO.C,J3*%
X136652000Y-82550000D03*
D11*
X134112000Y-82550000D03*
X131572000Y-82550000D03*
%TD*%
D12*
%TO.C,R17*%
X160655000Y-107950000D03*
X150495000Y-107950000D03*
%TD*%
%TO.C,R11*%
X177165000Y-83820000D03*
X187325000Y-83820000D03*
%TD*%
%TO.C,C6*%
X179745000Y-80645000D03*
X184745000Y-80645000D03*
%TD*%
%TO.C,C2*%
X139740000Y-72390000D03*
X144740000Y-72390000D03*
%TD*%
D10*
%TO.C,J10*%
X168910000Y-121920000D03*
D11*
X166370000Y-121920000D03*
X163830000Y-121920000D03*
X161290000Y-121920000D03*
%TD*%
D12*
%TO.C,R9*%
X147320000Y-92710000D03*
X157480000Y-92710000D03*
%TD*%
D13*
%TO.C,H2*%
X223139000Y-54864000D03*
%TD*%
%TO.C,H3*%
X130683000Y-122428000D03*
%TD*%
D12*
%TO.C,R18*%
X182245000Y-122555000D03*
X172085000Y-122555000D03*
%TD*%
%TO.C,R21*%
X208280000Y-122555000D03*
X218440000Y-122555000D03*
%TD*%
%TO.C,R12*%
X177165000Y-86995000D03*
X187325000Y-86995000D03*
%TD*%
%TO.C,R15*%
X146050000Y-107950000D03*
X135890000Y-107950000D03*
%TD*%
%TO.C,R14*%
X177165000Y-77470000D03*
X187325000Y-77470000D03*
%TD*%
%TO.C,R8*%
X130810000Y-86360000D03*
X140970000Y-86360000D03*
%TD*%
D10*
%TO.C,J9*%
X152400000Y-121920000D03*
D11*
X154940000Y-121920000D03*
X157480000Y-121920000D03*
%TD*%
D12*
%TO.C,R2*%
X173355000Y-103505000D03*
X173355000Y-113665000D03*
%TD*%
%TO.C,R22*%
X160655000Y-104775000D03*
X150495000Y-104775000D03*
%TD*%
%TO.C,R25*%
X135890000Y-113030000D03*
X146050000Y-113030000D03*
%TD*%
%TO.C,R13*%
X177165000Y-74295000D03*
X187325000Y-74295000D03*
%TD*%
D10*
%TO.C,J8*%
X137160000Y-121920000D03*
D11*
X139700000Y-121920000D03*
X142240000Y-121920000D03*
%TD*%
D10*
%TO.C,J5*%
X146050000Y-121920000D03*
D11*
X148590000Y-121920000D03*
%TD*%
D12*
%TO.C,R24*%
X135890000Y-116840000D03*
X146050000Y-116840000D03*
%TD*%
%TO.C,R3*%
X130810000Y-66040000D03*
X140970000Y-66040000D03*
%TD*%
%TO.C,R5*%
X147320000Y-72390000D03*
X157480000Y-72390000D03*
%TD*%
%TO.C,C3*%
X139740000Y-82550000D03*
X144740000Y-82550000D03*
%TD*%
D10*
%TO.C,J4*%
X136652000Y-92710000D03*
D11*
X134112000Y-92710000D03*
X131572000Y-92710000D03*
%TD*%
D12*
%TO.C,C4*%
X139740000Y-92710000D03*
X144740000Y-92710000D03*
%TD*%
D10*
%TO.C,J6*%
X173355000Y-74295000D03*
D11*
X173355000Y-76835000D03*
%TD*%
D12*
%TO.C,R4*%
X147320000Y-62230000D03*
X157480000Y-62230000D03*
%TD*%
D10*
%TO.C,J2*%
X136652000Y-72390000D03*
D11*
X134112000Y-72390000D03*
X131572000Y-72390000D03*
%TD*%
D13*
%TO.C,H1*%
X130683000Y-54864000D03*
%TD*%
D10*
%TO.C,J7*%
X130810000Y-102870000D03*
D11*
X130810000Y-105410000D03*
%TD*%
D12*
%TO.C,R7*%
X147320000Y-82550000D03*
X157480000Y-82550000D03*
%TD*%
%TO.C,R16*%
X146050000Y-104140000D03*
X135890000Y-104140000D03*
%TD*%
%TO.C,R19*%
X172085000Y-119380000D03*
X182245000Y-119380000D03*
%TD*%
%TO.C,R1*%
X177165000Y-103505000D03*
X177165000Y-113665000D03*
%TD*%
%TO.C,R20*%
X208280000Y-119380000D03*
X218440000Y-119380000D03*
%TD*%
%TO.C,R26*%
X158750000Y-113030000D03*
X148590000Y-113030000D03*
%TD*%
%TO.C,R10*%
X130810000Y-99060000D03*
X140970000Y-99060000D03*
%TD*%
D14*
%TO.C,U1*%
X212980000Y-65145000D03*
X210440000Y-65145000D03*
X207900000Y-65145000D03*
X205360000Y-65145000D03*
X202820000Y-65145000D03*
X200280000Y-65145000D03*
X197740000Y-65145000D03*
X195200000Y-65145000D03*
X195530000Y-80645000D03*
X198030000Y-80645000D03*
X200530000Y-80645000D03*
X203030000Y-80645000D03*
X205530000Y-80645000D03*
X208030000Y-80645000D03*
X210530000Y-80645000D03*
X213030000Y-80645000D03*
%TD*%
D12*
%TO.C,C5*%
X179745000Y-90170000D03*
X184745000Y-90170000D03*
%TD*%
D15*
%TO.C,A1*%
X182880000Y-116205000D03*
D16*
X185420000Y-116205000D03*
X187960000Y-116205000D03*
X190500000Y-116205000D03*
X193040000Y-116205000D03*
X195580000Y-116205000D03*
X198120000Y-116205000D03*
X200660000Y-116205000D03*
X203200000Y-116205000D03*
X205740000Y-116205000D03*
X208280000Y-116205000D03*
X210820000Y-116205000D03*
X213360000Y-116205000D03*
X215900000Y-116205000D03*
X218440000Y-116205000D03*
X218440000Y-100965000D03*
X215900000Y-100965000D03*
X213360000Y-100965000D03*
X210820000Y-100965000D03*
X208280000Y-100965000D03*
X205740000Y-100965000D03*
X203200000Y-100965000D03*
X200660000Y-100965000D03*
X198120000Y-100965000D03*
X195580000Y-100965000D03*
X193040000Y-100965000D03*
X190500000Y-100965000D03*
X187960000Y-100965000D03*
X185420000Y-100965000D03*
X182880000Y-100965000D03*
%TD*%
D12*
%TO.C,C1*%
X139740000Y-62230000D03*
X144740000Y-62230000D03*
%TD*%
%TO.C,R6*%
X130810000Y-76200000D03*
X140970000Y-76200000D03*
%TD*%
D13*
%TO.C,H4*%
X223139000Y-122428000D03*
%TD*%
D12*
%TO.C,R23*%
X158750000Y-116840000D03*
X148590000Y-116840000D03*
%TD*%
M02*
