M48
; DRILL file KiCad 10.0.5 date 2026-09-01T02:46:34
; FORMAT={-:-/ absolute / metric / decimal}
; #@! TF.CreationDate,2026-09-01T02:46:34+02:00
; #@! TF.GenerationSoftware,Kicad,Pcbnew,10.0.5
; #@! TF.FileFunction,Plated,1,2,PTH
FMAT,2
METRIC
; #@! TA.AperFunction,Plated,PTH,ViaDrill
T1C0.800
; #@! TA.AperFunction,Plated,PTH,ComponentDrill
T2C0.800
; #@! TA.AperFunction,Plated,PTH,ComponentDrill
T3C1.000
%
G90
G05
T1
X151.71Y-55.825
X151.765Y-77.47
X151.765Y-87.63
X155.603Y-59.718
X160.02Y-77.47
X160.02Y-87.63
X161.925Y-68.015
X161.925Y-74.555
X178.435Y-67.945
X184.785Y-74.555
T2
X141.605Y-60.96
X141.605Y-64.135
X141.605Y-71.12
X141.605Y-74.295
X141.605Y-81.28
X141.605Y-84.455
X141.605Y-91.44
X141.605Y-94.615
X142.24Y-104.14
X142.24Y-107.315
X142.875Y-116.84
X142.875Y-120.015
X144.185Y-67.31
X144.185Y-77.47
X144.185Y-87.63
X144.185Y-97.79
X149.185Y-67.31
X149.185Y-77.47
X149.185Y-87.63
X149.185Y-97.79
X151.765Y-60.96
X151.765Y-64.135
X151.765Y-71.12
X151.765Y-74.295
X151.765Y-81.28
X151.765Y-84.455
X151.765Y-91.44
X151.765Y-94.615
X152.4Y-104.14
X152.4Y-107.315
X153.035Y-116.84
X153.035Y-120.015
X162.56Y-93.345
X162.56Y-103.505
X162.56Y-106.045
X162.56Y-116.205
X166.37Y-93.345
X166.37Y-103.505
X166.37Y-106.045
X166.37Y-116.205
X167.64Y-60.325
X167.64Y-64.135
X169.545Y-76.2
X169.545Y-79.375
X169.545Y-82.55
X169.545Y-85.725
X170.26Y-67.945
X175.26Y-67.945
X177.8Y-60.325
X177.8Y-64.135
X178.217Y-90.17
X178.217Y-115.57
X179.705Y-76.2
X179.705Y-79.375
X179.705Y-82.55
X179.705Y-85.725
X180.757Y-90.17
X180.757Y-115.57
X180.975Y-60.325
X180.975Y-64.135
X183.297Y-90.17
X183.297Y-115.57
X183.555Y-67.945
X185.837Y-90.17
X185.837Y-115.57
X188.377Y-90.17
X188.377Y-115.57
X188.555Y-67.945
X188.595Y-81.28
X188.595Y-84.455
X190.917Y-90.17
X190.917Y-115.57
X191.135Y-60.325
X191.135Y-64.135
X193.457Y-90.17
X193.457Y-115.57
X195.997Y-90.17
X195.997Y-115.57
X198.537Y-90.17
X198.537Y-115.57
X198.755Y-81.28
X198.755Y-84.455
X201.077Y-90.17
X201.077Y-115.57
X203.617Y-90.17
X203.617Y-115.57
X206.157Y-90.17
X206.157Y-115.57
X208.697Y-90.17
X208.697Y-115.57
X211.237Y-90.17
X211.237Y-115.57
X213.777Y-90.17
X213.777Y-115.57
X216.317Y-90.17
X216.317Y-115.57
X218.857Y-90.17
X218.857Y-115.57
X221.394Y-90.174
X221.397Y-115.57
X223.934Y-90.174
X223.937Y-115.57
T3
X131.445Y-104.14
X131.445Y-106.68
X136.525Y-62.23
X136.525Y-64.77
X136.525Y-67.31
X136.525Y-72.39
X136.525Y-74.93
X136.525Y-77.47
X136.525Y-82.55
X136.525Y-85.09
X136.525Y-87.63
X136.525Y-92.71
X136.525Y-95.25
X136.525Y-97.79
X136.525Y-104.14
X136.525Y-106.68
X136.525Y-109.22
X136.525Y-114.935
X136.525Y-117.475
X136.525Y-120.015
X161.925Y-60.96
X161.925Y-63.5
X163.195Y-122.555
X163.83Y-78.74
X163.83Y-81.28
X163.83Y-83.82
X163.83Y-86.36
X165.735Y-122.555
X204.28Y-81.66
X204.61Y-65.66
X206.82Y-81.66
X207.11Y-65.66
X209.36Y-81.66
X209.61Y-65.66
X211.9Y-81.66
X212.11Y-65.66
X214.44Y-81.66
X214.61Y-65.66
X216.98Y-81.66
X217.11Y-65.66
X219.52Y-81.66
X219.61Y-65.66
X222.06Y-81.66
X222.11Y-65.66
M30
