<?xml version="1.0" standalone="no"?>
 <!DOCTYPE svg PUBLIC "-//W3C//DTD SVG 1.1//EN" 
 "http://www.w3.org/Graphics/SVG/1.1/DTD/svg11.dtd"> 
<svg
  xmlns:svg="http://www.w3.org/2000/svg"
  xmlns="http://www.w3.org/2000/svg"
  xmlns:xlink="http://www.w3.org/1999/xlink"
  xmlns:inkscape="http://www.inkscape.org/namespaces/inkscape"
  version="1.1"
  width="297.0022mm" height="210.0072mm" viewBox="0.0000 0.0000 297.0022 210.0072">
<title>SVG Image created as AVA-F_Cu.svg date 2026-09-01T12:14:01 </title>
  <desc>Image generated by PCBNEW </desc>
<g style="fill:#000000; fill-opacity:1.0000;stroke:#000000; stroke-opacity:1.0000;
stroke-linecap:round; stroke-linejoin:round;"
 transform="translate(0 0) scale(1 1)">
</g>
<g style="fill:#000000; fill-opacity:1.0000; stroke:none;">
<rect x="120.661190" y="45.246750" width="112.372620" height="88.552298" rx="0.000000" />
</g>
<g style="fill:#FFFFFF; fill-opacity:1.0000; stroke:none;">
<circle cx="166.3700" cy="93.3450" r="0.8000" /> 
<circle cx="166.3700" cy="103.5050" r="0.8000" /> 
<circle cx="141.6050" cy="64.1350" r="0.8000" /> 
<circle cx="151.7650" cy="64.1350" r="0.8000" /> 
<circle cx="141.6050" cy="81.2800" r="0.8000" /> 
<circle cx="151.7650" cy="81.2800" r="0.8000" /> 
<circle cx="142.2400" cy="104.1400" r="0.8000" /> 
<circle cx="152.4000" cy="104.1400" r="0.8000" /> 
<path style="fill:#FFFFFF; fill-opacity:1.0000; stroke:none;fill-rule:evenodd;"
d="M 134.8350,108.1650
133.1350,108.1650
133.1350,106.4650
134.8350,106.4650
Z" /> 
<circle cx="136.5250" cy="107.3150" r="0.8500" /> 
<circle cx="170.2600" cy="67.9450" r="0.8000" /> 
<circle cx="175.2600" cy="67.9450" r="0.8000" /> 
<circle cx="152.4000" cy="107.3150" r="0.8000" /> 
<circle cx="142.2400" cy="107.3150" r="0.8000" /> 
<path style="fill:#FFFFFF; fill-opacity:1.0000; stroke:none;fill-rule:evenodd;"
d="M 177.6166,116.5700
177.6166,114.5700
178.8166,114.5700
178.8166,116.5700
Z" /> 
</g>
<g style="fill:none; 
stroke:#FFFFFF; stroke-width:1.2000; stroke-opacity:1; 
stroke-linecap:round; stroke-linejoin:round;">
<path d="M180.7566 115.1700
L180.7566 115.9700
" />
<path d="M183.2966 115.1700
L183.2966 115.9700
" />
<path d="M185.8366 115.1700
L185.8366 115.9700
" />
<path d="M188.3766 115.1700
L188.3766 115.9700
" />
<path d="M190.9166 115.1700
L190.9166 115.9700
" />
<path d="M193.4566 115.1700
L193.4566 115.9700
" />
<path d="M195.9966 115.1700
L195.9966 115.9700
" />
<path d="M198.5366 115.1700
L198.5366 115.9700
" />
<path d="M201.0766 115.1700
L201.0766 115.9700
" />
<path d="M203.6166 115.1700
L203.6166 115.9700
" />
<path d="M206.1566 115.1700
L206.1566 115.9700
" />
<path d="M208.6966 115.1700
L208.6966 115.9700
" />
<path d="M211.2366 115.1700
L211.2366 115.9700
" />
<path d="M213.7766 115.1700
L213.7766 115.9700
" />
<path d="M216.3166 115.1700
L216.3166 115.9700
" />
<path d="M218.8566 115.1700
L218.8566 115.9700
" />
<path d="M221.3966 115.1700
L221.3966 115.9700
" />
<path d="M223.9366 115.1700
L223.9366 115.9700
" />
<path d="M223.9338 89.7737
L223.9338 90.5737
" />
<path d="M221.3938 89.7737
L221.3938 90.5737
" />
<path d="M218.8566 89.7700
L218.8566 90.5700
" />
<path d="M216.3166 89.7700
L216.3166 90.5700
" />
<path d="M213.7766 89.7700
L213.7766 90.5700
" />
<path d="M211.2366 89.7700
L211.2366 90.5700
" />
<path d="M208.6966 89.7700
L208.6966 90.5700
" />
<path d="M206.1566 89.7700
L206.1566 90.5700
" />
<path d="M203.6166 89.7700
L203.6166 90.5700
" />
<path d="M201.0766 89.7700
L201.0766 90.5700
" />
<path d="M198.5366 89.7700
L198.5366 90.5700
" />
<path d="M195.9966 89.7700
L195.9966 90.5700
" />
<path d="M193.4566 89.7700
L193.4566 90.5700
" />
<path d="M190.9166 89.7700
L190.9166 90.5700
" />
<path d="M188.3766 89.7700
L188.3766 90.5700
" />
<path d="M185.8366 89.7700
L185.8366 90.5700
" />
<path d="M183.2966 89.7700
L183.2966 90.5700
" />
<path d="M180.7566 89.7700
L180.7566 90.5700
" />
<path d="M178.2166 89.7700
L178.2166 90.5700
" />
</g>
<g style="fill:#FFFFFF; fill-opacity:1.0000; stroke:none;">
<circle cx="141.6050" cy="94.6150" r="0.8000" /> 
<circle cx="151.7650" cy="94.6150" r="0.8000" /> 
<circle cx="198.7550" cy="84.4550" r="0.8000" /> 
<circle cx="188.5950" cy="84.4550" r="0.8000" /> 
<circle cx="142.2400" cy="113.6650" r="0.8000" /> 
<circle cx="152.4000" cy="113.6650" r="0.8000" /> 
<circle cx="144.1850" cy="97.7900" r="0.8000" /> 
<circle cx="149.1850" cy="97.7900" r="0.8000" /> 
<path style="fill:#FFFFFF; fill-opacity:1.0000; stroke:none;fill-rule:evenodd;"
d="M 164.0450,123.4050
162.3450,123.4050
162.3450,121.7050
164.0450,121.7050
Z" /> 
<circle cx="165.7350" cy="122.5550" r="0.8500" /> 
<circle cx="166.3700" cy="106.0450" r="0.8000" /> 
<circle cx="166.3700" cy="116.2050" r="0.8000" /> 
<circle cx="183.5550" cy="67.9450" r="0.8000" /> 
<circle cx="188.5550" cy="67.9450" r="0.8000" /> 
<path style="fill:#FFFFFF; fill-opacity:1.0000; stroke:none;fill-rule:evenodd;"
d="M 135.6750,86.7800
137.3750,86.7800
137.3750,88.4800
135.6750,88.4800
Z" /> 
<circle cx="133.9850" cy="87.6300" r="0.8500" /> 
<circle cx="131.4450" cy="87.6300" r="0.8500" /> 
<circle cx="144.1850" cy="67.3100" r="0.8000" /> 
<circle cx="149.1850" cy="67.3100" r="0.8000" /> 
<circle cx="170.1800" cy="76.8350" r="0.8000" /> 
<circle cx="180.3400" cy="76.8350" r="0.8000" /> 
<path style="fill:#FFFFFF; fill-opacity:1.0000; stroke:none;fill-rule:evenodd;"
d="M 135.6750,96.9400
137.3750,96.9400
137.3750,98.6400
135.6750,98.6400
Z" /> 
<circle cx="133.9850" cy="97.7900" r="0.8500" /> 
<circle cx="131.4450" cy="97.7900" r="0.8500" /> 
<circle cx="162.5600" cy="93.3450" r="0.8000" /> 
<circle cx="162.5600" cy="103.5050" r="0.8000" /> 
<path style="fill:#FFFFFF; fill-opacity:1.0000; stroke:none;fill-rule:evenodd;"
d="M 162.3450,80.2250
162.3450,78.5250
164.0450,78.5250
164.0450,80.2250
Z" /> 
<circle cx="163.1950" cy="81.9150" r="0.8500" /> 
<circle cx="163.1950" cy="84.4550" r="0.8500" /> 
<circle cx="163.1950" cy="86.9950" r="0.8500" /> 
<circle cx="141.6050" cy="84.4550" r="0.8000" /> 
<circle cx="151.7650" cy="84.4550" r="0.8000" /> 
<circle cx="170.1800" cy="86.3600" r="0.8000" /> 
<circle cx="180.3400" cy="86.3600" r="0.8000" /> 
<circle cx="167.6400" cy="60.3250" r="0.8000" /> 
<circle cx="177.8000" cy="60.3250" r="0.8000" /> 
<path style="fill:#FFFFFF; fill-opacity:1.0000; stroke:none;fill-rule:evenodd;"
d="M 135.6750,66.4600
137.3750,66.4600
137.3750,68.1600
135.6750,68.1600
Z" /> 
<circle cx="133.9850" cy="67.3100" r="0.8500" /> 
<circle cx="131.4450" cy="67.3100" r="0.8500" /> 
<circle cx="170.1800" cy="80.0100" r="0.8000" /> 
<circle cx="180.3400" cy="80.0100" r="0.8000" /> 
<circle cx="198.7550" cy="81.2800" r="0.8000" /> 
<circle cx="188.5950" cy="81.2800" r="0.8000" /> 
<circle cx="180.9750" cy="64.1350" r="0.8000" /> 
<circle cx="191.1350" cy="64.1350" r="0.8000" /> 
<path style="fill:#FFFFFF; fill-opacity:1.0000; stroke:none;fill-rule:evenodd;"
d="M 132.2950,117.0550
130.5950,117.0550
130.5950,115.3550
132.2950,115.3550
Z" /> 
<circle cx="133.9850" cy="116.2050" r="0.8500" /> 
<circle cx="136.5250" cy="116.2050" r="0.8500" /> 
<path style="fill:#FFFFFF; fill-opacity:1.0000; stroke:none;fill-rule:evenodd;"
d="M 159.1700,61.8100
159.1700,60.1100
160.8700,60.1100
160.8700,61.8100
Z" /> 
<circle cx="160.0200" cy="63.5000" r="0.8500" /> 
<circle cx="141.6050" cy="71.1200" r="0.8000" /> 
<circle cx="151.7650" cy="71.1200" r="0.8000" /> 
<path style="fill:#FFFFFF; fill-opacity:1.0000; stroke:none;fill-rule:evenodd;"
d="M 145.6300,122.7700
143.9300,122.7700
143.9300,121.0700
145.6300,121.0700
Z" /> 
<circle cx="147.3200" cy="121.9200" r="0.8500" /> 
<circle cx="149.8600" cy="121.9200" r="0.8500" /> 
<path style="fill:#FFFFFF; fill-opacity:1.0000; stroke:none;fill-rule:evenodd;"
d="M 135.6750,76.6200
137.3750,76.6200
137.3750,78.3200
135.6750,78.3200
Z" /> 
<circle cx="133.9850" cy="77.4700" r="0.8500" /> 
<circle cx="131.4450" cy="77.4700" r="0.8500" /> 
<circle cx="167.6400" cy="64.1350" r="0.8000" /> 
<circle cx="177.8000" cy="64.1350" r="0.8000" /> 
<circle cx="162.5600" cy="106.0450" r="0.8000" /> 
<circle cx="162.5600" cy="116.2050" r="0.8000" /> 
<circle cx="144.1850" cy="87.6300" r="0.8000" /> 
<circle cx="149.1850" cy="87.6300" r="0.8000" /> 
<circle cx="141.6050" cy="74.2950" r="0.8000" /> 
<circle cx="151.7650" cy="74.2950" r="0.8000" /> 
<circle cx="141.6050" cy="91.4400" r="0.8000" /> 
<circle cx="151.7650" cy="91.4400" r="0.8000" /> 
<circle cx="142.2400" cy="110.4900" r="0.8000" /> 
<circle cx="152.4000" cy="110.4900" r="0.8000" /> 
<circle cx="180.9750" cy="60.3250" r="0.8000" /> 
<circle cx="191.1350" cy="60.3250" r="0.8000" /> 
<circle cx="180.3400" cy="83.1850" r="0.8000" /> 
<circle cx="170.1800" cy="83.1850" r="0.8000" /> 
<circle cx="141.6050" cy="60.9600" r="0.8000" /> 
<circle cx="151.7650" cy="60.9600" r="0.8000" /> 
<circle cx="144.1850" cy="77.4700" r="0.8000" /> 
<circle cx="149.1850" cy="77.4700" r="0.8000" /> 
<circle cx="222.0600" cy="81.6600" r="0.7540" /> 
<circle cx="219.5200" cy="81.6600" r="0.7540" /> 
<circle cx="216.9800" cy="81.6600" r="0.7540" /> 
<circle cx="214.4400" cy="81.6600" r="0.7540" /> 
<circle cx="211.9000" cy="81.6600" r="0.7540" /> 
<circle cx="209.3600" cy="81.6600" r="0.7540" /> 
<circle cx="206.8200" cy="81.6600" r="0.7540" /> 
<circle cx="204.2800" cy="81.6600" r="0.7540" /> 
<circle cx="204.6100" cy="65.6600" r="0.7540" /> 
<circle cx="207.1100" cy="65.6600" r="0.7540" /> 
<circle cx="209.6100" cy="65.6600" r="0.7540" /> 
<circle cx="212.1100" cy="65.6600" r="0.7540" /> 
<circle cx="214.6100" cy="65.6600" r="0.7540" /> 
<circle cx="217.1100" cy="65.6600" r="0.7540" /> 
<circle cx="219.6100" cy="65.6600" r="0.7540" /> 
<circle cx="222.1100" cy="65.6600" r="0.7540" /> 
<circle cx="193.6750" cy="76.1300" r="0.8000" /> 
<circle cx="193.6750" cy="69.5900" r="0.8000" /> 
<circle cx="151.7650" cy="87.6300" r="0.8000" /> 
<circle cx="161.9250" cy="68.0150" r="0.8000" /> 
<circle cx="161.9250" cy="74.5550" r="0.8000" /> 
<circle cx="159.3850" cy="87.6300" r="0.8000" /> 
<circle cx="160.0200" cy="77.4700" r="0.8000" /> 
<circle cx="151.7650" cy="77.4700" r="0.8000" /> 
<circle cx="178.4350" cy="67.9450" r="0.8000" /> 
<circle cx="184.7850" cy="74.5550" r="0.8000" /> 
<circle cx="151.7099" cy="55.8249" r="0.8000" /> 
<circle cx="155.6025" cy="59.7175" r="0.8000" /> 
</g>
<g style="fill:none; 
stroke:#FFFFFF; stroke-width:0.8000; stroke-opacity:1; 
stroke-linecap:round; stroke-linejoin:round;">
<path d="M151.7650 87.6300
L159.3850 87.6300
" />
<path d="M193.6750 69.5900
L193.6750 76.1300
" />
<path d="M161.9250 68.0150
L161.9250 74.5550
" />
<path d="M151.7650 77.4700
L160.0200 77.4700
" />
<path d="M178.4350 67.9450
L184.7850 74.2950
" />
<path d="M184.7850 74.2950
L184.7850 74.5550
" />
<path d="M155.6025 59.7175
L151.7099 55.8249
" />
</g>
<g style="fill:#000000; fill-opacity:1.0000; stroke:none;">
<circle cx="193.6750" cy="76.1300" r="0.1750" /> 
<circle cx="193.6750" cy="69.5900" r="0.1750" /> 
<circle cx="151.7650" cy="87.6300" r="0.1750" /> 
<circle cx="161.9250" cy="68.0150" r="0.1750" /> 
<circle cx="161.9250" cy="74.5550" r="0.1750" /> 
<circle cx="159.3850" cy="87.6300" r="0.1750" /> 
<circle cx="160.0200" cy="77.4700" r="0.1750" /> 
<circle cx="151.7650" cy="77.4700" r="0.1750" /> 
<circle cx="178.4350" cy="67.9450" r="0.1750" /> 
<circle cx="184.7850" cy="74.5550" r="0.1750" /> 
<circle cx="151.7099" cy="55.8249" r="0.1750" /> 
<circle cx="155.6025" cy="59.7175" r="0.1750" /> 
</g>
<g style="fill:#000000; fill-opacity:1.0000; stroke:none;">
<circle cx="166.3700" cy="93.3450" r="0.1750" /> 
</g>
<g style="fill:#000000; fill-opacity:1.0000; stroke:none;">
<circle cx="166.3700" cy="103.5050" r="0.1750" /> 
</g>
<g style="fill:#000000; fill-opacity:1.0000; stroke:none;">
<circle cx="141.6050" cy="64.1350" r="0.1750" /> 
</g>
<g style="fill:#000000; fill-opacity:1.0000; stroke:none;">
<circle cx="151.7650" cy="64.1350" r="0.1750" /> 
</g>
<g style="fill:#000000; fill-opacity:1.0000; stroke:none;">
<circle cx="141.6050" cy="81.2800" r="0.1750" /> 
</g>
<g style="fill:#000000; fill-opacity:1.0000; stroke:none;">
<circle cx="151.7650" cy="81.2800" r="0.1750" /> 
</g>
<g style="fill:#000000; fill-opacity:1.0000; stroke:none;">
<circle cx="142.2400" cy="104.1400" r="0.1750" /> 
</g>
<g style="fill:#000000; fill-opacity:1.0000; stroke:none;">
<circle cx="152.4000" cy="104.1400" r="0.1750" /> 
</g>
<g style="fill:#000000; fill-opacity:1.0000; stroke:none;">
<circle cx="133.9850" cy="107.3150" r="0.1750" /> 
</g>
<g style="fill:#000000; fill-opacity:1.0000; stroke:none;">
<circle cx="136.5250" cy="107.3150" r="0.1750" /> 
</g>
<g style="fill:#000000; fill-opacity:1.0000; stroke:none;">
<circle cx="170.2600" cy="67.9450" r="0.1750" /> 
</g>
<g style="fill:#000000; fill-opacity:1.0000; stroke:none;">
<circle cx="175.2600" cy="67.9450" r="0.1750" /> 
</g>
<g style="fill:#000000; fill-opacity:1.0000; stroke:none;">
<circle cx="152.4000" cy="107.3150" r="0.1750" /> 
</g>
<g style="fill:#000000; fill-opacity:1.0000; stroke:none;">
<circle cx="142.2400" cy="107.3150" r="0.1750" /> 
</g>
<g style="fill:#000000; fill-opacity:1.0000; stroke:none;">
<circle cx="178.2166" cy="115.5700" r="0.1750" /> 
</g>
<g style="fill:#000000; fill-opacity:1.0000; stroke:none;">
<circle cx="180.7566" cy="115.5700" r="0.1750" /> 
</g>
<g style="fill:#000000; fill-opacity:1.0000; stroke:none;">
<circle cx="183.2966" cy="115.5700" r="0.1750" /> 
</g>
<g style="fill:#000000; fill-opacity:1.0000; stroke:none;">
<circle cx="185.8366" cy="115.5700" r="0.1750" /> 
</g>
<g style="fill:#000000; fill-opacity:1.0000; stroke:none;">
<circle cx="188.3766" cy="115.5700" r="0.1750" /> 
</g>
<g style="fill:#000000; fill-opacity:1.0000; stroke:none;">
<circle cx="190.9166" cy="115.5700" r="0.1750" /> 
</g>
<g style="fill:#000000; fill-opacity:1.0000; stroke:none;">
<circle cx="193.4566" cy="115.5700" r="0.1750" /> 
</g>
<g style="fill:#000000; fill-opacity:1.0000; stroke:none;">
<circle cx="195.9966" cy="115.5700" r="0.1750" /> 
</g>
<g style="fill:#000000; fill-opacity:1.0000; stroke:none;">
<circle cx="198.5366" cy="115.5700" r="0.1750" /> 
</g>
<g style="fill:#000000; fill-opacity:1.0000; stroke:none;">
<circle cx="201.0766" cy="115.5700" r="0.1750" /> 
</g>
<g style="fill:#000000; fill-opacity:1.0000; stroke:none;">
<circle cx="203.6166" cy="115.5700" r="0.1750" /> 
</g>
<g style="fill:#000000; fill-opacity:1.0000; stroke:none;">
<circle cx="206.1566" cy="115.5700" r="0.1750" /> 
</g>
<g style="fill:#000000; fill-opacity:1.0000; stroke:none;">
<circle cx="208.6966" cy="115.5700" r="0.1750" /> 
</g>
<g style="fill:#000000; fill-opacity:1.0000; stroke:none;">
<circle cx="211.2366" cy="115.5700" r="0.1750" /> 
</g>
<g style="fill:#000000; fill-opacity:1.0000; stroke:none;">
<circle cx="213.7766" cy="115.5700" r="0.1750" /> 
</g>
<g style="fill:#000000; fill-opacity:1.0000; stroke:none;">
<circle cx="216.3166" cy="115.5700" r="0.1750" /> 
</g>
<g style="fill:#000000; fill-opacity:1.0000; stroke:none;">
<circle cx="218.8566" cy="115.5700" r="0.1750" /> 
</g>
<g style="fill:#000000; fill-opacity:1.0000; stroke:none;">
<circle cx="221.3966" cy="115.5700" r="0.1750" /> 
</g>
<g style="fill:#000000; fill-opacity:1.0000; stroke:none;">
<circle cx="223.9366" cy="115.5700" r="0.1750" /> 
</g>
<g style="fill:#000000; fill-opacity:1.0000; stroke:none;">
<circle cx="223.9338" cy="90.1737" r="0.1750" /> 
</g>
<g style="fill:#000000; fill-opacity:1.0000; stroke:none;">
<circle cx="221.3938" cy="90.1737" r="0.1750" /> 
</g>
<g style="fill:#000000; fill-opacity:1.0000; stroke:none;">
<circle cx="218.8566" cy="90.1700" r="0.1750" /> 
</g>
<g style="fill:#000000; fill-opacity:1.0000; stroke:none;">
<circle cx="216.3166" cy="90.1700" r="0.1750" /> 
</g>
<g style="fill:#000000; fill-opacity:1.0000; stroke:none;">
<circle cx="213.7766" cy="90.1700" r="0.1750" /> 
</g>
<g style="fill:#000000; fill-opacity:1.0000; stroke:none;">
<circle cx="211.2366" cy="90.1700" r="0.1750" /> 
</g>
<g style="fill:#000000; fill-opacity:1.0000; stroke:none;">
<circle cx="208.6966" cy="90.1700" r="0.1750" /> 
</g>
<g style="fill:#000000; fill-opacity:1.0000; stroke:none;">
<circle cx="206.1566" cy="90.1700" r="0.1750" /> 
</g>
<g style="fill:#000000; fill-opacity:1.0000; stroke:none;">
<circle cx="203.6166" cy="90.1700" r="0.1750" /> 
</g>
<g style="fill:#000000; fill-opacity:1.0000; stroke:none;">
<circle cx="201.0766" cy="90.1700" r="0.1750" /> 
</g>
<g style="fill:#000000; fill-opacity:1.0000; stroke:none;">
<circle cx="198.5366" cy="90.1700" r="0.1750" /> 
</g>
<g style="fill:#000000; fill-opacity:1.0000; stroke:none;">
<circle cx="195.9966" cy="90.1700" r="0.1750" /> 
</g>
<g style="fill:#000000; fill-opacity:1.0000; stroke:none;">
<circle cx="193.4566" cy="90.1700" r="0.1750" /> 
</g>
<g style="fill:#000000; fill-opacity:1.0000; stroke:none;">
<circle cx="190.9166" cy="90.1700" r="0.1750" /> 
</g>
<g style="fill:#000000; fill-opacity:1.0000; stroke:none;">
<circle cx="188.3766" cy="90.1700" r="0.1750" /> 
</g>
<g style="fill:#000000; fill-opacity:1.0000; stroke:none;">
<circle cx="185.8366" cy="90.1700" r="0.1750" /> 
</g>
<g style="fill:#000000; fill-opacity:1.0000; stroke:none;">
<circle cx="183.2966" cy="90.1700" r="0.1750" /> 
</g>
<g style="fill:#000000; fill-opacity:1.0000; stroke:none;">
<circle cx="180.7566" cy="90.1700" r="0.1750" /> 
</g>
<g style="fill:#000000; fill-opacity:1.0000; stroke:none;">
<circle cx="178.2166" cy="90.1700" r="0.1750" /> 
</g>
<g style="fill:#000000; fill-opacity:1.0000; stroke:none;">
<circle cx="141.6050" cy="94.6150" r="0.1750" /> 
</g>
<g style="fill:#000000; fill-opacity:1.0000; stroke:none;">
<circle cx="151.7650" cy="94.6150" r="0.1750" /> 
</g>
<g style="fill:#000000; fill-opacity:1.0000; stroke:none;">
<circle cx="198.7550" cy="84.4550" r="0.1750" /> 
</g>
<g style="fill:#000000; fill-opacity:1.0000; stroke:none;">
<circle cx="188.5950" cy="84.4550" r="0.1750" /> 
</g>
<g style="fill:#000000; fill-opacity:1.0000; stroke:none;">
<circle cx="142.2400" cy="113.6650" r="0.1750" /> 
</g>
<g style="fill:#000000; fill-opacity:1.0000; stroke:none;">
<circle cx="152.4000" cy="113.6650" r="0.1750" /> 
</g>
<g style="fill:#000000; fill-opacity:1.0000; stroke:none;">
<circle cx="144.1850" cy="97.7900" r="0.1750" /> 
</g>
<g style="fill:#000000; fill-opacity:1.0000; stroke:none;">
<circle cx="149.1850" cy="97.7900" r="0.1750" /> 
</g>
<g style="fill:#000000; fill-opacity:1.0000; stroke:none;">
<circle cx="163.1950" cy="122.5550" r="0.1750" /> 
</g>
<g style="fill:#000000; fill-opacity:1.0000; stroke:none;">
<circle cx="165.7350" cy="122.5550" r="0.1750" /> 
</g>
<g style="fill:#000000; fill-opacity:1.0000; stroke:none;">
<circle cx="166.3700" cy="106.0450" r="0.1750" /> 
</g>
<g style="fill:#000000; fill-opacity:1.0000; stroke:none;">
<circle cx="166.3700" cy="116.2050" r="0.1750" /> 
</g>
<g style="fill:#000000; fill-opacity:1.0000; stroke:none;">
<circle cx="183.5550" cy="67.9450" r="0.1750" /> 
</g>
<g style="fill:#000000; fill-opacity:1.0000; stroke:none;">
<circle cx="188.5550" cy="67.9450" r="0.1750" /> 
</g>
<g style="fill:#000000; fill-opacity:1.0000; stroke:none;">
<circle cx="136.5250" cy="87.6300" r="0.1750" /> 
</g>
<g style="fill:#000000; fill-opacity:1.0000; stroke:none;">
<circle cx="133.9850" cy="87.6300" r="0.1750" /> 
</g>
<g style="fill:#000000; fill-opacity:1.0000; stroke:none;">
<circle cx="131.4450" cy="87.6300" r="0.1750" /> 
</g>
<g style="fill:#000000; fill-opacity:1.0000; stroke:none;">
<circle cx="144.1850" cy="67.3100" r="0.1750" /> 
</g>
<g style="fill:#000000; fill-opacity:1.0000; stroke:none;">
<circle cx="149.1850" cy="67.3100" r="0.1750" /> 
</g>
<g style="fill:#000000; fill-opacity:1.0000; stroke:none;">
<circle cx="170.1800" cy="76.8350" r="0.1750" /> 
</g>
<g style="fill:#000000; fill-opacity:1.0000; stroke:none;">
<circle cx="180.3400" cy="76.8350" r="0.1750" /> 
</g>
<g style="fill:#000000; fill-opacity:1.0000; stroke:none;">
<circle cx="136.5250" cy="97.7900" r="0.1750" /> 
</g>
<g style="fill:#000000; fill-opacity:1.0000; stroke:none;">
<circle cx="133.9850" cy="97.7900" r="0.1750" /> 
</g>
<g style="fill:#000000; fill-opacity:1.0000; stroke:none;">
<circle cx="131.4450" cy="97.7900" r="0.1750" /> 
</g>
<g style="fill:#000000; fill-opacity:1.0000; stroke:none;">
<circle cx="162.5600" cy="93.3450" r="0.1750" /> 
</g>
<g style="fill:#000000; fill-opacity:1.0000; stroke:none;">
<circle cx="162.5600" cy="103.5050" r="0.1750" /> 
</g>
<g style="fill:#000000; fill-opacity:1.0000; stroke:none;">
<circle cx="163.1950" cy="79.3750" r="0.1750" /> 
</g>
<g style="fill:#000000; fill-opacity:1.0000; stroke:none;">
<circle cx="163.1950" cy="81.9150" r="0.1750" /> 
</g>
<g style="fill:#000000; fill-opacity:1.0000; stroke:none;">
<circle cx="163.1950" cy="84.4550" r="0.1750" /> 
</g>
<g style="fill:#000000; fill-opacity:1.0000; stroke:none;">
<circle cx="163.1950" cy="86.9950" r="0.1750" /> 
</g>
<g style="fill:#000000; fill-opacity:1.0000; stroke:none;">
<circle cx="141.6050" cy="84.4550" r="0.1750" /> 
</g>
<g style="fill:#000000; fill-opacity:1.0000; stroke:none;">
<circle cx="151.7650" cy="84.4550" r="0.1750" /> 
</g>
<g style="fill:#000000; fill-opacity:1.0000; stroke:none;">
<circle cx="170.1800" cy="86.3600" r="0.1750" /> 
</g>
<g style="fill:#000000; fill-opacity:1.0000; stroke:none;">
<circle cx="180.3400" cy="86.3600" r="0.1750" /> 
</g>
<g style="fill:#FFFFFF; fill-opacity:1.0000; stroke:none;">
<circle cx="222.8850" cy="121.9200" r="0.1750" /> 
</g>
<g style="fill:#000000; fill-opacity:1.0000; stroke:none;">
<circle cx="167.6400" cy="60.3250" r="0.1750" /> 
</g>
<g style="fill:#000000; fill-opacity:1.0000; stroke:none;">
<circle cx="177.8000" cy="60.3250" r="0.1750" /> 
</g>
<g style="fill:#000000; fill-opacity:1.0000; stroke:none;">
<circle cx="136.5250" cy="67.3100" r="0.1750" /> 
</g>
<g style="fill:#000000; fill-opacity:1.0000; stroke:none;">
<circle cx="133.9850" cy="67.3100" r="0.1750" /> 
</g>
<g style="fill:#000000; fill-opacity:1.0000; stroke:none;">
<circle cx="131.4450" cy="67.3100" r="0.1750" /> 
</g>
<g style="fill:#000000; fill-opacity:1.0000; stroke:none;">
<circle cx="170.1800" cy="80.0100" r="0.1750" /> 
</g>
<g style="fill:#000000; fill-opacity:1.0000; stroke:none;">
<circle cx="180.3400" cy="80.0100" r="0.1750" /> 
</g>
<g style="fill:#000000; fill-opacity:1.0000; stroke:none;">
<circle cx="198.7550" cy="81.2800" r="0.1750" /> 
</g>
<g style="fill:#000000; fill-opacity:1.0000; stroke:none;">
<circle cx="188.5950" cy="81.2800" r="0.1750" /> 
</g>
<g style="fill:#000000; fill-opacity:1.0000; stroke:none;">
<circle cx="180.9750" cy="64.1350" r="0.1750" /> 
</g>
<g style="fill:#000000; fill-opacity:1.0000; stroke:none;">
<circle cx="191.1350" cy="64.1350" r="0.1750" /> 
</g>
<g style="fill:#000000; fill-opacity:1.0000; stroke:none;">
<circle cx="131.4450" cy="116.2050" r="0.1750" /> 
</g>
<g style="fill:#000000; fill-opacity:1.0000; stroke:none;">
<circle cx="133.9850" cy="116.2050" r="0.1750" /> 
</g>
<g style="fill:#000000; fill-opacity:1.0000; stroke:none;">
<circle cx="136.5250" cy="116.2050" r="0.1750" /> 
</g>
<g style="fill:#000000; fill-opacity:1.0000; stroke:none;">
<circle cx="160.0200" cy="60.9600" r="0.1750" /> 
</g>
<g style="fill:#000000; fill-opacity:1.0000; stroke:none;">
<circle cx="160.0200" cy="63.5000" r="0.1750" /> 
</g>
<g style="fill:#000000; fill-opacity:1.0000; stroke:none;">
<circle cx="141.6050" cy="71.1200" r="0.1750" /> 
</g>
<g style="fill:#000000; fill-opacity:1.0000; stroke:none;">
<circle cx="151.7650" cy="71.1200" r="0.1750" /> 
</g>
<g style="fill:#000000; fill-opacity:1.0000; stroke:none;">
<circle cx="144.7800" cy="121.9200" r="0.1750" /> 
</g>
<g style="fill:#000000; fill-opacity:1.0000; stroke:none;">
<circle cx="147.3200" cy="121.9200" r="0.1750" /> 
</g>
<g style="fill:#000000; fill-opacity:1.0000; stroke:none;">
<circle cx="149.8600" cy="121.9200" r="0.1750" /> 
</g>
<g style="fill:#FFFFFF; fill-opacity:1.0000; stroke:none;">
<circle cx="130.8100" cy="55.2450" r="0.1750" /> 
</g>
<g style="fill:#000000; fill-opacity:1.0000; stroke:none;">
<circle cx="136.5250" cy="77.4700" r="0.1750" /> 
</g>
<g style="fill:#000000; fill-opacity:1.0000; stroke:none;">
<circle cx="133.9850" cy="77.4700" r="0.1750" /> 
</g>
<g style="fill:#000000; fill-opacity:1.0000; stroke:none;">
<circle cx="131.4450" cy="77.4700" r="0.1750" /> 
</g>
<g style="fill:#000000; fill-opacity:1.0000; stroke:none;">
<circle cx="167.6400" cy="64.1350" r="0.1750" /> 
</g>
<g style="fill:#000000; fill-opacity:1.0000; stroke:none;">
<circle cx="177.8000" cy="64.1350" r="0.1750" /> 
</g>
<g style="fill:#000000; fill-opacity:1.0000; stroke:none;">
<circle cx="162.5600" cy="106.0450" r="0.1750" /> 
</g>
<g style="fill:#000000; fill-opacity:1.0000; stroke:none;">
<circle cx="162.5600" cy="116.2050" r="0.1750" /> 
</g>
<g style="fill:#000000; fill-opacity:1.0000; stroke:none;">
<circle cx="144.1850" cy="87.6300" r="0.1750" /> 
</g>
<g style="fill:#000000; fill-opacity:1.0000; stroke:none;">
<circle cx="149.1850" cy="87.6300" r="0.1750" /> 
</g>
<g style="fill:#000000; fill-opacity:1.0000; stroke:none;">
<circle cx="141.6050" cy="74.2950" r="0.1750" /> 
</g>
<g style="fill:#000000; fill-opacity:1.0000; stroke:none;">
<circle cx="151.7650" cy="74.2950" r="0.1750" /> 
</g>
<g style="fill:#000000; fill-opacity:1.0000; stroke:none;">
<circle cx="141.6050" cy="91.4400" r="0.1750" /> 
</g>
<g style="fill:#000000; fill-opacity:1.0000; stroke:none;">
<circle cx="151.7650" cy="91.4400" r="0.1750" /> 
</g>
<g style="fill:#000000; fill-opacity:1.0000; stroke:none;">
<circle cx="142.2400" cy="110.4900" r="0.1750" /> 
</g>
<g style="fill:#000000; fill-opacity:1.0000; stroke:none;">
<circle cx="152.4000" cy="110.4900" r="0.1750" /> 
</g>
<g style="fill:#000000; fill-opacity:1.0000; stroke:none;">
<circle cx="180.9750" cy="60.3250" r="0.1750" /> 
</g>
<g style="fill:#000000; fill-opacity:1.0000; stroke:none;">
<circle cx="191.1350" cy="60.3250" r="0.1750" /> 
</g>
<g style="fill:#FFFFFF; fill-opacity:1.0000; stroke:none;">
<circle cx="130.8100" cy="121.9200" r="0.1750" /> 
<circle cx="222.8850" cy="55.2450" r="0.1750" /> 
</g>
<g style="fill:#000000; fill-opacity:1.0000; stroke:none;">
<circle cx="180.3400" cy="83.1850" r="0.1750" /> 
</g>
<g style="fill:#000000; fill-opacity:1.0000; stroke:none;">
<circle cx="170.1800" cy="83.1850" r="0.1750" /> 
</g>
<g style="fill:#000000; fill-opacity:1.0000; stroke:none;">
<circle cx="141.6050" cy="60.9600" r="0.1750" /> 
</g>
<g style="fill:#000000; fill-opacity:1.0000; stroke:none;">
<circle cx="151.7650" cy="60.9600" r="0.1750" /> 
</g>
<g style="fill:#000000; fill-opacity:1.0000; stroke:none;">
<circle cx="144.1850" cy="77.4700" r="0.1750" /> 
</g>
<g style="fill:#000000; fill-opacity:1.0000; stroke:none;">
<circle cx="149.1850" cy="77.4700" r="0.1750" /> 
</g>
<g style="fill:#000000; fill-opacity:1.0000; stroke:none;">
<circle cx="222.0600" cy="81.6600" r="0.1750" /> 
</g>
<g style="fill:#000000; fill-opacity:1.0000; stroke:none;">
<circle cx="219.5200" cy="81.6600" r="0.1750" /> 
</g>
<g style="fill:#000000; fill-opacity:1.0000; stroke:none;">
<circle cx="216.9800" cy="81.6600" r="0.1750" /> 
</g>
<g style="fill:#000000; fill-opacity:1.0000; stroke:none;">
<circle cx="214.4400" cy="81.6600" r="0.1750" /> 
</g>
<g style="fill:#000000; fill-opacity:1.0000; stroke:none;">
<circle cx="211.9000" cy="81.6600" r="0.1750" /> 
</g>
<g style="fill:#000000; fill-opacity:1.0000; stroke:none;">
<circle cx="209.3600" cy="81.6600" r="0.1750" /> 
</g>
<g style="fill:#000000; fill-opacity:1.0000; stroke:none;">
<circle cx="206.8200" cy="81.6600" r="0.1750" /> 
</g>
<g style="fill:#000000; fill-opacity:1.0000; stroke:none;">
<circle cx="204.2800" cy="81.6600" r="0.1750" /> 
</g>
<g style="fill:#000000; fill-opacity:1.0000; stroke:none;">
<circle cx="204.6100" cy="65.6600" r="0.1750" /> 
</g>
<g style="fill:#000000; fill-opacity:1.0000; stroke:none;">
<circle cx="207.1100" cy="65.6600" r="0.1750" /> 
</g>
<g style="fill:#000000; fill-opacity:1.0000; stroke:none;">
<circle cx="209.6100" cy="65.6600" r="0.1750" /> 
</g>
<g style="fill:#000000; fill-opacity:1.0000; stroke:none;">
<circle cx="212.1100" cy="65.6600" r="0.1750" /> 
</g>
<g style="fill:#000000; fill-opacity:1.0000; stroke:none;">
<circle cx="214.6100" cy="65.6600" r="0.1750" /> 
</g>
<g style="fill:#000000; fill-opacity:1.0000; stroke:none;">
<circle cx="217.1100" cy="65.6600" r="0.1750" /> 
</g>
<g style="fill:#000000; fill-opacity:1.0000; stroke:none;">
<circle cx="219.6100" cy="65.6600" r="0.1750" /> 
</g>
<g style="fill:#000000; fill-opacity:1.0000; stroke:none;">
<circle cx="222.1100" cy="65.6600" r="0.1750" /> 
</g> 
</svg>
