%TF.GenerationSoftware,KiCad,Pcbnew,10.0.5*%
%TF.CreationDate,2026-08-28T14:51:15+02:00*%
%TF.ProjectId,AVA,4156412e-6b69-4636-9164-5f7063625858,rev?*%
%TF.SameCoordinates,Original*%
%TF.FileFunction,Legend,Top*%
%TF.FilePolarity,Positive*%
%FSLAX46Y46*%
G04 Gerber Fmt 4.6, Leading zero omitted, Abs format (unit mm)*
G04 Created by KiCad (PCBNEW 10.0.5) date 2026-08-28 14:51:15*
%MOMM*%
%LPD*%
G01*
G04 APERTURE LIST*
%ADD10C,0.150000*%
%ADD11C,0.120000*%
G04 APERTURE END LIST*
D10*
X138876819Y-62563333D02*
X139591104Y-62563333D01*
X139591104Y-62563333D02*
X139733961Y-62610952D01*
X139733961Y-62610952D02*
X139829200Y-62706190D01*
X139829200Y-62706190D02*
X139876819Y-62849047D01*
X139876819Y-62849047D02*
X139876819Y-62944285D01*
X139876819Y-61563333D02*
X139876819Y-62134761D01*
X139876819Y-61849047D02*
X138876819Y-61849047D01*
X138876819Y-61849047D02*
X139019676Y-61944285D01*
X139019676Y-61944285D02*
X139114914Y-62039523D01*
X139114914Y-62039523D02*
X139162533Y-62134761D01*
X138876819Y-82883333D02*
X139591104Y-82883333D01*
X139591104Y-82883333D02*
X139733961Y-82930952D01*
X139733961Y-82930952D02*
X139829200Y-83026190D01*
X139829200Y-83026190D02*
X139876819Y-83169047D01*
X139876819Y-83169047D02*
X139876819Y-83264285D01*
X138876819Y-82502380D02*
X138876819Y-81883333D01*
X138876819Y-81883333D02*
X139257771Y-82216666D01*
X139257771Y-82216666D02*
X139257771Y-82073809D01*
X139257771Y-82073809D02*
X139305390Y-81978571D01*
X139305390Y-81978571D02*
X139353009Y-81930952D01*
X139353009Y-81930952D02*
X139448247Y-81883333D01*
X139448247Y-81883333D02*
X139686342Y-81883333D01*
X139686342Y-81883333D02*
X139781580Y-81930952D01*
X139781580Y-81930952D02*
X139829200Y-81978571D01*
X139829200Y-81978571D02*
X139876819Y-82073809D01*
X139876819Y-82073809D02*
X139876819Y-82359523D01*
X139876819Y-82359523D02*
X139829200Y-82454761D01*
X139829200Y-82454761D02*
X139781580Y-82502380D01*
X154932142Y-110774819D02*
X154598809Y-110298628D01*
X154360714Y-110774819D02*
X154360714Y-109774819D01*
X154360714Y-109774819D02*
X154741666Y-109774819D01*
X154741666Y-109774819D02*
X154836904Y-109822438D01*
X154836904Y-109822438D02*
X154884523Y-109870057D01*
X154884523Y-109870057D02*
X154932142Y-109965295D01*
X154932142Y-109965295D02*
X154932142Y-110108152D01*
X154932142Y-110108152D02*
X154884523Y-110203390D01*
X154884523Y-110203390D02*
X154836904Y-110251009D01*
X154836904Y-110251009D02*
X154741666Y-110298628D01*
X154741666Y-110298628D02*
X154360714Y-110298628D01*
X155884523Y-110774819D02*
X155313095Y-110774819D01*
X155598809Y-110774819D02*
X155598809Y-109774819D01*
X155598809Y-109774819D02*
X155503571Y-109917676D01*
X155503571Y-109917676D02*
X155408333Y-110012914D01*
X155408333Y-110012914D02*
X155313095Y-110060533D01*
X156217857Y-109774819D02*
X156884523Y-109774819D01*
X156884523Y-109774819D02*
X156455952Y-110774819D01*
X181602142Y-81904819D02*
X181268809Y-81428628D01*
X181030714Y-81904819D02*
X181030714Y-80904819D01*
X181030714Y-80904819D02*
X181411666Y-80904819D01*
X181411666Y-80904819D02*
X181506904Y-80952438D01*
X181506904Y-80952438D02*
X181554523Y-81000057D01*
X181554523Y-81000057D02*
X181602142Y-81095295D01*
X181602142Y-81095295D02*
X181602142Y-81238152D01*
X181602142Y-81238152D02*
X181554523Y-81333390D01*
X181554523Y-81333390D02*
X181506904Y-81381009D01*
X181506904Y-81381009D02*
X181411666Y-81428628D01*
X181411666Y-81428628D02*
X181030714Y-81428628D01*
X182554523Y-81904819D02*
X181983095Y-81904819D01*
X182268809Y-81904819D02*
X182268809Y-80904819D01*
X182268809Y-80904819D02*
X182173571Y-81047676D01*
X182173571Y-81047676D02*
X182078333Y-81142914D01*
X182078333Y-81142914D02*
X181983095Y-81190533D01*
X183506904Y-81904819D02*
X182935476Y-81904819D01*
X183221190Y-81904819D02*
X183221190Y-80904819D01*
X183221190Y-80904819D02*
X183125952Y-81047676D01*
X183125952Y-81047676D02*
X183030714Y-81142914D01*
X183030714Y-81142914D02*
X182935476Y-81190533D01*
X182078333Y-78504580D02*
X182030714Y-78552200D01*
X182030714Y-78552200D02*
X181887857Y-78599819D01*
X181887857Y-78599819D02*
X181792619Y-78599819D01*
X181792619Y-78599819D02*
X181649762Y-78552200D01*
X181649762Y-78552200D02*
X181554524Y-78456961D01*
X181554524Y-78456961D02*
X181506905Y-78361723D01*
X181506905Y-78361723D02*
X181459286Y-78171247D01*
X181459286Y-78171247D02*
X181459286Y-78028390D01*
X181459286Y-78028390D02*
X181506905Y-77837914D01*
X181506905Y-77837914D02*
X181554524Y-77742676D01*
X181554524Y-77742676D02*
X181649762Y-77647438D01*
X181649762Y-77647438D02*
X181792619Y-77599819D01*
X181792619Y-77599819D02*
X181887857Y-77599819D01*
X181887857Y-77599819D02*
X182030714Y-77647438D01*
X182030714Y-77647438D02*
X182078333Y-77695057D01*
X182935476Y-77599819D02*
X182745000Y-77599819D01*
X182745000Y-77599819D02*
X182649762Y-77647438D01*
X182649762Y-77647438D02*
X182602143Y-77695057D01*
X182602143Y-77695057D02*
X182506905Y-77837914D01*
X182506905Y-77837914D02*
X182459286Y-78028390D01*
X182459286Y-78028390D02*
X182459286Y-78409342D01*
X182459286Y-78409342D02*
X182506905Y-78504580D01*
X182506905Y-78504580D02*
X182554524Y-78552200D01*
X182554524Y-78552200D02*
X182649762Y-78599819D01*
X182649762Y-78599819D02*
X182840238Y-78599819D01*
X182840238Y-78599819D02*
X182935476Y-78552200D01*
X182935476Y-78552200D02*
X182983095Y-78504580D01*
X182983095Y-78504580D02*
X183030714Y-78409342D01*
X183030714Y-78409342D02*
X183030714Y-78171247D01*
X183030714Y-78171247D02*
X182983095Y-78076009D01*
X182983095Y-78076009D02*
X182935476Y-78028390D01*
X182935476Y-78028390D02*
X182840238Y-77980771D01*
X182840238Y-77980771D02*
X182649762Y-77980771D01*
X182649762Y-77980771D02*
X182554524Y-78028390D01*
X182554524Y-78028390D02*
X182506905Y-78076009D01*
X182506905Y-78076009D02*
X182459286Y-78171247D01*
X142073333Y-70249580D02*
X142025714Y-70297200D01*
X142025714Y-70297200D02*
X141882857Y-70344819D01*
X141882857Y-70344819D02*
X141787619Y-70344819D01*
X141787619Y-70344819D02*
X141644762Y-70297200D01*
X141644762Y-70297200D02*
X141549524Y-70201961D01*
X141549524Y-70201961D02*
X141501905Y-70106723D01*
X141501905Y-70106723D02*
X141454286Y-69916247D01*
X141454286Y-69916247D02*
X141454286Y-69773390D01*
X141454286Y-69773390D02*
X141501905Y-69582914D01*
X141501905Y-69582914D02*
X141549524Y-69487676D01*
X141549524Y-69487676D02*
X141644762Y-69392438D01*
X141644762Y-69392438D02*
X141787619Y-69344819D01*
X141787619Y-69344819D02*
X141882857Y-69344819D01*
X141882857Y-69344819D02*
X142025714Y-69392438D01*
X142025714Y-69392438D02*
X142073333Y-69440057D01*
X142454286Y-69440057D02*
X142501905Y-69392438D01*
X142501905Y-69392438D02*
X142597143Y-69344819D01*
X142597143Y-69344819D02*
X142835238Y-69344819D01*
X142835238Y-69344819D02*
X142930476Y-69392438D01*
X142930476Y-69392438D02*
X142978095Y-69440057D01*
X142978095Y-69440057D02*
X143025714Y-69535295D01*
X143025714Y-69535295D02*
X143025714Y-69630533D01*
X143025714Y-69630533D02*
X142978095Y-69773390D01*
X142978095Y-69773390D02*
X142406667Y-70344819D01*
X142406667Y-70344819D02*
X143025714Y-70344819D01*
X171134819Y-122729523D02*
X171849104Y-122729523D01*
X171849104Y-122729523D02*
X171991961Y-122777142D01*
X171991961Y-122777142D02*
X172087200Y-122872380D01*
X172087200Y-122872380D02*
X172134819Y-123015237D01*
X172134819Y-123015237D02*
X172134819Y-123110475D01*
X172134819Y-121729523D02*
X172134819Y-122300951D01*
X172134819Y-122015237D02*
X171134819Y-122015237D01*
X171134819Y-122015237D02*
X171277676Y-122110475D01*
X171277676Y-122110475D02*
X171372914Y-122205713D01*
X171372914Y-122205713D02*
X171420533Y-122300951D01*
X171134819Y-121110475D02*
X171134819Y-121015237D01*
X171134819Y-121015237D02*
X171182438Y-120919999D01*
X171182438Y-120919999D02*
X171230057Y-120872380D01*
X171230057Y-120872380D02*
X171325295Y-120824761D01*
X171325295Y-120824761D02*
X171515771Y-120777142D01*
X171515771Y-120777142D02*
X171753866Y-120777142D01*
X171753866Y-120777142D02*
X171944342Y-120824761D01*
X171944342Y-120824761D02*
X172039580Y-120872380D01*
X172039580Y-120872380D02*
X172087200Y-120919999D01*
X172087200Y-120919999D02*
X172134819Y-121015237D01*
X172134819Y-121015237D02*
X172134819Y-121110475D01*
X172134819Y-121110475D02*
X172087200Y-121205713D01*
X172087200Y-121205713D02*
X172039580Y-121253332D01*
X172039580Y-121253332D02*
X171944342Y-121300951D01*
X171944342Y-121300951D02*
X171753866Y-121348570D01*
X171753866Y-121348570D02*
X171515771Y-121348570D01*
X171515771Y-121348570D02*
X171325295Y-121300951D01*
X171325295Y-121300951D02*
X171230057Y-121253332D01*
X171230057Y-121253332D02*
X171182438Y-121205713D01*
X171182438Y-121205713D02*
X171134819Y-121110475D01*
X152233333Y-90794819D02*
X151900000Y-90318628D01*
X151661905Y-90794819D02*
X151661905Y-89794819D01*
X151661905Y-89794819D02*
X152042857Y-89794819D01*
X152042857Y-89794819D02*
X152138095Y-89842438D01*
X152138095Y-89842438D02*
X152185714Y-89890057D01*
X152185714Y-89890057D02*
X152233333Y-89985295D01*
X152233333Y-89985295D02*
X152233333Y-90128152D01*
X152233333Y-90128152D02*
X152185714Y-90223390D01*
X152185714Y-90223390D02*
X152138095Y-90271009D01*
X152138095Y-90271009D02*
X152042857Y-90318628D01*
X152042857Y-90318628D02*
X151661905Y-90318628D01*
X152709524Y-90794819D02*
X152900000Y-90794819D01*
X152900000Y-90794819D02*
X152995238Y-90747200D01*
X152995238Y-90747200D02*
X153042857Y-90699580D01*
X153042857Y-90699580D02*
X153138095Y-90556723D01*
X153138095Y-90556723D02*
X153185714Y-90366247D01*
X153185714Y-90366247D02*
X153185714Y-89985295D01*
X153185714Y-89985295D02*
X153138095Y-89890057D01*
X153138095Y-89890057D02*
X153090476Y-89842438D01*
X153090476Y-89842438D02*
X152995238Y-89794819D01*
X152995238Y-89794819D02*
X152804762Y-89794819D01*
X152804762Y-89794819D02*
X152709524Y-89842438D01*
X152709524Y-89842438D02*
X152661905Y-89890057D01*
X152661905Y-89890057D02*
X152614286Y-89985295D01*
X152614286Y-89985295D02*
X152614286Y-90223390D01*
X152614286Y-90223390D02*
X152661905Y-90318628D01*
X152661905Y-90318628D02*
X152709524Y-90366247D01*
X152709524Y-90366247D02*
X152804762Y-90413866D01*
X152804762Y-90413866D02*
X152995238Y-90413866D01*
X152995238Y-90413866D02*
X153090476Y-90366247D01*
X153090476Y-90366247D02*
X153138095Y-90318628D01*
X153138095Y-90318628D02*
X153185714Y-90223390D01*
X222377095Y-51168819D02*
X222377095Y-50168819D01*
X222377095Y-50645009D02*
X222948523Y-50645009D01*
X222948523Y-51168819D02*
X222948523Y-50168819D01*
X223377095Y-50264057D02*
X223424714Y-50216438D01*
X223424714Y-50216438D02*
X223519952Y-50168819D01*
X223519952Y-50168819D02*
X223758047Y-50168819D01*
X223758047Y-50168819D02*
X223853285Y-50216438D01*
X223853285Y-50216438D02*
X223900904Y-50264057D01*
X223900904Y-50264057D02*
X223948523Y-50359295D01*
X223948523Y-50359295D02*
X223948523Y-50454533D01*
X223948523Y-50454533D02*
X223900904Y-50597390D01*
X223900904Y-50597390D02*
X223329476Y-51168819D01*
X223329476Y-51168819D02*
X223948523Y-51168819D01*
X129921095Y-118732819D02*
X129921095Y-117732819D01*
X129921095Y-118209009D02*
X130492523Y-118209009D01*
X130492523Y-118732819D02*
X130492523Y-117732819D01*
X130873476Y-117732819D02*
X131492523Y-117732819D01*
X131492523Y-117732819D02*
X131159190Y-118113771D01*
X131159190Y-118113771D02*
X131302047Y-118113771D01*
X131302047Y-118113771D02*
X131397285Y-118161390D01*
X131397285Y-118161390D02*
X131444904Y-118209009D01*
X131444904Y-118209009D02*
X131492523Y-118304247D01*
X131492523Y-118304247D02*
X131492523Y-118542342D01*
X131492523Y-118542342D02*
X131444904Y-118637580D01*
X131444904Y-118637580D02*
X131397285Y-118685200D01*
X131397285Y-118685200D02*
X131302047Y-118732819D01*
X131302047Y-118732819D02*
X131016333Y-118732819D01*
X131016333Y-118732819D02*
X130921095Y-118685200D01*
X130921095Y-118685200D02*
X130873476Y-118637580D01*
X184777142Y-125379819D02*
X184443809Y-124903628D01*
X184205714Y-125379819D02*
X184205714Y-124379819D01*
X184205714Y-124379819D02*
X184586666Y-124379819D01*
X184586666Y-124379819D02*
X184681904Y-124427438D01*
X184681904Y-124427438D02*
X184729523Y-124475057D01*
X184729523Y-124475057D02*
X184777142Y-124570295D01*
X184777142Y-124570295D02*
X184777142Y-124713152D01*
X184777142Y-124713152D02*
X184729523Y-124808390D01*
X184729523Y-124808390D02*
X184681904Y-124856009D01*
X184681904Y-124856009D02*
X184586666Y-124903628D01*
X184586666Y-124903628D02*
X184205714Y-124903628D01*
X185729523Y-125379819D02*
X185158095Y-125379819D01*
X185443809Y-125379819D02*
X185443809Y-124379819D01*
X185443809Y-124379819D02*
X185348571Y-124522676D01*
X185348571Y-124522676D02*
X185253333Y-124617914D01*
X185253333Y-124617914D02*
X185158095Y-124665533D01*
X186300952Y-124808390D02*
X186205714Y-124760771D01*
X186205714Y-124760771D02*
X186158095Y-124713152D01*
X186158095Y-124713152D02*
X186110476Y-124617914D01*
X186110476Y-124617914D02*
X186110476Y-124570295D01*
X186110476Y-124570295D02*
X186158095Y-124475057D01*
X186158095Y-124475057D02*
X186205714Y-124427438D01*
X186205714Y-124427438D02*
X186300952Y-124379819D01*
X186300952Y-124379819D02*
X186491428Y-124379819D01*
X186491428Y-124379819D02*
X186586666Y-124427438D01*
X186586666Y-124427438D02*
X186634285Y-124475057D01*
X186634285Y-124475057D02*
X186681904Y-124570295D01*
X186681904Y-124570295D02*
X186681904Y-124617914D01*
X186681904Y-124617914D02*
X186634285Y-124713152D01*
X186634285Y-124713152D02*
X186586666Y-124760771D01*
X186586666Y-124760771D02*
X186491428Y-124808390D01*
X186491428Y-124808390D02*
X186300952Y-124808390D01*
X186300952Y-124808390D02*
X186205714Y-124856009D01*
X186205714Y-124856009D02*
X186158095Y-124903628D01*
X186158095Y-124903628D02*
X186110476Y-124998866D01*
X186110476Y-124998866D02*
X186110476Y-125189342D01*
X186110476Y-125189342D02*
X186158095Y-125284580D01*
X186158095Y-125284580D02*
X186205714Y-125332200D01*
X186205714Y-125332200D02*
X186300952Y-125379819D01*
X186300952Y-125379819D02*
X186491428Y-125379819D01*
X186491428Y-125379819D02*
X186586666Y-125332200D01*
X186586666Y-125332200D02*
X186634285Y-125284580D01*
X186634285Y-125284580D02*
X186681904Y-125189342D01*
X186681904Y-125189342D02*
X186681904Y-124998866D01*
X186681904Y-124998866D02*
X186634285Y-124903628D01*
X186634285Y-124903628D02*
X186586666Y-124856009D01*
X186586666Y-124856009D02*
X186491428Y-124808390D01*
X184142142Y-97174819D02*
X183808809Y-96698628D01*
X183570714Y-97174819D02*
X183570714Y-96174819D01*
X183570714Y-96174819D02*
X183951666Y-96174819D01*
X183951666Y-96174819D02*
X184046904Y-96222438D01*
X184046904Y-96222438D02*
X184094523Y-96270057D01*
X184094523Y-96270057D02*
X184142142Y-96365295D01*
X184142142Y-96365295D02*
X184142142Y-96508152D01*
X184142142Y-96508152D02*
X184094523Y-96603390D01*
X184094523Y-96603390D02*
X184046904Y-96651009D01*
X184046904Y-96651009D02*
X183951666Y-96698628D01*
X183951666Y-96698628D02*
X183570714Y-96698628D01*
X184523095Y-96270057D02*
X184570714Y-96222438D01*
X184570714Y-96222438D02*
X184665952Y-96174819D01*
X184665952Y-96174819D02*
X184904047Y-96174819D01*
X184904047Y-96174819D02*
X184999285Y-96222438D01*
X184999285Y-96222438D02*
X185046904Y-96270057D01*
X185046904Y-96270057D02*
X185094523Y-96365295D01*
X185094523Y-96365295D02*
X185094523Y-96460533D01*
X185094523Y-96460533D02*
X185046904Y-96603390D01*
X185046904Y-96603390D02*
X184475476Y-97174819D01*
X184475476Y-97174819D02*
X185094523Y-97174819D01*
X186046904Y-97174819D02*
X185475476Y-97174819D01*
X185761190Y-97174819D02*
X185761190Y-96174819D01*
X185761190Y-96174819D02*
X185665952Y-96317676D01*
X185665952Y-96317676D02*
X185570714Y-96412914D01*
X185570714Y-96412914D02*
X185475476Y-96460533D01*
X181602142Y-85079819D02*
X181268809Y-84603628D01*
X181030714Y-85079819D02*
X181030714Y-84079819D01*
X181030714Y-84079819D02*
X181411666Y-84079819D01*
X181411666Y-84079819D02*
X181506904Y-84127438D01*
X181506904Y-84127438D02*
X181554523Y-84175057D01*
X181554523Y-84175057D02*
X181602142Y-84270295D01*
X181602142Y-84270295D02*
X181602142Y-84413152D01*
X181602142Y-84413152D02*
X181554523Y-84508390D01*
X181554523Y-84508390D02*
X181506904Y-84556009D01*
X181506904Y-84556009D02*
X181411666Y-84603628D01*
X181411666Y-84603628D02*
X181030714Y-84603628D01*
X182554523Y-85079819D02*
X181983095Y-85079819D01*
X182268809Y-85079819D02*
X182268809Y-84079819D01*
X182268809Y-84079819D02*
X182173571Y-84222676D01*
X182173571Y-84222676D02*
X182078333Y-84317914D01*
X182078333Y-84317914D02*
X181983095Y-84365533D01*
X182935476Y-84175057D02*
X182983095Y-84127438D01*
X182983095Y-84127438D02*
X183078333Y-84079819D01*
X183078333Y-84079819D02*
X183316428Y-84079819D01*
X183316428Y-84079819D02*
X183411666Y-84127438D01*
X183411666Y-84127438D02*
X183459285Y-84175057D01*
X183459285Y-84175057D02*
X183506904Y-84270295D01*
X183506904Y-84270295D02*
X183506904Y-84365533D01*
X183506904Y-84365533D02*
X183459285Y-84508390D01*
X183459285Y-84508390D02*
X182887857Y-85079819D01*
X182887857Y-85079819D02*
X183506904Y-85079819D01*
X140327142Y-110774819D02*
X139993809Y-110298628D01*
X139755714Y-110774819D02*
X139755714Y-109774819D01*
X139755714Y-109774819D02*
X140136666Y-109774819D01*
X140136666Y-109774819D02*
X140231904Y-109822438D01*
X140231904Y-109822438D02*
X140279523Y-109870057D01*
X140279523Y-109870057D02*
X140327142Y-109965295D01*
X140327142Y-109965295D02*
X140327142Y-110108152D01*
X140327142Y-110108152D02*
X140279523Y-110203390D01*
X140279523Y-110203390D02*
X140231904Y-110251009D01*
X140231904Y-110251009D02*
X140136666Y-110298628D01*
X140136666Y-110298628D02*
X139755714Y-110298628D01*
X141279523Y-110774819D02*
X140708095Y-110774819D01*
X140993809Y-110774819D02*
X140993809Y-109774819D01*
X140993809Y-109774819D02*
X140898571Y-109917676D01*
X140898571Y-109917676D02*
X140803333Y-110012914D01*
X140803333Y-110012914D02*
X140708095Y-110060533D01*
X142184285Y-109774819D02*
X141708095Y-109774819D01*
X141708095Y-109774819D02*
X141660476Y-110251009D01*
X141660476Y-110251009D02*
X141708095Y-110203390D01*
X141708095Y-110203390D02*
X141803333Y-110155771D01*
X141803333Y-110155771D02*
X142041428Y-110155771D01*
X142041428Y-110155771D02*
X142136666Y-110203390D01*
X142136666Y-110203390D02*
X142184285Y-110251009D01*
X142184285Y-110251009D02*
X142231904Y-110346247D01*
X142231904Y-110346247D02*
X142231904Y-110584342D01*
X142231904Y-110584342D02*
X142184285Y-110679580D01*
X142184285Y-110679580D02*
X142136666Y-110727200D01*
X142136666Y-110727200D02*
X142041428Y-110774819D01*
X142041428Y-110774819D02*
X141803333Y-110774819D01*
X141803333Y-110774819D02*
X141708095Y-110727200D01*
X141708095Y-110727200D02*
X141660476Y-110679580D01*
X181602142Y-75554819D02*
X181268809Y-75078628D01*
X181030714Y-75554819D02*
X181030714Y-74554819D01*
X181030714Y-74554819D02*
X181411666Y-74554819D01*
X181411666Y-74554819D02*
X181506904Y-74602438D01*
X181506904Y-74602438D02*
X181554523Y-74650057D01*
X181554523Y-74650057D02*
X181602142Y-74745295D01*
X181602142Y-74745295D02*
X181602142Y-74888152D01*
X181602142Y-74888152D02*
X181554523Y-74983390D01*
X181554523Y-74983390D02*
X181506904Y-75031009D01*
X181506904Y-75031009D02*
X181411666Y-75078628D01*
X181411666Y-75078628D02*
X181030714Y-75078628D01*
X182554523Y-75554819D02*
X181983095Y-75554819D01*
X182268809Y-75554819D02*
X182268809Y-74554819D01*
X182268809Y-74554819D02*
X182173571Y-74697676D01*
X182173571Y-74697676D02*
X182078333Y-74792914D01*
X182078333Y-74792914D02*
X181983095Y-74840533D01*
X183411666Y-74888152D02*
X183411666Y-75554819D01*
X183173571Y-74507200D02*
X182935476Y-75221485D01*
X182935476Y-75221485D02*
X183554523Y-75221485D01*
X135723333Y-84444819D02*
X135390000Y-83968628D01*
X135151905Y-84444819D02*
X135151905Y-83444819D01*
X135151905Y-83444819D02*
X135532857Y-83444819D01*
X135532857Y-83444819D02*
X135628095Y-83492438D01*
X135628095Y-83492438D02*
X135675714Y-83540057D01*
X135675714Y-83540057D02*
X135723333Y-83635295D01*
X135723333Y-83635295D02*
X135723333Y-83778152D01*
X135723333Y-83778152D02*
X135675714Y-83873390D01*
X135675714Y-83873390D02*
X135628095Y-83921009D01*
X135628095Y-83921009D02*
X135532857Y-83968628D01*
X135532857Y-83968628D02*
X135151905Y-83968628D01*
X136294762Y-83873390D02*
X136199524Y-83825771D01*
X136199524Y-83825771D02*
X136151905Y-83778152D01*
X136151905Y-83778152D02*
X136104286Y-83682914D01*
X136104286Y-83682914D02*
X136104286Y-83635295D01*
X136104286Y-83635295D02*
X136151905Y-83540057D01*
X136151905Y-83540057D02*
X136199524Y-83492438D01*
X136199524Y-83492438D02*
X136294762Y-83444819D01*
X136294762Y-83444819D02*
X136485238Y-83444819D01*
X136485238Y-83444819D02*
X136580476Y-83492438D01*
X136580476Y-83492438D02*
X136628095Y-83540057D01*
X136628095Y-83540057D02*
X136675714Y-83635295D01*
X136675714Y-83635295D02*
X136675714Y-83682914D01*
X136675714Y-83682914D02*
X136628095Y-83778152D01*
X136628095Y-83778152D02*
X136580476Y-83825771D01*
X136580476Y-83825771D02*
X136485238Y-83873390D01*
X136485238Y-83873390D02*
X136294762Y-83873390D01*
X136294762Y-83873390D02*
X136199524Y-83921009D01*
X136199524Y-83921009D02*
X136151905Y-83968628D01*
X136151905Y-83968628D02*
X136104286Y-84063866D01*
X136104286Y-84063866D02*
X136104286Y-84254342D01*
X136104286Y-84254342D02*
X136151905Y-84349580D01*
X136151905Y-84349580D02*
X136199524Y-84397200D01*
X136199524Y-84397200D02*
X136294762Y-84444819D01*
X136294762Y-84444819D02*
X136485238Y-84444819D01*
X136485238Y-84444819D02*
X136580476Y-84397200D01*
X136580476Y-84397200D02*
X136628095Y-84349580D01*
X136628095Y-84349580D02*
X136675714Y-84254342D01*
X136675714Y-84254342D02*
X136675714Y-84063866D01*
X136675714Y-84063866D02*
X136628095Y-83968628D01*
X136628095Y-83968628D02*
X136580476Y-83921009D01*
X136580476Y-83921009D02*
X136485238Y-83873390D01*
X149084819Y-122253333D02*
X149799104Y-122253333D01*
X149799104Y-122253333D02*
X149941961Y-122300952D01*
X149941961Y-122300952D02*
X150037200Y-122396190D01*
X150037200Y-122396190D02*
X150084819Y-122539047D01*
X150084819Y-122539047D02*
X150084819Y-122634285D01*
X150084819Y-121729523D02*
X150084819Y-121539047D01*
X150084819Y-121539047D02*
X150037200Y-121443809D01*
X150037200Y-121443809D02*
X149989580Y-121396190D01*
X149989580Y-121396190D02*
X149846723Y-121300952D01*
X149846723Y-121300952D02*
X149656247Y-121253333D01*
X149656247Y-121253333D02*
X149275295Y-121253333D01*
X149275295Y-121253333D02*
X149180057Y-121300952D01*
X149180057Y-121300952D02*
X149132438Y-121348571D01*
X149132438Y-121348571D02*
X149084819Y-121443809D01*
X149084819Y-121443809D02*
X149084819Y-121634285D01*
X149084819Y-121634285D02*
X149132438Y-121729523D01*
X149132438Y-121729523D02*
X149180057Y-121777142D01*
X149180057Y-121777142D02*
X149275295Y-121824761D01*
X149275295Y-121824761D02*
X149513390Y-121824761D01*
X149513390Y-121824761D02*
X149608628Y-121777142D01*
X149608628Y-121777142D02*
X149656247Y-121729523D01*
X149656247Y-121729523D02*
X149703866Y-121634285D01*
X149703866Y-121634285D02*
X149703866Y-121443809D01*
X149703866Y-121443809D02*
X149656247Y-121348571D01*
X149656247Y-121348571D02*
X149608628Y-121300952D01*
X149608628Y-121300952D02*
X149513390Y-121253333D01*
X222534819Y-92876666D02*
X222058628Y-93209999D01*
X222534819Y-93448094D02*
X221534819Y-93448094D01*
X221534819Y-93448094D02*
X221534819Y-93067142D01*
X221534819Y-93067142D02*
X221582438Y-92971904D01*
X221582438Y-92971904D02*
X221630057Y-92924285D01*
X221630057Y-92924285D02*
X221725295Y-92876666D01*
X221725295Y-92876666D02*
X221868152Y-92876666D01*
X221868152Y-92876666D02*
X221963390Y-92924285D01*
X221963390Y-92924285D02*
X222011009Y-92971904D01*
X222011009Y-92971904D02*
X222058628Y-93067142D01*
X222058628Y-93067142D02*
X222058628Y-93448094D01*
X221630057Y-92495713D02*
X221582438Y-92448094D01*
X221582438Y-92448094D02*
X221534819Y-92352856D01*
X221534819Y-92352856D02*
X221534819Y-92114761D01*
X221534819Y-92114761D02*
X221582438Y-92019523D01*
X221582438Y-92019523D02*
X221630057Y-91971904D01*
X221630057Y-91971904D02*
X221725295Y-91924285D01*
X221725295Y-91924285D02*
X221820533Y-91924285D01*
X221820533Y-91924285D02*
X221963390Y-91971904D01*
X221963390Y-91971904D02*
X222534819Y-92543332D01*
X222534819Y-92543332D02*
X222534819Y-91924285D01*
X154932142Y-107599819D02*
X154598809Y-107123628D01*
X154360714Y-107599819D02*
X154360714Y-106599819D01*
X154360714Y-106599819D02*
X154741666Y-106599819D01*
X154741666Y-106599819D02*
X154836904Y-106647438D01*
X154836904Y-106647438D02*
X154884523Y-106695057D01*
X154884523Y-106695057D02*
X154932142Y-106790295D01*
X154932142Y-106790295D02*
X154932142Y-106933152D01*
X154932142Y-106933152D02*
X154884523Y-107028390D01*
X154884523Y-107028390D02*
X154836904Y-107076009D01*
X154836904Y-107076009D02*
X154741666Y-107123628D01*
X154741666Y-107123628D02*
X154360714Y-107123628D01*
X155313095Y-106695057D02*
X155360714Y-106647438D01*
X155360714Y-106647438D02*
X155455952Y-106599819D01*
X155455952Y-106599819D02*
X155694047Y-106599819D01*
X155694047Y-106599819D02*
X155789285Y-106647438D01*
X155789285Y-106647438D02*
X155836904Y-106695057D01*
X155836904Y-106695057D02*
X155884523Y-106790295D01*
X155884523Y-106790295D02*
X155884523Y-106885533D01*
X155884523Y-106885533D02*
X155836904Y-107028390D01*
X155836904Y-107028390D02*
X155265476Y-107599819D01*
X155265476Y-107599819D02*
X155884523Y-107599819D01*
X156265476Y-106695057D02*
X156313095Y-106647438D01*
X156313095Y-106647438D02*
X156408333Y-106599819D01*
X156408333Y-106599819D02*
X156646428Y-106599819D01*
X156646428Y-106599819D02*
X156741666Y-106647438D01*
X156741666Y-106647438D02*
X156789285Y-106695057D01*
X156789285Y-106695057D02*
X156836904Y-106790295D01*
X156836904Y-106790295D02*
X156836904Y-106885533D01*
X156836904Y-106885533D02*
X156789285Y-107028390D01*
X156789285Y-107028390D02*
X156217857Y-107599819D01*
X156217857Y-107599819D02*
X156836904Y-107599819D01*
X140327142Y-111114819D02*
X139993809Y-110638628D01*
X139755714Y-111114819D02*
X139755714Y-110114819D01*
X139755714Y-110114819D02*
X140136666Y-110114819D01*
X140136666Y-110114819D02*
X140231904Y-110162438D01*
X140231904Y-110162438D02*
X140279523Y-110210057D01*
X140279523Y-110210057D02*
X140327142Y-110305295D01*
X140327142Y-110305295D02*
X140327142Y-110448152D01*
X140327142Y-110448152D02*
X140279523Y-110543390D01*
X140279523Y-110543390D02*
X140231904Y-110591009D01*
X140231904Y-110591009D02*
X140136666Y-110638628D01*
X140136666Y-110638628D02*
X139755714Y-110638628D01*
X140708095Y-110210057D02*
X140755714Y-110162438D01*
X140755714Y-110162438D02*
X140850952Y-110114819D01*
X140850952Y-110114819D02*
X141089047Y-110114819D01*
X141089047Y-110114819D02*
X141184285Y-110162438D01*
X141184285Y-110162438D02*
X141231904Y-110210057D01*
X141231904Y-110210057D02*
X141279523Y-110305295D01*
X141279523Y-110305295D02*
X141279523Y-110400533D01*
X141279523Y-110400533D02*
X141231904Y-110543390D01*
X141231904Y-110543390D02*
X140660476Y-111114819D01*
X140660476Y-111114819D02*
X141279523Y-111114819D01*
X142184285Y-110114819D02*
X141708095Y-110114819D01*
X141708095Y-110114819D02*
X141660476Y-110591009D01*
X141660476Y-110591009D02*
X141708095Y-110543390D01*
X141708095Y-110543390D02*
X141803333Y-110495771D01*
X141803333Y-110495771D02*
X142041428Y-110495771D01*
X142041428Y-110495771D02*
X142136666Y-110543390D01*
X142136666Y-110543390D02*
X142184285Y-110591009D01*
X142184285Y-110591009D02*
X142231904Y-110686247D01*
X142231904Y-110686247D02*
X142231904Y-110924342D01*
X142231904Y-110924342D02*
X142184285Y-111019580D01*
X142184285Y-111019580D02*
X142136666Y-111067200D01*
X142136666Y-111067200D02*
X142041428Y-111114819D01*
X142041428Y-111114819D02*
X141803333Y-111114819D01*
X141803333Y-111114819D02*
X141708095Y-111067200D01*
X141708095Y-111067200D02*
X141660476Y-111019580D01*
X181602142Y-72379819D02*
X181268809Y-71903628D01*
X181030714Y-72379819D02*
X181030714Y-71379819D01*
X181030714Y-71379819D02*
X181411666Y-71379819D01*
X181411666Y-71379819D02*
X181506904Y-71427438D01*
X181506904Y-71427438D02*
X181554523Y-71475057D01*
X181554523Y-71475057D02*
X181602142Y-71570295D01*
X181602142Y-71570295D02*
X181602142Y-71713152D01*
X181602142Y-71713152D02*
X181554523Y-71808390D01*
X181554523Y-71808390D02*
X181506904Y-71856009D01*
X181506904Y-71856009D02*
X181411666Y-71903628D01*
X181411666Y-71903628D02*
X181030714Y-71903628D01*
X182554523Y-72379819D02*
X181983095Y-72379819D01*
X182268809Y-72379819D02*
X182268809Y-71379819D01*
X182268809Y-71379819D02*
X182173571Y-71522676D01*
X182173571Y-71522676D02*
X182078333Y-71617914D01*
X182078333Y-71617914D02*
X181983095Y-71665533D01*
X182887857Y-71379819D02*
X183506904Y-71379819D01*
X183506904Y-71379819D02*
X183173571Y-71760771D01*
X183173571Y-71760771D02*
X183316428Y-71760771D01*
X183316428Y-71760771D02*
X183411666Y-71808390D01*
X183411666Y-71808390D02*
X183459285Y-71856009D01*
X183459285Y-71856009D02*
X183506904Y-71951247D01*
X183506904Y-71951247D02*
X183506904Y-72189342D01*
X183506904Y-72189342D02*
X183459285Y-72284580D01*
X183459285Y-72284580D02*
X183411666Y-72332200D01*
X183411666Y-72332200D02*
X183316428Y-72379819D01*
X183316428Y-72379819D02*
X183030714Y-72379819D01*
X183030714Y-72379819D02*
X182935476Y-72332200D01*
X182935476Y-72332200D02*
X182887857Y-72284580D01*
X133844819Y-122253333D02*
X134559104Y-122253333D01*
X134559104Y-122253333D02*
X134701961Y-122300952D01*
X134701961Y-122300952D02*
X134797200Y-122396190D01*
X134797200Y-122396190D02*
X134844819Y-122539047D01*
X134844819Y-122539047D02*
X134844819Y-122634285D01*
X134273390Y-121634285D02*
X134225771Y-121729523D01*
X134225771Y-121729523D02*
X134178152Y-121777142D01*
X134178152Y-121777142D02*
X134082914Y-121824761D01*
X134082914Y-121824761D02*
X134035295Y-121824761D01*
X134035295Y-121824761D02*
X133940057Y-121777142D01*
X133940057Y-121777142D02*
X133892438Y-121729523D01*
X133892438Y-121729523D02*
X133844819Y-121634285D01*
X133844819Y-121634285D02*
X133844819Y-121443809D01*
X133844819Y-121443809D02*
X133892438Y-121348571D01*
X133892438Y-121348571D02*
X133940057Y-121300952D01*
X133940057Y-121300952D02*
X134035295Y-121253333D01*
X134035295Y-121253333D02*
X134082914Y-121253333D01*
X134082914Y-121253333D02*
X134178152Y-121300952D01*
X134178152Y-121300952D02*
X134225771Y-121348571D01*
X134225771Y-121348571D02*
X134273390Y-121443809D01*
X134273390Y-121443809D02*
X134273390Y-121634285D01*
X134273390Y-121634285D02*
X134321009Y-121729523D01*
X134321009Y-121729523D02*
X134368628Y-121777142D01*
X134368628Y-121777142D02*
X134463866Y-121824761D01*
X134463866Y-121824761D02*
X134654342Y-121824761D01*
X134654342Y-121824761D02*
X134749580Y-121777142D01*
X134749580Y-121777142D02*
X134797200Y-121729523D01*
X134797200Y-121729523D02*
X134844819Y-121634285D01*
X134844819Y-121634285D02*
X134844819Y-121443809D01*
X134844819Y-121443809D02*
X134797200Y-121348571D01*
X134797200Y-121348571D02*
X134749580Y-121300952D01*
X134749580Y-121300952D02*
X134654342Y-121253333D01*
X134654342Y-121253333D02*
X134463866Y-121253333D01*
X134463866Y-121253333D02*
X134368628Y-121300952D01*
X134368628Y-121300952D02*
X134321009Y-121348571D01*
X134321009Y-121348571D02*
X134273390Y-121443809D01*
X208334819Y-73196904D02*
X209144342Y-73196904D01*
X209144342Y-73196904D02*
X209239580Y-73149285D01*
X209239580Y-73149285D02*
X209287200Y-73101666D01*
X209287200Y-73101666D02*
X209334819Y-73006428D01*
X209334819Y-73006428D02*
X209334819Y-72815952D01*
X209334819Y-72815952D02*
X209287200Y-72720714D01*
X209287200Y-72720714D02*
X209239580Y-72673095D01*
X209239580Y-72673095D02*
X209144342Y-72625476D01*
X209144342Y-72625476D02*
X208334819Y-72625476D01*
X209334819Y-71625476D02*
X209334819Y-72196904D01*
X209334819Y-71911190D02*
X208334819Y-71911190D01*
X208334819Y-71911190D02*
X208477676Y-72006428D01*
X208477676Y-72006428D02*
X208572914Y-72101666D01*
X208572914Y-72101666D02*
X208620533Y-72196904D01*
X142734819Y-122253333D02*
X143449104Y-122253333D01*
X143449104Y-122253333D02*
X143591961Y-122300952D01*
X143591961Y-122300952D02*
X143687200Y-122396190D01*
X143687200Y-122396190D02*
X143734819Y-122539047D01*
X143734819Y-122539047D02*
X143734819Y-122634285D01*
X142734819Y-121300952D02*
X142734819Y-121777142D01*
X142734819Y-121777142D02*
X143211009Y-121824761D01*
X143211009Y-121824761D02*
X143163390Y-121777142D01*
X143163390Y-121777142D02*
X143115771Y-121681904D01*
X143115771Y-121681904D02*
X143115771Y-121443809D01*
X143115771Y-121443809D02*
X143163390Y-121348571D01*
X143163390Y-121348571D02*
X143211009Y-121300952D01*
X143211009Y-121300952D02*
X143306247Y-121253333D01*
X143306247Y-121253333D02*
X143544342Y-121253333D01*
X143544342Y-121253333D02*
X143639580Y-121300952D01*
X143639580Y-121300952D02*
X143687200Y-121348571D01*
X143687200Y-121348571D02*
X143734819Y-121443809D01*
X143734819Y-121443809D02*
X143734819Y-121681904D01*
X143734819Y-121681904D02*
X143687200Y-121777142D01*
X143687200Y-121777142D02*
X143639580Y-121824761D01*
X140327142Y-114924819D02*
X139993809Y-114448628D01*
X139755714Y-114924819D02*
X139755714Y-113924819D01*
X139755714Y-113924819D02*
X140136666Y-113924819D01*
X140136666Y-113924819D02*
X140231904Y-113972438D01*
X140231904Y-113972438D02*
X140279523Y-114020057D01*
X140279523Y-114020057D02*
X140327142Y-114115295D01*
X140327142Y-114115295D02*
X140327142Y-114258152D01*
X140327142Y-114258152D02*
X140279523Y-114353390D01*
X140279523Y-114353390D02*
X140231904Y-114401009D01*
X140231904Y-114401009D02*
X140136666Y-114448628D01*
X140136666Y-114448628D02*
X139755714Y-114448628D01*
X140708095Y-114020057D02*
X140755714Y-113972438D01*
X140755714Y-113972438D02*
X140850952Y-113924819D01*
X140850952Y-113924819D02*
X141089047Y-113924819D01*
X141089047Y-113924819D02*
X141184285Y-113972438D01*
X141184285Y-113972438D02*
X141231904Y-114020057D01*
X141231904Y-114020057D02*
X141279523Y-114115295D01*
X141279523Y-114115295D02*
X141279523Y-114210533D01*
X141279523Y-114210533D02*
X141231904Y-114353390D01*
X141231904Y-114353390D02*
X140660476Y-114924819D01*
X140660476Y-114924819D02*
X141279523Y-114924819D01*
X142136666Y-114258152D02*
X142136666Y-114924819D01*
X141898571Y-113877200D02*
X141660476Y-114591485D01*
X141660476Y-114591485D02*
X142279523Y-114591485D01*
X135723333Y-64124819D02*
X135390000Y-63648628D01*
X135151905Y-64124819D02*
X135151905Y-63124819D01*
X135151905Y-63124819D02*
X135532857Y-63124819D01*
X135532857Y-63124819D02*
X135628095Y-63172438D01*
X135628095Y-63172438D02*
X135675714Y-63220057D01*
X135675714Y-63220057D02*
X135723333Y-63315295D01*
X135723333Y-63315295D02*
X135723333Y-63458152D01*
X135723333Y-63458152D02*
X135675714Y-63553390D01*
X135675714Y-63553390D02*
X135628095Y-63601009D01*
X135628095Y-63601009D02*
X135532857Y-63648628D01*
X135532857Y-63648628D02*
X135151905Y-63648628D01*
X136056667Y-63124819D02*
X136675714Y-63124819D01*
X136675714Y-63124819D02*
X136342381Y-63505771D01*
X136342381Y-63505771D02*
X136485238Y-63505771D01*
X136485238Y-63505771D02*
X136580476Y-63553390D01*
X136580476Y-63553390D02*
X136628095Y-63601009D01*
X136628095Y-63601009D02*
X136675714Y-63696247D01*
X136675714Y-63696247D02*
X136675714Y-63934342D01*
X136675714Y-63934342D02*
X136628095Y-64029580D01*
X136628095Y-64029580D02*
X136580476Y-64077200D01*
X136580476Y-64077200D02*
X136485238Y-64124819D01*
X136485238Y-64124819D02*
X136199524Y-64124819D01*
X136199524Y-64124819D02*
X136104286Y-64077200D01*
X136104286Y-64077200D02*
X136056667Y-64029580D01*
X152233333Y-70474819D02*
X151900000Y-69998628D01*
X151661905Y-70474819D02*
X151661905Y-69474819D01*
X151661905Y-69474819D02*
X152042857Y-69474819D01*
X152042857Y-69474819D02*
X152138095Y-69522438D01*
X152138095Y-69522438D02*
X152185714Y-69570057D01*
X152185714Y-69570057D02*
X152233333Y-69665295D01*
X152233333Y-69665295D02*
X152233333Y-69808152D01*
X152233333Y-69808152D02*
X152185714Y-69903390D01*
X152185714Y-69903390D02*
X152138095Y-69951009D01*
X152138095Y-69951009D02*
X152042857Y-69998628D01*
X152042857Y-69998628D02*
X151661905Y-69998628D01*
X153138095Y-69474819D02*
X152661905Y-69474819D01*
X152661905Y-69474819D02*
X152614286Y-69951009D01*
X152614286Y-69951009D02*
X152661905Y-69903390D01*
X152661905Y-69903390D02*
X152757143Y-69855771D01*
X152757143Y-69855771D02*
X152995238Y-69855771D01*
X152995238Y-69855771D02*
X153090476Y-69903390D01*
X153090476Y-69903390D02*
X153138095Y-69951009D01*
X153138095Y-69951009D02*
X153185714Y-70046247D01*
X153185714Y-70046247D02*
X153185714Y-70284342D01*
X153185714Y-70284342D02*
X153138095Y-70379580D01*
X153138095Y-70379580D02*
X153090476Y-70427200D01*
X153090476Y-70427200D02*
X152995238Y-70474819D01*
X152995238Y-70474819D02*
X152757143Y-70474819D01*
X152757143Y-70474819D02*
X152661905Y-70427200D01*
X152661905Y-70427200D02*
X152614286Y-70379580D01*
X142073333Y-80409580D02*
X142025714Y-80457200D01*
X142025714Y-80457200D02*
X141882857Y-80504819D01*
X141882857Y-80504819D02*
X141787619Y-80504819D01*
X141787619Y-80504819D02*
X141644762Y-80457200D01*
X141644762Y-80457200D02*
X141549524Y-80361961D01*
X141549524Y-80361961D02*
X141501905Y-80266723D01*
X141501905Y-80266723D02*
X141454286Y-80076247D01*
X141454286Y-80076247D02*
X141454286Y-79933390D01*
X141454286Y-79933390D02*
X141501905Y-79742914D01*
X141501905Y-79742914D02*
X141549524Y-79647676D01*
X141549524Y-79647676D02*
X141644762Y-79552438D01*
X141644762Y-79552438D02*
X141787619Y-79504819D01*
X141787619Y-79504819D02*
X141882857Y-79504819D01*
X141882857Y-79504819D02*
X142025714Y-79552438D01*
X142025714Y-79552438D02*
X142073333Y-79600057D01*
X142406667Y-79504819D02*
X143025714Y-79504819D01*
X143025714Y-79504819D02*
X142692381Y-79885771D01*
X142692381Y-79885771D02*
X142835238Y-79885771D01*
X142835238Y-79885771D02*
X142930476Y-79933390D01*
X142930476Y-79933390D02*
X142978095Y-79981009D01*
X142978095Y-79981009D02*
X143025714Y-80076247D01*
X143025714Y-80076247D02*
X143025714Y-80314342D01*
X143025714Y-80314342D02*
X142978095Y-80409580D01*
X142978095Y-80409580D02*
X142930476Y-80457200D01*
X142930476Y-80457200D02*
X142835238Y-80504819D01*
X142835238Y-80504819D02*
X142549524Y-80504819D01*
X142549524Y-80504819D02*
X142454286Y-80457200D01*
X142454286Y-80457200D02*
X142406667Y-80409580D01*
X138876819Y-93043333D02*
X139591104Y-93043333D01*
X139591104Y-93043333D02*
X139733961Y-93090952D01*
X139733961Y-93090952D02*
X139829200Y-93186190D01*
X139829200Y-93186190D02*
X139876819Y-93329047D01*
X139876819Y-93329047D02*
X139876819Y-93424285D01*
X139210152Y-92138571D02*
X139876819Y-92138571D01*
X138829200Y-92376666D02*
X139543485Y-92614761D01*
X139543485Y-92614761D02*
X139543485Y-91995714D01*
X142073333Y-90569580D02*
X142025714Y-90617200D01*
X142025714Y-90617200D02*
X141882857Y-90664819D01*
X141882857Y-90664819D02*
X141787619Y-90664819D01*
X141787619Y-90664819D02*
X141644762Y-90617200D01*
X141644762Y-90617200D02*
X141549524Y-90521961D01*
X141549524Y-90521961D02*
X141501905Y-90426723D01*
X141501905Y-90426723D02*
X141454286Y-90236247D01*
X141454286Y-90236247D02*
X141454286Y-90093390D01*
X141454286Y-90093390D02*
X141501905Y-89902914D01*
X141501905Y-89902914D02*
X141549524Y-89807676D01*
X141549524Y-89807676D02*
X141644762Y-89712438D01*
X141644762Y-89712438D02*
X141787619Y-89664819D01*
X141787619Y-89664819D02*
X141882857Y-89664819D01*
X141882857Y-89664819D02*
X142025714Y-89712438D01*
X142025714Y-89712438D02*
X142073333Y-89760057D01*
X142930476Y-89998152D02*
X142930476Y-90664819D01*
X142692381Y-89617200D02*
X142454286Y-90331485D01*
X142454286Y-90331485D02*
X143073333Y-90331485D01*
X173021666Y-70979819D02*
X173021666Y-71694104D01*
X173021666Y-71694104D02*
X172974047Y-71836961D01*
X172974047Y-71836961D02*
X172878809Y-71932200D01*
X172878809Y-71932200D02*
X172735952Y-71979819D01*
X172735952Y-71979819D02*
X172640714Y-71979819D01*
X173926428Y-70979819D02*
X173735952Y-70979819D01*
X173735952Y-70979819D02*
X173640714Y-71027438D01*
X173640714Y-71027438D02*
X173593095Y-71075057D01*
X173593095Y-71075057D02*
X173497857Y-71217914D01*
X173497857Y-71217914D02*
X173450238Y-71408390D01*
X173450238Y-71408390D02*
X173450238Y-71789342D01*
X173450238Y-71789342D02*
X173497857Y-71884580D01*
X173497857Y-71884580D02*
X173545476Y-71932200D01*
X173545476Y-71932200D02*
X173640714Y-71979819D01*
X173640714Y-71979819D02*
X173831190Y-71979819D01*
X173831190Y-71979819D02*
X173926428Y-71932200D01*
X173926428Y-71932200D02*
X173974047Y-71884580D01*
X173974047Y-71884580D02*
X174021666Y-71789342D01*
X174021666Y-71789342D02*
X174021666Y-71551247D01*
X174021666Y-71551247D02*
X173974047Y-71456009D01*
X173974047Y-71456009D02*
X173926428Y-71408390D01*
X173926428Y-71408390D02*
X173831190Y-71360771D01*
X173831190Y-71360771D02*
X173640714Y-71360771D01*
X173640714Y-71360771D02*
X173545476Y-71408390D01*
X173545476Y-71408390D02*
X173497857Y-71456009D01*
X173497857Y-71456009D02*
X173450238Y-71551247D01*
X152233333Y-60314819D02*
X151900000Y-59838628D01*
X151661905Y-60314819D02*
X151661905Y-59314819D01*
X151661905Y-59314819D02*
X152042857Y-59314819D01*
X152042857Y-59314819D02*
X152138095Y-59362438D01*
X152138095Y-59362438D02*
X152185714Y-59410057D01*
X152185714Y-59410057D02*
X152233333Y-59505295D01*
X152233333Y-59505295D02*
X152233333Y-59648152D01*
X152233333Y-59648152D02*
X152185714Y-59743390D01*
X152185714Y-59743390D02*
X152138095Y-59791009D01*
X152138095Y-59791009D02*
X152042857Y-59838628D01*
X152042857Y-59838628D02*
X151661905Y-59838628D01*
X153090476Y-59648152D02*
X153090476Y-60314819D01*
X152852381Y-59267200D02*
X152614286Y-59981485D01*
X152614286Y-59981485D02*
X153233333Y-59981485D01*
X138876819Y-72723333D02*
X139591104Y-72723333D01*
X139591104Y-72723333D02*
X139733961Y-72770952D01*
X139733961Y-72770952D02*
X139829200Y-72866190D01*
X139829200Y-72866190D02*
X139876819Y-73009047D01*
X139876819Y-73009047D02*
X139876819Y-73104285D01*
X138972057Y-72294761D02*
X138924438Y-72247142D01*
X138924438Y-72247142D02*
X138876819Y-72151904D01*
X138876819Y-72151904D02*
X138876819Y-71913809D01*
X138876819Y-71913809D02*
X138924438Y-71818571D01*
X138924438Y-71818571D02*
X138972057Y-71770952D01*
X138972057Y-71770952D02*
X139067295Y-71723333D01*
X139067295Y-71723333D02*
X139162533Y-71723333D01*
X139162533Y-71723333D02*
X139305390Y-71770952D01*
X139305390Y-71770952D02*
X139876819Y-72342380D01*
X139876819Y-72342380D02*
X139876819Y-71723333D01*
X129921095Y-51168819D02*
X129921095Y-50168819D01*
X129921095Y-50645009D02*
X130492523Y-50645009D01*
X130492523Y-51168819D02*
X130492523Y-50168819D01*
X131492523Y-51168819D02*
X130921095Y-51168819D01*
X131206809Y-51168819D02*
X131206809Y-50168819D01*
X131206809Y-50168819D02*
X131111571Y-50311676D01*
X131111571Y-50311676D02*
X131016333Y-50406914D01*
X131016333Y-50406914D02*
X130921095Y-50454533D01*
X130476666Y-99554819D02*
X130476666Y-100269104D01*
X130476666Y-100269104D02*
X130429047Y-100411961D01*
X130429047Y-100411961D02*
X130333809Y-100507200D01*
X130333809Y-100507200D02*
X130190952Y-100554819D01*
X130190952Y-100554819D02*
X130095714Y-100554819D01*
X130857619Y-99554819D02*
X131524285Y-99554819D01*
X131524285Y-99554819D02*
X131095714Y-100554819D01*
X152233333Y-80634819D02*
X151900000Y-80158628D01*
X151661905Y-80634819D02*
X151661905Y-79634819D01*
X151661905Y-79634819D02*
X152042857Y-79634819D01*
X152042857Y-79634819D02*
X152138095Y-79682438D01*
X152138095Y-79682438D02*
X152185714Y-79730057D01*
X152185714Y-79730057D02*
X152233333Y-79825295D01*
X152233333Y-79825295D02*
X152233333Y-79968152D01*
X152233333Y-79968152D02*
X152185714Y-80063390D01*
X152185714Y-80063390D02*
X152138095Y-80111009D01*
X152138095Y-80111009D02*
X152042857Y-80158628D01*
X152042857Y-80158628D02*
X151661905Y-80158628D01*
X152566667Y-79634819D02*
X153233333Y-79634819D01*
X153233333Y-79634819D02*
X152804762Y-80634819D01*
X140327142Y-106964819D02*
X139993809Y-106488628D01*
X139755714Y-106964819D02*
X139755714Y-105964819D01*
X139755714Y-105964819D02*
X140136666Y-105964819D01*
X140136666Y-105964819D02*
X140231904Y-106012438D01*
X140231904Y-106012438D02*
X140279523Y-106060057D01*
X140279523Y-106060057D02*
X140327142Y-106155295D01*
X140327142Y-106155295D02*
X140327142Y-106298152D01*
X140327142Y-106298152D02*
X140279523Y-106393390D01*
X140279523Y-106393390D02*
X140231904Y-106441009D01*
X140231904Y-106441009D02*
X140136666Y-106488628D01*
X140136666Y-106488628D02*
X139755714Y-106488628D01*
X141279523Y-106964819D02*
X140708095Y-106964819D01*
X140993809Y-106964819D02*
X140993809Y-105964819D01*
X140993809Y-105964819D02*
X140898571Y-106107676D01*
X140898571Y-106107676D02*
X140803333Y-106202914D01*
X140803333Y-106202914D02*
X140708095Y-106250533D01*
X142136666Y-105964819D02*
X141946190Y-105964819D01*
X141946190Y-105964819D02*
X141850952Y-106012438D01*
X141850952Y-106012438D02*
X141803333Y-106060057D01*
X141803333Y-106060057D02*
X141708095Y-106202914D01*
X141708095Y-106202914D02*
X141660476Y-106393390D01*
X141660476Y-106393390D02*
X141660476Y-106774342D01*
X141660476Y-106774342D02*
X141708095Y-106869580D01*
X141708095Y-106869580D02*
X141755714Y-106917200D01*
X141755714Y-106917200D02*
X141850952Y-106964819D01*
X141850952Y-106964819D02*
X142041428Y-106964819D01*
X142041428Y-106964819D02*
X142136666Y-106917200D01*
X142136666Y-106917200D02*
X142184285Y-106869580D01*
X142184285Y-106869580D02*
X142231904Y-106774342D01*
X142231904Y-106774342D02*
X142231904Y-106536247D01*
X142231904Y-106536247D02*
X142184285Y-106441009D01*
X142184285Y-106441009D02*
X142136666Y-106393390D01*
X142136666Y-106393390D02*
X142041428Y-106345771D01*
X142041428Y-106345771D02*
X141850952Y-106345771D01*
X141850952Y-106345771D02*
X141755714Y-106393390D01*
X141755714Y-106393390D02*
X141708095Y-106441009D01*
X141708095Y-106441009D02*
X141660476Y-106536247D01*
X184777142Y-117464819D02*
X184443809Y-116988628D01*
X184205714Y-117464819D02*
X184205714Y-116464819D01*
X184205714Y-116464819D02*
X184586666Y-116464819D01*
X184586666Y-116464819D02*
X184681904Y-116512438D01*
X184681904Y-116512438D02*
X184729523Y-116560057D01*
X184729523Y-116560057D02*
X184777142Y-116655295D01*
X184777142Y-116655295D02*
X184777142Y-116798152D01*
X184777142Y-116798152D02*
X184729523Y-116893390D01*
X184729523Y-116893390D02*
X184681904Y-116941009D01*
X184681904Y-116941009D02*
X184586666Y-116988628D01*
X184586666Y-116988628D02*
X184205714Y-116988628D01*
X185729523Y-117464819D02*
X185158095Y-117464819D01*
X185443809Y-117464819D02*
X185443809Y-116464819D01*
X185443809Y-116464819D02*
X185348571Y-116607676D01*
X185348571Y-116607676D02*
X185253333Y-116702914D01*
X185253333Y-116702914D02*
X185158095Y-116750533D01*
X186205714Y-117464819D02*
X186396190Y-117464819D01*
X186396190Y-117464819D02*
X186491428Y-117417200D01*
X186491428Y-117417200D02*
X186539047Y-117369580D01*
X186539047Y-117369580D02*
X186634285Y-117226723D01*
X186634285Y-117226723D02*
X186681904Y-117036247D01*
X186681904Y-117036247D02*
X186681904Y-116655295D01*
X186681904Y-116655295D02*
X186634285Y-116560057D01*
X186634285Y-116560057D02*
X186586666Y-116512438D01*
X186586666Y-116512438D02*
X186491428Y-116464819D01*
X186491428Y-116464819D02*
X186300952Y-116464819D01*
X186300952Y-116464819D02*
X186205714Y-116512438D01*
X186205714Y-116512438D02*
X186158095Y-116560057D01*
X186158095Y-116560057D02*
X186110476Y-116655295D01*
X186110476Y-116655295D02*
X186110476Y-116893390D01*
X186110476Y-116893390D02*
X186158095Y-116988628D01*
X186158095Y-116988628D02*
X186205714Y-117036247D01*
X186205714Y-117036247D02*
X186300952Y-117083866D01*
X186300952Y-117083866D02*
X186491428Y-117083866D01*
X186491428Y-117083866D02*
X186586666Y-117036247D01*
X186586666Y-117036247D02*
X186634285Y-116988628D01*
X186634285Y-116988628D02*
X186681904Y-116893390D01*
X226344819Y-92876666D02*
X225868628Y-93209999D01*
X226344819Y-93448094D02*
X225344819Y-93448094D01*
X225344819Y-93448094D02*
X225344819Y-93067142D01*
X225344819Y-93067142D02*
X225392438Y-92971904D01*
X225392438Y-92971904D02*
X225440057Y-92924285D01*
X225440057Y-92924285D02*
X225535295Y-92876666D01*
X225535295Y-92876666D02*
X225678152Y-92876666D01*
X225678152Y-92876666D02*
X225773390Y-92924285D01*
X225773390Y-92924285D02*
X225821009Y-92971904D01*
X225821009Y-92971904D02*
X225868628Y-93067142D01*
X225868628Y-93067142D02*
X225868628Y-93448094D01*
X226344819Y-91924285D02*
X226344819Y-92495713D01*
X226344819Y-92209999D02*
X225344819Y-92209999D01*
X225344819Y-92209999D02*
X225487676Y-92305237D01*
X225487676Y-92305237D02*
X225582914Y-92400475D01*
X225582914Y-92400475D02*
X225630533Y-92495713D01*
X184142142Y-100614819D02*
X183808809Y-100138628D01*
X183570714Y-100614819D02*
X183570714Y-99614819D01*
X183570714Y-99614819D02*
X183951666Y-99614819D01*
X183951666Y-99614819D02*
X184046904Y-99662438D01*
X184046904Y-99662438D02*
X184094523Y-99710057D01*
X184094523Y-99710057D02*
X184142142Y-99805295D01*
X184142142Y-99805295D02*
X184142142Y-99948152D01*
X184142142Y-99948152D02*
X184094523Y-100043390D01*
X184094523Y-100043390D02*
X184046904Y-100091009D01*
X184046904Y-100091009D02*
X183951666Y-100138628D01*
X183951666Y-100138628D02*
X183570714Y-100138628D01*
X184523095Y-99710057D02*
X184570714Y-99662438D01*
X184570714Y-99662438D02*
X184665952Y-99614819D01*
X184665952Y-99614819D02*
X184904047Y-99614819D01*
X184904047Y-99614819D02*
X184999285Y-99662438D01*
X184999285Y-99662438D02*
X185046904Y-99710057D01*
X185046904Y-99710057D02*
X185094523Y-99805295D01*
X185094523Y-99805295D02*
X185094523Y-99900533D01*
X185094523Y-99900533D02*
X185046904Y-100043390D01*
X185046904Y-100043390D02*
X184475476Y-100614819D01*
X184475476Y-100614819D02*
X185094523Y-100614819D01*
X185713571Y-99614819D02*
X185808809Y-99614819D01*
X185808809Y-99614819D02*
X185904047Y-99662438D01*
X185904047Y-99662438D02*
X185951666Y-99710057D01*
X185951666Y-99710057D02*
X185999285Y-99805295D01*
X185999285Y-99805295D02*
X186046904Y-99995771D01*
X186046904Y-99995771D02*
X186046904Y-100233866D01*
X186046904Y-100233866D02*
X185999285Y-100424342D01*
X185999285Y-100424342D02*
X185951666Y-100519580D01*
X185951666Y-100519580D02*
X185904047Y-100567200D01*
X185904047Y-100567200D02*
X185808809Y-100614819D01*
X185808809Y-100614819D02*
X185713571Y-100614819D01*
X185713571Y-100614819D02*
X185618333Y-100567200D01*
X185618333Y-100567200D02*
X185570714Y-100519580D01*
X185570714Y-100519580D02*
X185523095Y-100424342D01*
X185523095Y-100424342D02*
X185475476Y-100233866D01*
X185475476Y-100233866D02*
X185475476Y-99995771D01*
X185475476Y-99995771D02*
X185523095Y-99805295D01*
X185523095Y-99805295D02*
X185570714Y-99710057D01*
X185570714Y-99710057D02*
X185618333Y-99662438D01*
X185618333Y-99662438D02*
X185713571Y-99614819D01*
X153027142Y-115854819D02*
X152693809Y-115378628D01*
X152455714Y-115854819D02*
X152455714Y-114854819D01*
X152455714Y-114854819D02*
X152836666Y-114854819D01*
X152836666Y-114854819D02*
X152931904Y-114902438D01*
X152931904Y-114902438D02*
X152979523Y-114950057D01*
X152979523Y-114950057D02*
X153027142Y-115045295D01*
X153027142Y-115045295D02*
X153027142Y-115188152D01*
X153027142Y-115188152D02*
X152979523Y-115283390D01*
X152979523Y-115283390D02*
X152931904Y-115331009D01*
X152931904Y-115331009D02*
X152836666Y-115378628D01*
X152836666Y-115378628D02*
X152455714Y-115378628D01*
X153408095Y-114950057D02*
X153455714Y-114902438D01*
X153455714Y-114902438D02*
X153550952Y-114854819D01*
X153550952Y-114854819D02*
X153789047Y-114854819D01*
X153789047Y-114854819D02*
X153884285Y-114902438D01*
X153884285Y-114902438D02*
X153931904Y-114950057D01*
X153931904Y-114950057D02*
X153979523Y-115045295D01*
X153979523Y-115045295D02*
X153979523Y-115140533D01*
X153979523Y-115140533D02*
X153931904Y-115283390D01*
X153931904Y-115283390D02*
X153360476Y-115854819D01*
X153360476Y-115854819D02*
X153979523Y-115854819D01*
X154836666Y-114854819D02*
X154646190Y-114854819D01*
X154646190Y-114854819D02*
X154550952Y-114902438D01*
X154550952Y-114902438D02*
X154503333Y-114950057D01*
X154503333Y-114950057D02*
X154408095Y-115092914D01*
X154408095Y-115092914D02*
X154360476Y-115283390D01*
X154360476Y-115283390D02*
X154360476Y-115664342D01*
X154360476Y-115664342D02*
X154408095Y-115759580D01*
X154408095Y-115759580D02*
X154455714Y-115807200D01*
X154455714Y-115807200D02*
X154550952Y-115854819D01*
X154550952Y-115854819D02*
X154741428Y-115854819D01*
X154741428Y-115854819D02*
X154836666Y-115807200D01*
X154836666Y-115807200D02*
X154884285Y-115759580D01*
X154884285Y-115759580D02*
X154931904Y-115664342D01*
X154931904Y-115664342D02*
X154931904Y-115426247D01*
X154931904Y-115426247D02*
X154884285Y-115331009D01*
X154884285Y-115331009D02*
X154836666Y-115283390D01*
X154836666Y-115283390D02*
X154741428Y-115235771D01*
X154741428Y-115235771D02*
X154550952Y-115235771D01*
X154550952Y-115235771D02*
X154455714Y-115283390D01*
X154455714Y-115283390D02*
X154408095Y-115331009D01*
X154408095Y-115331009D02*
X154360476Y-115426247D01*
X135247142Y-97144819D02*
X134913809Y-96668628D01*
X134675714Y-97144819D02*
X134675714Y-96144819D01*
X134675714Y-96144819D02*
X135056666Y-96144819D01*
X135056666Y-96144819D02*
X135151904Y-96192438D01*
X135151904Y-96192438D02*
X135199523Y-96240057D01*
X135199523Y-96240057D02*
X135247142Y-96335295D01*
X135247142Y-96335295D02*
X135247142Y-96478152D01*
X135247142Y-96478152D02*
X135199523Y-96573390D01*
X135199523Y-96573390D02*
X135151904Y-96621009D01*
X135151904Y-96621009D02*
X135056666Y-96668628D01*
X135056666Y-96668628D02*
X134675714Y-96668628D01*
X136199523Y-97144819D02*
X135628095Y-97144819D01*
X135913809Y-97144819D02*
X135913809Y-96144819D01*
X135913809Y-96144819D02*
X135818571Y-96287676D01*
X135818571Y-96287676D02*
X135723333Y-96382914D01*
X135723333Y-96382914D02*
X135628095Y-96430533D01*
X136818571Y-96144819D02*
X136913809Y-96144819D01*
X136913809Y-96144819D02*
X137009047Y-96192438D01*
X137009047Y-96192438D02*
X137056666Y-96240057D01*
X137056666Y-96240057D02*
X137104285Y-96335295D01*
X137104285Y-96335295D02*
X137151904Y-96525771D01*
X137151904Y-96525771D02*
X137151904Y-96763866D01*
X137151904Y-96763866D02*
X137104285Y-96954342D01*
X137104285Y-96954342D02*
X137056666Y-97049580D01*
X137056666Y-97049580D02*
X137009047Y-97097200D01*
X137009047Y-97097200D02*
X136913809Y-97144819D01*
X136913809Y-97144819D02*
X136818571Y-97144819D01*
X136818571Y-97144819D02*
X136723333Y-97097200D01*
X136723333Y-97097200D02*
X136675714Y-97049580D01*
X136675714Y-97049580D02*
X136628095Y-96954342D01*
X136628095Y-96954342D02*
X136580476Y-96763866D01*
X136580476Y-96763866D02*
X136580476Y-96525771D01*
X136580476Y-96525771D02*
X136628095Y-96335295D01*
X136628095Y-96335295D02*
X136675714Y-96240057D01*
X136675714Y-96240057D02*
X136723333Y-96192438D01*
X136723333Y-96192438D02*
X136818571Y-96144819D01*
X182078333Y-88029580D02*
X182030714Y-88077200D01*
X182030714Y-88077200D02*
X181887857Y-88124819D01*
X181887857Y-88124819D02*
X181792619Y-88124819D01*
X181792619Y-88124819D02*
X181649762Y-88077200D01*
X181649762Y-88077200D02*
X181554524Y-87981961D01*
X181554524Y-87981961D02*
X181506905Y-87886723D01*
X181506905Y-87886723D02*
X181459286Y-87696247D01*
X181459286Y-87696247D02*
X181459286Y-87553390D01*
X181459286Y-87553390D02*
X181506905Y-87362914D01*
X181506905Y-87362914D02*
X181554524Y-87267676D01*
X181554524Y-87267676D02*
X181649762Y-87172438D01*
X181649762Y-87172438D02*
X181792619Y-87124819D01*
X181792619Y-87124819D02*
X181887857Y-87124819D01*
X181887857Y-87124819D02*
X182030714Y-87172438D01*
X182030714Y-87172438D02*
X182078333Y-87220057D01*
X182983095Y-87124819D02*
X182506905Y-87124819D01*
X182506905Y-87124819D02*
X182459286Y-87601009D01*
X182459286Y-87601009D02*
X182506905Y-87553390D01*
X182506905Y-87553390D02*
X182602143Y-87505771D01*
X182602143Y-87505771D02*
X182840238Y-87505771D01*
X182840238Y-87505771D02*
X182935476Y-87553390D01*
X182935476Y-87553390D02*
X182983095Y-87601009D01*
X182983095Y-87601009D02*
X183030714Y-87696247D01*
X183030714Y-87696247D02*
X183030714Y-87934342D01*
X183030714Y-87934342D02*
X182983095Y-88029580D01*
X182983095Y-88029580D02*
X182935476Y-88077200D01*
X182935476Y-88077200D02*
X182840238Y-88124819D01*
X182840238Y-88124819D02*
X182602143Y-88124819D01*
X182602143Y-88124819D02*
X182506905Y-88077200D01*
X182506905Y-88077200D02*
X182459286Y-88029580D01*
X177969104Y-109299285D02*
X177969104Y-108823095D01*
X178254819Y-109394523D02*
X177254819Y-109061190D01*
X177254819Y-109061190D02*
X178254819Y-108727857D01*
X178254819Y-107870714D02*
X178254819Y-108442142D01*
X178254819Y-108156428D02*
X177254819Y-108156428D01*
X177254819Y-108156428D02*
X177397676Y-108251666D01*
X177397676Y-108251666D02*
X177492914Y-108346904D01*
X177492914Y-108346904D02*
X177540533Y-108442142D01*
X217894819Y-109846904D02*
X218704342Y-109846904D01*
X218704342Y-109846904D02*
X218799580Y-109799285D01*
X218799580Y-109799285D02*
X218847200Y-109751666D01*
X218847200Y-109751666D02*
X218894819Y-109656428D01*
X218894819Y-109656428D02*
X218894819Y-109465952D01*
X218894819Y-109465952D02*
X218847200Y-109370714D01*
X218847200Y-109370714D02*
X218799580Y-109323095D01*
X218799580Y-109323095D02*
X218704342Y-109275476D01*
X218704342Y-109275476D02*
X217894819Y-109275476D01*
X218847200Y-108846904D02*
X218894819Y-108704047D01*
X218894819Y-108704047D02*
X218894819Y-108465952D01*
X218894819Y-108465952D02*
X218847200Y-108370714D01*
X218847200Y-108370714D02*
X218799580Y-108323095D01*
X218799580Y-108323095D02*
X218704342Y-108275476D01*
X218704342Y-108275476D02*
X218609104Y-108275476D01*
X218609104Y-108275476D02*
X218513866Y-108323095D01*
X218513866Y-108323095D02*
X218466247Y-108370714D01*
X218466247Y-108370714D02*
X218418628Y-108465952D01*
X218418628Y-108465952D02*
X218371009Y-108656428D01*
X218371009Y-108656428D02*
X218323390Y-108751666D01*
X218323390Y-108751666D02*
X218275771Y-108799285D01*
X218275771Y-108799285D02*
X218180533Y-108846904D01*
X218180533Y-108846904D02*
X218085295Y-108846904D01*
X218085295Y-108846904D02*
X217990057Y-108799285D01*
X217990057Y-108799285D02*
X217942438Y-108751666D01*
X217942438Y-108751666D02*
X217894819Y-108656428D01*
X217894819Y-108656428D02*
X217894819Y-108418333D01*
X217894819Y-108418333D02*
X217942438Y-108275476D01*
X218371009Y-107513571D02*
X218418628Y-107370714D01*
X218418628Y-107370714D02*
X218466247Y-107323095D01*
X218466247Y-107323095D02*
X218561485Y-107275476D01*
X218561485Y-107275476D02*
X218704342Y-107275476D01*
X218704342Y-107275476D02*
X218799580Y-107323095D01*
X218799580Y-107323095D02*
X218847200Y-107370714D01*
X218847200Y-107370714D02*
X218894819Y-107465952D01*
X218894819Y-107465952D02*
X218894819Y-107846904D01*
X218894819Y-107846904D02*
X217894819Y-107846904D01*
X217894819Y-107846904D02*
X217894819Y-107513571D01*
X217894819Y-107513571D02*
X217942438Y-107418333D01*
X217942438Y-107418333D02*
X217990057Y-107370714D01*
X217990057Y-107370714D02*
X218085295Y-107323095D01*
X218085295Y-107323095D02*
X218180533Y-107323095D01*
X218180533Y-107323095D02*
X218275771Y-107370714D01*
X218275771Y-107370714D02*
X218323390Y-107418333D01*
X218323390Y-107418333D02*
X218371009Y-107513571D01*
X218371009Y-107513571D02*
X218371009Y-107846904D01*
X142073333Y-60089580D02*
X142025714Y-60137200D01*
X142025714Y-60137200D02*
X141882857Y-60184819D01*
X141882857Y-60184819D02*
X141787619Y-60184819D01*
X141787619Y-60184819D02*
X141644762Y-60137200D01*
X141644762Y-60137200D02*
X141549524Y-60041961D01*
X141549524Y-60041961D02*
X141501905Y-59946723D01*
X141501905Y-59946723D02*
X141454286Y-59756247D01*
X141454286Y-59756247D02*
X141454286Y-59613390D01*
X141454286Y-59613390D02*
X141501905Y-59422914D01*
X141501905Y-59422914D02*
X141549524Y-59327676D01*
X141549524Y-59327676D02*
X141644762Y-59232438D01*
X141644762Y-59232438D02*
X141787619Y-59184819D01*
X141787619Y-59184819D02*
X141882857Y-59184819D01*
X141882857Y-59184819D02*
X142025714Y-59232438D01*
X142025714Y-59232438D02*
X142073333Y-59280057D01*
X143025714Y-60184819D02*
X142454286Y-60184819D01*
X142740000Y-60184819D02*
X142740000Y-59184819D01*
X142740000Y-59184819D02*
X142644762Y-59327676D01*
X142644762Y-59327676D02*
X142549524Y-59422914D01*
X142549524Y-59422914D02*
X142454286Y-59470533D01*
X135723333Y-74284819D02*
X135390000Y-73808628D01*
X135151905Y-74284819D02*
X135151905Y-73284819D01*
X135151905Y-73284819D02*
X135532857Y-73284819D01*
X135532857Y-73284819D02*
X135628095Y-73332438D01*
X135628095Y-73332438D02*
X135675714Y-73380057D01*
X135675714Y-73380057D02*
X135723333Y-73475295D01*
X135723333Y-73475295D02*
X135723333Y-73618152D01*
X135723333Y-73618152D02*
X135675714Y-73713390D01*
X135675714Y-73713390D02*
X135628095Y-73761009D01*
X135628095Y-73761009D02*
X135532857Y-73808628D01*
X135532857Y-73808628D02*
X135151905Y-73808628D01*
X136580476Y-73284819D02*
X136390000Y-73284819D01*
X136390000Y-73284819D02*
X136294762Y-73332438D01*
X136294762Y-73332438D02*
X136247143Y-73380057D01*
X136247143Y-73380057D02*
X136151905Y-73522914D01*
X136151905Y-73522914D02*
X136104286Y-73713390D01*
X136104286Y-73713390D02*
X136104286Y-74094342D01*
X136104286Y-74094342D02*
X136151905Y-74189580D01*
X136151905Y-74189580D02*
X136199524Y-74237200D01*
X136199524Y-74237200D02*
X136294762Y-74284819D01*
X136294762Y-74284819D02*
X136485238Y-74284819D01*
X136485238Y-74284819D02*
X136580476Y-74237200D01*
X136580476Y-74237200D02*
X136628095Y-74189580D01*
X136628095Y-74189580D02*
X136675714Y-74094342D01*
X136675714Y-74094342D02*
X136675714Y-73856247D01*
X136675714Y-73856247D02*
X136628095Y-73761009D01*
X136628095Y-73761009D02*
X136580476Y-73713390D01*
X136580476Y-73713390D02*
X136485238Y-73665771D01*
X136485238Y-73665771D02*
X136294762Y-73665771D01*
X136294762Y-73665771D02*
X136199524Y-73713390D01*
X136199524Y-73713390D02*
X136151905Y-73761009D01*
X136151905Y-73761009D02*
X136104286Y-73856247D01*
X222377095Y-118732819D02*
X222377095Y-117732819D01*
X222377095Y-118209009D02*
X222948523Y-118209009D01*
X222948523Y-118732819D02*
X222948523Y-117732819D01*
X223853285Y-118066152D02*
X223853285Y-118732819D01*
X223615190Y-117685200D02*
X223377095Y-118399485D01*
X223377095Y-118399485D02*
X223996142Y-118399485D01*
X153027142Y-119664819D02*
X152693809Y-119188628D01*
X152455714Y-119664819D02*
X152455714Y-118664819D01*
X152455714Y-118664819D02*
X152836666Y-118664819D01*
X152836666Y-118664819D02*
X152931904Y-118712438D01*
X152931904Y-118712438D02*
X152979523Y-118760057D01*
X152979523Y-118760057D02*
X153027142Y-118855295D01*
X153027142Y-118855295D02*
X153027142Y-118998152D01*
X153027142Y-118998152D02*
X152979523Y-119093390D01*
X152979523Y-119093390D02*
X152931904Y-119141009D01*
X152931904Y-119141009D02*
X152836666Y-119188628D01*
X152836666Y-119188628D02*
X152455714Y-119188628D01*
X153408095Y-118760057D02*
X153455714Y-118712438D01*
X153455714Y-118712438D02*
X153550952Y-118664819D01*
X153550952Y-118664819D02*
X153789047Y-118664819D01*
X153789047Y-118664819D02*
X153884285Y-118712438D01*
X153884285Y-118712438D02*
X153931904Y-118760057D01*
X153931904Y-118760057D02*
X153979523Y-118855295D01*
X153979523Y-118855295D02*
X153979523Y-118950533D01*
X153979523Y-118950533D02*
X153931904Y-119093390D01*
X153931904Y-119093390D02*
X153360476Y-119664819D01*
X153360476Y-119664819D02*
X153979523Y-119664819D01*
X154312857Y-118664819D02*
X154931904Y-118664819D01*
X154931904Y-118664819D02*
X154598571Y-119045771D01*
X154598571Y-119045771D02*
X154741428Y-119045771D01*
X154741428Y-119045771D02*
X154836666Y-119093390D01*
X154836666Y-119093390D02*
X154884285Y-119141009D01*
X154884285Y-119141009D02*
X154931904Y-119236247D01*
X154931904Y-119236247D02*
X154931904Y-119474342D01*
X154931904Y-119474342D02*
X154884285Y-119569580D01*
X154884285Y-119569580D02*
X154836666Y-119617200D01*
X154836666Y-119617200D02*
X154741428Y-119664819D01*
X154741428Y-119664819D02*
X154455714Y-119664819D01*
X154455714Y-119664819D02*
X154360476Y-119617200D01*
X154360476Y-119617200D02*
X154312857Y-119569580D01*
%TO.C,J1*%
D11*
X130242000Y-60900000D02*
X130242000Y-63560000D01*
X135382000Y-60900000D02*
X130242000Y-60900000D01*
X135382000Y-60900000D02*
X135382000Y-63560000D01*
X135382000Y-63560000D02*
X130242000Y-63560000D01*
X137982000Y-62230000D02*
X137982000Y-63560000D01*
X137982000Y-63560000D02*
X136652000Y-63560000D01*
%TO.C,J3*%
X130242000Y-81220000D02*
X130242000Y-83880000D01*
X135382000Y-81220000D02*
X130242000Y-81220000D01*
X135382000Y-81220000D02*
X135382000Y-83880000D01*
X135382000Y-83880000D02*
X130242000Y-83880000D01*
X137982000Y-82550000D02*
X137982000Y-83880000D01*
X137982000Y-83880000D02*
X136652000Y-83880000D01*
%TO.C,R17*%
X151535000Y-107950000D02*
X152305000Y-107950000D01*
X159615000Y-107950000D02*
X158845000Y-107950000D01*
X152305000Y-106580000D02*
X158845000Y-106580000D01*
X158845000Y-109320000D01*
X152305000Y-109320000D01*
X152305000Y-106580000D01*
%TO.C,R11*%
X178205000Y-83820000D02*
X178975000Y-83820000D01*
X186285000Y-83820000D02*
X185515000Y-83820000D01*
X178975000Y-82450000D02*
X185515000Y-82450000D01*
X185515000Y-85190000D01*
X178975000Y-85190000D01*
X178975000Y-82450000D01*
%TO.C,C6*%
X179625000Y-79275000D02*
X184865000Y-79275000D01*
X179625000Y-79612000D02*
X179625000Y-79275000D01*
X179625000Y-82015000D02*
X179625000Y-81678000D01*
X184865000Y-79275000D02*
X184865000Y-79612000D01*
X184865000Y-81678000D02*
X184865000Y-82015000D01*
X184865000Y-82015000D02*
X179625000Y-82015000D01*
%TO.C,C2*%
X139620000Y-71020000D02*
X144860000Y-71020000D01*
X139620000Y-71357000D02*
X139620000Y-71020000D01*
X139620000Y-73760000D02*
X139620000Y-73423000D01*
X144860000Y-71020000D02*
X144860000Y-71357000D01*
X144860000Y-73423000D02*
X144860000Y-73760000D01*
X144860000Y-73760000D02*
X139620000Y-73760000D01*
%TO.C,J10*%
X159960000Y-120590000D02*
X159960000Y-123250000D01*
X167640000Y-120590000D02*
X159960000Y-120590000D01*
X167640000Y-120590000D02*
X167640000Y-123250000D01*
X167640000Y-123250000D02*
X159960000Y-123250000D01*
X170240000Y-121920000D02*
X170240000Y-123250000D01*
X170240000Y-123250000D02*
X168910000Y-123250000D01*
%TO.C,R9*%
X148360000Y-92710000D02*
X149130000Y-92710000D01*
X156440000Y-92710000D02*
X155670000Y-92710000D01*
X149130000Y-91340000D02*
X155670000Y-91340000D01*
X155670000Y-94080000D01*
X149130000Y-94080000D01*
X149130000Y-91340000D01*
%TO.C,R18*%
X181380000Y-122555000D02*
X182150000Y-122555000D01*
X189460000Y-122555000D02*
X188690000Y-122555000D01*
X182150000Y-121185000D02*
X188690000Y-121185000D01*
X188690000Y-123925000D01*
X182150000Y-123925000D01*
X182150000Y-121185000D01*
%TO.C,R21*%
X180745000Y-94350000D02*
X181515000Y-94350000D01*
X188825000Y-94350000D02*
X188055000Y-94350000D01*
X181515000Y-92980000D02*
X188055000Y-92980000D01*
X188055000Y-95720000D01*
X181515000Y-95720000D01*
X181515000Y-92980000D01*
%TO.C,R12*%
X178205000Y-86995000D02*
X178975000Y-86995000D01*
X186285000Y-86995000D02*
X185515000Y-86995000D01*
X178975000Y-85625000D02*
X185515000Y-85625000D01*
X185515000Y-88365000D01*
X178975000Y-88365000D01*
X178975000Y-85625000D01*
%TO.C,R15*%
X136930000Y-107950000D02*
X137700000Y-107950000D01*
X145010000Y-107950000D02*
X144240000Y-107950000D01*
X137700000Y-106580000D02*
X144240000Y-106580000D01*
X144240000Y-109320000D01*
X137700000Y-109320000D01*
X137700000Y-106580000D01*
%TO.C,R14*%
X178205000Y-77470000D02*
X178975000Y-77470000D01*
X186285000Y-77470000D02*
X185515000Y-77470000D01*
X178975000Y-76100000D02*
X185515000Y-76100000D01*
X185515000Y-78840000D01*
X178975000Y-78840000D01*
X178975000Y-76100000D01*
%TO.C,R8*%
X131850000Y-86360000D02*
X132620000Y-86360000D01*
X139930000Y-86360000D02*
X139160000Y-86360000D01*
X132620000Y-84990000D02*
X139160000Y-84990000D01*
X139160000Y-87730000D01*
X132620000Y-87730000D01*
X132620000Y-84990000D01*
%TO.C,J9*%
X151070000Y-120590000D02*
X152400000Y-120590000D01*
X151070000Y-121920000D02*
X151070000Y-120590000D01*
X153670000Y-120590000D02*
X158810000Y-120590000D01*
X153670000Y-123250000D02*
X153670000Y-120590000D01*
X153670000Y-123250000D02*
X158810000Y-123250000D01*
X158810000Y-123250000D02*
X158810000Y-120590000D01*
%TO.C,R2*%
X219710000Y-88670000D02*
X219710000Y-89440000D01*
X219710000Y-96750000D02*
X219710000Y-95980000D01*
X218340000Y-89440000D02*
X221080000Y-89440000D01*
X221080000Y-95980000D01*
X218340000Y-95980000D01*
X218340000Y-89440000D01*
%TO.C,R22*%
X151535000Y-104775000D02*
X152305000Y-104775000D01*
X159615000Y-104775000D02*
X158845000Y-104775000D01*
X152305000Y-103405000D02*
X158845000Y-103405000D01*
X158845000Y-106145000D01*
X152305000Y-106145000D01*
X152305000Y-103405000D01*
%TO.C,R25*%
X136930000Y-113030000D02*
X137700000Y-113030000D01*
X145010000Y-113030000D02*
X144240000Y-113030000D01*
X137700000Y-111660000D02*
X144240000Y-111660000D01*
X144240000Y-114400000D01*
X137700000Y-114400000D01*
X137700000Y-111660000D01*
%TO.C,R13*%
X178205000Y-74295000D02*
X178975000Y-74295000D01*
X186285000Y-74295000D02*
X185515000Y-74295000D01*
X178975000Y-72925000D02*
X185515000Y-72925000D01*
X185515000Y-75665000D01*
X178975000Y-75665000D01*
X178975000Y-72925000D01*
%TO.C,J8*%
X135830000Y-120590000D02*
X137160000Y-120590000D01*
X135830000Y-121920000D02*
X135830000Y-120590000D01*
X138430000Y-120590000D02*
X143570000Y-120590000D01*
X138430000Y-123250000D02*
X138430000Y-120590000D01*
X138430000Y-123250000D02*
X143570000Y-123250000D01*
X143570000Y-123250000D02*
X143570000Y-120590000D01*
%TO.C,U1*%
X190980000Y-64235000D02*
X190980000Y-81685000D01*
X195232969Y-85835000D02*
X218030000Y-85835000D01*
X218630000Y-83835000D02*
X218030000Y-85835000D01*
X218630000Y-83835000D02*
X224427031Y-83835000D01*
X224427031Y-60135000D02*
X195127031Y-60135000D01*
X225577030Y-82685000D02*
X225577030Y-61285000D01*
X190980000Y-64285000D02*
G75*
G02*
X195127031Y-60138000I4147000J0D01*
G01*
X195230000Y-85835000D02*
G75*
G02*
X190975753Y-81685000I-102970J4150000D01*
G01*
X224427031Y-60135000D02*
G75*
G02*
X225577030Y-61285000I-1J-1150000D01*
G01*
X225580000Y-82685000D02*
G75*
G02*
X224427030Y-83837970I-1152970J0D01*
G01*
X198245000Y-86975000D02*
X199515000Y-86975000D01*
X198880000Y-86340000D01*
X198245000Y-86975000D01*
G36*
X199515000Y-86975000D02*
G01*
X198245000Y-86975000D01*
X198880000Y-86340000D01*
X199515000Y-86975000D01*
G37*
%TO.C,J5*%
X144720000Y-120590000D02*
X146050000Y-120590000D01*
X144720000Y-121920000D02*
X144720000Y-120590000D01*
X147320000Y-120590000D02*
X149920000Y-120590000D01*
X147320000Y-123250000D02*
X147320000Y-120590000D01*
X147320000Y-123250000D02*
X149920000Y-123250000D01*
X149920000Y-123250000D02*
X149920000Y-120590000D01*
%TO.C,R24*%
X136930000Y-116840000D02*
X137700000Y-116840000D01*
X145010000Y-116840000D02*
X144240000Y-116840000D01*
X137700000Y-115470000D02*
X144240000Y-115470000D01*
X144240000Y-118210000D01*
X137700000Y-118210000D01*
X137700000Y-115470000D01*
%TO.C,R3*%
X131850000Y-66040000D02*
X132620000Y-66040000D01*
X139930000Y-66040000D02*
X139160000Y-66040000D01*
X132620000Y-64670000D02*
X139160000Y-64670000D01*
X139160000Y-67410000D01*
X132620000Y-67410000D01*
X132620000Y-64670000D01*
%TO.C,R5*%
X148360000Y-72390000D02*
X149130000Y-72390000D01*
X156440000Y-72390000D02*
X155670000Y-72390000D01*
X149130000Y-71020000D02*
X155670000Y-71020000D01*
X155670000Y-73760000D01*
X149130000Y-73760000D01*
X149130000Y-71020000D01*
%TO.C,C3*%
X139620000Y-81180000D02*
X144860000Y-81180000D01*
X139620000Y-81517000D02*
X139620000Y-81180000D01*
X139620000Y-83920000D02*
X139620000Y-83583000D01*
X144860000Y-81180000D02*
X144860000Y-81517000D01*
X144860000Y-83583000D02*
X144860000Y-83920000D01*
X144860000Y-83920000D02*
X139620000Y-83920000D01*
%TO.C,J4*%
X130242000Y-91380000D02*
X130242000Y-94040000D01*
X135382000Y-91380000D02*
X130242000Y-91380000D01*
X135382000Y-91380000D02*
X135382000Y-94040000D01*
X135382000Y-94040000D02*
X130242000Y-94040000D01*
X137982000Y-92710000D02*
X137982000Y-94040000D01*
X137982000Y-94040000D02*
X136652000Y-94040000D01*
%TO.C,C4*%
X139620000Y-91340000D02*
X144860000Y-91340000D01*
X139620000Y-91677000D02*
X139620000Y-91340000D01*
X139620000Y-94080000D02*
X139620000Y-93743000D01*
X144860000Y-91340000D02*
X144860000Y-91677000D01*
X144860000Y-93743000D02*
X144860000Y-94080000D01*
X144860000Y-94080000D02*
X139620000Y-94080000D01*
%TO.C,J6*%
X172025000Y-75565000D02*
X172025000Y-78165000D01*
X172025000Y-75565000D02*
X174685000Y-75565000D01*
X172025000Y-78165000D02*
X174685000Y-78165000D01*
X173355000Y-72965000D02*
X174685000Y-72965000D01*
X174685000Y-72965000D02*
X174685000Y-74295000D01*
X174685000Y-75565000D02*
X174685000Y-78165000D01*
%TO.C,R4*%
X148360000Y-62230000D02*
X149130000Y-62230000D01*
X156440000Y-62230000D02*
X155670000Y-62230000D01*
X149130000Y-60860000D02*
X155670000Y-60860000D01*
X155670000Y-63600000D01*
X149130000Y-63600000D01*
X149130000Y-60860000D01*
%TO.C,J2*%
X130242000Y-71060000D02*
X130242000Y-73720000D01*
X135382000Y-71060000D02*
X130242000Y-71060000D01*
X135382000Y-71060000D02*
X135382000Y-73720000D01*
X135382000Y-73720000D02*
X130242000Y-73720000D01*
X137982000Y-72390000D02*
X137982000Y-73720000D01*
X137982000Y-73720000D02*
X136652000Y-73720000D01*
%TO.C,J7*%
X129480000Y-104140000D02*
X129480000Y-106740000D01*
X129480000Y-104140000D02*
X132140000Y-104140000D01*
X129480000Y-106740000D02*
X132140000Y-106740000D01*
X130810000Y-101540000D02*
X132140000Y-101540000D01*
X132140000Y-101540000D02*
X132140000Y-102870000D01*
X132140000Y-104140000D02*
X132140000Y-106740000D01*
%TO.C,R7*%
X148360000Y-82550000D02*
X149130000Y-82550000D01*
X156440000Y-82550000D02*
X155670000Y-82550000D01*
X149130000Y-81180000D02*
X155670000Y-81180000D01*
X155670000Y-83920000D01*
X149130000Y-83920000D01*
X149130000Y-81180000D01*
%TO.C,R16*%
X136930000Y-104140000D02*
X137700000Y-104140000D01*
X145010000Y-104140000D02*
X144240000Y-104140000D01*
X137700000Y-102770000D02*
X144240000Y-102770000D01*
X144240000Y-105510000D01*
X137700000Y-105510000D01*
X137700000Y-102770000D01*
%TO.C,R19*%
X181380000Y-119380000D02*
X182150000Y-119380000D01*
X189460000Y-119380000D02*
X188690000Y-119380000D01*
X182150000Y-118010000D02*
X188690000Y-118010000D01*
X188690000Y-120750000D01*
X182150000Y-120750000D01*
X182150000Y-118010000D01*
%TO.C,R1*%
X223520000Y-88670000D02*
X223520000Y-89440000D01*
X223520000Y-96750000D02*
X223520000Y-95980000D01*
X222150000Y-89440000D02*
X224890000Y-89440000D01*
X224890000Y-95980000D01*
X222150000Y-95980000D01*
X222150000Y-89440000D01*
%TO.C,R20*%
X180745000Y-97790000D02*
X181515000Y-97790000D01*
X188825000Y-97790000D02*
X188055000Y-97790000D01*
X181515000Y-96420000D02*
X188055000Y-96420000D01*
X188055000Y-99160000D01*
X181515000Y-99160000D01*
X181515000Y-96420000D01*
%TO.C,R26*%
X149630000Y-113030000D02*
X150400000Y-113030000D01*
X157710000Y-113030000D02*
X156940000Y-113030000D01*
X150400000Y-111660000D02*
X156940000Y-111660000D01*
X156940000Y-114400000D01*
X150400000Y-114400000D01*
X150400000Y-111660000D01*
%TO.C,R10*%
X131850000Y-99060000D02*
X132620000Y-99060000D01*
X139930000Y-99060000D02*
X139160000Y-99060000D01*
X132620000Y-97690000D02*
X139160000Y-97690000D01*
X139160000Y-100430000D01*
X132620000Y-100430000D01*
X132620000Y-97690000D01*
%TO.C,C5*%
X179625000Y-88800000D02*
X184865000Y-88800000D01*
X179625000Y-89137000D02*
X179625000Y-88800000D01*
X179625000Y-91540000D02*
X179625000Y-91203000D01*
X184865000Y-88800000D02*
X184865000Y-89137000D01*
X184865000Y-91203000D02*
X184865000Y-91540000D01*
X184865000Y-91540000D02*
X179625000Y-91540000D01*
%TO.C,A1*%
X178940000Y-99565000D02*
X178940000Y-117605000D01*
X178940000Y-117605000D02*
X181610000Y-117605000D01*
X181610000Y-102235000D02*
X181610000Y-99565000D01*
X181610000Y-102235000D02*
X219710000Y-102235000D01*
X181610000Y-114935000D02*
X181610000Y-117605000D01*
X184150000Y-114935000D02*
X181610000Y-114935000D01*
X184150000Y-114935000D02*
X184150000Y-117605000D01*
X184150000Y-114935000D02*
X219710000Y-114935000D01*
X184150000Y-117605000D02*
X222380000Y-117605000D01*
X214500000Y-104645000D02*
X224920000Y-104645000D01*
X214500000Y-112525000D02*
X214500000Y-104645000D01*
X219710000Y-102235000D02*
X219710000Y-99565000D01*
X219710000Y-114935000D02*
X219710000Y-117605000D01*
X222380000Y-99565000D02*
X178940000Y-99565000D01*
X222380000Y-99565000D02*
X222380000Y-104645000D01*
X222380000Y-117605000D02*
X222380000Y-112525000D01*
X224920000Y-104645000D02*
X224920000Y-112525000D01*
X224920000Y-112525000D02*
X214500000Y-112525000D01*
%TO.C,C1*%
X139620000Y-60860000D02*
X144860000Y-60860000D01*
X139620000Y-61197000D02*
X139620000Y-60860000D01*
X139620000Y-63600000D02*
X139620000Y-63263000D01*
X144860000Y-60860000D02*
X144860000Y-61197000D01*
X144860000Y-63263000D02*
X144860000Y-63600000D01*
X144860000Y-63600000D02*
X139620000Y-63600000D01*
%TO.C,R6*%
X131850000Y-76200000D02*
X132620000Y-76200000D01*
X139930000Y-76200000D02*
X139160000Y-76200000D01*
X132620000Y-74830000D02*
X139160000Y-74830000D01*
X139160000Y-77570000D01*
X132620000Y-77570000D01*
X132620000Y-74830000D01*
%TO.C,R23*%
X149630000Y-116840000D02*
X150400000Y-116840000D01*
X157710000Y-116840000D02*
X156940000Y-116840000D01*
X150400000Y-115470000D02*
X156940000Y-115470000D01*
X156940000Y-118210000D01*
X150400000Y-118210000D01*
X150400000Y-115470000D01*
%TD*%
M02*
