M48
; DRILL file KiCad 10.0.5 date 2026-08-28T14:50:35
; FORMAT={-:-/ absolute / metric / decimal}
; #@! TF.CreationDate,2026-08-28T14:50:35+02:00
; #@! TF.GenerationSoftware,Kicad,Pcbnew,10.0.5
; #@! TF.FileFunction,Plated,1,2,PTH
FMAT,2
METRIC
; #@! TA.AperFunction,Plated,PTH,ViaDrill
T1C0.800
; #@! TA.AperFunction,Plated,PTH,ComponentDrill
T2C0.800
; #@! TA.AperFunction,Plated,PTH,ComponentDrill
T3C0.900
; #@! TA.AperFunction,Plated,PTH,ComponentDrill
T4C1.000
%
G90
G05
T1
X161.29Y-62.23
X161.29Y-70.485
X161.29Y-72.39
X161.29Y-82.55
X161.29Y-84.455
X161.29Y-92.71
X163.83Y-62.23
X163.83Y-70.485
X163.83Y-72.39
X163.83Y-82.55
X163.83Y-84.455
X163.83Y-104.565
X175.895Y-57.15
X183.515Y-64.77
T2
X130.81Y-66.04
X130.81Y-76.2
X130.81Y-86.36
X130.81Y-99.06
X135.89Y-104.14
X135.89Y-107.95
X135.89Y-113.03
X135.89Y-116.84
X139.74Y-62.23
X139.74Y-72.39
X139.74Y-82.55
X139.74Y-92.71
X140.97Y-66.04
X140.97Y-76.2
X140.97Y-86.36
X140.97Y-99.06
X144.74Y-62.23
X144.74Y-72.39
X144.74Y-82.55
X144.74Y-92.71
X146.05Y-104.14
X146.05Y-107.95
X146.05Y-113.03
X146.05Y-116.84
X147.32Y-62.23
X147.32Y-72.39
X147.32Y-82.55
X147.32Y-92.71
X148.59Y-113.03
X148.59Y-116.84
X150.495Y-104.775
X150.495Y-107.95
X157.48Y-62.23
X157.48Y-72.39
X157.48Y-82.55
X157.48Y-92.71
X158.75Y-113.03
X158.75Y-116.84
X160.655Y-104.775
X160.655Y-107.95
X177.165Y-74.295
X177.165Y-77.47
X177.165Y-83.82
X177.165Y-86.995
X179.705Y-94.35
X179.705Y-97.79
X179.745Y-80.645
X179.745Y-90.17
X180.34Y-119.38
X180.34Y-122.555
X184.745Y-80.645
X184.745Y-90.17
X187.325Y-74.295
X187.325Y-77.47
X187.325Y-83.82
X187.325Y-86.995
X189.865Y-94.35
X189.865Y-97.79
X190.5Y-119.38
X190.5Y-122.555
X219.71Y-87.63
X219.71Y-97.79
X223.52Y-87.63
X223.52Y-97.79
T3
X198.88Y-61.575
X198.88Y-84.435
X201.42Y-61.575
X201.42Y-84.435
X203.96Y-61.575
X203.96Y-84.435
X206.5Y-61.575
X206.5Y-84.435
X209.04Y-61.575
X209.04Y-84.435
X211.58Y-61.575
X211.58Y-84.435
X214.12Y-61.575
X214.12Y-84.435
X216.66Y-61.575
X216.66Y-84.435
T4
X130.81Y-102.87
X130.81Y-105.41
X131.572Y-62.23
X131.572Y-72.39
X131.572Y-82.55
X131.572Y-92.71
X134.112Y-62.23
X134.112Y-72.39
X134.112Y-82.55
X134.112Y-92.71
X136.652Y-62.23
X136.652Y-72.39
X136.652Y-82.55
X136.652Y-92.71
X137.16Y-121.92
X139.7Y-121.92
X142.24Y-121.92
X146.05Y-121.92
X148.59Y-121.92
X152.4Y-121.92
X154.94Y-121.92
X157.48Y-121.92
X161.29Y-121.92
X163.83Y-121.92
X166.37Y-121.92
X168.91Y-121.92
X173.355Y-74.295
X173.355Y-76.835
X182.88Y-100.965
X182.88Y-116.205
X185.42Y-100.965
X185.42Y-116.205
X187.96Y-100.965
X187.96Y-116.205
X190.5Y-100.965
X190.5Y-116.205
X193.04Y-100.965
X193.04Y-116.205
X195.58Y-100.965
X195.58Y-116.205
X198.12Y-100.965
X198.12Y-116.205
X200.66Y-100.965
X200.66Y-116.205
X203.2Y-100.965
X203.2Y-116.205
X205.74Y-100.965
X205.74Y-116.205
X208.28Y-100.965
X208.28Y-116.205
X210.82Y-100.965
X210.82Y-116.205
X213.36Y-100.965
X213.36Y-116.205
X215.9Y-100.965
X215.9Y-116.205
X218.44Y-100.965
X218.44Y-116.205
M30
