%TF.GenerationSoftware,KiCad,Pcbnew,10.0.5*%
%TF.CreationDate,2026-08-28T18:41:31+02:00*%
%TF.ProjectId,AVA,4156412e-6b69-4636-9164-5f7063625858,rev?*%
%TF.SameCoordinates,Original*%
%TF.FileFunction,Copper,L1,Top*%
%TF.FilePolarity,Positive*%
%FSLAX46Y46*%
G04 Gerber Fmt 4.6, Leading zero omitted, Abs format (unit mm)*
G04 Created by KiCad (PCBNEW 10.0.5) date 2026-08-28 18:41:31*
%MOMM*%
%LPD*%
G01*
G04 APERTURE LIST*
%TA.AperFunction,ComponentPad*%
%ADD10C,1.508000*%
%TD*%
%TA.AperFunction,ComponentPad*%
%ADD11R,1.700000X1.700000*%
%TD*%
%TA.AperFunction,ComponentPad*%
%ADD12C,1.700000*%
%TD*%
%TA.AperFunction,ComponentPad*%
%ADD13C,1.600000*%
%TD*%
%TA.AperFunction,ComponentPad*%
%ADD14R,1.600000X1.600000*%
%TD*%
%TA.AperFunction,ComponentPad*%
%ADD15O,1.600000X1.600000*%
%TD*%
%TA.AperFunction,ViaPad*%
%ADD16C,1.600000*%
%TD*%
%TA.AperFunction,Conductor*%
%ADD17C,0.800000*%
%TD*%
G04 APERTURE END LIST*
D10*
%TO.P,U1,3,D7_3*%
%TO.N,unconnected-(U1-D7-Pad3)*%
X207900000Y-65145000D03*
%TO.P,U1,12,D3_12*%
%TO.N,Net-(U1-D3)*%
X203030000Y-80645000D03*
%TO.P,U1,9,D0_9*%
%TO.N,Net-(U1-D0)*%
X195530000Y-80645000D03*
%TO.P,U1,15,GND_15*%
%TO.N,GND*%
X210530000Y-80645000D03*
%TO.P,U1,4,D8_4*%
%TO.N,unconnected-(U1-D8-Pad4)*%
X205360000Y-65145000D03*
%TO.P,U1,11,D2_11*%
%TO.N,Net-(U1-D2)*%
X200530000Y-80645000D03*
%TO.P,U1,13,D4_13*%
%TO.N,unconnected-(U1-D4-Pad13)*%
X205530000Y-80645000D03*
%TO.P,U1,14,3.3V_14*%
%TO.N,Net-(U1-3.3V)*%
X208030000Y-80645000D03*
%TO.P,U1,8,TX_8*%
%TO.N,Net-(U1-TX)*%
X195200000Y-65145000D03*
%TO.P,U1,10,D1_10*%
%TO.N,Net-(U1-D1)*%
X198030000Y-80645000D03*
%TO.P,U1,16,5V_16*%
%TO.N,Net-(J1-Pin_1)*%
X213030000Y-80645000D03*
%TO.P,U1,2,D6_2*%
%TO.N,unconnected-(U1-D6-Pad2)*%
X210440000Y-65145000D03*
%TO.P,U1,6,D10_6*%
%TO.N,Net-(U1-D10)*%
X200280000Y-65145000D03*
%TO.P,U1,1,D5_1*%
%TO.N,unconnected-(U1-D5-Pad1)*%
X212980000Y-65145000D03*
%TO.P,U1,7,RX_7*%
%TO.N,Net-(U1-RX)*%
X197740000Y-65145000D03*
%TO.P,U1,5,D9_5*%
%TO.N,Net-(U1-D9)*%
X202820000Y-65145000D03*
%TD*%
D11*
%TO.P,J1,1,Pin_1_1*%
%TO.N,Net-(J1-Pin_1)*%
X136652000Y-62230000D03*
D12*
%TO.P,J1,2,Pin_2_2*%
%TO.N,GND*%
X134112000Y-62230000D03*
%TO.P,J1,3,Pin_3_3*%
%TO.N,Net-(J1-Pin_3)*%
X131572000Y-62230000D03*
%TD*%
D11*
%TO.P,J3,1,Pin_1_1*%
%TO.N,Net-(J1-Pin_1)*%
X136652000Y-82550000D03*
D12*
%TO.P,J3,2,Pin_2_2*%
%TO.N,GND*%
X134112000Y-82550000D03*
%TO.P,J3,3,Pin_3_3*%
%TO.N,Net-(J3-Pin_3)*%
X131572000Y-82550000D03*
%TD*%
D13*
%TO.P,R17,1*%
%TO.N,GND*%
X160655000Y-107950000D03*
%TO.P,R17,2*%
%TO.N,Net-(A1-D2)*%
X150495000Y-107950000D03*
%TD*%
%TO.P,R11,1*%
%TO.N,/BAT2(8V)*%
X177165000Y-83820000D03*
%TO.P,R11,2*%
%TO.N,Net-(U1-D10)*%
X187325000Y-83820000D03*
%TD*%
%TO.P,C6,1*%
%TO.N,GND*%
X179745000Y-80645000D03*
%TO.P,C6,2*%
%TO.N,Net-(U1-D9)*%
X184745000Y-80645000D03*
%TD*%
%TO.P,C2,1*%
%TO.N,Net-(J1-Pin_1)*%
X139740000Y-72390000D03*
%TO.P,C2,2*%
%TO.N,GND*%
X144740000Y-72390000D03*
%TD*%
D11*
%TO.P,J10,1,Pin_1_1*%
%TO.N,/CH1*%
X168910000Y-121920000D03*
D12*
%TO.P,J10,2,Pin_2_2*%
%TO.N,/CH2*%
X166370000Y-121920000D03*
%TO.P,J10,3,Pin_3_3*%
%TO.N,/6.2V*%
X163830000Y-121920000D03*
%TO.P,J10,4,Pin_4_4*%
%TO.N,GND*%
X161290000Y-121920000D03*
%TD*%
D13*
%TO.P,R9,1*%
%TO.N,Net-(J4-Pin_3)*%
X147320000Y-92710000D03*
%TO.P,R9,2*%
%TO.N,Net-(U1-3.3V)*%
X157480000Y-92710000D03*
%TD*%
%TO.P,R18,1*%
%TO.N,Net-(A1-D7)*%
X190500000Y-122555000D03*
%TO.P,R18,2*%
%TO.N,/CH2*%
X180340000Y-122555000D03*
%TD*%
%TO.P,R21,1*%
%TO.N,GND*%
X189865000Y-94350000D03*
%TO.P,R21,2*%
%TO.N,Net-(A1-D6)*%
X179705000Y-94350000D03*
%TD*%
%TO.P,R12,1*%
%TO.N,GND*%
X177165000Y-86995000D03*
%TO.P,R12,2*%
%TO.N,Net-(U1-D10)*%
X187325000Y-86995000D03*
%TD*%
%TO.P,R15,1*%
%TO.N,Net-(A1-D2)*%
X146050000Y-107950000D03*
%TO.P,R15,2*%
%TO.N,Net-(J7-Pin_1)*%
X135890000Y-107950000D03*
%TD*%
%TO.P,R14,1*%
%TO.N,GND*%
X177165000Y-77470000D03*
%TO.P,R14,2*%
%TO.N,Net-(U1-D9)*%
X187325000Y-77470000D03*
%TD*%
%TO.P,R8,1*%
%TO.N,Net-(J3-Pin_3)*%
X130810000Y-86360000D03*
%TO.P,R8,2*%
%TO.N,Net-(U1-D1)*%
X140970000Y-86360000D03*
%TD*%
D11*
%TO.P,J9,1,Pin_1_1*%
%TO.N,/6.2V*%
X152400000Y-121920000D03*
D12*
%TO.P,J9,2,Pin_2_2*%
%TO.N,GND*%
X154940000Y-121920000D03*
%TO.P,J9,3,Pin_3_3*%
%TO.N,/PWM-Motor*%
X157480000Y-121920000D03*
%TD*%
D13*
%TO.P,R2,1*%
%TO.N,Net-(U1-TX)*%
X219710000Y-87630000D03*
%TO.P,R2,2*%
%TO.N,Net-(A1-D1{slash}TX)*%
X219710000Y-97790000D03*
%TD*%
%TO.P,R22,1*%
%TO.N,GND*%
X160655000Y-104775000D03*
%TO.P,R22,2*%
%TO.N,Net-(A1-D3)*%
X150495000Y-104775000D03*
%TD*%
%TO.P,R25,1*%
%TO.N,GND*%
X135890000Y-113030000D03*
%TO.P,R25,2*%
%TO.N,Net-(A1-D4)*%
X146050000Y-113030000D03*
%TD*%
%TO.P,R13,1*%
%TO.N,/BAT1(14V)*%
X177165000Y-74295000D03*
%TO.P,R13,2*%
%TO.N,Net-(U1-D9)*%
X187325000Y-74295000D03*
%TD*%
D11*
%TO.P,J8,1,Pin_1_1*%
%TO.N,/6.2V*%
X137160000Y-121920000D03*
D12*
%TO.P,J8,2,Pin_2_2*%
%TO.N,GND*%
X139700000Y-121920000D03*
%TO.P,J8,3,Pin_3_3*%
%TO.N,/PWM-Servo*%
X142240000Y-121920000D03*
%TD*%
D11*
%TO.P,J5,1,Pin_1_1*%
%TO.N,/6.2V*%
X146050000Y-121920000D03*
D12*
%TO.P,J5,2,Pin_2_2*%
%TO.N,GND*%
X148590000Y-121920000D03*
%TD*%
D13*
%TO.P,R24,1*%
%TO.N,/PWM-Servo*%
X135890000Y-116840000D03*
%TO.P,R24,2*%
%TO.N,Net-(A1-D4)*%
X146050000Y-116840000D03*
%TD*%
%TO.P,R3,1*%
%TO.N,Net-(J1-Pin_3)*%
X130810000Y-66040000D03*
%TO.P,R3,2*%
%TO.N,Net-(U1-D3)*%
X140970000Y-66040000D03*
%TD*%
%TO.P,R5,1*%
%TO.N,Net-(J2-Pin_3)*%
X147320000Y-72390000D03*
%TO.P,R5,2*%
%TO.N,Net-(U1-3.3V)*%
X157480000Y-72390000D03*
%TD*%
%TO.P,C3,1*%
%TO.N,Net-(J1-Pin_1)*%
X139740000Y-82550000D03*
%TO.P,C3,2*%
%TO.N,GND*%
X144740000Y-82550000D03*
%TD*%
D11*
%TO.P,J4,1,Pin_1_1*%
%TO.N,Net-(J1-Pin_1)*%
X136652000Y-92710000D03*
D12*
%TO.P,J4,2,Pin_2_2*%
%TO.N,GND*%
X134112000Y-92710000D03*
%TO.P,J4,3,Pin_3_3*%
%TO.N,Net-(J4-Pin_3)*%
X131572000Y-92710000D03*
%TD*%
D13*
%TO.P,C4,1*%
%TO.N,Net-(J1-Pin_1)*%
X139740000Y-92710000D03*
%TO.P,C4,2*%
%TO.N,GND*%
X144740000Y-92710000D03*
%TD*%
D11*
%TO.P,J6,1,Pin_1_1*%
%TO.N,/BAT1(14V)*%
X173355000Y-74295000D03*
D12*
%TO.P,J6,2,Pin_2_2*%
%TO.N,/BAT2(8V)*%
X173355000Y-76835000D03*
%TD*%
D13*
%TO.P,R4,1*%
%TO.N,Net-(J1-Pin_3)*%
X147320000Y-62230000D03*
%TO.P,R4,2*%
%TO.N,Net-(U1-3.3V)*%
X157480000Y-62230000D03*
%TD*%
D11*
%TO.P,J2,1,Pin_1_1*%
%TO.N,Net-(J1-Pin_1)*%
X136652000Y-72390000D03*
D12*
%TO.P,J2,2,Pin_2_2*%
%TO.N,GND*%
X134112000Y-72390000D03*
%TO.P,J2,3,Pin_3_3*%
%TO.N,Net-(J2-Pin_3)*%
X131572000Y-72390000D03*
%TD*%
D11*
%TO.P,J7,1,Pin_1_1*%
%TO.N,Net-(J7-Pin_1)*%
X130810000Y-102870000D03*
D12*
%TO.P,J7,2,Pin_2_2*%
%TO.N,Net-(J7-Pin_2)*%
X130810000Y-105410000D03*
%TD*%
D13*
%TO.P,R7,1*%
%TO.N,Net-(J3-Pin_3)*%
X147320000Y-82550000D03*
%TO.P,R7,2*%
%TO.N,Net-(U1-3.3V)*%
X157480000Y-82550000D03*
%TD*%
%TO.P,R16,1*%
%TO.N,Net-(A1-D3)*%
X146050000Y-104140000D03*
%TO.P,R16,2*%
%TO.N,Net-(J7-Pin_2)*%
X135890000Y-104140000D03*
%TD*%
%TO.P,R19,1*%
%TO.N,/CH1*%
X180340000Y-119380000D03*
%TO.P,R19,2*%
%TO.N,Net-(A1-D6)*%
X190500000Y-119380000D03*
%TD*%
%TO.P,R1,1*%
%TO.N,Net-(U1-RX)*%
X223520000Y-87630000D03*
%TO.P,R1,2*%
%TO.N,Net-(A1-D0{slash}RX)*%
X223520000Y-97790000D03*
%TD*%
%TO.P,R20,1*%
%TO.N,GND*%
X189865000Y-97790000D03*
%TO.P,R20,2*%
%TO.N,Net-(A1-D7)*%
X179705000Y-97790000D03*
%TD*%
%TO.P,R26,1*%
%TO.N,GND*%
X158750000Y-113030000D03*
%TO.P,R26,2*%
%TO.N,Net-(A1-D5)*%
X148590000Y-113030000D03*
%TD*%
%TO.P,R10,1*%
%TO.N,Net-(J4-Pin_3)*%
X130810000Y-99060000D03*
%TO.P,R10,2*%
%TO.N,Net-(U1-D0)*%
X140970000Y-99060000D03*
%TD*%
%TO.P,C5,1*%
%TO.N,GND*%
X179745000Y-90170000D03*
%TO.P,C5,2*%
%TO.N,Net-(U1-D10)*%
X184745000Y-90170000D03*
%TD*%
D14*
%TO.P,A1,1,D1/TX_1*%
%TO.N,Net-(A1-D1{slash}TX)*%
X182880000Y-116205000D03*
D15*
%TO.P,A1,2,D0/RX_2*%
%TO.N,Net-(A1-D0{slash}RX)*%
X185420000Y-116205000D03*
%TO.P,A1,3,~{RESET}_3*%
%TO.N,unconnected-(A1-~{RESET}-Pad3)*%
X187960000Y-116205000D03*
%TO.P,A1,4,GND_4*%
%TO.N,GND*%
X190500000Y-116205000D03*
%TO.P,A1,5,D2_5*%
%TO.N,Net-(A1-D2)*%
X193040000Y-116205000D03*
%TO.P,A1,6,D3_6*%
%TO.N,Net-(A1-D3)*%
X195580000Y-116205000D03*
%TO.P,A1,7,D4_7*%
%TO.N,Net-(A1-D4)*%
X198120000Y-116205000D03*
%TO.P,A1,8,D5_8*%
%TO.N,Net-(A1-D5)*%
X200660000Y-116205000D03*
%TO.P,A1,9,D6_9*%
%TO.N,Net-(A1-D6)*%
X203200000Y-116205000D03*
%TO.P,A1,10,D7_10*%
%TO.N,Net-(A1-D7)*%
X205740000Y-116205000D03*
%TO.P,A1,11,D8_11*%
%TO.N,unconnected-(A1-D8-Pad11)*%
X208280000Y-116205000D03*
%TO.P,A1,12,D9_12*%
%TO.N,unconnected-(A1-D9-Pad12)*%
X210820000Y-116205000D03*
%TO.P,A1,13,D10/CS_13*%
%TO.N,unconnected-(A1-D10{slash}CS-Pad13)*%
X213360000Y-116205000D03*
%TO.P,A1,14,D11/COPI_14*%
%TO.N,unconnected-(A1-D11{slash}COPI-Pad14)*%
X215900000Y-116205000D03*
%TO.P,A1,15,D12/CIPO_15*%
%TO.N,unconnected-(A1-D12{slash}CIPO-Pad15)*%
X218440000Y-116205000D03*
%TO.P,A1,16,D13/SCK_16*%
%TO.N,unconnected-(A1-D13{slash}SCK-Pad16)*%
X218440000Y-100965000D03*
%TO.P,A1,17,3V3_17*%
%TO.N,unconnected-(A1-3V3-Pad17)*%
X215900000Y-100965000D03*
%TO.P,A1,18,B0_18*%
%TO.N,unconnected-(A1-B0-Pad18)*%
X213360000Y-100965000D03*
%TO.P,A1,19,A0_19*%
%TO.N,unconnected-(A1-A0-Pad19)*%
X210820000Y-100965000D03*
%TO.P,A1,20,A1_20*%
%TO.N,unconnected-(A1-A1-Pad20)*%
X208280000Y-100965000D03*
%TO.P,A1,21,A2_21*%
%TO.N,unconnected-(A1-A2-Pad21)*%
X205740000Y-100965000D03*
%TO.P,A1,22,A3_22*%
%TO.N,unconnected-(A1-A3-Pad22)*%
X203200000Y-100965000D03*
%TO.P,A1,23,SDA/A4_23*%
%TO.N,unconnected-(A1-SDA{slash}A4-Pad23)*%
X200660000Y-100965000D03*
%TO.P,A1,24,SCL/A5_24*%
%TO.N,unconnected-(A1-SCL{slash}A5-Pad24)*%
X198120000Y-100965000D03*
%TO.P,A1,25,A6_25*%
%TO.N,unconnected-(A1-A6-Pad25)*%
X195580000Y-100965000D03*
%TO.P,A1,26,A7_26*%
%TO.N,unconnected-(A1-A7-Pad26)*%
X193040000Y-100965000D03*
%TO.P,A1,27,VUSB/5V_27*%
%TO.N,unconnected-(A1-VUSB{slash}5V-Pad27)*%
X190500000Y-100965000D03*
%TO.P,A1,28,B1_28*%
%TO.N,unconnected-(A1-B1-Pad28)*%
X187960000Y-100965000D03*
%TO.P,A1,29,GND_29*%
%TO.N,GND*%
X185420000Y-100965000D03*
%TO.P,A1,30,VIN_30*%
%TO.N,unconnected-(A1-VIN-Pad30)*%
X182880000Y-100965000D03*
%TD*%
D13*
%TO.P,C1,1*%
%TO.N,Net-(J1-Pin_1)*%
X139740000Y-62230000D03*
%TO.P,C1,2*%
%TO.N,GND*%
X144740000Y-62230000D03*
%TD*%
%TO.P,R6,1*%
%TO.N,Net-(J2-Pin_3)*%
X130810000Y-76200000D03*
%TO.P,R6,2*%
%TO.N,Net-(U1-D2)*%
X140970000Y-76200000D03*
%TD*%
%TO.P,R23,1*%
%TO.N,/PWM-Motor*%
X158750000Y-116840000D03*
%TO.P,R23,2*%
%TO.N,Net-(A1-D5)*%
X148590000Y-116840000D03*
%TD*%
D16*
%TO.N,GND*%
X163830000Y-104565000D03*
X163830000Y-70485000D03*
X163830000Y-82550000D03*
X163830000Y-72390000D03*
X163830000Y-62230000D03*
X163830000Y-84455000D03*
%TO.N,Net-(U1-3.3V)*%
X161290000Y-92710000D03*
X161290000Y-62230000D03*
X161290000Y-70485000D03*
X161290000Y-84455000D03*
X161290000Y-72390000D03*
X161290000Y-82550000D03*
%TD*%
%TO.N,GND*%
D17*
X163830000Y-70485000D02*
X163830000Y-62230000D01*
X163830000Y-82550000D02*
X163830000Y-72390000D01*
X163830000Y-84455000D02*
X163830000Y-104565000D01*
X163830000Y-72390000D02*
X163830000Y-70485000D01*
%TO.N,Net-(U1-3.3V)*%
X161290000Y-70485000D02*
X161290000Y-62230000D01*
X161290000Y-72390000D02*
X161290000Y-70485000D01*
X161290000Y-82550000D02*
X161290000Y-72390000D01*
X161290000Y-92710000D02*
X161290000Y-84455000D01*
X161290000Y-84455000D02*
X161290000Y-82550000D01*
%TD*%
M02*
