%TF.GenerationSoftware,KiCad,Pcbnew,10.0.5*%
%TF.CreationDate,2026-08-29T14:22:06+02:00*%
%TF.ProjectId,AVA,4156412e-6b69-4636-9164-5f7063625858,rev?*%
%TF.SameCoordinates,Original*%
%TF.FileFunction,Copper,L2,Bot*%
%TF.FilePolarity,Positive*%
%FSLAX46Y46*%
G04 Gerber Fmt 4.6, Leading zero omitted, Abs format (unit mm)*
G04 Created by KiCad (PCBNEW 10.0.5) date 2026-08-29 14:22:06*
%MOMM*%
%LPD*%
G01*
G04 APERTURE LIST*
%TA.AperFunction,ComponentPad*%
%ADD10R,1.700000X1.700000*%
%TD*%
%TA.AperFunction,ComponentPad*%
%ADD11C,1.700000*%
%TD*%
%TA.AperFunction,ComponentPad*%
%ADD12C,1.600000*%
%TD*%
%TA.AperFunction,ComponentPad*%
%ADD13C,1.508000*%
%TD*%
%TA.AperFunction,ComponentPad*%
%ADD14R,1.600000X1.600000*%
%TD*%
%TA.AperFunction,ComponentPad*%
%ADD15O,1.600000X1.600000*%
%TD*%
%TA.AperFunction,ViaPad*%
%ADD16C,1.600000*%
%TD*%
%TA.AperFunction,Conductor*%
%ADD17C,1.600000*%
%TD*%
G04 APERTURE END LIST*
D10*
%TO.P,J1,1,Pin_1_1*%
%TO.N,VCC*%
X136652000Y-62230000D03*
D11*
%TO.P,J1,2,Pin_2_2*%
%TO.N,GND*%
X134112000Y-62230000D03*
%TO.P,J1,3,Pin_3_3*%
%TO.N,Net-(J1-Pin_3)*%
X131572000Y-62230000D03*
%TD*%
D10*
%TO.P,J3,1,Pin_1_1*%
%TO.N,VCC*%
X136652000Y-82550000D03*
D11*
%TO.P,J3,2,Pin_2_2*%
%TO.N,GND*%
X134112000Y-82550000D03*
%TO.P,J3,3,Pin_3_3*%
%TO.N,Net-(J3-Pin_3)*%
X131572000Y-82550000D03*
%TD*%
D12*
%TO.P,R17,1*%
%TO.N,GND*%
X160655000Y-107950000D03*
%TO.P,R17,2*%
%TO.N,Net-(A1-D2)*%
X150495000Y-107950000D03*
%TD*%
%TO.P,R11,1*%
%TO.N,/BAT2(8V)*%
X177165000Y-83820000D03*
%TO.P,R11,2*%
%TO.N,Net-(U1-D10)*%
X187325000Y-83820000D03*
%TD*%
%TO.P,C6,1*%
%TO.N,GND*%
X179745000Y-80645000D03*
%TO.P,C6,2*%
%TO.N,Net-(U1-D9)*%
X184745000Y-80645000D03*
%TD*%
%TO.P,C2,1*%
%TO.N,VCC*%
X139740000Y-72390000D03*
%TO.P,C2,2*%
%TO.N,GND*%
X144740000Y-72390000D03*
%TD*%
D10*
%TO.P,J10,1,Pin_1_1*%
%TO.N,/CH1*%
X168910000Y-121920000D03*
D11*
%TO.P,J10,2,Pin_2_2*%
%TO.N,/CH2*%
X166370000Y-121920000D03*
%TO.P,J10,3,Pin_3_3*%
%TO.N,/6.2V*%
X163830000Y-121920000D03*
%TO.P,J10,4,Pin_4_4*%
%TO.N,GND*%
X161290000Y-121920000D03*
%TD*%
D12*
%TO.P,R9,1*%
%TO.N,Net-(J4-Pin_3)*%
X147320000Y-92710000D03*
%TO.P,R9,2*%
%TO.N,Net-(U1-3.3V)*%
X157480000Y-92710000D03*
%TD*%
%TO.P,R18,1*%
%TO.N,Net-(A1-D7)*%
X182245000Y-122555000D03*
%TO.P,R18,2*%
%TO.N,/CH2*%
X172085000Y-122555000D03*
%TD*%
%TO.P,R21,1*%
%TO.N,GND*%
X208280000Y-122555000D03*
%TO.P,R21,2*%
%TO.N,Net-(A1-D6)*%
X218440000Y-122555000D03*
%TD*%
%TO.P,R12,1*%
%TO.N,GND*%
X177165000Y-86995000D03*
%TO.P,R12,2*%
%TO.N,Net-(U1-D10)*%
X187325000Y-86995000D03*
%TD*%
%TO.P,R15,1*%
%TO.N,Net-(A1-D2)*%
X146050000Y-107950000D03*
%TO.P,R15,2*%
%TO.N,Net-(J7-Pin_1)*%
X135890000Y-107950000D03*
%TD*%
%TO.P,R14,1*%
%TO.N,GND*%
X177165000Y-77470000D03*
%TO.P,R14,2*%
%TO.N,Net-(U1-D9)*%
X187325000Y-77470000D03*
%TD*%
%TO.P,R8,1*%
%TO.N,Net-(J3-Pin_3)*%
X130810000Y-86360000D03*
%TO.P,R8,2*%
%TO.N,Net-(U1-D1)*%
X140970000Y-86360000D03*
%TD*%
D10*
%TO.P,J9,1,Pin_1_1*%
%TO.N,/6.2V*%
X152400000Y-121920000D03*
D11*
%TO.P,J9,2,Pin_2_2*%
%TO.N,GND*%
X154940000Y-121920000D03*
%TO.P,J9,3,Pin_3_3*%
%TO.N,/PWM-Motor*%
X157480000Y-121920000D03*
%TD*%
D12*
%TO.P,R2,1*%
%TO.N,Net-(U1-TX)*%
X173355000Y-103505000D03*
%TO.P,R2,2*%
%TO.N,Net-(A1-D1{slash}TX)*%
X173355000Y-113665000D03*
%TD*%
%TO.P,R22,1*%
%TO.N,GND*%
X160655000Y-104775000D03*
%TO.P,R22,2*%
%TO.N,Net-(A1-D3)*%
X150495000Y-104775000D03*
%TD*%
%TO.P,R25,1*%
%TO.N,GND*%
X135890000Y-113030000D03*
%TO.P,R25,2*%
%TO.N,Net-(A1-D4)*%
X146050000Y-113030000D03*
%TD*%
%TO.P,R13,1*%
%TO.N,/BAT1(14V)*%
X177165000Y-74295000D03*
%TO.P,R13,2*%
%TO.N,Net-(U1-D9)*%
X187325000Y-74295000D03*
%TD*%
D10*
%TO.P,J8,1,Pin_1_1*%
%TO.N,/6.2V*%
X137160000Y-121920000D03*
D11*
%TO.P,J8,2,Pin_2_2*%
%TO.N,GND*%
X139700000Y-121920000D03*
%TO.P,J8,3,Pin_3_3*%
%TO.N,/PWM-Servo*%
X142240000Y-121920000D03*
%TD*%
D10*
%TO.P,J5,1,Pin_1_1*%
%TO.N,/6.2V*%
X146050000Y-121920000D03*
D11*
%TO.P,J5,2,Pin_2_2*%
%TO.N,GND*%
X148590000Y-121920000D03*
%TD*%
D12*
%TO.P,R24,1*%
%TO.N,/PWM-Servo*%
X135890000Y-116840000D03*
%TO.P,R24,2*%
%TO.N,Net-(A1-D4)*%
X146050000Y-116840000D03*
%TD*%
%TO.P,R3,1*%
%TO.N,Net-(J1-Pin_3)*%
X130810000Y-66040000D03*
%TO.P,R3,2*%
%TO.N,Net-(U1-D3)*%
X140970000Y-66040000D03*
%TD*%
%TO.P,R5,1*%
%TO.N,Net-(J2-Pin_3)*%
X147320000Y-72390000D03*
%TO.P,R5,2*%
%TO.N,Net-(U1-3.3V)*%
X157480000Y-72390000D03*
%TD*%
%TO.P,C3,1*%
%TO.N,VCC*%
X139740000Y-82550000D03*
%TO.P,C3,2*%
%TO.N,GND*%
X144740000Y-82550000D03*
%TD*%
D10*
%TO.P,J4,1,Pin_1_1*%
%TO.N,VCC*%
X136652000Y-92710000D03*
D11*
%TO.P,J4,2,Pin_2_2*%
%TO.N,GND*%
X134112000Y-92710000D03*
%TO.P,J4,3,Pin_3_3*%
%TO.N,Net-(J4-Pin_3)*%
X131572000Y-92710000D03*
%TD*%
D12*
%TO.P,C4,1*%
%TO.N,VCC*%
X139740000Y-92710000D03*
%TO.P,C4,2*%
%TO.N,GND*%
X144740000Y-92710000D03*
%TD*%
D10*
%TO.P,J6,1,Pin_1_1*%
%TO.N,/BAT1(14V)*%
X173355000Y-74295000D03*
D11*
%TO.P,J6,2,Pin_2_2*%
%TO.N,/BAT2(8V)*%
X173355000Y-76835000D03*
%TD*%
D12*
%TO.P,R4,1*%
%TO.N,Net-(J1-Pin_3)*%
X147320000Y-62230000D03*
%TO.P,R4,2*%
%TO.N,Net-(U1-3.3V)*%
X157480000Y-62230000D03*
%TD*%
D10*
%TO.P,J2,1,Pin_1_1*%
%TO.N,VCC*%
X136652000Y-72390000D03*
D11*
%TO.P,J2,2,Pin_2_2*%
%TO.N,GND*%
X134112000Y-72390000D03*
%TO.P,J2,3,Pin_3_3*%
%TO.N,Net-(J2-Pin_3)*%
X131572000Y-72390000D03*
%TD*%
D10*
%TO.P,J7,1,Pin_1_1*%
%TO.N,Net-(J7-Pin_1)*%
X130810000Y-102870000D03*
D11*
%TO.P,J7,2,Pin_2_2*%
%TO.N,Net-(J7-Pin_2)*%
X130810000Y-105410000D03*
%TD*%
D12*
%TO.P,R7,1*%
%TO.N,Net-(J3-Pin_3)*%
X147320000Y-82550000D03*
%TO.P,R7,2*%
%TO.N,Net-(U1-3.3V)*%
X157480000Y-82550000D03*
%TD*%
%TO.P,R16,1*%
%TO.N,Net-(A1-D3)*%
X146050000Y-104140000D03*
%TO.P,R16,2*%
%TO.N,Net-(J7-Pin_2)*%
X135890000Y-104140000D03*
%TD*%
%TO.P,R19,1*%
%TO.N,/CH1*%
X172085000Y-119380000D03*
%TO.P,R19,2*%
%TO.N,Net-(A1-D6)*%
X182245000Y-119380000D03*
%TD*%
%TO.P,R1,1*%
%TO.N,Net-(U1-RX)*%
X177165000Y-103505000D03*
%TO.P,R1,2*%
%TO.N,Net-(A1-D0{slash}RX)*%
X177165000Y-113665000D03*
%TD*%
%TO.P,R20,1*%
%TO.N,GND*%
X208280000Y-119380000D03*
%TO.P,R20,2*%
%TO.N,Net-(A1-D7)*%
X218440000Y-119380000D03*
%TD*%
%TO.P,R26,1*%
%TO.N,GND*%
X158750000Y-113030000D03*
%TO.P,R26,2*%
%TO.N,Net-(A1-D5)*%
X148590000Y-113030000D03*
%TD*%
%TO.P,R10,1*%
%TO.N,Net-(J4-Pin_3)*%
X130810000Y-99060000D03*
%TO.P,R10,2*%
%TO.N,Net-(U1-D0)*%
X140970000Y-99060000D03*
%TD*%
D13*
%TO.P,U1,1,D5_1*%
%TO.N,unconnected-(U1-D5-Pad1)*%
X212980000Y-65145000D03*
%TO.P,U1,2,D6_2*%
%TO.N,unconnected-(U1-D6-Pad2)*%
X210440000Y-65145000D03*
%TO.P,U1,3,D7_3*%
%TO.N,unconnected-(U1-D7-Pad3)*%
X207900000Y-65145000D03*
%TO.P,U1,4,D8_4*%
%TO.N,unconnected-(U1-D8-Pad4)*%
X205360000Y-65145000D03*
%TO.P,U1,5,D9_5*%
%TO.N,Net-(U1-D9)*%
X202820000Y-65145000D03*
%TO.P,U1,6,D10_6*%
%TO.N,Net-(U1-D10)*%
X200280000Y-65145000D03*
%TO.P,U1,7,RX_7*%
%TO.N,Net-(U1-RX)*%
X197740000Y-65145000D03*
%TO.P,U1,8,TX_8*%
%TO.N,Net-(U1-TX)*%
X195200000Y-65145000D03*
%TO.P,U1,9,D0_9*%
%TO.N,Net-(U1-D0)*%
X195530000Y-80645000D03*
%TO.P,U1,10,D1_10*%
%TO.N,Net-(U1-D1)*%
X198030000Y-80645000D03*
%TO.P,U1,11,D2_11*%
%TO.N,Net-(U1-D2)*%
X200530000Y-80645000D03*
%TO.P,U1,12,D3_12*%
%TO.N,Net-(U1-D3)*%
X203030000Y-80645000D03*
%TO.P,U1,13,D4_13*%
%TO.N,unconnected-(U1-D4-Pad13)*%
X205530000Y-80645000D03*
%TO.P,U1,14,3.3V_14*%
%TO.N,Net-(U1-3.3V)*%
X208030000Y-80645000D03*
%TO.P,U1,15,GND_15*%
%TO.N,GND*%
X210530000Y-80645000D03*
%TO.P,U1,16,5V_16*%
%TO.N,VCC*%
X213030000Y-80645000D03*
%TD*%
D12*
%TO.P,C5,1*%
%TO.N,GND*%
X179745000Y-90170000D03*
%TO.P,C5,2*%
%TO.N,Net-(U1-D10)*%
X184745000Y-90170000D03*
%TD*%
D14*
%TO.P,A1,1,D1/TX_1*%
%TO.N,Net-(A1-D1{slash}TX)*%
X182880000Y-116205000D03*
D15*
%TO.P,A1,2,D0/RX_2*%
%TO.N,Net-(A1-D0{slash}RX)*%
X185420000Y-116205000D03*
%TO.P,A1,3,~{RESET}_3*%
%TO.N,unconnected-(A1-~{RESET}-Pad3)*%
X187960000Y-116205000D03*
%TO.P,A1,4,GND_4*%
%TO.N,GND*%
X190500000Y-116205000D03*
%TO.P,A1,5,D2_5*%
%TO.N,Net-(A1-D2)*%
X193040000Y-116205000D03*
%TO.P,A1,6,D3_6*%
%TO.N,Net-(A1-D3)*%
X195580000Y-116205000D03*
%TO.P,A1,7,D4_7*%
%TO.N,Net-(A1-D4)*%
X198120000Y-116205000D03*
%TO.P,A1,8,D5_8*%
%TO.N,Net-(A1-D5)*%
X200660000Y-116205000D03*
%TO.P,A1,9,D6_9*%
%TO.N,Net-(A1-D6)*%
X203200000Y-116205000D03*
%TO.P,A1,10,D7_10*%
%TO.N,Net-(A1-D7)*%
X205740000Y-116205000D03*
%TO.P,A1,11,D8_11*%
%TO.N,unconnected-(A1-D8-Pad11)*%
X208280000Y-116205000D03*
%TO.P,A1,12,D9_12*%
%TO.N,unconnected-(A1-D9-Pad12)*%
X210820000Y-116205000D03*
%TO.P,A1,13,D10/CS_13*%
%TO.N,unconnected-(A1-D10{slash}CS-Pad13)*%
X213360000Y-116205000D03*
%TO.P,A1,14,D11/COPI_14*%
%TO.N,unconnected-(A1-D11{slash}COPI-Pad14)*%
X215900000Y-116205000D03*
%TO.P,A1,15,D12/CIPO_15*%
%TO.N,unconnected-(A1-D12{slash}CIPO-Pad15)*%
X218440000Y-116205000D03*
%TO.P,A1,16,D13/SCK_16*%
%TO.N,unconnected-(A1-D13{slash}SCK-Pad16)*%
X218440000Y-100965000D03*
%TO.P,A1,17,3V3_17*%
%TO.N,unconnected-(A1-3V3-Pad17)*%
X215900000Y-100965000D03*
%TO.P,A1,18,B0_18*%
%TO.N,unconnected-(A1-B0-Pad18)*%
X213360000Y-100965000D03*
%TO.P,A1,19,A0_19*%
%TO.N,unconnected-(A1-A0-Pad19)*%
X210820000Y-100965000D03*
%TO.P,A1,20,A1_20*%
%TO.N,unconnected-(A1-A1-Pad20)*%
X208280000Y-100965000D03*
%TO.P,A1,21,A2_21*%
%TO.N,unconnected-(A1-A2-Pad21)*%
X205740000Y-100965000D03*
%TO.P,A1,22,A3_22*%
%TO.N,unconnected-(A1-A3-Pad22)*%
X203200000Y-100965000D03*
%TO.P,A1,23,SDA/A4_23*%
%TO.N,unconnected-(A1-SDA{slash}A4-Pad23)*%
X200660000Y-100965000D03*
%TO.P,A1,24,SCL/A5_24*%
%TO.N,unconnected-(A1-SCL{slash}A5-Pad24)*%
X198120000Y-100965000D03*
%TO.P,A1,25,A6_25*%
%TO.N,unconnected-(A1-A6-Pad25)*%
X195580000Y-100965000D03*
%TO.P,A1,26,A7_26*%
%TO.N,unconnected-(A1-A7-Pad26)*%
X193040000Y-100965000D03*
%TO.P,A1,27,VUSB/5V_27*%
%TO.N,unconnected-(A1-VUSB{slash}5V-Pad27)*%
X190500000Y-100965000D03*
%TO.P,A1,28,B1_28*%
%TO.N,unconnected-(A1-B1-Pad28)*%
X187960000Y-100965000D03*
%TO.P,A1,29,GND_29*%
%TO.N,GND*%
X185420000Y-100965000D03*
%TO.P,A1,30,VIN_30*%
%TO.N,unconnected-(A1-VIN-Pad30)*%
X182880000Y-100965000D03*
%TD*%
D12*
%TO.P,C1,1*%
%TO.N,VCC*%
X139740000Y-62230000D03*
%TO.P,C1,2*%
%TO.N,GND*%
X144740000Y-62230000D03*
%TD*%
%TO.P,R6,1*%
%TO.N,Net-(J2-Pin_3)*%
X130810000Y-76200000D03*
%TO.P,R6,2*%
%TO.N,Net-(U1-D2)*%
X140970000Y-76200000D03*
%TD*%
%TO.P,R23,1*%
%TO.N,/PWM-Motor*%
X158750000Y-116840000D03*
%TO.P,R23,2*%
%TO.N,Net-(A1-D5)*%
X148590000Y-116840000D03*
%TD*%
D16*
%TO.N,Net-(U1-D3)*%
X207645000Y-74930000D03*
X217170000Y-66675000D03*
%TO.N,Net-(U1-D2)*%
X197443652Y-86953652D03*
%TO.N,Net-(U1-D1)*%
X195863268Y-85373268D03*
%TO.N,Net-(U1-D0)*%
X194282884Y-83792884D03*
%TO.N,Net-(U1-3.3V)*%
X207645000Y-78105000D03*
%TO.N,Net-(U1-D2)*%
X170490384Y-86049616D03*
%TO.N,Net-(U1-D1)*%
X172085000Y-90805000D03*
%TO.N,Net-(U1-D0)*%
X179705000Y-93345000D03*
%TO.N,/PWM-Motor*%
X158750000Y-116840000D03*
%TO.N,Net-(A1-D5)*%
X148590000Y-119380000D03*
X200660000Y-111760000D03*
%TO.N,Net-(A1-D4)*%
X146050000Y-111125000D03*
%TO.N,Net-(A1-D2)*%
X160655000Y-110490000D03*
%TO.N,Net-(A1-D4)*%
X198120000Y-111760000D03*
%TO.N,Net-(A1-D3)*%
X150495000Y-102235000D03*
X195580000Y-111760000D03*
%TO.N,Net-(A1-D2)*%
X150495000Y-110490000D03*
X193040000Y-111760000D03*
%TD*%
%TO.N,Net-(A1-D2)*%
D17*
X146050000Y-107950000D02*
X150495000Y-107950000D01*
%TO.N,Net-(U1-D3)*%
X203030000Y-79545000D02*
X203030000Y-80645000D01*
X215900000Y-64969286D02*
X215900000Y-65405000D01*
X215900000Y-65405000D02*
X217170000Y-66675000D01*
X207645000Y-74930000D02*
X203030000Y-79545000D01*
%TO.N,Net-(U1-TX)*%
X173355000Y-103505000D02*
X182245000Y-94615000D01*
X182245000Y-94615000D02*
X217819232Y-94615000D01*
X217819232Y-94615000D02*
X219710000Y-92724232D01*
X219710000Y-92724232D02*
X219710000Y-79375000D01*
X219710000Y-79375000D02*
X211455000Y-71120000D01*
X195200000Y-70090767D02*
X195200000Y-65145000D01*
X211455000Y-71120000D02*
X196229233Y-71120000D01*
X196229233Y-71120000D02*
X195200000Y-70090767D01*
%TO.N,Net-(U1-RX)*%
X177165000Y-103505000D02*
X183515000Y-97155000D01*
X183515000Y-97155000D02*
X218440000Y-97155000D01*
X198120000Y-68580000D02*
X197740000Y-68200000D01*
X197740000Y-68200000D02*
X197740000Y-65145000D01*
X218440000Y-97155000D02*
X223520000Y-92075000D01*
X223520000Y-92075000D02*
X223520000Y-80010000D01*
X223520000Y-80010000D02*
X212090000Y-68580000D01*
X212090000Y-68580000D02*
X198120000Y-68580000D01*
%TO.N,Net-(U1-D2)*%
X197443652Y-86953652D02*
X200530000Y-83867304D01*
X200530000Y-83867304D02*
X200530000Y-80645000D01*
%TO.N,Net-(U1-D1)*%
X195863268Y-85373268D02*
X198030000Y-83206536D01*
X198030000Y-83206536D02*
X198030000Y-80645000D01*
%TO.N,Net-(U1-D0)*%
X194282884Y-83792884D02*
X195552884Y-82522884D01*
X195552884Y-82522884D02*
X195552884Y-80667884D01*
X195552884Y-80667884D02*
X195530000Y-80645000D01*
%TO.N,Net-(U1-3.3V)*%
X208030000Y-78490000D02*
X207645000Y-78105000D01*
X208030000Y-80645000D02*
X208030000Y-78490000D01*
%TO.N,Net-(U1-D2)*%
X140970000Y-76200000D02*
X160640768Y-76200000D01*
X160640768Y-76200000D02*
X170490384Y-86049616D01*
%TO.N,Net-(U1-D1)*%
X167640000Y-86360000D02*
X172085000Y-90805000D01*
X140970000Y-86360000D02*
X167640000Y-86360000D01*
%TO.N,Net-(U1-D9)*%
X202820000Y-65145000D02*
X202820000Y-63457916D01*
X187325000Y-66698466D02*
X187325000Y-74295000D01*
X202820000Y-63457916D02*
X200037084Y-60675000D01*
X200037084Y-60675000D02*
X193348465Y-60675000D01*
X193348465Y-60675000D02*
X187325000Y-66698466D01*
%TO.N,Net-(U1-D10)*%
X200280000Y-65145000D02*
X200280000Y-64078683D01*
X200280000Y-64078683D02*
X199111317Y-62910000D01*
X199111317Y-62910000D02*
X194274233Y-62910000D01*
X194274233Y-62910000D02*
X189560000Y-67624233D01*
X189560000Y-67624233D02*
X189560000Y-81585000D01*
X189560000Y-81585000D02*
X187325000Y-83820000D01*
%TO.N,Net-(J4-Pin_3)*%
X147320000Y-92710000D02*
X147320000Y-91578630D01*
X147320000Y-91578630D02*
X146166370Y-90425000D01*
X146166370Y-90425000D02*
X132654919Y-90425000D01*
X132654919Y-90425000D02*
X131572000Y-91507919D01*
X131572000Y-91507919D02*
X131572000Y-92710000D01*
%TO.N,Net-(J3-Pin_3)*%
X147320000Y-82550000D02*
X147320000Y-81418630D01*
X147320000Y-81418630D02*
X146166370Y-80265000D01*
X146166370Y-80265000D02*
X132460000Y-80265000D01*
X132460000Y-80265000D02*
X131572000Y-81153000D01*
X131572000Y-81153000D02*
X131572000Y-82550000D01*
%TO.N,Net-(J2-Pin_3)*%
X147320000Y-72390000D02*
X147320000Y-71809232D01*
X147320000Y-71809232D02*
X145615768Y-70105000D01*
X145615768Y-70105000D02*
X133165522Y-70105000D01*
X133165522Y-70105000D02*
X131572000Y-71698522D01*
X131572000Y-71698522D02*
X131572000Y-72390000D01*
%TO.N,Net-(J1-Pin_3)*%
X147320000Y-62230000D02*
X147320000Y-61098630D01*
X147320000Y-61098630D02*
X146166370Y-59945000D01*
X146166370Y-59945000D02*
X132654919Y-59945000D01*
X132654919Y-59945000D02*
X131572000Y-61027919D01*
X131572000Y-61027919D02*
X131572000Y-62230000D01*
X130810000Y-66040000D02*
X130810000Y-62992000D01*
X130810000Y-62992000D02*
X131572000Y-62230000D01*
%TO.N,Net-(J2-Pin_3)*%
X130810000Y-76200000D02*
X130810000Y-73152000D01*
X130810000Y-73152000D02*
X131572000Y-72390000D01*
%TO.N,Net-(J3-Pin_3)*%
X130810000Y-86360000D02*
X130810000Y-83312000D01*
X130810000Y-83312000D02*
X131572000Y-82550000D01*
%TO.N,Net-(J4-Pin_3)*%
X130810000Y-99060000D02*
X130810000Y-93472000D01*
X130810000Y-93472000D02*
X131572000Y-92710000D01*
%TO.N,Net-(J7-Pin_2)*%
X135890000Y-104140000D02*
X138125000Y-106375000D01*
X130810000Y-106030767D02*
X130810000Y-105410000D01*
X138125000Y-106375000D02*
X138125000Y-108875768D01*
X138125000Y-108875768D02*
X136815768Y-110185000D01*
X136815768Y-110185000D02*
X134964232Y-110185000D01*
X134964232Y-110185000D02*
X130810000Y-106030767D01*
%TO.N,Net-(J7-Pin_1)*%
X135890000Y-107950000D02*
X133095000Y-105155000D01*
X133095000Y-105155000D02*
X133095000Y-104463522D01*
X133095000Y-104463522D02*
X131501478Y-102870000D01*
X131501478Y-102870000D02*
X130810000Y-102870000D01*
%TO.N,/PWM-Servo*%
X142240000Y-121920000D02*
X142240000Y-120717919D01*
X142240000Y-120717919D02*
X138362081Y-116840000D01*
X138362081Y-116840000D02*
X135890000Y-116840000D01*
%TO.N,/6.2V*%
X147643522Y-124205000D02*
X138753522Y-124205000D01*
X138753522Y-124205000D02*
X137160000Y-122611478D01*
X137160000Y-122611478D02*
X137160000Y-121920000D01*
X152655000Y-124205000D02*
X147643522Y-124205000D01*
X147643522Y-124205000D02*
X146050000Y-122611478D01*
X146050000Y-122611478D02*
X146050000Y-121920000D01*
X163830000Y-121920000D02*
X163830000Y-123122081D01*
X163830000Y-123122081D02*
X162747081Y-124205000D01*
X152655000Y-124205000D02*
X152400000Y-123950000D01*
X162747081Y-124205000D02*
X152655000Y-124205000D01*
X152400000Y-123950000D02*
X152400000Y-121920000D01*
%TO.N,/PWM-Motor*%
X157480000Y-121920000D02*
X157480000Y-118110000D01*
X157480000Y-118110000D02*
X158750000Y-116840000D01*
%TO.N,Net-(A1-D5)*%
X148590000Y-113030000D02*
X148590000Y-116840000D01*
X148590000Y-119380000D02*
X148590000Y-116840000D01*
X200660000Y-116205000D02*
X200660000Y-111760000D01*
%TO.N,Net-(A1-D4)*%
X146050000Y-111125000D02*
X146050000Y-113030000D01*
%TO.N,Net-(A1-D2)*%
X160655000Y-110490000D02*
X150495000Y-110490000D01*
%TO.N,Net-(A1-D4)*%
X198120000Y-116205000D02*
X198120000Y-111760000D01*
%TO.N,Net-(A1-D3)*%
X150495000Y-104775000D02*
X146685000Y-104775000D01*
X146685000Y-104775000D02*
X146050000Y-104140000D01*
X195580000Y-116205000D02*
X195580000Y-111760000D01*
X150495000Y-102235000D02*
X150495000Y-104775000D01*
%TO.N,Net-(A1-D2)*%
X193040000Y-116205000D02*
X193040000Y-111760000D01*
X150495000Y-110490000D02*
X150495000Y-107950000D01*
%TO.N,Net-(A1-D0{slash}RX)*%
X177165000Y-113665000D02*
X184810000Y-113665000D01*
%TO.N,Net-(A1-D1{slash}TX)*%
X173355000Y-113665000D02*
X175895000Y-116205000D01*
X175895000Y-116205000D02*
X182880000Y-116205000D01*
%TO.N,Net-(A1-D6)*%
X203200000Y-116205000D02*
X203200000Y-117336370D01*
X203200000Y-117336370D02*
X201156370Y-119380000D01*
X201156370Y-119380000D02*
X182245000Y-119380000D01*
%TO.N,Net-(A1-D7)*%
X205740000Y-116205000D02*
X205740000Y-117957137D01*
X205740000Y-117957137D02*
X201142137Y-122555000D01*
X201142137Y-122555000D02*
X182245000Y-122555000D01*
%TO.N,/CH2*%
X172085000Y-122555000D02*
X170435000Y-124205000D01*
X170435000Y-124205000D02*
X166625000Y-124205000D01*
%TO.N,/CH1*%
X172085000Y-119380000D02*
X171450000Y-119380000D01*
X171450000Y-119380000D02*
X168910000Y-121920000D01*
%TO.N,Net-(A1-D0{slash}RX)*%
X184810000Y-113665000D02*
X185420000Y-114275000D01*
X185420000Y-114275000D02*
X185420000Y-116205000D01*
%TO.N,Net-(A1-D6)*%
X218440000Y-122555000D02*
X222910000Y-118085000D01*
X222910000Y-118085000D02*
X222910000Y-114353464D01*
X222910000Y-114353464D02*
X220291535Y-111735000D01*
X220291535Y-111735000D02*
X205144232Y-111735000D01*
X205144232Y-111735000D02*
X203200000Y-113679232D01*
X203200000Y-113679232D02*
X203200000Y-116205000D01*
%TO.N,Net-(A1-D7)*%
X218440000Y-119380000D02*
X220675000Y-117145000D01*
X220675000Y-117145000D02*
X220675000Y-115279232D01*
X220675000Y-115279232D02*
X219365768Y-113970000D01*
X219365768Y-113970000D02*
X206070000Y-113970000D01*
X206070000Y-113970000D02*
X205740000Y-114300000D01*
X205740000Y-114300000D02*
X205740000Y-116205000D01*
%TO.N,/BAT2(8V)*%
X173355000Y-76835000D02*
X173355000Y-80010000D01*
X173355000Y-80010000D02*
X177165000Y-83820000D01*
%TO.N,/BAT1(14V)*%
X177165000Y-74295000D02*
X173355000Y-74295000D01*
%TO.N,Net-(U1-D9)*%
X187325000Y-74295000D02*
X187325000Y-77470000D01*
X184745000Y-80645000D02*
X184745000Y-80050000D01*
X184745000Y-80050000D02*
X187325000Y-77470000D01*
%TO.N,Net-(U1-D10)*%
X187325000Y-83820000D02*
X187325000Y-86995000D01*
X184745000Y-90170000D02*
X184745000Y-89575000D01*
X184745000Y-89575000D02*
X187325000Y-86995000D01*
%TO.N,/CH2*%
X166625000Y-124205000D02*
X166370000Y-123950000D01*
X166370000Y-123950000D02*
X166370000Y-121920000D01*
%TO.N,Net-(U1-D0)*%
X179705000Y-93345000D02*
X177800000Y-95250000D01*
X177800000Y-95250000D02*
X144780000Y-95250000D01*
X144780000Y-95250000D02*
X140970000Y-99060000D01*
%TO.N,Net-(U1-D3)*%
X140970000Y-66040000D02*
X150509232Y-66040000D01*
X150509232Y-66040000D02*
X156859232Y-59690000D01*
X156859232Y-59690000D02*
X191172697Y-59690000D01*
X191172697Y-59690000D02*
X192422698Y-58440000D01*
X192422698Y-58440000D02*
X209370714Y-58440000D01*
X209370714Y-58440000D02*
X215900000Y-64969286D01*
%TD*%
%TA.AperFunction,Conductor*%
%TO.N,GND*%
G36*
X226653539Y-51401185D02*
G01*
X226699294Y-51453989D01*
X226710500Y-51505500D01*
X226710500Y-125856500D01*
X226690815Y-125923539D01*
X226638011Y-125969294D01*
X226586500Y-125980500D01*
X127235500Y-125980500D01*
X127168461Y-125960815D01*
X127122706Y-125908011D01*
X127111500Y-125856500D01*
X127111500Y-122306711D01*
X128832500Y-122306711D01*
X128832500Y-122549288D01*
X128860015Y-122758294D01*
X128864162Y-122789789D01*
X128891321Y-122891147D01*
X128926947Y-123024104D01*
X129019773Y-123248205D01*
X129019776Y-123248212D01*
X129141064Y-123458289D01*
X129141066Y-123458292D01*
X129141067Y-123458293D01*
X129288733Y-123650736D01*
X129288739Y-123650743D01*
X129460256Y-123822260D01*
X129460262Y-123822265D01*
X129652711Y-123969936D01*
X129862788Y-124091224D01*
X130086900Y-124184054D01*
X130321211Y-124246838D01*
X130501586Y-124270584D01*
X130561711Y-124278500D01*
X130561712Y-124278500D01*
X130804289Y-124278500D01*
X130852388Y-124272167D01*
X131044789Y-124246838D01*
X131279100Y-124184054D01*
X131503212Y-124091224D01*
X131713289Y-123969936D01*
X131905738Y-123822265D01*
X132077265Y-123650738D01*
X132224936Y-123458289D01*
X132346224Y-123248212D01*
X132439054Y-123024100D01*
X132501838Y-122789789D01*
X132533500Y-122549288D01*
X132533500Y-122306712D01*
X132528384Y-122267855D01*
X132501838Y-122066214D01*
X132501838Y-122066211D01*
X132439054Y-121831900D01*
X132346224Y-121607788D01*
X132224936Y-121397711D01*
X132092157Y-121224670D01*
X132077266Y-121205263D01*
X132077260Y-121205256D01*
X131905743Y-121033739D01*
X131905736Y-121033733D01*
X131713293Y-120886067D01*
X131713292Y-120886066D01*
X131713289Y-120886064D01*
X131535804Y-120783593D01*
X131503214Y-120764777D01*
X131503205Y-120764773D01*
X131279104Y-120671947D01*
X131091290Y-120621622D01*
X131044789Y-120609162D01*
X131044788Y-120609161D01*
X131044785Y-120609161D01*
X130804289Y-120577500D01*
X130804288Y-120577500D01*
X130561712Y-120577500D01*
X130561711Y-120577500D01*
X130321214Y-120609161D01*
X130086895Y-120671947D01*
X129862794Y-120764773D01*
X129862785Y-120764777D01*
X129652706Y-120886067D01*
X129460263Y-121033733D01*
X129460256Y-121033739D01*
X129288739Y-121205256D01*
X129288733Y-121205263D01*
X129141067Y-121397706D01*
X129019777Y-121607785D01*
X129019773Y-121607794D01*
X128926947Y-121831895D01*
X128864161Y-122066214D01*
X128832500Y-122306711D01*
X127111500Y-122306711D01*
X127111500Y-116727024D01*
X134454500Y-116727024D01*
X134454500Y-116952976D01*
X134464334Y-117015062D01*
X134489847Y-117176148D01*
X134559668Y-117391038D01*
X134559669Y-117391041D01*
X134633189Y-117535331D01*
X134662250Y-117592366D01*
X134795062Y-117775166D01*
X134954834Y-117934938D01*
X135137634Y-118067750D01*
X135224499Y-118112010D01*
X135338958Y-118170330D01*
X135338961Y-118170331D01*
X135424042Y-118197975D01*
X135553853Y-118240153D01*
X135777024Y-118275500D01*
X137716115Y-118275500D01*
X137783154Y-118295185D01*
X137803796Y-118311819D01*
X139274731Y-119782754D01*
X139850297Y-120358319D01*
X139883782Y-120419642D01*
X139878798Y-120489334D01*
X139836926Y-120545267D01*
X139771462Y-120569684D01*
X139762616Y-120570000D01*
X139593754Y-120570000D01*
X139383872Y-120603242D01*
X139269071Y-120640542D01*
X139269071Y-120640543D01*
X140036583Y-121408055D01*
X140070068Y-121469378D01*
X140065084Y-121539070D01*
X140049861Y-121562755D01*
X140007007Y-121519901D01*
X139892993Y-121454075D01*
X139765826Y-121420000D01*
X139634174Y-121420000D01*
X139507007Y-121454075D01*
X139392993Y-121519901D01*
X139299901Y-121612993D01*
X139234075Y-121727007D01*
X139200000Y-121854174D01*
X139200000Y-121985826D01*
X139234075Y-122112993D01*
X139299901Y-122227007D01*
X139341464Y-122268570D01*
X139302094Y-122290068D01*
X139232402Y-122285084D01*
X139188055Y-122256583D01*
X138681818Y-121750346D01*
X138648333Y-121689023D01*
X138645499Y-121662665D01*
X138645499Y-121005831D01*
X138645498Y-121005806D01*
X138645217Y-121002236D01*
X138642665Y-120969796D01*
X138597869Y-120815607D01*
X138516135Y-120677402D01*
X138516133Y-120677400D01*
X138516130Y-120677396D01*
X138402603Y-120563869D01*
X138402595Y-120563863D01*
X138264393Y-120482131D01*
X138264388Y-120482129D01*
X138110208Y-120437335D01*
X138110202Y-120437334D01*
X138074181Y-120434500D01*
X136245831Y-120434500D01*
X136245806Y-120434501D01*
X136209795Y-120437335D01*
X136055611Y-120482129D01*
X136055606Y-120482131D01*
X135917404Y-120563863D01*
X135917396Y-120563869D01*
X135803869Y-120677396D01*
X135803863Y-120677404D01*
X135722131Y-120815606D01*
X135722129Y-120815611D01*
X135677335Y-120969791D01*
X135677334Y-120969797D01*
X135674500Y-121005811D01*
X135674500Y-122834168D01*
X135674501Y-122834193D01*
X135677335Y-122870204D01*
X135722129Y-123024388D01*
X135722131Y-123024393D01*
X135803863Y-123162595D01*
X135803869Y-123162603D01*
X135842669Y-123201402D01*
X135865474Y-123232789D01*
X135903473Y-123307366D01*
X135932250Y-123363844D01*
X136065062Y-123546644D01*
X137658583Y-125140165D01*
X137658584Y-125140166D01*
X137818356Y-125299938D01*
X138001156Y-125432750D01*
X138096274Y-125481215D01*
X138202476Y-125535328D01*
X138202478Y-125535328D01*
X138202481Y-125535330D01*
X138417374Y-125605153D01*
X138640546Y-125640500D01*
X138640547Y-125640500D01*
X162860056Y-125640500D01*
X162860057Y-125640500D01*
X163083228Y-125605153D01*
X163298122Y-125535330D01*
X163499447Y-125432750D01*
X163682247Y-125299938D01*
X164760327Y-124221857D01*
X164821648Y-124188374D01*
X164891340Y-124193358D01*
X164947273Y-124235230D01*
X164966986Y-124281830D01*
X164968711Y-124281416D01*
X164969846Y-124286145D01*
X165039668Y-124501038D01*
X165039669Y-124501041D01*
X165142250Y-124702366D01*
X165275062Y-124885166D01*
X165530061Y-125140165D01*
X165530062Y-125140166D01*
X165689834Y-125299938D01*
X165872634Y-125432750D01*
X165967752Y-125481215D01*
X166073954Y-125535328D01*
X166073956Y-125535328D01*
X166073959Y-125535330D01*
X166288852Y-125605153D01*
X166512024Y-125640500D01*
X166512025Y-125640500D01*
X170547975Y-125640500D01*
X170547976Y-125640500D01*
X170771147Y-125605153D01*
X170986041Y-125535330D01*
X171187366Y-125432750D01*
X171370166Y-125299938D01*
X173179938Y-123490166D01*
X173312750Y-123307366D01*
X173415330Y-123106041D01*
X173435003Y-123045493D01*
X173485153Y-122891148D01*
X173520500Y-122667976D01*
X173520500Y-122442024D01*
X173485153Y-122218853D01*
X173435003Y-122064507D01*
X173426037Y-122036911D01*
X173415332Y-122003964D01*
X173415330Y-122003958D01*
X173339011Y-121854174D01*
X173312750Y-121802634D01*
X173179938Y-121619834D01*
X173020166Y-121460062D01*
X172837366Y-121327250D01*
X172808461Y-121312522D01*
X172636041Y-121224669D01*
X172636038Y-121224668D01*
X172421148Y-121154847D01*
X172309561Y-121137173D01*
X172197976Y-121119500D01*
X172039966Y-121119500D01*
X171972927Y-121099815D01*
X171927172Y-121047011D01*
X171917228Y-120977853D01*
X171946253Y-120914297D01*
X171952285Y-120907819D01*
X172008285Y-120851819D01*
X172069608Y-120818334D01*
X172095966Y-120815500D01*
X172197975Y-120815500D01*
X172197976Y-120815500D01*
X172421147Y-120780153D01*
X172636041Y-120710330D01*
X172837366Y-120607750D01*
X173020166Y-120474938D01*
X173179938Y-120315166D01*
X173312750Y-120132366D01*
X173415330Y-119931041D01*
X173485153Y-119716147D01*
X173520500Y-119492976D01*
X173520500Y-119267024D01*
X180809500Y-119267024D01*
X180809500Y-119492975D01*
X180844847Y-119716148D01*
X180914668Y-119931038D01*
X180914669Y-119931041D01*
X181017250Y-120132366D01*
X181150062Y-120315166D01*
X181309834Y-120474938D01*
X181492634Y-120607750D01*
X181556992Y-120640542D01*
X181693958Y-120710330D01*
X181693961Y-120710331D01*
X181777460Y-120737461D01*
X181908853Y-120780153D01*
X182132024Y-120815500D01*
X200552171Y-120815500D01*
X200619210Y-120835185D01*
X200664965Y-120887989D01*
X200674909Y-120957147D01*
X200645884Y-121020703D01*
X200639852Y-121027181D01*
X200583852Y-121083181D01*
X200522529Y-121116666D01*
X200496171Y-121119500D01*
X182132024Y-121119500D01*
X182057633Y-121131282D01*
X181908851Y-121154847D01*
X181693961Y-121224668D01*
X181693958Y-121224669D01*
X181492633Y-121327250D01*
X181461643Y-121349766D01*
X181309834Y-121460062D01*
X181309832Y-121460064D01*
X181309831Y-121460064D01*
X181150064Y-121619831D01*
X181150064Y-121619832D01*
X181150062Y-121619834D01*
X181099793Y-121689023D01*
X181017250Y-121802633D01*
X180914669Y-122003958D01*
X180914668Y-122003961D01*
X180844847Y-122218851D01*
X180809500Y-122442024D01*
X180809500Y-122667975D01*
X180844847Y-122891148D01*
X180914668Y-123106038D01*
X180914669Y-123106041D01*
X181017250Y-123307366D01*
X181150062Y-123490166D01*
X181309834Y-123649938D01*
X181492634Y-123782750D01*
X181570177Y-123822260D01*
X181693958Y-123885330D01*
X181693961Y-123885331D01*
X181801406Y-123920241D01*
X181908853Y-123955153D01*
X182132024Y-123990500D01*
X182132025Y-123990500D01*
X201255112Y-123990500D01*
X201255113Y-123990500D01*
X201478284Y-123955153D01*
X201693178Y-123885330D01*
X201870903Y-123794775D01*
X207888750Y-123794775D01*
X207975588Y-123822990D01*
X208177683Y-123855000D01*
X208382317Y-123855000D01*
X208584411Y-123822990D01*
X208671247Y-123794775D01*
X208671248Y-123794775D01*
X208280001Y-123403528D01*
X208280000Y-123403528D01*
X207888750Y-123794775D01*
X201870903Y-123794775D01*
X201894503Y-123782750D01*
X202077303Y-123649938D01*
X203274559Y-122452682D01*
X206980000Y-122452682D01*
X206980000Y-122657317D01*
X207012010Y-122859418D01*
X207040222Y-122946248D01*
X207040223Y-122946248D01*
X207431472Y-122555000D01*
X207378811Y-122502339D01*
X207880000Y-122502339D01*
X207880000Y-122607661D01*
X207907259Y-122709394D01*
X207959920Y-122800606D01*
X208034394Y-122875080D01*
X208125606Y-122927741D01*
X208227339Y-122955000D01*
X208332661Y-122955000D01*
X208434394Y-122927741D01*
X208525606Y-122875080D01*
X208600080Y-122800606D01*
X208652741Y-122709394D01*
X208680000Y-122607661D01*
X208680000Y-122554999D01*
X209128528Y-122554999D01*
X209128528Y-122555001D01*
X209519775Y-122946248D01*
X209519775Y-122946247D01*
X209547990Y-122859411D01*
X209580000Y-122657317D01*
X209580000Y-122452682D01*
X209547990Y-122250588D01*
X209519775Y-122163750D01*
X209128528Y-122554999D01*
X208680000Y-122554999D01*
X208680000Y-122502339D01*
X208652741Y-122400606D01*
X208600080Y-122309394D01*
X208525606Y-122234920D01*
X208434394Y-122182259D01*
X208332661Y-122155000D01*
X208227339Y-122155000D01*
X208125606Y-122182259D01*
X208034394Y-122234920D01*
X207959920Y-122309394D01*
X207907259Y-122400606D01*
X207880000Y-122502339D01*
X207378811Y-122502339D01*
X207040223Y-122163751D01*
X207040222Y-122163751D01*
X207012010Y-122250581D01*
X206980000Y-122452682D01*
X203274559Y-122452682D01*
X204412019Y-121315222D01*
X207888751Y-121315222D01*
X207888751Y-121315223D01*
X208280000Y-121706472D01*
X208280001Y-121706472D01*
X208671248Y-121315223D01*
X208671248Y-121315222D01*
X208584418Y-121287010D01*
X208382317Y-121255000D01*
X208177683Y-121255000D01*
X207975581Y-121287010D01*
X207888751Y-121315222D01*
X204412019Y-121315222D01*
X205107466Y-120619775D01*
X207888750Y-120619775D01*
X207975588Y-120647990D01*
X208177683Y-120680000D01*
X208382317Y-120680000D01*
X208584411Y-120647990D01*
X208671247Y-120619775D01*
X208671248Y-120619775D01*
X208280001Y-120228528D01*
X208280000Y-120228528D01*
X207888750Y-120619775D01*
X205107466Y-120619775D01*
X206449559Y-119277682D01*
X206980000Y-119277682D01*
X206980000Y-119482317D01*
X207012010Y-119684418D01*
X207040222Y-119771248D01*
X207040223Y-119771248D01*
X207431472Y-119380000D01*
X207378811Y-119327339D01*
X207880000Y-119327339D01*
X207880000Y-119432661D01*
X207907259Y-119534394D01*
X207959920Y-119625606D01*
X208034394Y-119700080D01*
X208125606Y-119752741D01*
X208227339Y-119780000D01*
X208332661Y-119780000D01*
X208434394Y-119752741D01*
X208525606Y-119700080D01*
X208600080Y-119625606D01*
X208652741Y-119534394D01*
X208680000Y-119432661D01*
X208680000Y-119379999D01*
X209128528Y-119379999D01*
X209128528Y-119380001D01*
X209519775Y-119771248D01*
X209519775Y-119771247D01*
X209547990Y-119684411D01*
X209580000Y-119482317D01*
X209580000Y-119277682D01*
X209547990Y-119075588D01*
X209519775Y-118988750D01*
X209128528Y-119379999D01*
X208680000Y-119379999D01*
X208680000Y-119327339D01*
X208652741Y-119225606D01*
X208600080Y-119134394D01*
X208525606Y-119059920D01*
X208434394Y-119007259D01*
X208332661Y-118980000D01*
X208227339Y-118980000D01*
X208125606Y-119007259D01*
X208034394Y-119059920D01*
X207959920Y-119134394D01*
X207907259Y-119225606D01*
X207880000Y-119327339D01*
X207378811Y-119327339D01*
X207056614Y-119005142D01*
X207019178Y-119053519D01*
X207012009Y-119075583D01*
X206980000Y-119277682D01*
X206449559Y-119277682D01*
X206834938Y-118892303D01*
X206836969Y-118889507D01*
X206967750Y-118709503D01*
X207070330Y-118508178D01*
X207140153Y-118293284D01*
X207164396Y-118140222D01*
X207888751Y-118140222D01*
X207888751Y-118140223D01*
X208280000Y-118531472D01*
X208280001Y-118531472D01*
X208671248Y-118140223D01*
X208671248Y-118140222D01*
X208584418Y-118112010D01*
X208382317Y-118080000D01*
X208177683Y-118080000D01*
X207975581Y-118112010D01*
X207888751Y-118140222D01*
X207164396Y-118140222D01*
X207175500Y-118070113D01*
X207175500Y-117420273D01*
X207195185Y-117353234D01*
X207247989Y-117307479D01*
X207317147Y-117297535D01*
X207372383Y-117319954D01*
X207527634Y-117432750D01*
X207626378Y-117483062D01*
X207728958Y-117535330D01*
X207728961Y-117535331D01*
X207801682Y-117558959D01*
X207943853Y-117605153D01*
X208167024Y-117640500D01*
X208167025Y-117640500D01*
X208392975Y-117640500D01*
X208392976Y-117640500D01*
X208616147Y-117605153D01*
X208831041Y-117535330D01*
X209032366Y-117432750D01*
X209215166Y-117299938D01*
X209374938Y-117140166D01*
X209449682Y-117037290D01*
X209505012Y-116994624D01*
X209574625Y-116988645D01*
X209636420Y-117021251D01*
X209650318Y-117037290D01*
X209660929Y-117051895D01*
X209725062Y-117140166D01*
X209884834Y-117299938D01*
X210067634Y-117432750D01*
X210166378Y-117483062D01*
X210268958Y-117535330D01*
X210268961Y-117535331D01*
X210341682Y-117558959D01*
X210483853Y-117605153D01*
X210707024Y-117640500D01*
X210707025Y-117640500D01*
X210932975Y-117640500D01*
X210932976Y-117640500D01*
X211156147Y-117605153D01*
X211371041Y-117535330D01*
X211572366Y-117432750D01*
X211755166Y-117299938D01*
X211914938Y-117140166D01*
X211989682Y-117037290D01*
X212045012Y-116994624D01*
X212114625Y-116988645D01*
X212176420Y-117021251D01*
X212190318Y-117037290D01*
X212200929Y-117051895D01*
X212265062Y-117140166D01*
X212424834Y-117299938D01*
X212607634Y-117432750D01*
X212706378Y-117483062D01*
X212808958Y-117535330D01*
X212808961Y-117535331D01*
X212881682Y-117558959D01*
X213023853Y-117605153D01*
X213247024Y-117640500D01*
X213247025Y-117640500D01*
X213472975Y-117640500D01*
X213472976Y-117640500D01*
X213696147Y-117605153D01*
X213911041Y-117535330D01*
X214112366Y-117432750D01*
X214295166Y-117299938D01*
X214454938Y-117140166D01*
X214529682Y-117037290D01*
X214585012Y-116994624D01*
X214654625Y-116988645D01*
X214716420Y-117021251D01*
X214730318Y-117037290D01*
X214740929Y-117051895D01*
X214805062Y-117140166D01*
X214964834Y-117299938D01*
X215147634Y-117432750D01*
X215246378Y-117483062D01*
X215348958Y-117535330D01*
X215348961Y-117535331D01*
X215421682Y-117558959D01*
X215563853Y-117605153D01*
X215787024Y-117640500D01*
X215787025Y-117640500D01*
X216012975Y-117640500D01*
X216012976Y-117640500D01*
X216236147Y-117605153D01*
X216451041Y-117535330D01*
X216652366Y-117432750D01*
X216835166Y-117299938D01*
X216994938Y-117140166D01*
X217069682Y-117037290D01*
X217125012Y-116994624D01*
X217194625Y-116988645D01*
X217256420Y-117021251D01*
X217270318Y-117037290D01*
X217280929Y-117051895D01*
X217345062Y-117140166D01*
X217504834Y-117299938D01*
X217687634Y-117432750D01*
X217786378Y-117483062D01*
X217888958Y-117535330D01*
X217888961Y-117535331D01*
X217972459Y-117562461D01*
X218030134Y-117601898D01*
X218057333Y-117666257D01*
X218045418Y-117735103D01*
X218021822Y-117768073D01*
X217345064Y-118444831D01*
X217345062Y-118444834D01*
X217299042Y-118508175D01*
X217212250Y-118627633D01*
X217109669Y-118828958D01*
X217109668Y-118828961D01*
X217039847Y-119043851D01*
X217004500Y-119267024D01*
X217004500Y-119492975D01*
X217039847Y-119716148D01*
X217109668Y-119931038D01*
X217109669Y-119931041D01*
X217212250Y-120132366D01*
X217345062Y-120315166D01*
X217504834Y-120474938D01*
X217687634Y-120607750D01*
X217751992Y-120640542D01*
X217888958Y-120710330D01*
X217888961Y-120710331D01*
X217972459Y-120737461D01*
X218030134Y-120776898D01*
X218057333Y-120841257D01*
X218045418Y-120910103D01*
X218021822Y-120943073D01*
X217345064Y-121619831D01*
X217345064Y-121619832D01*
X217345062Y-121619834D01*
X217294793Y-121689023D01*
X217212250Y-121802633D01*
X217109669Y-122003958D01*
X217109668Y-122003961D01*
X217039847Y-122218851D01*
X217004500Y-122442024D01*
X217004500Y-122667975D01*
X217039847Y-122891148D01*
X217109668Y-123106038D01*
X217109669Y-123106041D01*
X217212250Y-123307366D01*
X217345062Y-123490166D01*
X217504834Y-123649938D01*
X217687634Y-123782750D01*
X217765177Y-123822260D01*
X217888958Y-123885330D01*
X217888961Y-123885331D01*
X217996406Y-123920241D01*
X218103853Y-123955153D01*
X218327024Y-123990500D01*
X218327025Y-123990500D01*
X218552975Y-123990500D01*
X218552976Y-123990500D01*
X218776147Y-123955153D01*
X218991041Y-123885330D01*
X219192366Y-123782750D01*
X219375166Y-123649938D01*
X221125166Y-121899936D01*
X221186489Y-121866452D01*
X221256181Y-121871436D01*
X221312114Y-121913308D01*
X221336531Y-121978772D01*
X221332622Y-122019708D01*
X221328013Y-122036911D01*
X221320161Y-122066214D01*
X221288500Y-122306711D01*
X221288500Y-122549288D01*
X221316015Y-122758294D01*
X221320162Y-122789789D01*
X221347321Y-122891147D01*
X221382947Y-123024104D01*
X221475773Y-123248205D01*
X221475776Y-123248212D01*
X221597064Y-123458289D01*
X221597066Y-123458292D01*
X221597067Y-123458293D01*
X221744733Y-123650736D01*
X221744739Y-123650743D01*
X221916256Y-123822260D01*
X221916262Y-123822265D01*
X222108711Y-123969936D01*
X222318788Y-124091224D01*
X222542900Y-124184054D01*
X222777211Y-124246838D01*
X222957586Y-124270584D01*
X223017711Y-124278500D01*
X223017712Y-124278500D01*
X223260289Y-124278500D01*
X223308388Y-124272167D01*
X223500789Y-124246838D01*
X223735100Y-124184054D01*
X223959212Y-124091224D01*
X224169289Y-123969936D01*
X224361738Y-123822265D01*
X224533265Y-123650738D01*
X224680936Y-123458289D01*
X224802224Y-123248212D01*
X224895054Y-123024100D01*
X224957838Y-122789789D01*
X224989500Y-122549288D01*
X224989500Y-122306712D01*
X224984384Y-122267855D01*
X224957838Y-122066214D01*
X224957838Y-122066211D01*
X224895054Y-121831900D01*
X224802224Y-121607788D01*
X224680936Y-121397711D01*
X224548157Y-121224670D01*
X224533266Y-121205263D01*
X224533260Y-121205256D01*
X224361743Y-121033739D01*
X224361736Y-121033733D01*
X224169293Y-120886067D01*
X224169292Y-120886066D01*
X224169289Y-120886064D01*
X223991804Y-120783593D01*
X223959214Y-120764777D01*
X223959205Y-120764773D01*
X223735104Y-120671947D01*
X223547290Y-120621622D01*
X223500789Y-120609162D01*
X223500788Y-120609161D01*
X223500785Y-120609161D01*
X223260289Y-120577500D01*
X223260288Y-120577500D01*
X223017712Y-120577500D01*
X223017711Y-120577500D01*
X222777210Y-120609162D01*
X222730708Y-120621622D01*
X222660859Y-120619959D01*
X222602996Y-120580796D01*
X222575493Y-120516567D01*
X222587080Y-120447665D01*
X222610932Y-120414169D01*
X223838097Y-119187005D01*
X223838104Y-119186999D01*
X223845164Y-119179939D01*
X223845166Y-119179938D01*
X224004938Y-119020166D01*
X224137750Y-118837366D01*
X224240330Y-118636041D01*
X224259944Y-118575675D01*
X224310154Y-118421147D01*
X224345501Y-118197976D01*
X224345501Y-117972024D01*
X224345501Y-117967623D01*
X224345500Y-117967608D01*
X224345500Y-114240484D01*
X224336600Y-114184295D01*
X224336600Y-114184294D01*
X224317820Y-114065725D01*
X224310153Y-114017316D01*
X224310152Y-114017312D01*
X224310152Y-114017311D01*
X224240331Y-113802425D01*
X224213089Y-113748959D01*
X224137749Y-113601097D01*
X224004938Y-113418298D01*
X223845166Y-113258526D01*
X223845165Y-113258525D01*
X221390812Y-110804174D01*
X221390804Y-110804165D01*
X221375490Y-110788851D01*
X221226701Y-110640062D01*
X221043901Y-110507250D01*
X220842576Y-110404669D01*
X220789875Y-110387545D01*
X220789875Y-110387546D01*
X220627682Y-110334846D01*
X220404516Y-110299500D01*
X220404511Y-110299500D01*
X205031256Y-110299500D01*
X204956865Y-110311282D01*
X204808083Y-110334847D01*
X204593193Y-110404668D01*
X204593190Y-110404669D01*
X204391865Y-110507250D01*
X204357456Y-110532250D01*
X204216712Y-110634507D01*
X204209063Y-110640063D01*
X204209061Y-110640066D01*
X202307181Y-112541946D01*
X202245858Y-112575431D01*
X202176166Y-112570447D01*
X202120233Y-112528575D01*
X202095816Y-112463111D01*
X202095500Y-112454265D01*
X202095500Y-111647024D01*
X202092779Y-111629847D01*
X202060153Y-111423853D01*
X202013392Y-111279938D01*
X201990331Y-111208961D01*
X201990330Y-111208958D01*
X201930000Y-111090554D01*
X201887750Y-111007634D01*
X201754938Y-110824834D01*
X201595166Y-110665062D01*
X201412366Y-110532250D01*
X201363301Y-110507250D01*
X201211041Y-110429669D01*
X201211038Y-110429668D01*
X200996148Y-110359847D01*
X200838304Y-110334847D01*
X200772976Y-110324500D01*
X200547024Y-110324500D01*
X200481702Y-110334846D01*
X200323851Y-110359847D01*
X200108961Y-110429668D01*
X200108958Y-110429669D01*
X199907633Y-110532250D01*
X199810289Y-110602975D01*
X199724834Y-110665062D01*
X199724832Y-110665064D01*
X199724831Y-110665064D01*
X199565064Y-110824831D01*
X199565064Y-110824832D01*
X199565062Y-110824834D01*
X199510061Y-110900535D01*
X199490318Y-110927710D01*
X199434988Y-110970375D01*
X199365374Y-110976354D01*
X199303579Y-110943748D01*
X199289682Y-110927710D01*
X199281263Y-110916123D01*
X199214938Y-110824834D01*
X199055166Y-110665062D01*
X198872366Y-110532250D01*
X198823301Y-110507250D01*
X198671041Y-110429669D01*
X198671038Y-110429668D01*
X198456148Y-110359847D01*
X198298304Y-110334847D01*
X198232976Y-110324500D01*
X198007024Y-110324500D01*
X197941702Y-110334846D01*
X197783851Y-110359847D01*
X197568961Y-110429668D01*
X197568958Y-110429669D01*
X197367633Y-110532250D01*
X197270289Y-110602975D01*
X197184834Y-110665062D01*
X197184832Y-110665064D01*
X197184831Y-110665064D01*
X197025064Y-110824831D01*
X197025064Y-110824832D01*
X197025062Y-110824834D01*
X196970061Y-110900535D01*
X196950318Y-110927710D01*
X196894988Y-110970375D01*
X196825374Y-110976354D01*
X196763579Y-110943748D01*
X196749682Y-110927710D01*
X196741263Y-110916123D01*
X196674938Y-110824834D01*
X196515166Y-110665062D01*
X196332366Y-110532250D01*
X196283301Y-110507250D01*
X196131041Y-110429669D01*
X196131038Y-110429668D01*
X195916148Y-110359847D01*
X195758304Y-110334847D01*
X195692976Y-110324500D01*
X195467024Y-110324500D01*
X195401702Y-110334846D01*
X195243851Y-110359847D01*
X195028961Y-110429668D01*
X195028958Y-110429669D01*
X194827633Y-110532250D01*
X194730289Y-110602975D01*
X194644834Y-110665062D01*
X194644832Y-110665064D01*
X194644831Y-110665064D01*
X194485064Y-110824831D01*
X194485064Y-110824832D01*
X194485062Y-110824834D01*
X194430061Y-110900535D01*
X194410318Y-110927710D01*
X194354988Y-110970375D01*
X194285374Y-110976354D01*
X194223579Y-110943748D01*
X194209682Y-110927710D01*
X194201263Y-110916123D01*
X194134938Y-110824834D01*
X193975166Y-110665062D01*
X193792366Y-110532250D01*
X193743301Y-110507250D01*
X193591041Y-110429669D01*
X193591038Y-110429668D01*
X193376148Y-110359847D01*
X193218304Y-110334847D01*
X193152976Y-110324500D01*
X192927024Y-110324500D01*
X192861702Y-110334846D01*
X192703851Y-110359847D01*
X192488961Y-110429668D01*
X192488958Y-110429669D01*
X192287633Y-110532250D01*
X192190289Y-110602975D01*
X192104834Y-110665062D01*
X192104832Y-110665064D01*
X192104831Y-110665064D01*
X191945064Y-110824831D01*
X191945064Y-110824832D01*
X191945062Y-110824834D01*
X191888024Y-110903339D01*
X191812250Y-111007633D01*
X191709669Y-111208958D01*
X191709668Y-111208961D01*
X191639847Y-111423851D01*
X191604500Y-111647024D01*
X191604500Y-115171660D01*
X191584815Y-115238699D01*
X191532011Y-115284454D01*
X191462853Y-115294398D01*
X191399297Y-115265373D01*
X191392819Y-115259341D01*
X191346895Y-115213417D01*
X191181347Y-115093138D01*
X191100000Y-115051689D01*
X191100000Y-117358309D01*
X191181347Y-117316861D01*
X191346894Y-117196582D01*
X191346895Y-117196582D01*
X191491582Y-117051895D01*
X191589439Y-116917208D01*
X191644769Y-116874543D01*
X191714382Y-116868564D01*
X191776177Y-116901170D01*
X191800242Y-116933799D01*
X191812250Y-116957366D01*
X191945062Y-117140166D01*
X192104834Y-117299938D01*
X192287634Y-117432750D01*
X192386378Y-117483062D01*
X192488958Y-117535330D01*
X192488961Y-117535331D01*
X192561682Y-117558959D01*
X192703853Y-117605153D01*
X192927024Y-117640500D01*
X192927025Y-117640500D01*
X193152975Y-117640500D01*
X193152976Y-117640500D01*
X193376147Y-117605153D01*
X193591041Y-117535330D01*
X193792366Y-117432750D01*
X193975166Y-117299938D01*
X194134938Y-117140166D01*
X194209682Y-117037290D01*
X194265012Y-116994624D01*
X194334625Y-116988645D01*
X194396420Y-117021251D01*
X194410318Y-117037290D01*
X194420929Y-117051895D01*
X194485062Y-117140166D01*
X194644834Y-117299938D01*
X194827634Y-117432750D01*
X194926378Y-117483062D01*
X195028958Y-117535330D01*
X195028961Y-117535331D01*
X195101682Y-117558959D01*
X195243853Y-117605153D01*
X195467024Y-117640500D01*
X195467025Y-117640500D01*
X195692975Y-117640500D01*
X195692976Y-117640500D01*
X195916147Y-117605153D01*
X196131041Y-117535330D01*
X196332366Y-117432750D01*
X196515166Y-117299938D01*
X196674938Y-117140166D01*
X196749682Y-117037290D01*
X196805012Y-116994624D01*
X196874625Y-116988645D01*
X196936420Y-117021251D01*
X196950318Y-117037290D01*
X196960929Y-117051895D01*
X197025062Y-117140166D01*
X197184834Y-117299938D01*
X197367634Y-117432750D01*
X197466378Y-117483062D01*
X197568958Y-117535330D01*
X197568961Y-117535331D01*
X197641682Y-117558959D01*
X197783853Y-117605153D01*
X198007024Y-117640500D01*
X198007025Y-117640500D01*
X198232975Y-117640500D01*
X198232976Y-117640500D01*
X198456147Y-117605153D01*
X198671041Y-117535330D01*
X198872366Y-117432750D01*
X199055166Y-117299938D01*
X199214938Y-117140166D01*
X199289682Y-117037290D01*
X199345012Y-116994624D01*
X199414625Y-116988645D01*
X199476420Y-117021251D01*
X199490318Y-117037290D01*
X199500929Y-117051895D01*
X199565062Y-117140166D01*
X199724834Y-117299938D01*
X199907634Y-117432750D01*
X200006378Y-117483062D01*
X200108958Y-117535330D01*
X200108961Y-117535331D01*
X200181682Y-117558959D01*
X200323853Y-117605153D01*
X200547024Y-117640500D01*
X200547025Y-117640500D01*
X200566404Y-117640500D01*
X200633443Y-117660185D01*
X200679198Y-117712989D01*
X200689142Y-117782147D01*
X200660117Y-117845703D01*
X200654085Y-117852181D01*
X200598085Y-117908181D01*
X200536762Y-117941666D01*
X200510404Y-117944500D01*
X182132024Y-117944500D01*
X182114346Y-117947300D01*
X181908851Y-117979847D01*
X181693961Y-118049668D01*
X181693958Y-118049669D01*
X181492633Y-118152250D01*
X181388339Y-118228024D01*
X181309834Y-118285062D01*
X181309832Y-118285064D01*
X181309831Y-118285064D01*
X181150064Y-118444831D01*
X181150064Y-118444832D01*
X181150062Y-118444834D01*
X181104042Y-118508175D01*
X181017250Y-118627633D01*
X180914669Y-118828958D01*
X180914668Y-118828961D01*
X180844847Y-119043851D01*
X180809500Y-119267024D01*
X173520500Y-119267024D01*
X173485153Y-119043853D01*
X173415330Y-118828959D01*
X173415330Y-118828958D01*
X173343980Y-118688927D01*
X173312750Y-118627634D01*
X173179938Y-118444834D01*
X173020166Y-118285062D01*
X172837366Y-118152250D01*
X172813760Y-118140222D01*
X172636041Y-118049669D01*
X172636038Y-118049668D01*
X172421148Y-117979847D01*
X172215654Y-117947300D01*
X172197976Y-117944500D01*
X171562976Y-117944500D01*
X171337024Y-117944500D01*
X171319346Y-117947300D01*
X171113854Y-117979846D01*
X171060987Y-117997024D01*
X170898961Y-118049668D01*
X170697633Y-118152250D01*
X170637288Y-118196094D01*
X170576942Y-118239938D01*
X170576646Y-118240153D01*
X170514837Y-118285058D01*
X170514835Y-118285060D01*
X168401713Y-120398181D01*
X168340390Y-120431666D01*
X168314032Y-120434500D01*
X167995830Y-120434500D01*
X167995808Y-120434501D01*
X167959794Y-120437335D01*
X167805611Y-120482129D01*
X167805606Y-120482131D01*
X167667404Y-120563863D01*
X167667396Y-120563869D01*
X167553869Y-120677396D01*
X167553860Y-120677407D01*
X167512973Y-120746544D01*
X167461904Y-120794227D01*
X167393162Y-120806730D01*
X167333357Y-120783740D01*
X167148574Y-120649489D01*
X167148573Y-120649488D01*
X167148571Y-120649487D01*
X166940234Y-120543334D01*
X166717855Y-120471078D01*
X166717853Y-120471077D01*
X166717852Y-120471077D01*
X166504810Y-120437335D01*
X166486911Y-120434500D01*
X166253089Y-120434500D01*
X166235190Y-120437335D01*
X166022148Y-120471077D01*
X165799763Y-120543335D01*
X165591425Y-120649489D01*
X165402268Y-120786918D01*
X165402263Y-120786922D01*
X165236925Y-120952260D01*
X165200318Y-121002646D01*
X165144987Y-121045311D01*
X165075374Y-121051290D01*
X165013579Y-121018684D01*
X164999682Y-121002646D01*
X164975814Y-120969795D01*
X164963076Y-120952262D01*
X164797738Y-120786924D01*
X164797736Y-120786922D01*
X164797731Y-120786918D01*
X164608574Y-120649489D01*
X164608573Y-120649488D01*
X164608571Y-120649487D01*
X164400234Y-120543334D01*
X164177855Y-120471078D01*
X164177853Y-120471077D01*
X164177852Y-120471077D01*
X163964810Y-120437335D01*
X163946911Y-120434500D01*
X163713089Y-120434500D01*
X163695190Y-120437335D01*
X163482148Y-120471077D01*
X163259763Y-120543335D01*
X163051425Y-120649489D01*
X162862268Y-120786918D01*
X162862263Y-120786922D01*
X162696922Y-120952263D01*
X162696918Y-120952268D01*
X162559489Y-121141425D01*
X162453335Y-121349763D01*
X162381077Y-121572147D01*
X162367562Y-121657474D01*
X162337632Y-121720609D01*
X162332770Y-121725756D01*
X161801944Y-122256582D01*
X161740621Y-122290067D01*
X161670929Y-122285083D01*
X161647244Y-122269861D01*
X161690099Y-122227007D01*
X161755925Y-122112993D01*
X161790000Y-121985826D01*
X161790000Y-121854174D01*
X161755925Y-121727007D01*
X161690099Y-121612993D01*
X161597007Y-121519901D01*
X161482993Y-121454075D01*
X161355826Y-121420000D01*
X161224174Y-121420000D01*
X161097007Y-121454075D01*
X160982993Y-121519901D01*
X160889901Y-121612993D01*
X160824075Y-121727007D01*
X160790000Y-121854174D01*
X160790000Y-121985826D01*
X160824075Y-122112993D01*
X160889901Y-122227007D01*
X160931464Y-122268570D01*
X160892094Y-122290068D01*
X160822402Y-122285084D01*
X160778055Y-122256583D01*
X160010543Y-121489071D01*
X160010542Y-121489071D01*
X159973242Y-121603872D01*
X159940000Y-121813753D01*
X159940000Y-122026246D01*
X159973242Y-122236127D01*
X159973242Y-122236130D01*
X160038904Y-122438217D01*
X160115837Y-122589205D01*
X160128733Y-122657874D01*
X160102457Y-122722615D01*
X160045350Y-122762872D01*
X160005352Y-122769500D01*
X158916723Y-122769500D01*
X158849684Y-122749815D01*
X158803929Y-122697011D01*
X158793985Y-122627853D01*
X158806238Y-122589205D01*
X158816202Y-122569649D01*
X158856666Y-122490234D01*
X158928922Y-122267855D01*
X158965500Y-122036911D01*
X158965500Y-121803089D01*
X158928922Y-121572145D01*
X158921569Y-121549514D01*
X158915500Y-121511196D01*
X158915500Y-120640542D01*
X160859071Y-120640542D01*
X160859071Y-120640543D01*
X161290000Y-121071472D01*
X161290001Y-121071472D01*
X161720927Y-120640543D01*
X161720927Y-120640542D01*
X161606127Y-120603242D01*
X161396246Y-120570000D01*
X161183754Y-120570000D01*
X160973872Y-120603242D01*
X160859071Y-120640542D01*
X158915500Y-120640542D01*
X158915500Y-118755966D01*
X158935185Y-118688927D01*
X158951819Y-118668285D01*
X159844935Y-117775169D01*
X159844936Y-117775168D01*
X159844938Y-117775166D01*
X159845892Y-117773853D01*
X159977750Y-117592366D01*
X160080330Y-117391041D01*
X160150153Y-117176147D01*
X160185500Y-116952976D01*
X160185500Y-116727024D01*
X160150153Y-116503853D01*
X160080330Y-116288959D01*
X160080330Y-116288958D01*
X160004011Y-116139174D01*
X159977750Y-116087634D01*
X159844938Y-115904834D01*
X159685166Y-115745062D01*
X159502366Y-115612250D01*
X159301041Y-115509669D01*
X159301038Y-115509668D01*
X159086148Y-115439847D01*
X158974561Y-115422173D01*
X158862976Y-115404500D01*
X158637024Y-115404500D01*
X158562633Y-115416282D01*
X158413851Y-115439847D01*
X158198961Y-115509668D01*
X158198958Y-115509669D01*
X157997633Y-115612250D01*
X157937140Y-115656201D01*
X157876646Y-115700153D01*
X157814837Y-115745059D01*
X157814831Y-115745064D01*
X156385064Y-117174831D01*
X156385064Y-117174832D01*
X156385062Y-117174834D01*
X156347928Y-117225945D01*
X156252250Y-117357633D01*
X156149669Y-117558958D01*
X156149668Y-117558961D01*
X156079847Y-117773851D01*
X156044500Y-117997024D01*
X156044500Y-121511195D01*
X156038431Y-121549513D01*
X156031078Y-121572140D01*
X156031078Y-121572142D01*
X156017562Y-121657474D01*
X155987632Y-121720609D01*
X155982770Y-121725756D01*
X155451944Y-122256582D01*
X155390621Y-122290067D01*
X155320929Y-122285083D01*
X155297244Y-122269861D01*
X155340099Y-122227007D01*
X155405925Y-122112993D01*
X155440000Y-121985826D01*
X155440000Y-121854174D01*
X155405925Y-121727007D01*
X155340099Y-121612993D01*
X155247007Y-121519901D01*
X155132993Y-121454075D01*
X155005826Y-121420000D01*
X154874174Y-121420000D01*
X154747007Y-121454075D01*
X154632993Y-121519901D01*
X154539901Y-121612993D01*
X154474075Y-121727007D01*
X154440000Y-121854174D01*
X154440000Y-121985826D01*
X154474075Y-122112993D01*
X154539901Y-122227007D01*
X154581464Y-122268570D01*
X154542094Y-122290068D01*
X154472402Y-122285084D01*
X154428055Y-122256583D01*
X153921818Y-121750346D01*
X153888333Y-121689023D01*
X153885499Y-121662665D01*
X153885499Y-121005831D01*
X153885498Y-121005806D01*
X153885217Y-121002236D01*
X153882665Y-120969796D01*
X153837869Y-120815607D01*
X153825225Y-120794227D01*
X153794482Y-120742242D01*
X153794481Y-120742241D01*
X153756137Y-120677405D01*
X153756130Y-120677396D01*
X153719276Y-120640542D01*
X154509071Y-120640542D01*
X154509071Y-120640543D01*
X154940000Y-121071472D01*
X154940001Y-121071472D01*
X155370927Y-120640543D01*
X155370927Y-120640542D01*
X155256127Y-120603242D01*
X155046246Y-120570000D01*
X154833754Y-120570000D01*
X154623872Y-120603242D01*
X154509071Y-120640542D01*
X153719276Y-120640542D01*
X153642603Y-120563869D01*
X153642595Y-120563863D01*
X153504393Y-120482131D01*
X153504388Y-120482129D01*
X153350208Y-120437335D01*
X153350202Y-120437334D01*
X153314181Y-120434500D01*
X151485831Y-120434500D01*
X151485806Y-120434501D01*
X151449795Y-120437335D01*
X151295611Y-120482129D01*
X151295606Y-120482131D01*
X151157404Y-120563863D01*
X151157396Y-120563869D01*
X151043869Y-120677396D01*
X151043863Y-120677404D01*
X150962131Y-120815606D01*
X150962129Y-120815611D01*
X150917335Y-120969791D01*
X150917334Y-120969797D01*
X150914500Y-121005811D01*
X150914500Y-121005819D01*
X150914500Y-121871436D01*
X150914501Y-122645500D01*
X150894816Y-122712539D01*
X150842013Y-122758294D01*
X150790501Y-122769500D01*
X149874648Y-122769500D01*
X149807609Y-122749815D01*
X149761854Y-122697011D01*
X149751910Y-122627853D01*
X149764163Y-122589205D01*
X149841095Y-122438217D01*
X149906757Y-122236130D01*
X149906757Y-122236127D01*
X149940000Y-122026246D01*
X149940000Y-121813753D01*
X149906758Y-121603877D01*
X149906758Y-121603876D01*
X149869456Y-121489071D01*
X149869455Y-121489070D01*
X149101944Y-122256582D01*
X149040621Y-122290067D01*
X148970929Y-122285083D01*
X148947244Y-122269861D01*
X148990099Y-122227007D01*
X149055925Y-122112993D01*
X149090000Y-121985826D01*
X149090000Y-121854174D01*
X149055925Y-121727007D01*
X148990099Y-121612993D01*
X148897007Y-121519901D01*
X148782993Y-121454075D01*
X148655826Y-121420000D01*
X148524174Y-121420000D01*
X148397007Y-121454075D01*
X148282993Y-121519901D01*
X148189901Y-121612993D01*
X148124075Y-121727007D01*
X148090000Y-121854174D01*
X148090000Y-121985826D01*
X148124075Y-122112993D01*
X148189901Y-122227007D01*
X148231464Y-122268570D01*
X148192094Y-122290068D01*
X148122402Y-122285084D01*
X148078055Y-122256583D01*
X147571818Y-121750346D01*
X147538333Y-121689023D01*
X147535499Y-121662665D01*
X147535499Y-121005831D01*
X147535498Y-121005806D01*
X147535217Y-121002236D01*
X147532665Y-120969796D01*
X147487869Y-120815607D01*
X147406135Y-120677402D01*
X147406133Y-120677400D01*
X147406130Y-120677396D01*
X147292603Y-120563869D01*
X147292595Y-120563863D01*
X147154393Y-120482131D01*
X147154388Y-120482129D01*
X147000208Y-120437335D01*
X147000202Y-120437334D01*
X146964181Y-120434500D01*
X145135831Y-120434500D01*
X145135806Y-120434501D01*
X145099795Y-120437335D01*
X144945611Y-120482129D01*
X144945606Y-120482131D01*
X144807404Y-120563863D01*
X144807396Y-120563869D01*
X144693869Y-120677396D01*
X144693863Y-120677404D01*
X144612131Y-120815606D01*
X144612129Y-120815611D01*
X144567335Y-120969791D01*
X144567334Y-120969797D01*
X144564500Y-121005811D01*
X144564500Y-121005819D01*
X144564500Y-121871436D01*
X144564501Y-122645500D01*
X144544816Y-122712539D01*
X144492013Y-122758294D01*
X144440501Y-122769500D01*
X143676723Y-122769500D01*
X143609684Y-122749815D01*
X143563929Y-122697011D01*
X143553985Y-122627853D01*
X143566238Y-122589205D01*
X143576202Y-122569649D01*
X143616666Y-122490234D01*
X143688922Y-122267855D01*
X143725500Y-122036911D01*
X143725500Y-121803089D01*
X143688922Y-121572145D01*
X143681569Y-121549514D01*
X143675500Y-121511196D01*
X143675500Y-120836030D01*
X143675501Y-120836005D01*
X143675501Y-120604943D01*
X143671154Y-120577500D01*
X143640154Y-120381772D01*
X143571836Y-120171513D01*
X143570775Y-120167752D01*
X143467749Y-119965552D01*
X143334938Y-119782753D01*
X143175166Y-119622981D01*
X143175165Y-119622980D01*
X143172054Y-119619869D01*
X143172039Y-119619855D01*
X139297249Y-115745064D01*
X139297248Y-115745063D01*
X139297247Y-115745062D01*
X139114447Y-115612250D01*
X138913122Y-115509669D01*
X138913119Y-115509668D01*
X138698229Y-115439847D01*
X138586642Y-115422173D01*
X138475057Y-115404500D01*
X135777024Y-115404500D01*
X135702633Y-115416282D01*
X135553851Y-115439847D01*
X135338961Y-115509668D01*
X135338958Y-115509669D01*
X135137633Y-115612250D01*
X135080226Y-115653959D01*
X134954834Y-115745062D01*
X134954832Y-115745064D01*
X134954831Y-115745064D01*
X134795064Y-115904831D01*
X134795064Y-115904832D01*
X134795062Y-115904834D01*
X134785501Y-115917994D01*
X134662250Y-116087633D01*
X134559669Y-116288958D01*
X134559668Y-116288961D01*
X134489847Y-116503851D01*
X134483940Y-116541147D01*
X134454500Y-116727024D01*
X127111500Y-116727024D01*
X127111500Y-114269775D01*
X135498750Y-114269775D01*
X135585588Y-114297990D01*
X135787683Y-114330000D01*
X135992317Y-114330000D01*
X136194411Y-114297990D01*
X136281247Y-114269775D01*
X136281248Y-114269775D01*
X135890001Y-113878528D01*
X135890000Y-113878528D01*
X135498750Y-114269775D01*
X127111500Y-114269775D01*
X127111500Y-112927682D01*
X134590000Y-112927682D01*
X134590000Y-113132317D01*
X134622010Y-113334418D01*
X134650222Y-113421248D01*
X134650223Y-113421248D01*
X135041472Y-113030000D01*
X134988811Y-112977339D01*
X135490000Y-112977339D01*
X135490000Y-113082661D01*
X135517259Y-113184394D01*
X135569920Y-113275606D01*
X135644394Y-113350080D01*
X135735606Y-113402741D01*
X135837339Y-113430000D01*
X135942661Y-113430000D01*
X136044394Y-113402741D01*
X136135606Y-113350080D01*
X136210080Y-113275606D01*
X136262741Y-113184394D01*
X136290000Y-113082661D01*
X136290000Y-113029999D01*
X136738528Y-113029999D01*
X136738528Y-113030001D01*
X137129775Y-113421248D01*
X137129775Y-113421247D01*
X137157990Y-113334411D01*
X137190000Y-113132317D01*
X137190000Y-112927682D01*
X137157990Y-112725588D01*
X137129775Y-112638750D01*
X136738528Y-113029999D01*
X136290000Y-113029999D01*
X136290000Y-112977339D01*
X136262741Y-112875606D01*
X136210080Y-112784394D01*
X136135606Y-112709920D01*
X136044394Y-112657259D01*
X135942661Y-112630000D01*
X135837339Y-112630000D01*
X135735606Y-112657259D01*
X135644394Y-112709920D01*
X135569920Y-112784394D01*
X135517259Y-112875606D01*
X135490000Y-112977339D01*
X134988811Y-112977339D01*
X134650223Y-112638751D01*
X134650222Y-112638751D01*
X134622010Y-112725581D01*
X134590000Y-112927682D01*
X127111500Y-112927682D01*
X127111500Y-101955811D01*
X129324500Y-101955811D01*
X129324500Y-103784168D01*
X129324501Y-103784193D01*
X129327335Y-103820204D01*
X129372129Y-103974388D01*
X129372131Y-103974393D01*
X129453863Y-104112595D01*
X129453869Y-104112603D01*
X129567396Y-104226130D01*
X129567405Y-104226137D01*
X129636543Y-104267025D01*
X129684226Y-104318094D01*
X129696730Y-104386836D01*
X129673741Y-104446642D01*
X129539486Y-104631429D01*
X129433335Y-104839763D01*
X129361077Y-105062148D01*
X129324500Y-105293089D01*
X129324500Y-105526910D01*
X129361077Y-105757851D01*
X129368431Y-105780484D01*
X129374500Y-105818802D01*
X129374500Y-106143743D01*
X129392173Y-106255328D01*
X129409847Y-106366915D01*
X129479668Y-106581805D01*
X129545100Y-106710222D01*
X129551229Y-106722250D01*
X129582250Y-106783133D01*
X129715062Y-106965933D01*
X133869293Y-111120165D01*
X133869294Y-111120166D01*
X134029066Y-111279938D01*
X134211866Y-111412750D01*
X134355051Y-111485706D01*
X134413193Y-111515331D01*
X134520638Y-111550241D01*
X134628085Y-111585153D01*
X134851256Y-111620500D01*
X134851257Y-111620500D01*
X135382205Y-111620500D01*
X135449244Y-111640185D01*
X135494999Y-111692989D01*
X135504943Y-111762147D01*
X135502779Y-111773448D01*
X135498751Y-111790223D01*
X135890000Y-112181472D01*
X135890001Y-112181472D01*
X136281248Y-111790222D01*
X136277221Y-111773446D01*
X136280712Y-111703664D01*
X136321376Y-111646847D01*
X136386303Y-111621034D01*
X136397795Y-111620500D01*
X136928743Y-111620500D01*
X136928744Y-111620500D01*
X137151915Y-111585153D01*
X137366809Y-111515330D01*
X137568134Y-111412750D01*
X137750934Y-111279938D01*
X138018847Y-111012024D01*
X144614500Y-111012024D01*
X144614500Y-113142975D01*
X144649847Y-113366148D01*
X144719668Y-113581038D01*
X144719669Y-113581041D01*
X144792490Y-113723959D01*
X144822250Y-113782366D01*
X144955062Y-113965166D01*
X145114834Y-114124938D01*
X145297634Y-114257750D01*
X145376610Y-114297990D01*
X145498958Y-114360330D01*
X145498961Y-114360331D01*
X145606406Y-114395241D01*
X145713853Y-114430153D01*
X145937024Y-114465500D01*
X145937025Y-114465500D01*
X146162975Y-114465500D01*
X146162976Y-114465500D01*
X146386147Y-114430153D01*
X146601041Y-114360330D01*
X146802366Y-114257750D01*
X146957615Y-114144954D01*
X147023421Y-114121475D01*
X147091475Y-114137300D01*
X147140170Y-114187406D01*
X147154500Y-114245273D01*
X147154500Y-115624726D01*
X147134815Y-115691765D01*
X147082011Y-115737520D01*
X147012853Y-115747464D01*
X146957615Y-115725044D01*
X146802369Y-115612252D01*
X146802368Y-115612251D01*
X146802366Y-115612250D01*
X146737866Y-115579385D01*
X146601041Y-115509669D01*
X146601038Y-115509668D01*
X146386148Y-115439847D01*
X146274561Y-115422173D01*
X146162976Y-115404500D01*
X145937024Y-115404500D01*
X145862633Y-115416282D01*
X145713851Y-115439847D01*
X145498961Y-115509668D01*
X145498958Y-115509669D01*
X145297633Y-115612250D01*
X145240226Y-115653959D01*
X145114834Y-115745062D01*
X145114832Y-115745064D01*
X145114831Y-115745064D01*
X144955064Y-115904831D01*
X144955064Y-115904832D01*
X144955062Y-115904834D01*
X144945501Y-115917994D01*
X144822250Y-116087633D01*
X144719669Y-116288958D01*
X144719668Y-116288961D01*
X144649847Y-116503851D01*
X144643940Y-116541147D01*
X144614500Y-116727024D01*
X144614500Y-116952976D01*
X144624334Y-117015062D01*
X144649847Y-117176148D01*
X144719668Y-117391038D01*
X144719669Y-117391041D01*
X144793189Y-117535331D01*
X144822250Y-117592366D01*
X144955062Y-117775166D01*
X145114834Y-117934938D01*
X145297634Y-118067750D01*
X145384499Y-118112010D01*
X145498958Y-118170330D01*
X145498961Y-118170331D01*
X145584042Y-118197975D01*
X145713853Y-118240153D01*
X145937024Y-118275500D01*
X145937025Y-118275500D01*
X146162975Y-118275500D01*
X146162976Y-118275500D01*
X146386147Y-118240153D01*
X146601041Y-118170330D01*
X146802366Y-118067750D01*
X146957615Y-117954954D01*
X147023421Y-117931475D01*
X147091475Y-117947300D01*
X147140170Y-117997406D01*
X147154500Y-118055273D01*
X147154500Y-119492975D01*
X147189847Y-119716148D01*
X147259668Y-119931038D01*
X147259669Y-119931041D01*
X147362250Y-120132366D01*
X147495062Y-120315166D01*
X147654834Y-120474938D01*
X147837634Y-120607750D01*
X147901992Y-120640542D01*
X148038958Y-120710330D01*
X148038961Y-120710331D01*
X148122460Y-120737461D01*
X148253853Y-120780153D01*
X148267321Y-120782286D01*
X148330455Y-120812213D01*
X148335606Y-120817078D01*
X148589999Y-121071471D01*
X148844391Y-120817078D01*
X148905714Y-120783593D01*
X148912646Y-120782291D01*
X148926147Y-120780153D01*
X149141041Y-120710330D01*
X149342366Y-120607750D01*
X149525166Y-120474938D01*
X149684938Y-120315166D01*
X149817750Y-120132366D01*
X149920330Y-119931041D01*
X149990153Y-119716147D01*
X150025500Y-119492976D01*
X150025500Y-119267024D01*
X150025500Y-116727024D01*
X150025500Y-114269775D01*
X158358750Y-114269775D01*
X158445588Y-114297990D01*
X158647683Y-114330000D01*
X158852317Y-114330000D01*
X159054411Y-114297990D01*
X159141247Y-114269775D01*
X159141248Y-114269775D01*
X158750001Y-113878528D01*
X158750000Y-113878528D01*
X158358750Y-114269775D01*
X150025500Y-114269775D01*
X150025500Y-113552024D01*
X171919500Y-113552024D01*
X171919500Y-113777975D01*
X171954847Y-114001148D01*
X172024668Y-114216038D01*
X172024669Y-114216041D01*
X172098189Y-114360331D01*
X172127250Y-114417366D01*
X172260062Y-114600166D01*
X174800061Y-117140165D01*
X174800062Y-117140166D01*
X174959834Y-117299938D01*
X175142634Y-117432750D01*
X175296474Y-117511135D01*
X175343954Y-117535328D01*
X175343956Y-117535328D01*
X175343959Y-117535330D01*
X175558852Y-117605153D01*
X175782024Y-117640500D01*
X175782025Y-117640500D01*
X183002966Y-117640500D01*
X183002978Y-117640499D01*
X183744168Y-117640499D01*
X183744180Y-117640499D01*
X183780204Y-117637665D01*
X183934393Y-117592869D01*
X184072598Y-117511135D01*
X184186135Y-117397598D01*
X184252055Y-117286132D01*
X184303123Y-117238449D01*
X184371865Y-117225945D01*
X184436455Y-117252590D01*
X184446468Y-117261572D01*
X184484834Y-117299938D01*
X184667634Y-117432750D01*
X184766378Y-117483062D01*
X184868958Y-117535330D01*
X184868961Y-117535331D01*
X184941682Y-117558959D01*
X185083853Y-117605153D01*
X185307024Y-117640500D01*
X185307025Y-117640500D01*
X185532975Y-117640500D01*
X185532976Y-117640500D01*
X185756147Y-117605153D01*
X185971041Y-117535330D01*
X186172366Y-117432750D01*
X186355166Y-117299938D01*
X186514938Y-117140166D01*
X186589682Y-117037290D01*
X186645012Y-116994624D01*
X186714625Y-116988645D01*
X186776420Y-117021251D01*
X186790318Y-117037290D01*
X186800929Y-117051895D01*
X186865062Y-117140166D01*
X187024834Y-117299938D01*
X187207634Y-117432750D01*
X187306378Y-117483062D01*
X187408958Y-117535330D01*
X187408961Y-117535331D01*
X187481682Y-117558959D01*
X187623853Y-117605153D01*
X187847024Y-117640500D01*
X187847025Y-117640500D01*
X188072975Y-117640500D01*
X188072976Y-117640500D01*
X188296147Y-117605153D01*
X188511041Y-117535330D01*
X188712366Y-117432750D01*
X188895166Y-117299938D01*
X189054938Y-117140166D01*
X189187750Y-116957366D01*
X189199756Y-116933801D01*
X189247729Y-116883005D01*
X189315550Y-116866208D01*
X189381685Y-116888744D01*
X189410560Y-116917208D01*
X189508416Y-117051894D01*
X189653104Y-117196582D01*
X189818652Y-117316861D01*
X189899999Y-117358309D01*
X189900000Y-117358309D01*
X189900000Y-116139174D01*
X190000000Y-116139174D01*
X190000000Y-116270826D01*
X190034075Y-116397993D01*
X190099901Y-116512007D01*
X190192993Y-116605099D01*
X190307007Y-116670925D01*
X190434174Y-116705000D01*
X190565826Y-116705000D01*
X190692993Y-116670925D01*
X190807007Y-116605099D01*
X190900099Y-116512007D01*
X190965925Y-116397993D01*
X191000000Y-116270826D01*
X191000000Y-116139174D01*
X190965925Y-116012007D01*
X190900099Y-115897993D01*
X190807007Y-115804901D01*
X190692993Y-115739075D01*
X190565826Y-115705000D01*
X190434174Y-115705000D01*
X190307007Y-115739075D01*
X190192993Y-115804901D01*
X190099901Y-115897993D01*
X190034075Y-116012007D01*
X190000000Y-116139174D01*
X189900000Y-116139174D01*
X189900000Y-115051690D01*
X189899999Y-115051689D01*
X189818652Y-115093138D01*
X189653105Y-115213417D01*
X189653104Y-115213417D01*
X189508417Y-115358104D01*
X189508410Y-115358113D01*
X189410559Y-115492791D01*
X189355229Y-115535457D01*
X189285616Y-115541435D01*
X189223821Y-115508829D01*
X189199757Y-115476199D01*
X189187751Y-115452635D01*
X189153505Y-115405500D01*
X189054938Y-115269834D01*
X188895166Y-115110062D01*
X188712366Y-114977250D01*
X188511041Y-114874669D01*
X188511038Y-114874668D01*
X188296148Y-114804847D01*
X188184561Y-114787173D01*
X188072976Y-114769500D01*
X187847024Y-114769500D01*
X187772633Y-114781282D01*
X187623851Y-114804847D01*
X187408961Y-114874668D01*
X187408958Y-114874669D01*
X187207630Y-114977252D01*
X187052385Y-115090044D01*
X186986579Y-115113524D01*
X186918525Y-115097698D01*
X186869830Y-115047593D01*
X186855500Y-114989726D01*
X186855500Y-114162024D01*
X186820153Y-113938853D01*
X186750330Y-113723959D01*
X186750330Y-113723958D01*
X186647749Y-113522633D01*
X186580447Y-113430000D01*
X186514938Y-113339834D01*
X186355166Y-113180062D01*
X185745166Y-112570062D01*
X185562366Y-112437250D01*
X185361041Y-112334669D01*
X185361038Y-112334668D01*
X185146148Y-112264847D01*
X185034561Y-112247173D01*
X184922976Y-112229500D01*
X177052024Y-112229500D01*
X176977633Y-112241282D01*
X176828851Y-112264847D01*
X176613961Y-112334668D01*
X176613958Y-112334669D01*
X176412633Y-112437250D01*
X176308339Y-112513024D01*
X176229834Y-112570062D01*
X176229832Y-112570064D01*
X176229831Y-112570064D01*
X176070064Y-112729831D01*
X176070064Y-112729832D01*
X176070062Y-112729834D01*
X176059722Y-112744066D01*
X175937250Y-112912633D01*
X175834669Y-113113958D01*
X175834668Y-113113961D01*
X175764847Y-113328851D01*
X175729500Y-113552024D01*
X175729500Y-113710034D01*
X175709815Y-113777073D01*
X175657011Y-113822828D01*
X175587853Y-113832772D01*
X175524297Y-113803747D01*
X175517819Y-113797715D01*
X174290168Y-112570064D01*
X174290166Y-112570062D01*
X174107366Y-112437250D01*
X173906041Y-112334669D01*
X173906038Y-112334668D01*
X173691148Y-112264847D01*
X173579561Y-112247173D01*
X173467976Y-112229500D01*
X173242024Y-112229500D01*
X173167633Y-112241282D01*
X173018851Y-112264847D01*
X172803961Y-112334668D01*
X172803958Y-112334669D01*
X172602633Y-112437250D01*
X172498339Y-112513024D01*
X172419834Y-112570062D01*
X172419832Y-112570064D01*
X172419831Y-112570064D01*
X172260064Y-112729831D01*
X172260064Y-112729832D01*
X172260062Y-112729834D01*
X172249722Y-112744066D01*
X172127250Y-112912633D01*
X172024669Y-113113958D01*
X172024668Y-113113961D01*
X171954847Y-113328851D01*
X171919500Y-113552024D01*
X150025500Y-113552024D01*
X150025500Y-112927682D01*
X157450000Y-112927682D01*
X157450000Y-113132317D01*
X157482010Y-113334418D01*
X157510222Y-113421248D01*
X157510223Y-113421248D01*
X157901472Y-113030000D01*
X157848811Y-112977339D01*
X158350000Y-112977339D01*
X158350000Y-113082661D01*
X158377259Y-113184394D01*
X158429920Y-113275606D01*
X158504394Y-113350080D01*
X158595606Y-113402741D01*
X158697339Y-113430000D01*
X158802661Y-113430000D01*
X158904394Y-113402741D01*
X158995606Y-113350080D01*
X159070080Y-113275606D01*
X159122741Y-113184394D01*
X159150000Y-113082661D01*
X159150000Y-113029999D01*
X159598528Y-113029999D01*
X159598528Y-113030001D01*
X159989775Y-113421248D01*
X159989775Y-113421247D01*
X160017990Y-113334411D01*
X160050000Y-113132317D01*
X160050000Y-112927682D01*
X160017990Y-112725588D01*
X159989775Y-112638750D01*
X159598528Y-113029999D01*
X159150000Y-113029999D01*
X159150000Y-112977339D01*
X159122741Y-112875606D01*
X159070080Y-112784394D01*
X158995606Y-112709920D01*
X158904394Y-112657259D01*
X158802661Y-112630000D01*
X158697339Y-112630000D01*
X158595606Y-112657259D01*
X158504394Y-112709920D01*
X158429920Y-112784394D01*
X158377259Y-112875606D01*
X158350000Y-112977339D01*
X157848811Y-112977339D01*
X157510223Y-112638751D01*
X157510222Y-112638751D01*
X157482010Y-112725581D01*
X157450000Y-112927682D01*
X150025500Y-112927682D01*
X150025500Y-112917024D01*
X149990153Y-112693853D01*
X149920330Y-112478959D01*
X149920330Y-112478958D01*
X149817749Y-112277633D01*
X149684938Y-112094834D01*
X149525166Y-111935062D01*
X149342366Y-111802250D01*
X149285835Y-111773446D01*
X149141041Y-111699669D01*
X149141038Y-111699668D01*
X148926148Y-111629847D01*
X148814561Y-111612173D01*
X148702976Y-111594500D01*
X148477024Y-111594500D01*
X148402633Y-111606282D01*
X148253851Y-111629847D01*
X148038961Y-111699668D01*
X148038958Y-111699669D01*
X147837630Y-111802252D01*
X147682385Y-111915044D01*
X147616579Y-111938524D01*
X147548525Y-111922698D01*
X147499830Y-111872593D01*
X147485500Y-111814726D01*
X147485500Y-111012024D01*
X147470841Y-110919471D01*
X147450153Y-110788853D01*
X147409931Y-110665062D01*
X147380331Y-110573961D01*
X147380330Y-110573958D01*
X147294073Y-110404670D01*
X147277750Y-110372634D01*
X147144938Y-110189834D01*
X146985166Y-110030062D01*
X146802366Y-109897250D01*
X146601041Y-109794669D01*
X146601038Y-109794668D01*
X146386148Y-109724847D01*
X146274561Y-109707173D01*
X146162976Y-109689500D01*
X145937024Y-109689500D01*
X145862633Y-109701282D01*
X145713851Y-109724847D01*
X145498961Y-109794668D01*
X145498958Y-109794669D01*
X145297633Y-109897250D01*
X145196528Y-109970708D01*
X145114834Y-110030062D01*
X145114832Y-110030064D01*
X145114831Y-110030064D01*
X144955064Y-110189831D01*
X144955064Y-110189832D01*
X144955062Y-110189834D01*
X144898024Y-110268339D01*
X144822250Y-110372633D01*
X144719669Y-110573958D01*
X144719668Y-110573961D01*
X144649847Y-110788851D01*
X144614500Y-111012024D01*
X138018847Y-111012024D01*
X139053097Y-109977772D01*
X139053104Y-109977767D01*
X139060164Y-109970707D01*
X139060166Y-109970706D01*
X139219938Y-109810934D01*
X139352750Y-109628134D01*
X139455330Y-109426809D01*
X139502924Y-109280330D01*
X139525154Y-109211915D01*
X139560501Y-108988744D01*
X139560501Y-108762792D01*
X139560501Y-108758391D01*
X139560500Y-108758376D01*
X139560500Y-107837024D01*
X144614500Y-107837024D01*
X144614500Y-108062975D01*
X144649847Y-108286148D01*
X144719668Y-108501038D01*
X144719669Y-108501041D01*
X144822250Y-108702366D01*
X144955062Y-108885166D01*
X145114834Y-109044938D01*
X145297634Y-109177750D01*
X145364681Y-109211912D01*
X145498958Y-109280330D01*
X145498961Y-109280331D01*
X145606406Y-109315241D01*
X145713853Y-109350153D01*
X145937024Y-109385500D01*
X148935500Y-109385500D01*
X149002539Y-109405185D01*
X149048294Y-109457989D01*
X149059500Y-109509500D01*
X149059500Y-110602975D01*
X149094847Y-110826148D01*
X149164668Y-111041038D01*
X149164669Y-111041041D01*
X149204986Y-111120166D01*
X149267250Y-111242366D01*
X149400062Y-111425166D01*
X149559834Y-111584938D01*
X149742634Y-111717750D01*
X149829768Y-111762147D01*
X149943958Y-111820330D01*
X149943961Y-111820331D01*
X150051406Y-111855241D01*
X150158853Y-111890153D01*
X150382024Y-111925500D01*
X150382025Y-111925500D01*
X158442666Y-111925500D01*
X158509705Y-111945185D01*
X158530347Y-111961819D01*
X158750000Y-112181472D01*
X158969653Y-111961819D01*
X159030976Y-111928334D01*
X159057334Y-111925500D01*
X160767975Y-111925500D01*
X160767976Y-111925500D01*
X160991147Y-111890153D01*
X161206041Y-111820330D01*
X161407366Y-111717750D01*
X161590166Y-111584938D01*
X161749938Y-111425166D01*
X161882750Y-111242366D01*
X161985330Y-111041041D01*
X162055153Y-110826147D01*
X162090500Y-110602976D01*
X162090500Y-110377024D01*
X162055153Y-110153853D01*
X162014931Y-110030062D01*
X161985331Y-109938961D01*
X161985330Y-109938958D01*
X161882749Y-109737633D01*
X161749938Y-109554834D01*
X161590166Y-109395062D01*
X161407366Y-109262250D01*
X161206041Y-109159669D01*
X161206038Y-109159668D01*
X160991141Y-109089845D01*
X160977669Y-109087711D01*
X160914536Y-109057779D01*
X160909392Y-109052920D01*
X160655000Y-108798528D01*
X160435347Y-109018181D01*
X160374024Y-109051666D01*
X160347666Y-109054500D01*
X152054500Y-109054500D01*
X151987461Y-109034815D01*
X151941706Y-108982011D01*
X151930500Y-108930500D01*
X151930500Y-107847682D01*
X159355000Y-107847682D01*
X159355000Y-108052317D01*
X159387010Y-108254418D01*
X159415222Y-108341248D01*
X159415223Y-108341248D01*
X159806472Y-107950000D01*
X159753811Y-107897339D01*
X160255000Y-107897339D01*
X160255000Y-108002661D01*
X160282259Y-108104394D01*
X160334920Y-108195606D01*
X160409394Y-108270080D01*
X160500606Y-108322741D01*
X160602339Y-108350000D01*
X160707661Y-108350000D01*
X160809394Y-108322741D01*
X160900606Y-108270080D01*
X160975080Y-108195606D01*
X161027741Y-108104394D01*
X161055000Y-108002661D01*
X161055000Y-107949999D01*
X161503528Y-107949999D01*
X161503528Y-107950001D01*
X161894775Y-108341248D01*
X161894775Y-108341247D01*
X161922990Y-108254411D01*
X161955000Y-108052317D01*
X161955000Y-107847682D01*
X161922990Y-107645588D01*
X161894775Y-107558750D01*
X161503528Y-107949999D01*
X161055000Y-107949999D01*
X161055000Y-107897339D01*
X161027741Y-107795606D01*
X160975080Y-107704394D01*
X160900606Y-107629920D01*
X160809394Y-107577259D01*
X160707661Y-107550000D01*
X160602339Y-107550000D01*
X160500606Y-107577259D01*
X160409394Y-107629920D01*
X160334920Y-107704394D01*
X160282259Y-107795606D01*
X160255000Y-107897339D01*
X159753811Y-107897339D01*
X159415223Y-107558751D01*
X159415222Y-107558751D01*
X159387010Y-107645581D01*
X159355000Y-107847682D01*
X151930500Y-107847682D01*
X151930500Y-107837024D01*
X151900178Y-107645581D01*
X151895153Y-107613853D01*
X151825330Y-107398959D01*
X151825330Y-107398958D01*
X151722749Y-107197633D01*
X151589938Y-107014834D01*
X151430166Y-106855062D01*
X151247366Y-106722250D01*
X151223760Y-106710222D01*
X160263751Y-106710222D01*
X160263751Y-106710223D01*
X160655000Y-107101472D01*
X160655001Y-107101472D01*
X161046248Y-106710223D01*
X161046248Y-106710222D01*
X160959418Y-106682010D01*
X160757317Y-106650000D01*
X160552683Y-106650000D01*
X160350581Y-106682010D01*
X160263751Y-106710222D01*
X151223760Y-106710222D01*
X151046041Y-106619669D01*
X151046038Y-106619668D01*
X150831148Y-106549847D01*
X150719561Y-106532173D01*
X150607976Y-106514500D01*
X145937024Y-106514500D01*
X145862633Y-106526282D01*
X145713851Y-106549847D01*
X145498961Y-106619668D01*
X145498958Y-106619669D01*
X145297633Y-106722250D01*
X145213841Y-106783129D01*
X145114834Y-106855062D01*
X145114832Y-106855064D01*
X145114831Y-106855064D01*
X144955064Y-107014831D01*
X144955064Y-107014832D01*
X144955062Y-107014834D01*
X144898024Y-107093339D01*
X144822250Y-107197633D01*
X144719669Y-107398958D01*
X144719668Y-107398961D01*
X144649847Y-107613851D01*
X144614500Y-107837024D01*
X139560500Y-107837024D01*
X139560500Y-106262024D01*
X139525153Y-106038853D01*
X139472200Y-105875879D01*
X139455331Y-105823961D01*
X139455330Y-105823958D01*
X139397348Y-105710163D01*
X139352750Y-105622634D01*
X139219938Y-105439834D01*
X139060166Y-105280062D01*
X137807128Y-104027024D01*
X144614500Y-104027024D01*
X144614500Y-104252975D01*
X144649847Y-104476148D01*
X144719668Y-104691038D01*
X144719669Y-104691041D01*
X144793189Y-104835331D01*
X144822250Y-104892366D01*
X144955062Y-105075166D01*
X145590059Y-105710163D01*
X145590062Y-105710166D01*
X145749834Y-105869938D01*
X145932634Y-106002750D01*
X146133959Y-106105330D01*
X146186659Y-106122453D01*
X146348853Y-106175154D01*
X146572024Y-106210501D01*
X146572025Y-106210501D01*
X146803087Y-106210501D01*
X146803111Y-106210500D01*
X150607975Y-106210500D01*
X150607976Y-106210500D01*
X150831147Y-106175153D01*
X151046041Y-106105330D01*
X151223766Y-106014775D01*
X160263750Y-106014775D01*
X160350588Y-106042990D01*
X160552683Y-106075000D01*
X160757317Y-106075000D01*
X160959411Y-106042990D01*
X161046247Y-106014775D01*
X161046248Y-106014775D01*
X160655001Y-105623528D01*
X160655000Y-105623528D01*
X160263750Y-106014775D01*
X151223766Y-106014775D01*
X151247366Y-106002750D01*
X151430166Y-105869938D01*
X151589938Y-105710166D01*
X151722750Y-105527366D01*
X151825330Y-105326041D01*
X151895153Y-105111147D01*
X151930500Y-104887976D01*
X151930500Y-104672682D01*
X159355000Y-104672682D01*
X159355000Y-104877317D01*
X159387010Y-105079418D01*
X159415222Y-105166248D01*
X159415223Y-105166248D01*
X159806472Y-104775000D01*
X159753811Y-104722339D01*
X160255000Y-104722339D01*
X160255000Y-104827661D01*
X160282259Y-104929394D01*
X160334920Y-105020606D01*
X160409394Y-105095080D01*
X160500606Y-105147741D01*
X160602339Y-105175000D01*
X160707661Y-105175000D01*
X160809394Y-105147741D01*
X160900606Y-105095080D01*
X160975080Y-105020606D01*
X161027741Y-104929394D01*
X161055000Y-104827661D01*
X161055000Y-104774999D01*
X161503528Y-104774999D01*
X161503528Y-104775001D01*
X161894775Y-105166248D01*
X161894775Y-105166247D01*
X161922990Y-105079411D01*
X161955000Y-104877317D01*
X161955000Y-104672682D01*
X161922990Y-104470588D01*
X161894775Y-104383750D01*
X161503528Y-104774999D01*
X161055000Y-104774999D01*
X161055000Y-104722339D01*
X161027741Y-104620606D01*
X160975080Y-104529394D01*
X160900606Y-104454920D01*
X160809394Y-104402259D01*
X160707661Y-104375000D01*
X160602339Y-104375000D01*
X160500606Y-104402259D01*
X160409394Y-104454920D01*
X160334920Y-104529394D01*
X160282259Y-104620606D01*
X160255000Y-104722339D01*
X159753811Y-104722339D01*
X159415223Y-104383751D01*
X159415222Y-104383751D01*
X159387010Y-104470581D01*
X159355000Y-104672682D01*
X151930500Y-104672682D01*
X151930500Y-103535222D01*
X160263751Y-103535222D01*
X160263751Y-103535223D01*
X160655000Y-103926472D01*
X160655001Y-103926472D01*
X161046248Y-103535223D01*
X161046248Y-103535222D01*
X160959418Y-103507010D01*
X160757317Y-103475000D01*
X160552683Y-103475000D01*
X160350581Y-103507010D01*
X160263751Y-103535222D01*
X151930500Y-103535222D01*
X151930500Y-102122024D01*
X151895153Y-101898853D01*
X151828528Y-101693802D01*
X151825331Y-101683961D01*
X151825330Y-101683958D01*
X151765512Y-101566559D01*
X151722750Y-101482634D01*
X151589938Y-101299834D01*
X151430166Y-101140062D01*
X151247366Y-101007250D01*
X151046041Y-100904669D01*
X151046038Y-100904668D01*
X150831148Y-100834847D01*
X150719561Y-100817173D01*
X150607976Y-100799500D01*
X150382024Y-100799500D01*
X150307633Y-100811282D01*
X150158851Y-100834847D01*
X149943961Y-100904668D01*
X149943958Y-100904669D01*
X149742633Y-101007250D01*
X149710184Y-101030826D01*
X149559834Y-101140062D01*
X149559832Y-101140064D01*
X149559831Y-101140064D01*
X149400064Y-101299831D01*
X149400064Y-101299832D01*
X149400062Y-101299834D01*
X149363839Y-101349691D01*
X149267250Y-101482633D01*
X149164669Y-101683958D01*
X149164668Y-101683961D01*
X149094847Y-101898851D01*
X149059500Y-102122024D01*
X149059500Y-103215500D01*
X149039815Y-103282539D01*
X148987011Y-103328294D01*
X148935500Y-103339500D01*
X147330966Y-103339500D01*
X147263927Y-103319815D01*
X147243285Y-103303181D01*
X146985168Y-103045064D01*
X146985166Y-103045062D01*
X146802366Y-102912250D01*
X146601041Y-102809669D01*
X146601038Y-102809668D01*
X146386148Y-102739847D01*
X146274561Y-102722173D01*
X146162976Y-102704500D01*
X145937024Y-102704500D01*
X145862633Y-102716282D01*
X145713851Y-102739847D01*
X145498961Y-102809668D01*
X145498958Y-102809669D01*
X145297633Y-102912250D01*
X145193339Y-102988024D01*
X145114834Y-103045062D01*
X145114832Y-103045064D01*
X145114831Y-103045064D01*
X144955064Y-103204831D01*
X144955064Y-103204832D01*
X144955062Y-103204834D01*
X144947313Y-103215500D01*
X144822250Y-103387633D01*
X144719669Y-103588958D01*
X144719668Y-103588961D01*
X144649847Y-103803851D01*
X144614500Y-104027024D01*
X137807128Y-104027024D01*
X136825166Y-103045062D01*
X136642366Y-102912250D01*
X136441041Y-102809669D01*
X136441038Y-102809668D01*
X136226148Y-102739847D01*
X136114561Y-102722173D01*
X136002976Y-102704500D01*
X135777024Y-102704500D01*
X135702633Y-102716282D01*
X135553851Y-102739847D01*
X135338961Y-102809668D01*
X135338958Y-102809669D01*
X135137633Y-102912250D01*
X135033339Y-102988024D01*
X134954834Y-103045062D01*
X134954832Y-103045064D01*
X134954831Y-103045064D01*
X134795064Y-103204831D01*
X134795064Y-103204832D01*
X134795062Y-103204834D01*
X134787313Y-103215500D01*
X134662250Y-103387633D01*
X134559669Y-103588958D01*
X134559668Y-103588961D01*
X134534226Y-103667266D01*
X134494788Y-103724942D01*
X134430430Y-103752140D01*
X134361583Y-103740225D01*
X134315977Y-103701834D01*
X134290862Y-103667266D01*
X134189938Y-103528356D01*
X134030166Y-103368584D01*
X132436644Y-101775062D01*
X132253844Y-101642250D01*
X132122789Y-101575474D01*
X132091402Y-101552669D01*
X132052603Y-101513869D01*
X132052595Y-101513863D01*
X131914393Y-101432131D01*
X131914388Y-101432129D01*
X131760208Y-101387335D01*
X131760202Y-101387334D01*
X131724181Y-101384500D01*
X129895831Y-101384500D01*
X129895806Y-101384501D01*
X129859795Y-101387335D01*
X129705611Y-101432129D01*
X129705606Y-101432131D01*
X129567404Y-101513863D01*
X129567396Y-101513869D01*
X129453869Y-101627396D01*
X129453863Y-101627404D01*
X129372131Y-101765606D01*
X129372129Y-101765611D01*
X129327335Y-101919791D01*
X129327334Y-101919797D01*
X129324500Y-101955811D01*
X127111500Y-101955811D01*
X127111500Y-93359024D01*
X129374500Y-93359024D01*
X129374500Y-99172975D01*
X129409847Y-99396148D01*
X129479668Y-99611038D01*
X129479669Y-99611041D01*
X129581905Y-99811689D01*
X129582250Y-99812366D01*
X129715062Y-99995166D01*
X129874834Y-100154938D01*
X130057634Y-100287750D01*
X130156378Y-100338062D01*
X130258958Y-100390330D01*
X130258961Y-100390331D01*
X130331682Y-100413959D01*
X130473853Y-100460153D01*
X130697024Y-100495500D01*
X130697025Y-100495500D01*
X130922975Y-100495500D01*
X130922976Y-100495500D01*
X131146147Y-100460153D01*
X131361041Y-100390330D01*
X131562366Y-100287750D01*
X131745166Y-100154938D01*
X131904938Y-99995166D01*
X132037750Y-99812366D01*
X132140330Y-99611041D01*
X132210153Y-99396147D01*
X132245500Y-99172976D01*
X132245500Y-94117966D01*
X132265185Y-94050927D01*
X132281819Y-94030285D01*
X132297986Y-94014118D01*
X132329375Y-93991313D01*
X132333021Y-93989455D01*
X133681070Y-93989455D01*
X133681071Y-93989456D01*
X133795876Y-94026758D01*
X134005754Y-94060000D01*
X134218246Y-94060000D01*
X134428120Y-94026758D01*
X134542928Y-93989455D01*
X134112001Y-93558528D01*
X134112000Y-93558528D01*
X133681070Y-93989455D01*
X132333021Y-93989455D01*
X132338089Y-93986872D01*
X132350571Y-93980513D01*
X132539738Y-93843076D01*
X132705076Y-93677738D01*
X132842513Y-93488571D01*
X132948666Y-93280234D01*
X133020922Y-93057855D01*
X133034437Y-92972521D01*
X133064364Y-92909391D01*
X133069228Y-92904242D01*
X133600054Y-92373416D01*
X133661377Y-92339931D01*
X133731069Y-92344915D01*
X133754755Y-92360138D01*
X133711901Y-92402993D01*
X133646075Y-92517007D01*
X133612000Y-92644174D01*
X133612000Y-92775826D01*
X133646075Y-92902993D01*
X133711901Y-93017007D01*
X133804993Y-93110099D01*
X133919007Y-93175925D01*
X134046174Y-93210000D01*
X134177826Y-93210000D01*
X134304993Y-93175925D01*
X134419007Y-93110099D01*
X134512099Y-93017007D01*
X134577925Y-92902993D01*
X134612000Y-92775826D01*
X134612000Y-92644174D01*
X134577925Y-92517007D01*
X134512099Y-92402993D01*
X134470535Y-92361429D01*
X134509906Y-92339932D01*
X134579598Y-92344916D01*
X134623945Y-92373417D01*
X135130181Y-92879653D01*
X135163666Y-92940976D01*
X135166500Y-92967334D01*
X135166500Y-93624168D01*
X135166501Y-93624193D01*
X135169335Y-93660204D01*
X135214129Y-93814388D01*
X135214131Y-93814393D01*
X135295863Y-93952595D01*
X135295869Y-93952603D01*
X135409396Y-94066130D01*
X135409400Y-94066133D01*
X135409402Y-94066135D01*
X135547607Y-94147869D01*
X135588268Y-94159682D01*
X135701791Y-94192664D01*
X135701794Y-94192664D01*
X135701796Y-94192665D01*
X135737819Y-94195500D01*
X137566180Y-94195499D01*
X137602204Y-94192665D01*
X137756393Y-94147869D01*
X137894598Y-94066135D01*
X138008135Y-93952598D01*
X138089869Y-93814393D01*
X138129571Y-93677738D01*
X138134664Y-93660208D01*
X138134665Y-93660202D01*
X138137499Y-93624188D01*
X138137500Y-93624181D01*
X138137499Y-93206289D01*
X138157183Y-93139253D01*
X138209987Y-93093498D01*
X138279146Y-93083554D01*
X138342702Y-93112579D01*
X138379430Y-93167974D01*
X138409668Y-93261038D01*
X138409669Y-93261040D01*
X138480333Y-93399726D01*
X138512250Y-93462366D01*
X138645062Y-93645166D01*
X138804834Y-93804938D01*
X138987634Y-93937750D01*
X139016785Y-93952603D01*
X139188958Y-94040330D01*
X139188961Y-94040331D01*
X139268379Y-94066135D01*
X139403853Y-94110153D01*
X139627024Y-94145500D01*
X139627025Y-94145500D01*
X139852975Y-94145500D01*
X139852976Y-94145500D01*
X140076147Y-94110153D01*
X140291041Y-94040330D01*
X140492366Y-93937750D01*
X140675166Y-93804938D01*
X140834938Y-93645166D01*
X140967750Y-93462366D01*
X141036574Y-93327290D01*
X141070331Y-93261040D01*
X141070331Y-93261038D01*
X141079760Y-93232018D01*
X141140153Y-93046147D01*
X141175500Y-92822976D01*
X141175500Y-92597024D01*
X141140153Y-92373853D01*
X141079758Y-92187976D01*
X141070331Y-92158961D01*
X141070329Y-92158958D01*
X141048133Y-92115396D01*
X141029215Y-92078266D01*
X141010123Y-92040795D01*
X140997227Y-91972125D01*
X141023504Y-91907385D01*
X141080610Y-91867128D01*
X141120608Y-91860500D01*
X143511468Y-91860500D01*
X143578507Y-91880185D01*
X143624262Y-91932989D01*
X143634206Y-92002147D01*
X143621953Y-92040795D01*
X143535244Y-92210968D01*
X143472009Y-92405582D01*
X143440000Y-92607682D01*
X143440000Y-92812317D01*
X143472010Y-93014418D01*
X143500222Y-93101248D01*
X144228054Y-92373416D01*
X144289377Y-92339931D01*
X144359068Y-92344915D01*
X144403416Y-92373416D01*
X144457157Y-92427157D01*
X144419920Y-92464394D01*
X144367259Y-92555606D01*
X144340000Y-92657339D01*
X144340000Y-92762661D01*
X144367259Y-92864394D01*
X144419920Y-92955606D01*
X144494394Y-93030080D01*
X144585606Y-93082741D01*
X144687339Y-93110000D01*
X144792661Y-93110000D01*
X144894394Y-93082741D01*
X144985606Y-93030080D01*
X145060080Y-92955606D01*
X145112741Y-92864394D01*
X145140000Y-92762661D01*
X145140000Y-92657339D01*
X145112741Y-92555606D01*
X145060080Y-92464394D01*
X145022843Y-92427157D01*
X145076583Y-92373417D01*
X145137906Y-92339932D01*
X145207598Y-92344916D01*
X145251945Y-92373417D01*
X145896472Y-93017944D01*
X145926722Y-93067307D01*
X145989668Y-93261038D01*
X145989669Y-93261040D01*
X146060333Y-93399726D01*
X146092250Y-93462366D01*
X146205045Y-93617615D01*
X146228525Y-93683421D01*
X146212700Y-93751475D01*
X146162594Y-93800170D01*
X146104727Y-93814500D01*
X145047334Y-93814500D01*
X144980295Y-93794815D01*
X144959653Y-93778181D01*
X144740001Y-93558528D01*
X144472055Y-93826472D01*
X144422693Y-93856721D01*
X144301685Y-93896040D01*
X144301684Y-93896040D01*
X144228961Y-93919668D01*
X144228958Y-93919669D01*
X144027633Y-94022250D01*
X143967238Y-94066130D01*
X143844834Y-94155062D01*
X143844832Y-94155064D01*
X143844831Y-94155064D01*
X139875064Y-98124831D01*
X139875064Y-98124832D01*
X139875062Y-98124834D01*
X139818024Y-98203339D01*
X139742250Y-98307633D01*
X139639669Y-98508958D01*
X139639668Y-98508961D01*
X139569847Y-98723851D01*
X139534500Y-98947024D01*
X139534500Y-99172975D01*
X139569847Y-99396148D01*
X139639668Y-99611038D01*
X139639669Y-99611041D01*
X139741905Y-99811689D01*
X139742250Y-99812366D01*
X139875062Y-99995166D01*
X140034834Y-100154938D01*
X140217634Y-100287750D01*
X140316378Y-100338062D01*
X140418958Y-100390330D01*
X140418961Y-100390331D01*
X140491682Y-100413959D01*
X140633853Y-100460153D01*
X140857024Y-100495500D01*
X140857025Y-100495500D01*
X141082975Y-100495500D01*
X141082976Y-100495500D01*
X141306147Y-100460153D01*
X141521041Y-100390330D01*
X141722366Y-100287750D01*
X141905166Y-100154938D01*
X145338284Y-96721818D01*
X145399607Y-96688334D01*
X145425965Y-96685500D01*
X177845033Y-96685500D01*
X177912072Y-96705185D01*
X177957827Y-96757989D01*
X177967771Y-96827147D01*
X177938746Y-96890703D01*
X177932714Y-96897181D01*
X172260064Y-102569831D01*
X172260062Y-102569834D01*
X172203024Y-102648339D01*
X172127250Y-102752633D01*
X172024669Y-102953958D01*
X172024668Y-102953961D01*
X171954847Y-103168851D01*
X171919500Y-103392024D01*
X171919500Y-103617975D01*
X171954847Y-103841148D01*
X172024668Y-104056038D01*
X172024669Y-104056041D01*
X172111334Y-104226130D01*
X172127250Y-104257366D01*
X172260062Y-104440166D01*
X172419834Y-104599938D01*
X172602634Y-104732750D01*
X172701378Y-104783062D01*
X172803958Y-104835330D01*
X172803961Y-104835331D01*
X172911406Y-104870241D01*
X173018853Y-104905153D01*
X173242024Y-104940500D01*
X173242025Y-104940500D01*
X173467975Y-104940500D01*
X173467976Y-104940500D01*
X173691147Y-104905153D01*
X173906041Y-104835330D01*
X174107366Y-104732750D01*
X174290166Y-104599938D01*
X175517819Y-103372282D01*
X175579142Y-103338798D01*
X175648833Y-103343782D01*
X175704767Y-103385653D01*
X175729184Y-103451118D01*
X175729500Y-103459964D01*
X175729500Y-103617975D01*
X175764847Y-103841148D01*
X175834668Y-104056038D01*
X175834669Y-104056041D01*
X175921334Y-104226130D01*
X175937250Y-104257366D01*
X176070062Y-104440166D01*
X176229834Y-104599938D01*
X176412634Y-104732750D01*
X176511378Y-104783062D01*
X176613958Y-104835330D01*
X176613961Y-104835331D01*
X176721406Y-104870241D01*
X176828853Y-104905153D01*
X177052024Y-104940500D01*
X177052025Y-104940500D01*
X177277975Y-104940500D01*
X177277976Y-104940500D01*
X177501147Y-104905153D01*
X177716041Y-104835330D01*
X177917366Y-104732750D01*
X178100166Y-104599938D01*
X181316928Y-101383174D01*
X181378249Y-101349691D01*
X181447941Y-101354675D01*
X181503874Y-101396547D01*
X181522538Y-101432539D01*
X181549668Y-101516038D01*
X181549669Y-101516041D01*
X181652249Y-101717364D01*
X181652250Y-101717366D01*
X181785062Y-101900166D01*
X181944834Y-102059938D01*
X182127634Y-102192750D01*
X182226378Y-102243062D01*
X182328958Y-102295330D01*
X182328961Y-102295331D01*
X182436406Y-102330241D01*
X182543853Y-102365153D01*
X182767024Y-102400500D01*
X182767025Y-102400500D01*
X182992975Y-102400500D01*
X182992976Y-102400500D01*
X183216147Y-102365153D01*
X183431041Y-102295330D01*
X183632366Y-102192750D01*
X183815166Y-102059938D01*
X183974938Y-101900166D01*
X184107750Y-101717366D01*
X184119756Y-101693801D01*
X184167729Y-101643005D01*
X184235550Y-101626208D01*
X184301685Y-101648744D01*
X184330560Y-101677208D01*
X184428416Y-101811894D01*
X184573104Y-101956582D01*
X184738652Y-102076861D01*
X184819999Y-102118309D01*
X184820000Y-102118309D01*
X184820000Y-100899174D01*
X184920000Y-100899174D01*
X184920000Y-101030826D01*
X184954075Y-101157993D01*
X185019901Y-101272007D01*
X185112993Y-101365099D01*
X185227007Y-101430925D01*
X185354174Y-101465000D01*
X185485826Y-101465000D01*
X185612993Y-101430925D01*
X185727007Y-101365099D01*
X185820099Y-101272007D01*
X185885925Y-101157993D01*
X185920000Y-101030826D01*
X185920000Y-100899174D01*
X185885925Y-100772007D01*
X185820099Y-100657993D01*
X185727007Y-100564901D01*
X185612993Y-100499075D01*
X185485826Y-100465000D01*
X185354174Y-100465000D01*
X185227007Y-100499075D01*
X185112993Y-100564901D01*
X185019901Y-100657993D01*
X184954075Y-100772007D01*
X184920000Y-100899174D01*
X184820000Y-100899174D01*
X184820000Y-99811690D01*
X184819999Y-99811689D01*
X186020000Y-99811689D01*
X186020000Y-102118309D01*
X186101347Y-102076861D01*
X186266894Y-101956582D01*
X186266895Y-101956582D01*
X186411582Y-101811895D01*
X186509439Y-101677208D01*
X186564769Y-101634543D01*
X186634382Y-101628564D01*
X186696177Y-101661170D01*
X186720242Y-101693799D01*
X186732250Y-101717366D01*
X186865062Y-101900166D01*
X187024834Y-102059938D01*
X187207634Y-102192750D01*
X187306378Y-102243062D01*
X187408958Y-102295330D01*
X187408961Y-102295331D01*
X187516406Y-102330241D01*
X187623853Y-102365153D01*
X187847024Y-102400500D01*
X187847025Y-102400500D01*
X188072975Y-102400500D01*
X188072976Y-102400500D01*
X188296147Y-102365153D01*
X188511041Y-102295330D01*
X188712366Y-102192750D01*
X188895166Y-102059938D01*
X189054938Y-101900166D01*
X189129682Y-101797290D01*
X189185012Y-101754624D01*
X189254625Y-101748645D01*
X189316420Y-101781251D01*
X189330318Y-101797290D01*
X189340929Y-101811895D01*
X189405062Y-101900166D01*
X189564834Y-102059938D01*
X189747634Y-102192750D01*
X189846378Y-102243062D01*
X189948958Y-102295330D01*
X189948961Y-102295331D01*
X190056406Y-102330241D01*
X190163853Y-102365153D01*
X190387024Y-102400500D01*
X190387025Y-102400500D01*
X190612975Y-102400500D01*
X190612976Y-102400500D01*
X190836147Y-102365153D01*
X191051041Y-102295330D01*
X191252366Y-102192750D01*
X191435166Y-102059938D01*
X191594938Y-101900166D01*
X191669682Y-101797290D01*
X191725012Y-101754624D01*
X191794625Y-101748645D01*
X191856420Y-101781251D01*
X191870318Y-101797290D01*
X191880929Y-101811895D01*
X191945062Y-101900166D01*
X192104834Y-102059938D01*
X192287634Y-102192750D01*
X192386378Y-102243062D01*
X192488958Y-102295330D01*
X192488961Y-102295331D01*
X192596406Y-102330241D01*
X192703853Y-102365153D01*
X192927024Y-102400500D01*
X192927025Y-102400500D01*
X193152975Y-102400500D01*
X193152976Y-102400500D01*
X193376147Y-102365153D01*
X193591041Y-102295330D01*
X193792366Y-102192750D01*
X193975166Y-102059938D01*
X194134938Y-101900166D01*
X194209682Y-101797290D01*
X194265012Y-101754624D01*
X194334625Y-101748645D01*
X194396420Y-101781251D01*
X194410318Y-101797290D01*
X194420929Y-101811895D01*
X194485062Y-101900166D01*
X194644834Y-102059938D01*
X194827634Y-102192750D01*
X194926378Y-102243062D01*
X195028958Y-102295330D01*
X195028961Y-102295331D01*
X195136406Y-102330241D01*
X195243853Y-102365153D01*
X195467024Y-102400500D01*
X195467025Y-102400500D01*
X195692975Y-102400500D01*
X195692976Y-102400500D01*
X195916147Y-102365153D01*
X196131041Y-102295330D01*
X196332366Y-102192750D01*
X196515166Y-102059938D01*
X196674938Y-101900166D01*
X196749682Y-101797290D01*
X196805012Y-101754624D01*
X196874625Y-101748645D01*
X196936420Y-101781251D01*
X196950318Y-101797290D01*
X196960929Y-101811895D01*
X197025062Y-101900166D01*
X197184834Y-102059938D01*
X197367634Y-102192750D01*
X197466378Y-102243062D01*
X197568958Y-102295330D01*
X197568961Y-102295331D01*
X197676406Y-102330241D01*
X197783853Y-102365153D01*
X198007024Y-102400500D01*
X198007025Y-102400500D01*
X198232975Y-102400500D01*
X198232976Y-102400500D01*
X198456147Y-102365153D01*
X198671041Y-102295330D01*
X198872366Y-102192750D01*
X199055166Y-102059938D01*
X199214938Y-101900166D01*
X199289682Y-101797290D01*
X199345012Y-101754624D01*
X199414625Y-101748645D01*
X199476420Y-101781251D01*
X199490318Y-101797290D01*
X199500929Y-101811895D01*
X199565062Y-101900166D01*
X199724834Y-102059938D01*
X199907634Y-102192750D01*
X200006378Y-102243062D01*
X200108958Y-102295330D01*
X200108961Y-102295331D01*
X200216406Y-102330241D01*
X200323853Y-102365153D01*
X200547024Y-102400500D01*
X200547025Y-102400500D01*
X200772975Y-102400500D01*
X200772976Y-102400500D01*
X200996147Y-102365153D01*
X201211041Y-102295330D01*
X201412366Y-102192750D01*
X201595166Y-102059938D01*
X201754938Y-101900166D01*
X201829682Y-101797290D01*
X201885012Y-101754624D01*
X201954625Y-101748645D01*
X202016420Y-101781251D01*
X202030318Y-101797290D01*
X202040929Y-101811895D01*
X202105062Y-101900166D01*
X202264834Y-102059938D01*
X202447634Y-102192750D01*
X202546378Y-102243062D01*
X202648958Y-102295330D01*
X202648961Y-102295331D01*
X202756406Y-102330241D01*
X202863853Y-102365153D01*
X203087024Y-102400500D01*
X203087025Y-102400500D01*
X203312975Y-102400500D01*
X203312976Y-102400500D01*
X203536147Y-102365153D01*
X203751041Y-102295330D01*
X203952366Y-102192750D01*
X204135166Y-102059938D01*
X204294938Y-101900166D01*
X204369682Y-101797290D01*
X204425012Y-101754624D01*
X204494625Y-101748645D01*
X204556420Y-101781251D01*
X204570318Y-101797290D01*
X204580929Y-101811895D01*
X204645062Y-101900166D01*
X204804834Y-102059938D01*
X204987634Y-102192750D01*
X205086378Y-102243062D01*
X205188958Y-102295330D01*
X205188961Y-102295331D01*
X205296406Y-102330241D01*
X205403853Y-102365153D01*
X205627024Y-102400500D01*
X205627025Y-102400500D01*
X205852975Y-102400500D01*
X205852976Y-102400500D01*
X206076147Y-102365153D01*
X206291041Y-102295330D01*
X206492366Y-102192750D01*
X206675166Y-102059938D01*
X206834938Y-101900166D01*
X206909682Y-101797290D01*
X206965012Y-101754624D01*
X207034625Y-101748645D01*
X207096420Y-101781251D01*
X207110318Y-101797290D01*
X207120929Y-101811895D01*
X207185062Y-101900166D01*
X207344834Y-102059938D01*
X207527634Y-102192750D01*
X207626378Y-102243062D01*
X207728958Y-102295330D01*
X207728961Y-102295331D01*
X207836406Y-102330241D01*
X207943853Y-102365153D01*
X208167024Y-102400500D01*
X208167025Y-102400500D01*
X208392975Y-102400500D01*
X208392976Y-102400500D01*
X208616147Y-102365153D01*
X208831041Y-102295330D01*
X209032366Y-102192750D01*
X209215166Y-102059938D01*
X209374938Y-101900166D01*
X209449682Y-101797290D01*
X209505012Y-101754624D01*
X209574625Y-101748645D01*
X209636420Y-101781251D01*
X209650318Y-101797290D01*
X209660929Y-101811895D01*
X209725062Y-101900166D01*
X209884834Y-102059938D01*
X210067634Y-102192750D01*
X210166378Y-102243062D01*
X210268958Y-102295330D01*
X210268961Y-102295331D01*
X210376406Y-102330241D01*
X210483853Y-102365153D01*
X210707024Y-102400500D01*
X210707025Y-102400500D01*
X210932975Y-102400500D01*
X210932976Y-102400500D01*
X211156147Y-102365153D01*
X211371041Y-102295330D01*
X211572366Y-102192750D01*
X211755166Y-102059938D01*
X211914938Y-101900166D01*
X211989682Y-101797290D01*
X212045012Y-101754624D01*
X212114625Y-101748645D01*
X212176420Y-101781251D01*
X212190318Y-101797290D01*
X212200929Y-101811895D01*
X212265062Y-101900166D01*
X212424834Y-102059938D01*
X212607634Y-102192750D01*
X212706378Y-102243062D01*
X212808958Y-102295330D01*
X212808961Y-102295331D01*
X212916406Y-102330241D01*
X213023853Y-102365153D01*
X213247024Y-102400500D01*
X213247025Y-102400500D01*
X213472975Y-102400500D01*
X213472976Y-102400500D01*
X213696147Y-102365153D01*
X213911041Y-102295330D01*
X214112366Y-102192750D01*
X214295166Y-102059938D01*
X214454938Y-101900166D01*
X214529682Y-101797290D01*
X214585012Y-101754624D01*
X214654625Y-101748645D01*
X214716420Y-101781251D01*
X214730318Y-101797290D01*
X214740929Y-101811895D01*
X214805062Y-101900166D01*
X214964834Y-102059938D01*
X215147634Y-102192750D01*
X215246378Y-102243062D01*
X215348958Y-102295330D01*
X215348961Y-102295331D01*
X215456406Y-102330241D01*
X215563853Y-102365153D01*
X215787024Y-102400500D01*
X215787025Y-102400500D01*
X216012975Y-102400500D01*
X216012976Y-102400500D01*
X216236147Y-102365153D01*
X216451041Y-102295330D01*
X216652366Y-102192750D01*
X216835166Y-102059938D01*
X216994938Y-101900166D01*
X217069682Y-101797290D01*
X217125012Y-101754624D01*
X217194625Y-101748645D01*
X217256420Y-101781251D01*
X217270318Y-101797290D01*
X217280929Y-101811895D01*
X217345062Y-101900166D01*
X217504834Y-102059938D01*
X217687634Y-102192750D01*
X217786378Y-102243062D01*
X217888958Y-102295330D01*
X217888961Y-102295331D01*
X217996406Y-102330241D01*
X218103853Y-102365153D01*
X218327024Y-102400500D01*
X218327025Y-102400500D01*
X218552975Y-102400500D01*
X218552976Y-102400500D01*
X218776147Y-102365153D01*
X218991041Y-102295330D01*
X219192366Y-102192750D01*
X219375166Y-102059938D01*
X219534938Y-101900166D01*
X219667750Y-101717366D01*
X219770330Y-101516041D01*
X219840153Y-101301147D01*
X219875500Y-101077976D01*
X219875500Y-100852024D01*
X219840153Y-100628853D01*
X219770330Y-100413959D01*
X219770330Y-100413958D01*
X219705640Y-100286997D01*
X219667750Y-100212634D01*
X219534938Y-100029834D01*
X219375166Y-99870062D01*
X219192366Y-99737250D01*
X218991041Y-99634669D01*
X218991038Y-99634668D01*
X218776148Y-99564847D01*
X218664561Y-99547173D01*
X218552976Y-99529500D01*
X218327024Y-99529500D01*
X218252633Y-99541282D01*
X218103851Y-99564847D01*
X217888961Y-99634668D01*
X217888958Y-99634669D01*
X217687633Y-99737250D01*
X217585178Y-99811689D01*
X217504834Y-99870062D01*
X217504832Y-99870064D01*
X217504831Y-99870064D01*
X217345064Y-100029831D01*
X217345064Y-100029832D01*
X217345062Y-100029834D01*
X217290061Y-100105535D01*
X217270318Y-100132710D01*
X217214988Y-100175375D01*
X217145374Y-100181354D01*
X217083579Y-100148748D01*
X217069682Y-100132710D01*
X217059070Y-100118104D01*
X216994938Y-100029834D01*
X216835166Y-99870062D01*
X216652366Y-99737250D01*
X216451041Y-99634669D01*
X216451038Y-99634668D01*
X216236148Y-99564847D01*
X216124561Y-99547173D01*
X216012976Y-99529500D01*
X215787024Y-99529500D01*
X215712633Y-99541282D01*
X215563851Y-99564847D01*
X215348961Y-99634668D01*
X215348958Y-99634669D01*
X215147633Y-99737250D01*
X215045178Y-99811689D01*
X214964834Y-99870062D01*
X214964832Y-99870064D01*
X214964831Y-99870064D01*
X214805064Y-100029831D01*
X214805064Y-100029832D01*
X214805062Y-100029834D01*
X214750061Y-100105535D01*
X214730318Y-100132710D01*
X214674988Y-100175375D01*
X214605374Y-100181354D01*
X214543579Y-100148748D01*
X214529682Y-100132710D01*
X214519070Y-100118104D01*
X214454938Y-100029834D01*
X214295166Y-99870062D01*
X214112366Y-99737250D01*
X213911041Y-99634669D01*
X213911038Y-99634668D01*
X213696148Y-99564847D01*
X213584561Y-99547173D01*
X213472976Y-99529500D01*
X213247024Y-99529500D01*
X213172633Y-99541282D01*
X213023851Y-99564847D01*
X212808961Y-99634668D01*
X212808958Y-99634669D01*
X212607633Y-99737250D01*
X212505178Y-99811689D01*
X212424834Y-99870062D01*
X212424832Y-99870064D01*
X212424831Y-99870064D01*
X212265064Y-100029831D01*
X212265064Y-100029832D01*
X212265062Y-100029834D01*
X212210061Y-100105535D01*
X212190318Y-100132710D01*
X212134988Y-100175375D01*
X212065374Y-100181354D01*
X212003579Y-100148748D01*
X211989682Y-100132710D01*
X211979070Y-100118104D01*
X211914938Y-100029834D01*
X211755166Y-99870062D01*
X211572366Y-99737250D01*
X211371041Y-99634669D01*
X211371038Y-99634668D01*
X211156148Y-99564847D01*
X211044561Y-99547173D01*
X210932976Y-99529500D01*
X210707024Y-99529500D01*
X210632633Y-99541282D01*
X210483851Y-99564847D01*
X210268961Y-99634668D01*
X210268958Y-99634669D01*
X210067633Y-99737250D01*
X209965178Y-99811689D01*
X209884834Y-99870062D01*
X209884832Y-99870064D01*
X209884831Y-99870064D01*
X209725064Y-100029831D01*
X209725064Y-100029832D01*
X209725062Y-100029834D01*
X209670061Y-100105535D01*
X209650318Y-100132710D01*
X209594988Y-100175375D01*
X209525374Y-100181354D01*
X209463579Y-100148748D01*
X209449682Y-100132710D01*
X209439070Y-100118104D01*
X209374938Y-100029834D01*
X209215166Y-99870062D01*
X209032366Y-99737250D01*
X208831041Y-99634669D01*
X208831038Y-99634668D01*
X208616148Y-99564847D01*
X208504561Y-99547173D01*
X208392976Y-99529500D01*
X208167024Y-99529500D01*
X208092633Y-99541282D01*
X207943851Y-99564847D01*
X207728961Y-99634668D01*
X207728958Y-99634669D01*
X207527633Y-99737250D01*
X207425178Y-99811689D01*
X207344834Y-99870062D01*
X207344832Y-99870064D01*
X207344831Y-99870064D01*
X207185064Y-100029831D01*
X207185064Y-100029832D01*
X207185062Y-100029834D01*
X207130061Y-100105535D01*
X207110318Y-100132710D01*
X207054988Y-100175375D01*
X206985374Y-100181354D01*
X206923579Y-100148748D01*
X206909682Y-100132710D01*
X206899070Y-100118104D01*
X206834938Y-100029834D01*
X206675166Y-99870062D01*
X206492366Y-99737250D01*
X206291041Y-99634669D01*
X206291038Y-99634668D01*
X206076148Y-99564847D01*
X205964561Y-99547173D01*
X205852976Y-99529500D01*
X205627024Y-99529500D01*
X205552633Y-99541282D01*
X205403851Y-99564847D01*
X205188961Y-99634668D01*
X205188958Y-99634669D01*
X204987633Y-99737250D01*
X204885178Y-99811689D01*
X204804834Y-99870062D01*
X204804832Y-99870064D01*
X204804831Y-99870064D01*
X204645064Y-100029831D01*
X204645064Y-100029832D01*
X204645062Y-100029834D01*
X204590061Y-100105535D01*
X204570318Y-100132710D01*
X204514988Y-100175375D01*
X204445374Y-100181354D01*
X204383579Y-100148748D01*
X204369682Y-100132710D01*
X204359070Y-100118104D01*
X204294938Y-100029834D01*
X204135166Y-99870062D01*
X203952366Y-99737250D01*
X203751041Y-99634669D01*
X203751038Y-99634668D01*
X203536148Y-99564847D01*
X203424561Y-99547173D01*
X203312976Y-99529500D01*
X203087024Y-99529500D01*
X203012633Y-99541282D01*
X202863851Y-99564847D01*
X202648961Y-99634668D01*
X202648958Y-99634669D01*
X202447633Y-99737250D01*
X202345178Y-99811689D01*
X202264834Y-99870062D01*
X202264832Y-99870064D01*
X202264831Y-99870064D01*
X202105064Y-100029831D01*
X202105064Y-100029832D01*
X202105062Y-100029834D01*
X202050061Y-100105535D01*
X202030318Y-100132710D01*
X201974988Y-100175375D01*
X201905374Y-100181354D01*
X201843579Y-100148748D01*
X201829682Y-100132710D01*
X201819070Y-100118104D01*
X201754938Y-100029834D01*
X201595166Y-99870062D01*
X201412366Y-99737250D01*
X201211041Y-99634669D01*
X201211038Y-99634668D01*
X200996148Y-99564847D01*
X200884561Y-99547173D01*
X200772976Y-99529500D01*
X200547024Y-99529500D01*
X200472633Y-99541282D01*
X200323851Y-99564847D01*
X200108961Y-99634668D01*
X200108958Y-99634669D01*
X199907633Y-99737250D01*
X199805178Y-99811689D01*
X199724834Y-99870062D01*
X199724832Y-99870064D01*
X199724831Y-99870064D01*
X199565064Y-100029831D01*
X199565064Y-100029832D01*
X199565062Y-100029834D01*
X199510061Y-100105535D01*
X199490318Y-100132710D01*
X199434988Y-100175375D01*
X199365374Y-100181354D01*
X199303579Y-100148748D01*
X199289682Y-100132710D01*
X199279070Y-100118104D01*
X199214938Y-100029834D01*
X199055166Y-99870062D01*
X198872366Y-99737250D01*
X198671041Y-99634669D01*
X198671038Y-99634668D01*
X198456148Y-99564847D01*
X198344561Y-99547173D01*
X198232976Y-99529500D01*
X198007024Y-99529500D01*
X197932633Y-99541282D01*
X197783851Y-99564847D01*
X197568961Y-99634668D01*
X197568958Y-99634669D01*
X197367633Y-99737250D01*
X197265178Y-99811689D01*
X197184834Y-99870062D01*
X197184832Y-99870064D01*
X197184831Y-99870064D01*
X197025064Y-100029831D01*
X197025064Y-100029832D01*
X197025062Y-100029834D01*
X196970061Y-100105535D01*
X196950318Y-100132710D01*
X196894988Y-100175375D01*
X196825374Y-100181354D01*
X196763579Y-100148748D01*
X196749682Y-100132710D01*
X196739070Y-100118104D01*
X196674938Y-100029834D01*
X196515166Y-99870062D01*
X196332366Y-99737250D01*
X196131041Y-99634669D01*
X196131038Y-99634668D01*
X195916148Y-99564847D01*
X195804561Y-99547173D01*
X195692976Y-99529500D01*
X195467024Y-99529500D01*
X195392633Y-99541282D01*
X195243851Y-99564847D01*
X195028961Y-99634668D01*
X195028958Y-99634669D01*
X194827633Y-99737250D01*
X194725178Y-99811689D01*
X194644834Y-99870062D01*
X194644832Y-99870064D01*
X194644831Y-99870064D01*
X194485064Y-100029831D01*
X194485064Y-100029832D01*
X194485062Y-100029834D01*
X194430061Y-100105535D01*
X194410318Y-100132710D01*
X194354988Y-100175375D01*
X194285374Y-100181354D01*
X194223579Y-100148748D01*
X194209682Y-100132710D01*
X194199070Y-100118104D01*
X194134938Y-100029834D01*
X193975166Y-99870062D01*
X193792366Y-99737250D01*
X193591041Y-99634669D01*
X193591038Y-99634668D01*
X193376148Y-99564847D01*
X193264561Y-99547173D01*
X193152976Y-99529500D01*
X192927024Y-99529500D01*
X192852633Y-99541282D01*
X192703851Y-99564847D01*
X192488961Y-99634668D01*
X192488958Y-99634669D01*
X192287633Y-99737250D01*
X192185178Y-99811689D01*
X192104834Y-99870062D01*
X192104832Y-99870064D01*
X192104831Y-99870064D01*
X191945064Y-100029831D01*
X191945064Y-100029832D01*
X191945062Y-100029834D01*
X191890061Y-100105535D01*
X191870318Y-100132710D01*
X191814988Y-100175375D01*
X191745374Y-100181354D01*
X191683579Y-100148748D01*
X191669682Y-100132710D01*
X191659070Y-100118104D01*
X191594938Y-100029834D01*
X191435166Y-99870062D01*
X191252366Y-99737250D01*
X191051041Y-99634669D01*
X191051038Y-99634668D01*
X190836148Y-99564847D01*
X190724561Y-99547173D01*
X190612976Y-99529500D01*
X190387024Y-99529500D01*
X190312633Y-99541282D01*
X190163851Y-99564847D01*
X189948961Y-99634668D01*
X189948958Y-99634669D01*
X189747633Y-99737250D01*
X189645178Y-99811689D01*
X189564834Y-99870062D01*
X189564832Y-99870064D01*
X189564831Y-99870064D01*
X189405064Y-100029831D01*
X189405064Y-100029832D01*
X189405062Y-100029834D01*
X189350061Y-100105535D01*
X189330318Y-100132710D01*
X189274988Y-100175375D01*
X189205374Y-100181354D01*
X189143579Y-100148748D01*
X189129682Y-100132710D01*
X189119070Y-100118104D01*
X189054938Y-100029834D01*
X188895166Y-99870062D01*
X188712366Y-99737250D01*
X188511041Y-99634669D01*
X188511038Y-99634668D01*
X188296148Y-99564847D01*
X188184561Y-99547173D01*
X188072976Y-99529500D01*
X187847024Y-99529500D01*
X187772633Y-99541282D01*
X187623851Y-99564847D01*
X187408961Y-99634668D01*
X187408958Y-99634669D01*
X187207633Y-99737250D01*
X187105178Y-99811689D01*
X187024834Y-99870062D01*
X187024832Y-99870064D01*
X187024831Y-99870064D01*
X186865064Y-100029831D01*
X186865064Y-100029832D01*
X186865062Y-100029834D01*
X186808024Y-100108339D01*
X186732250Y-100212633D01*
X186720241Y-100236202D01*
X186672265Y-100286997D01*
X186604444Y-100303791D01*
X186538310Y-100281252D01*
X186509439Y-100252791D01*
X186411582Y-100118105D01*
X186411582Y-100118104D01*
X186266895Y-99973417D01*
X186101347Y-99853138D01*
X186020000Y-99811689D01*
X184819999Y-99811689D01*
X184738652Y-99853138D01*
X184573105Y-99973417D01*
X184573104Y-99973417D01*
X184428417Y-100118104D01*
X184428410Y-100118113D01*
X184330559Y-100252791D01*
X184275229Y-100295457D01*
X184205616Y-100301435D01*
X184143821Y-100268829D01*
X184119757Y-100236199D01*
X184107751Y-100212635D01*
X184061334Y-100148748D01*
X183974938Y-100029834D01*
X183815166Y-99870062D01*
X183632366Y-99737250D01*
X183431041Y-99634669D01*
X183431038Y-99634668D01*
X183347539Y-99607538D01*
X183289863Y-99568100D01*
X183262665Y-99503742D01*
X183274580Y-99434895D01*
X183298173Y-99401930D01*
X184073285Y-98626819D01*
X184134608Y-98593334D01*
X184160966Y-98590500D01*
X218552975Y-98590500D01*
X218552976Y-98590500D01*
X218776147Y-98555153D01*
X218991041Y-98485330D01*
X219192366Y-98382750D01*
X219375166Y-98249938D01*
X224614938Y-93010166D01*
X224747750Y-92827366D01*
X224820336Y-92684907D01*
X224850330Y-92626041D01*
X224879315Y-92536834D01*
X224920154Y-92411147D01*
X224936189Y-92309901D01*
X224955500Y-92187981D01*
X224955500Y-79897024D01*
X224946821Y-79842228D01*
X224920153Y-79673853D01*
X224871645Y-79524561D01*
X224850331Y-79458961D01*
X224850330Y-79458958D01*
X224768130Y-79297633D01*
X224747750Y-79257634D01*
X224614938Y-79074834D01*
X224455166Y-78915062D01*
X213025166Y-67485062D01*
X212842366Y-67352250D01*
X212641041Y-67249669D01*
X212641038Y-67249668D01*
X212426148Y-67179847D01*
X212314561Y-67162173D01*
X212202976Y-67144500D01*
X212202975Y-67144500D01*
X199299500Y-67144500D01*
X199232461Y-67124815D01*
X199186706Y-67072011D01*
X199175500Y-67020500D01*
X199175500Y-66360273D01*
X199195185Y-66293234D01*
X199247989Y-66247479D01*
X199317147Y-66237535D01*
X199372383Y-66259954D01*
X199527634Y-66372750D01*
X199626378Y-66423062D01*
X199728958Y-66475330D01*
X199728961Y-66475331D01*
X199805763Y-66500285D01*
X199943853Y-66545153D01*
X200167024Y-66580500D01*
X200167025Y-66580500D01*
X200392975Y-66580500D01*
X200392976Y-66580500D01*
X200616147Y-66545153D01*
X200831041Y-66475330D01*
X201032366Y-66372750D01*
X201215166Y-66239938D01*
X201374938Y-66080166D01*
X201449682Y-65977290D01*
X201505012Y-65934624D01*
X201574625Y-65928645D01*
X201636420Y-65961251D01*
X201650318Y-65977290D01*
X201725062Y-66080166D01*
X201884834Y-66239938D01*
X202067634Y-66372750D01*
X202166378Y-66423062D01*
X202268958Y-66475330D01*
X202268961Y-66475331D01*
X202345763Y-66500285D01*
X202483853Y-66545153D01*
X202707024Y-66580500D01*
X202707025Y-66580500D01*
X202932975Y-66580500D01*
X202932976Y-66580500D01*
X203156147Y-66545153D01*
X203371041Y-66475330D01*
X203572366Y-66372750D01*
X203755166Y-66239938D01*
X203914938Y-66080166D01*
X204018111Y-65938159D01*
X204073441Y-65895494D01*
X204143054Y-65889515D01*
X204204849Y-65922120D01*
X204218744Y-65938156D01*
X204231737Y-65956038D01*
X204300148Y-66050199D01*
X204454806Y-66204857D01*
X204576449Y-66293234D01*
X204631743Y-66333407D01*
X204759132Y-66398315D01*
X204826616Y-66432701D01*
X204826619Y-66432702D01*
X204930621Y-66466493D01*
X205034625Y-66500286D01*
X205134672Y-66516132D01*
X205250639Y-66534500D01*
X205250644Y-66534500D01*
X205469361Y-66534500D01*
X205574082Y-66517912D01*
X205685375Y-66500286D01*
X205893383Y-66432701D01*
X206088257Y-66333407D01*
X206216911Y-66239935D01*
X206265193Y-66204857D01*
X206265195Y-66204854D01*
X206265199Y-66204852D01*
X206419852Y-66050199D01*
X206529683Y-65899028D01*
X206585011Y-65856364D01*
X206654624Y-65850385D01*
X206716420Y-65882990D01*
X206730313Y-65899023D01*
X206771737Y-65956038D01*
X206840148Y-66050199D01*
X206994806Y-66204857D01*
X207116449Y-66293234D01*
X207171743Y-66333407D01*
X207299132Y-66398315D01*
X207366616Y-66432701D01*
X207366619Y-66432702D01*
X207470621Y-66466493D01*
X207574625Y-66500286D01*
X207674672Y-66516132D01*
X207790639Y-66534500D01*
X207790644Y-66534500D01*
X208009361Y-66534500D01*
X208114082Y-66517912D01*
X208225375Y-66500286D01*
X208433383Y-66432701D01*
X208628257Y-66333407D01*
X208756911Y-66239935D01*
X208805193Y-66204857D01*
X208805195Y-66204854D01*
X208805199Y-66204852D01*
X208959852Y-66050199D01*
X209069683Y-65899028D01*
X209125011Y-65856364D01*
X209194624Y-65850385D01*
X209256420Y-65882990D01*
X209270313Y-65899023D01*
X209311737Y-65956038D01*
X209380148Y-66050199D01*
X209534806Y-66204857D01*
X209656449Y-66293234D01*
X209711743Y-66333407D01*
X209839132Y-66398315D01*
X209906616Y-66432701D01*
X209906619Y-66432702D01*
X210010621Y-66466493D01*
X210114625Y-66500286D01*
X210214672Y-66516132D01*
X210330639Y-66534500D01*
X210330644Y-66534500D01*
X210549361Y-66534500D01*
X210654082Y-66517912D01*
X210765375Y-66500286D01*
X210973383Y-66432701D01*
X211168257Y-66333407D01*
X211296911Y-66239935D01*
X211345193Y-66204857D01*
X211345195Y-66204854D01*
X211345199Y-66204852D01*
X211499852Y-66050199D01*
X211609683Y-65899028D01*
X211665011Y-65856364D01*
X211734624Y-65850385D01*
X211796420Y-65882990D01*
X211810313Y-65899023D01*
X211851737Y-65956038D01*
X211920148Y-66050199D01*
X212074806Y-66204857D01*
X212196449Y-66293234D01*
X212251743Y-66333407D01*
X212379132Y-66398315D01*
X212446616Y-66432701D01*
X212446619Y-66432702D01*
X212550621Y-66466493D01*
X212654625Y-66500286D01*
X212754672Y-66516132D01*
X212870639Y-66534500D01*
X212870644Y-66534500D01*
X213089361Y-66534500D01*
X213194082Y-66517912D01*
X213305375Y-66500286D01*
X213513383Y-66432701D01*
X213708257Y-66333407D01*
X213836911Y-66239935D01*
X213885193Y-66204857D01*
X213885195Y-66204854D01*
X213885199Y-66204852D01*
X214039852Y-66050199D01*
X214039854Y-66050195D01*
X214039857Y-66050193D01*
X214115484Y-65946100D01*
X214168407Y-65873257D01*
X214263956Y-65685733D01*
X214311931Y-65634937D01*
X214379752Y-65618142D01*
X214445887Y-65640680D01*
X214489338Y-65695395D01*
X214496914Y-65722630D01*
X214499847Y-65741148D01*
X214499847Y-65741151D01*
X214569668Y-65956038D01*
X214569669Y-65956041D01*
X214655228Y-66123958D01*
X214672250Y-66157366D01*
X214805062Y-66340166D01*
X216075062Y-67610166D01*
X216234834Y-67769938D01*
X216417634Y-67902750D01*
X216516378Y-67953062D01*
X216618958Y-68005330D01*
X216618961Y-68005331D01*
X216726406Y-68040241D01*
X216833853Y-68075153D01*
X217057024Y-68110500D01*
X217057025Y-68110500D01*
X217282975Y-68110500D01*
X217282976Y-68110500D01*
X217506147Y-68075153D01*
X217721041Y-68005330D01*
X217922366Y-67902750D01*
X218105166Y-67769938D01*
X218264938Y-67610166D01*
X218397750Y-67427366D01*
X218500330Y-67226041D01*
X218570153Y-67011147D01*
X218605500Y-66787976D01*
X218605500Y-66562024D01*
X218570153Y-66338853D01*
X218500330Y-66123959D01*
X218500330Y-66123958D01*
X218448062Y-66021378D01*
X218397750Y-65922634D01*
X218264938Y-65739834D01*
X218105166Y-65580062D01*
X217355349Y-64830245D01*
X217321864Y-64768922D01*
X217320557Y-64761961D01*
X217300155Y-64633143D01*
X217300154Y-64633142D01*
X217300154Y-64633139D01*
X217231836Y-64422880D01*
X217230775Y-64419119D01*
X217230330Y-64418245D01*
X217127750Y-64216920D01*
X216994938Y-64034120D01*
X216835166Y-63874348D01*
X210305880Y-57345062D01*
X210123080Y-57212250D01*
X209921755Y-57109669D01*
X209921752Y-57109668D01*
X209706862Y-57039847D01*
X209595275Y-57022173D01*
X209483690Y-57004500D01*
X209483689Y-57004500D01*
X192540810Y-57004500D01*
X192540786Y-57004499D01*
X192535675Y-57004499D01*
X192309723Y-57004499D01*
X192235332Y-57016281D01*
X192086550Y-57039846D01*
X191871660Y-57109667D01*
X191772913Y-57159982D01*
X191670331Y-57212250D01*
X191487533Y-57345061D01*
X191332098Y-57500496D01*
X191332055Y-57500536D01*
X190614413Y-58218181D01*
X190553090Y-58251666D01*
X190526732Y-58254500D01*
X156746256Y-58254500D01*
X156671865Y-58266282D01*
X156523083Y-58289847D01*
X156308193Y-58359668D01*
X156308190Y-58359669D01*
X156106865Y-58462250D01*
X155924063Y-58595064D01*
X149950947Y-64568181D01*
X149889624Y-64601666D01*
X149863266Y-64604500D01*
X140857024Y-64604500D01*
X140782633Y-64616282D01*
X140633851Y-64639847D01*
X140418961Y-64709668D01*
X140418958Y-64709669D01*
X140217633Y-64812250D01*
X140113339Y-64888024D01*
X140034834Y-64945062D01*
X140034832Y-64945064D01*
X140034831Y-64945064D01*
X139875064Y-65104831D01*
X139875064Y-65104832D01*
X139875062Y-65104834D01*
X139818024Y-65183339D01*
X139742250Y-65287633D01*
X139639669Y-65488958D01*
X139639668Y-65488961D01*
X139569847Y-65703851D01*
X139534500Y-65927024D01*
X139534500Y-66152975D01*
X139569847Y-66376148D01*
X139639668Y-66591038D01*
X139639669Y-66591041D01*
X139740013Y-66787975D01*
X139742250Y-66792366D01*
X139875062Y-66975166D01*
X140034834Y-67134938D01*
X140217634Y-67267750D01*
X140316378Y-67318062D01*
X140418958Y-67370330D01*
X140418961Y-67370331D01*
X140526406Y-67405241D01*
X140633853Y-67440153D01*
X140857024Y-67475500D01*
X140857025Y-67475500D01*
X150622207Y-67475500D01*
X150622208Y-67475500D01*
X150845379Y-67440153D01*
X151060273Y-67370330D01*
X151261598Y-67267750D01*
X151444398Y-67134938D01*
X155920418Y-62658916D01*
X155981739Y-62625433D01*
X156051431Y-62630417D01*
X156107364Y-62672289D01*
X156126028Y-62708280D01*
X156149670Y-62781041D01*
X156149669Y-62781041D01*
X156213783Y-62906871D01*
X156252250Y-62982366D01*
X156385062Y-63165166D01*
X156544834Y-63324938D01*
X156727634Y-63457750D01*
X156756785Y-63472603D01*
X156928958Y-63560330D01*
X156928961Y-63560331D01*
X157008379Y-63586135D01*
X157143853Y-63630153D01*
X157367024Y-63665500D01*
X157367025Y-63665500D01*
X157592975Y-63665500D01*
X157592976Y-63665500D01*
X157816147Y-63630153D01*
X158031041Y-63560330D01*
X158232366Y-63457750D01*
X158415166Y-63324938D01*
X158574938Y-63165166D01*
X158707750Y-62982366D01*
X158810330Y-62781041D01*
X158880153Y-62566147D01*
X158915500Y-62342976D01*
X158915500Y-62117024D01*
X158880153Y-61893853D01*
X158826914Y-61730000D01*
X158810331Y-61678961D01*
X158810330Y-61678958D01*
X158758062Y-61576378D01*
X158707750Y-61477634D01*
X158594954Y-61322384D01*
X158571475Y-61256579D01*
X158587300Y-61188525D01*
X158637406Y-61139830D01*
X158695273Y-61125500D01*
X190568500Y-61125500D01*
X190635539Y-61145185D01*
X190681294Y-61197989D01*
X190691238Y-61267147D01*
X190662213Y-61330703D01*
X190656181Y-61337181D01*
X186230064Y-65763297D01*
X186230064Y-65763298D01*
X186230062Y-65763300D01*
X186192903Y-65814445D01*
X186097250Y-65946099D01*
X185994669Y-66147424D01*
X185994668Y-66147427D01*
X185924847Y-66362317D01*
X185889500Y-66585490D01*
X185889500Y-76824034D01*
X185869815Y-76891073D01*
X185853181Y-76911715D01*
X183650064Y-79114831D01*
X183650064Y-79114832D01*
X183650062Y-79114834D01*
X183634709Y-79135966D01*
X183517250Y-79297633D01*
X183414669Y-79498958D01*
X183414668Y-79498961D01*
X183344847Y-79713851D01*
X183309500Y-79937024D01*
X183309500Y-80757975D01*
X183344847Y-80981148D01*
X183414668Y-81196038D01*
X183414669Y-81196041D01*
X183504966Y-81373257D01*
X183517250Y-81397366D01*
X183650062Y-81580166D01*
X183809834Y-81739938D01*
X183992634Y-81872750D01*
X184071610Y-81912990D01*
X184193958Y-81975330D01*
X184193961Y-81975331D01*
X184266682Y-81998959D01*
X184408853Y-82045153D01*
X184632024Y-82080500D01*
X184632025Y-82080500D01*
X184857975Y-82080500D01*
X184857976Y-82080500D01*
X185081147Y-82045153D01*
X185296041Y-81975330D01*
X185497366Y-81872750D01*
X185680166Y-81739938D01*
X185839938Y-81580166D01*
X185972750Y-81397366D01*
X186075330Y-81196041D01*
X186145153Y-80981147D01*
X186180500Y-80757976D01*
X186180500Y-80695966D01*
X186200185Y-80628927D01*
X186216819Y-80608285D01*
X187912819Y-78912285D01*
X187974142Y-78878800D01*
X188043834Y-78883784D01*
X188099767Y-78925656D01*
X188124184Y-78991120D01*
X188124500Y-78999966D01*
X188124500Y-80939034D01*
X188104815Y-81006073D01*
X188088181Y-81026715D01*
X186230064Y-82884831D01*
X186230064Y-82884832D01*
X186230062Y-82884834D01*
X186194706Y-82933498D01*
X186097250Y-83067633D01*
X185994669Y-83268958D01*
X185994668Y-83268961D01*
X185924847Y-83483851D01*
X185889500Y-83707024D01*
X185889500Y-86349034D01*
X185869815Y-86416073D01*
X185853181Y-86436715D01*
X183650064Y-88639831D01*
X183650064Y-88639832D01*
X183650062Y-88639834D01*
X183593024Y-88718339D01*
X183517250Y-88822633D01*
X183414669Y-89023958D01*
X183414668Y-89023961D01*
X183344847Y-89238851D01*
X183309500Y-89462024D01*
X183309500Y-90282975D01*
X183344847Y-90506148D01*
X183414668Y-90721038D01*
X183414669Y-90721041D01*
X183515013Y-90917975D01*
X183517250Y-90922366D01*
X183650062Y-91105166D01*
X183809834Y-91264938D01*
X183992634Y-91397750D01*
X184071610Y-91437990D01*
X184193958Y-91500330D01*
X184193961Y-91500331D01*
X184301406Y-91535241D01*
X184408853Y-91570153D01*
X184632024Y-91605500D01*
X184632025Y-91605500D01*
X184857975Y-91605500D01*
X184857976Y-91605500D01*
X185081147Y-91570153D01*
X185296041Y-91500330D01*
X185497366Y-91397750D01*
X185680166Y-91264938D01*
X185839938Y-91105166D01*
X185972750Y-90922366D01*
X186075330Y-90721041D01*
X186145153Y-90506147D01*
X186180500Y-90282976D01*
X186180500Y-90220966D01*
X186200185Y-90153927D01*
X186216819Y-90133285D01*
X187275043Y-89075061D01*
X188419938Y-87930166D01*
X188552750Y-87747366D01*
X188655330Y-87546041D01*
X188725153Y-87331147D01*
X188760500Y-87107976D01*
X188760500Y-86882024D01*
X188760500Y-84465966D01*
X188780185Y-84398927D01*
X188796819Y-84378285D01*
X189495196Y-83679908D01*
X192847384Y-83679908D01*
X192847384Y-83905859D01*
X192882731Y-84129032D01*
X192952552Y-84343922D01*
X192952553Y-84343925D01*
X193055134Y-84545250D01*
X193187946Y-84728050D01*
X193347718Y-84887822D01*
X193530518Y-85020634D01*
X193629262Y-85070946D01*
X193731842Y-85123214D01*
X193731845Y-85123215D01*
X193815298Y-85150330D01*
X193946737Y-85193037D01*
X194169908Y-85228384D01*
X194169909Y-85228384D01*
X194303768Y-85228384D01*
X194370807Y-85248069D01*
X194416562Y-85300873D01*
X194427768Y-85352384D01*
X194427768Y-85486244D01*
X194429721Y-85498576D01*
X194463115Y-85709416D01*
X194532936Y-85924306D01*
X194532937Y-85924309D01*
X194583657Y-86023851D01*
X194635518Y-86125634D01*
X194768330Y-86308434D01*
X194928102Y-86468206D01*
X195110902Y-86601018D01*
X195152590Y-86622259D01*
X195312226Y-86703598D01*
X195312229Y-86703599D01*
X195419674Y-86738509D01*
X195527121Y-86773421D01*
X195750292Y-86808768D01*
X195750293Y-86808768D01*
X195884152Y-86808768D01*
X195951191Y-86828453D01*
X195996946Y-86881257D01*
X196008152Y-86932768D01*
X196008152Y-87066627D01*
X196043499Y-87289800D01*
X196113320Y-87504690D01*
X196113321Y-87504693D01*
X196166570Y-87609199D01*
X196215902Y-87706018D01*
X196348714Y-87888818D01*
X196508486Y-88048590D01*
X196691286Y-88181402D01*
X196790030Y-88231714D01*
X196892610Y-88283982D01*
X196892613Y-88283983D01*
X197000058Y-88318893D01*
X197107505Y-88353805D01*
X197330676Y-88389152D01*
X197330677Y-88389152D01*
X197556627Y-88389152D01*
X197556628Y-88389152D01*
X197779799Y-88353805D01*
X197994693Y-88283982D01*
X198196018Y-88181402D01*
X198378818Y-88048590D01*
X198538590Y-87888818D01*
X201624938Y-84802470D01*
X201679007Y-84728050D01*
X201757750Y-84619670D01*
X201860330Y-84418345D01*
X201930153Y-84203451D01*
X201965500Y-83980280D01*
X201965500Y-81889334D01*
X201985185Y-81822295D01*
X202037989Y-81776540D01*
X202107147Y-81766596D01*
X202162381Y-81789014D01*
X202277634Y-81872750D01*
X202356610Y-81912990D01*
X202478958Y-81975330D01*
X202478961Y-81975331D01*
X202551682Y-81998959D01*
X202693853Y-82045153D01*
X202917024Y-82080500D01*
X202917025Y-82080500D01*
X203142975Y-82080500D01*
X203142976Y-82080500D01*
X203366147Y-82045153D01*
X203581041Y-81975330D01*
X203782366Y-81872750D01*
X203965166Y-81739938D01*
X204124938Y-81580166D01*
X204208111Y-81465687D01*
X204263441Y-81423022D01*
X204333054Y-81417043D01*
X204394849Y-81449649D01*
X204408745Y-81465685D01*
X204470144Y-81550193D01*
X204470148Y-81550199D01*
X204624806Y-81704857D01*
X204790374Y-81825147D01*
X204801743Y-81833407D01*
X204902558Y-81884775D01*
X204996616Y-81932701D01*
X204996619Y-81932702D01*
X205066466Y-81955396D01*
X205204625Y-82000286D01*
X205286376Y-82013234D01*
X205420639Y-82034500D01*
X205420644Y-82034500D01*
X205639361Y-82034500D01*
X205744082Y-82017912D01*
X205855375Y-82000286D01*
X206063383Y-81932701D01*
X206258257Y-81833407D01*
X206386911Y-81739935D01*
X206435193Y-81704857D01*
X206435195Y-81704854D01*
X206435199Y-81704852D01*
X206589852Y-81550199D01*
X206651252Y-81465687D01*
X206706580Y-81423022D01*
X206776194Y-81417042D01*
X206837989Y-81449647D01*
X206851888Y-81465687D01*
X206859145Y-81475675D01*
X206935062Y-81580166D01*
X207094834Y-81739938D01*
X207277634Y-81872750D01*
X207356610Y-81912990D01*
X207478958Y-81975330D01*
X207478961Y-81975331D01*
X207551682Y-81998959D01*
X207693853Y-82045153D01*
X207917024Y-82080500D01*
X207917025Y-82080500D01*
X208142975Y-82080500D01*
X208142976Y-82080500D01*
X208366147Y-82045153D01*
X208581041Y-81975330D01*
X208782366Y-81872750D01*
X208816060Y-81848270D01*
X210175255Y-81848270D01*
X210175256Y-81848271D01*
X210236351Y-81868122D01*
X210431303Y-81899000D01*
X210628697Y-81899000D01*
X210823640Y-81868123D01*
X210884743Y-81848270D01*
X210530001Y-81493528D01*
X210530000Y-81493528D01*
X210175255Y-81848270D01*
X208816060Y-81848270D01*
X208965166Y-81739938D01*
X209124938Y-81580166D01*
X209257750Y-81397366D01*
X209360330Y-81196041D01*
X209430153Y-80981147D01*
X209439814Y-80920146D01*
X209469743Y-80857013D01*
X209474606Y-80851863D01*
X209681471Y-80644999D01*
X209615646Y-80579174D01*
X210030000Y-80579174D01*
X210030000Y-80710826D01*
X210064075Y-80837993D01*
X210129901Y-80952007D01*
X210222993Y-81045099D01*
X210337007Y-81110925D01*
X210464174Y-81145000D01*
X210595826Y-81145000D01*
X210722993Y-81110925D01*
X210837007Y-81045099D01*
X210930099Y-80952007D01*
X210995925Y-80837993D01*
X211030000Y-80710826D01*
X211030000Y-80645000D01*
X211378528Y-80645000D01*
X211640763Y-80907235D01*
X211673654Y-80965960D01*
X211674713Y-80970371D01*
X211674714Y-80970375D01*
X211674715Y-80970378D01*
X211742296Y-81178377D01*
X211742298Y-81178383D01*
X211805813Y-81303036D01*
X211815603Y-81322250D01*
X211841595Y-81373260D01*
X211970142Y-81550193D01*
X212124806Y-81704857D01*
X212290374Y-81825147D01*
X212301743Y-81833407D01*
X212402558Y-81884775D01*
X212496616Y-81932701D01*
X212496619Y-81932702D01*
X212566466Y-81955396D01*
X212704625Y-82000286D01*
X212786376Y-82013234D01*
X212920639Y-82034500D01*
X212920644Y-82034500D01*
X213139361Y-82034500D01*
X213244082Y-82017912D01*
X213355375Y-82000286D01*
X213563383Y-81932701D01*
X213758257Y-81833407D01*
X213886911Y-81739935D01*
X213935193Y-81704857D01*
X213935195Y-81704854D01*
X213935199Y-81704852D01*
X214089852Y-81550199D01*
X214089854Y-81550195D01*
X214089857Y-81550193D01*
X214158971Y-81455064D01*
X214218407Y-81373257D01*
X214317701Y-81178383D01*
X214385286Y-80970375D01*
X214406253Y-80837993D01*
X214419500Y-80754361D01*
X214419500Y-80535638D01*
X214398653Y-80404024D01*
X214385286Y-80319625D01*
X214321392Y-80122976D01*
X214317702Y-80111619D01*
X214317701Y-80111616D01*
X214283315Y-80044132D01*
X214218407Y-79916743D01*
X214210147Y-79905374D01*
X214089857Y-79739806D01*
X213935193Y-79585142D01*
X213758260Y-79456595D01*
X213758259Y-79456594D01*
X213758257Y-79456593D01*
X213690938Y-79422292D01*
X213563383Y-79357298D01*
X213563380Y-79357297D01*
X213355376Y-79289714D01*
X213139361Y-79255500D01*
X213139356Y-79255500D01*
X212920644Y-79255500D01*
X212920639Y-79255500D01*
X212704623Y-79289714D01*
X212496619Y-79357297D01*
X212496616Y-79357298D01*
X212301739Y-79456595D01*
X212124806Y-79585142D01*
X211970142Y-79739806D01*
X211841595Y-79916739D01*
X211742298Y-80111616D01*
X211742296Y-80111622D01*
X211674712Y-80319630D01*
X211673652Y-80324044D01*
X211640764Y-80382763D01*
X211378528Y-80645000D01*
X211030000Y-80645000D01*
X211030000Y-80579174D01*
X210995925Y-80452007D01*
X210930099Y-80337993D01*
X210837007Y-80244901D01*
X210722993Y-80179075D01*
X210595826Y-80145000D01*
X210464174Y-80145000D01*
X210337007Y-80179075D01*
X210222993Y-80244901D01*
X210129901Y-80337993D01*
X210064075Y-80452007D01*
X210030000Y-80579174D01*
X209615646Y-80579174D01*
X209501819Y-80465347D01*
X209468334Y-80404024D01*
X209465500Y-80377666D01*
X209465500Y-79441728D01*
X210175256Y-79441728D01*
X210530000Y-79796472D01*
X210530001Y-79796472D01*
X210884742Y-79441728D01*
X210884742Y-79441727D01*
X210823653Y-79421878D01*
X210823646Y-79421877D01*
X210628697Y-79391000D01*
X210431303Y-79391000D01*
X210236357Y-79421876D01*
X210175256Y-79441728D01*
X209465500Y-79441728D01*
X209465500Y-78377024D01*
X209456235Y-78318528D01*
X209430153Y-78153853D01*
X209360330Y-77938959D01*
X209360330Y-77938958D01*
X209308062Y-77836378D01*
X209257750Y-77737634D01*
X209124938Y-77554834D01*
X208965166Y-77395062D01*
X208580166Y-77010062D01*
X208397366Y-76877250D01*
X208393727Y-76875396D01*
X208196041Y-76774669D01*
X208196038Y-76774668D01*
X208112538Y-76747538D01*
X208054863Y-76708101D01*
X208027664Y-76643742D01*
X208039579Y-76574896D01*
X208063172Y-76541929D01*
X208573097Y-76032005D01*
X208573104Y-76031999D01*
X208580164Y-76024939D01*
X208580166Y-76024938D01*
X208739938Y-75865166D01*
X208872750Y-75682366D01*
X208975330Y-75481041D01*
X208975331Y-75481038D01*
X208995003Y-75420494D01*
X209005033Y-75389623D01*
X209045154Y-75266147D01*
X209080501Y-75042976D01*
X209080501Y-74817024D01*
X209045154Y-74593852D01*
X208975330Y-74378959D01*
X208975328Y-74378956D01*
X208975328Y-74378954D01*
X208921215Y-74272752D01*
X208872750Y-74177634D01*
X208739938Y-73994834D01*
X208580166Y-73835062D01*
X208397366Y-73702250D01*
X208373324Y-73690000D01*
X208196045Y-73599671D01*
X208143336Y-73582545D01*
X207981148Y-73529846D01*
X207757976Y-73494499D01*
X207532024Y-73494499D01*
X207457633Y-73506281D01*
X207308851Y-73529846D01*
X207308848Y-73529846D01*
X207146658Y-73582546D01*
X207146657Y-73582545D01*
X207093966Y-73599667D01*
X207093960Y-73599669D01*
X206892635Y-73702248D01*
X206771647Y-73790152D01*
X206709834Y-73835062D01*
X206709832Y-73835064D01*
X206709831Y-73835064D01*
X206586045Y-73958851D01*
X206550062Y-73994834D01*
X206550059Y-73994837D01*
X204314673Y-76230223D01*
X202077393Y-78467502D01*
X202077392Y-78467502D01*
X202077393Y-78467503D01*
X201935061Y-78609835D01*
X201802250Y-78792633D01*
X201699669Y-78993958D01*
X201699668Y-78993961D01*
X201629847Y-79208851D01*
X201596041Y-79422292D01*
X201566112Y-79485427D01*
X201506800Y-79522358D01*
X201436938Y-79521360D01*
X201400683Y-79503212D01*
X201282366Y-79417250D01*
X201258760Y-79405222D01*
X201081041Y-79314669D01*
X201081038Y-79314668D01*
X200866148Y-79244847D01*
X200754561Y-79227173D01*
X200642976Y-79209500D01*
X200417024Y-79209500D01*
X200342633Y-79221282D01*
X200193851Y-79244847D01*
X199978961Y-79314668D01*
X199978958Y-79314669D01*
X199777633Y-79417250D01*
X199683796Y-79485427D01*
X199594834Y-79550062D01*
X199594832Y-79550064D01*
X199594831Y-79550064D01*
X199435064Y-79709831D01*
X199435064Y-79709832D01*
X199435062Y-79709834D01*
X199380318Y-79785183D01*
X199324988Y-79827848D01*
X199255374Y-79833827D01*
X199193579Y-79801221D01*
X199179682Y-79785183D01*
X199124938Y-79709834D01*
X198965166Y-79550062D01*
X198782366Y-79417250D01*
X198758760Y-79405222D01*
X198581041Y-79314669D01*
X198581038Y-79314668D01*
X198366148Y-79244847D01*
X198254561Y-79227173D01*
X198142976Y-79209500D01*
X197917024Y-79209500D01*
X197842633Y-79221282D01*
X197693851Y-79244847D01*
X197478961Y-79314668D01*
X197478958Y-79314669D01*
X197277633Y-79417250D01*
X197183796Y-79485427D01*
X197094834Y-79550062D01*
X197094832Y-79550064D01*
X197094831Y-79550064D01*
X196935061Y-79709834D01*
X196883445Y-79780877D01*
X196828114Y-79823542D01*
X196758501Y-79829520D01*
X196696706Y-79796913D01*
X196682810Y-79780875D01*
X196647824Y-79732721D01*
X196647819Y-79732715D01*
X196465168Y-79550064D01*
X196465166Y-79550062D01*
X196282366Y-79417250D01*
X196258760Y-79405222D01*
X196081041Y-79314669D01*
X196081038Y-79314668D01*
X195866148Y-79244847D01*
X195754561Y-79227173D01*
X195642976Y-79209500D01*
X195417024Y-79209500D01*
X195342633Y-79221282D01*
X195193851Y-79244847D01*
X194978961Y-79314668D01*
X194978958Y-79314669D01*
X194777633Y-79417250D01*
X194683796Y-79485427D01*
X194594834Y-79550062D01*
X194594832Y-79550064D01*
X194594831Y-79550064D01*
X194435064Y-79709831D01*
X194435064Y-79709832D01*
X194435062Y-79709834D01*
X194418438Y-79732715D01*
X194302250Y-79892633D01*
X194199669Y-80093958D01*
X194199668Y-80093961D01*
X194129847Y-80308851D01*
X194102191Y-80483464D01*
X194094500Y-80532024D01*
X194094500Y-80757976D01*
X194115507Y-80890606D01*
X194115857Y-80892817D01*
X194117384Y-80912215D01*
X194117384Y-81876918D01*
X194097699Y-81943957D01*
X194081065Y-81964599D01*
X193187948Y-82857715D01*
X193187948Y-82857716D01*
X193187946Y-82857718D01*
X193140704Y-82922741D01*
X193055134Y-83040517D01*
X192952553Y-83241842D01*
X192952552Y-83241845D01*
X192882731Y-83456735D01*
X192847384Y-83679908D01*
X189495196Y-83679908D01*
X190654933Y-82520171D01*
X190654938Y-82520166D01*
X190659732Y-82513568D01*
X190787750Y-82337366D01*
X190890330Y-82136041D01*
X190960153Y-81921147D01*
X190995500Y-81697976D01*
X190995500Y-68270199D01*
X191015185Y-68203160D01*
X191031819Y-68182518D01*
X193552819Y-65661518D01*
X193614142Y-65628033D01*
X193683834Y-65633017D01*
X193739767Y-65674889D01*
X193764184Y-65740353D01*
X193764500Y-65749199D01*
X193764500Y-70203742D01*
X193799847Y-70426915D01*
X193869668Y-70641805D01*
X193869669Y-70641808D01*
X193972250Y-70843133D01*
X194105062Y-71025933D01*
X195134294Y-72055165D01*
X195134295Y-72055166D01*
X195294067Y-72214938D01*
X195476867Y-72347750D01*
X195575611Y-72398062D01*
X195678191Y-72450330D01*
X195678194Y-72450331D01*
X195785639Y-72485241D01*
X195893086Y-72520153D01*
X196116257Y-72555500D01*
X196342209Y-72555500D01*
X210809034Y-72555500D01*
X210876073Y-72575185D01*
X210896715Y-72591819D01*
X218238181Y-79933285D01*
X218271666Y-79994608D01*
X218274500Y-80020966D01*
X218274500Y-92078266D01*
X218254815Y-92145305D01*
X218238181Y-92165947D01*
X217260947Y-93143181D01*
X217199624Y-93176666D01*
X217173266Y-93179500D01*
X182363111Y-93179500D01*
X182363087Y-93179499D01*
X182357976Y-93179499D01*
X182132024Y-93179499D01*
X182080290Y-93187692D01*
X181908856Y-93214845D01*
X181766684Y-93261040D01*
X181693961Y-93284668D01*
X181693958Y-93284669D01*
X181492630Y-93387252D01*
X181337385Y-93500044D01*
X181271579Y-93523524D01*
X181203525Y-93507698D01*
X181154830Y-93457593D01*
X181140500Y-93399726D01*
X181140500Y-93232018D01*
X181111061Y-93046148D01*
X181105154Y-93008853D01*
X181035330Y-92793959D01*
X180932750Y-92592634D01*
X180799938Y-92409834D01*
X180640166Y-92250062D01*
X180457366Y-92117250D01*
X180256041Y-92014670D01*
X180041147Y-91944846D01*
X180041145Y-91944845D01*
X180041144Y-91944845D01*
X179817981Y-91909500D01*
X179817976Y-91909500D01*
X179592024Y-91909500D01*
X179592019Y-91909500D01*
X179368851Y-91944846D01*
X179206658Y-91997546D01*
X179206657Y-91997545D01*
X179153966Y-92014667D01*
X179153960Y-92014669D01*
X179067034Y-92058959D01*
X179067035Y-92058960D01*
X178952633Y-92117250D01*
X178855288Y-92187976D01*
X178769834Y-92250062D01*
X178769832Y-92250064D01*
X178769831Y-92250064D01*
X177241715Y-93778181D01*
X177180392Y-93811666D01*
X177154034Y-93814500D01*
X158695273Y-93814500D01*
X158628234Y-93794815D01*
X158582479Y-93742011D01*
X158572535Y-93672853D01*
X158594954Y-93617616D01*
X158707750Y-93462366D01*
X158776574Y-93327290D01*
X158810331Y-93261040D01*
X158810331Y-93261038D01*
X158819760Y-93232018D01*
X158880153Y-93046147D01*
X158915500Y-92822976D01*
X158915500Y-92597024D01*
X158880153Y-92373853D01*
X158819758Y-92187976D01*
X158810331Y-92158961D01*
X158810330Y-92158958D01*
X158758062Y-92056378D01*
X158707750Y-91957634D01*
X158574938Y-91774834D01*
X158415166Y-91615062D01*
X158232366Y-91482250D01*
X158208324Y-91470000D01*
X158031041Y-91379669D01*
X158031038Y-91379668D01*
X157816148Y-91309847D01*
X157704561Y-91292173D01*
X157592976Y-91274500D01*
X157367024Y-91274500D01*
X157292633Y-91286282D01*
X157143851Y-91309847D01*
X156928961Y-91379668D01*
X156928958Y-91379669D01*
X156727633Y-91482250D01*
X156624246Y-91557366D01*
X156544834Y-91615062D01*
X156544832Y-91615064D01*
X156544831Y-91615064D01*
X156385064Y-91774831D01*
X156385064Y-91774832D01*
X156385062Y-91774834D01*
X156328024Y-91853339D01*
X156252250Y-91957633D01*
X156149669Y-92158958D01*
X156149668Y-92158961D01*
X156079847Y-92373851D01*
X156044500Y-92597024D01*
X156044500Y-92822975D01*
X156079847Y-93046148D01*
X156149668Y-93261038D01*
X156149669Y-93261040D01*
X156220333Y-93399726D01*
X156252250Y-93462366D01*
X156365045Y-93617615D01*
X156388525Y-93683421D01*
X156372700Y-93751475D01*
X156322594Y-93800170D01*
X156264727Y-93814500D01*
X148535273Y-93814500D01*
X148468234Y-93794815D01*
X148422479Y-93742011D01*
X148412535Y-93672853D01*
X148434954Y-93617616D01*
X148547750Y-93462366D01*
X148616574Y-93327290D01*
X148650331Y-93261040D01*
X148650331Y-93261038D01*
X148659760Y-93232018D01*
X148720153Y-93046147D01*
X148755500Y-92822976D01*
X148755500Y-91465654D01*
X148720153Y-91242483D01*
X148650330Y-91027589D01*
X148650330Y-91027588D01*
X148596716Y-90922366D01*
X148547750Y-90826264D01*
X148414938Y-90643464D01*
X148255166Y-90483692D01*
X147101536Y-89330062D01*
X146918736Y-89197250D01*
X146717411Y-89094669D01*
X146717408Y-89094668D01*
X146502518Y-89024847D01*
X146390931Y-89007173D01*
X146279346Y-88989500D01*
X132767895Y-88989500D01*
X132541943Y-88989500D01*
X132541938Y-88989500D01*
X132318774Y-89024845D01*
X132164224Y-89075061D01*
X132164225Y-89075062D01*
X132103873Y-89094671D01*
X131947607Y-89174294D01*
X131902552Y-89197250D01*
X131845294Y-89238851D01*
X131719753Y-89330062D01*
X131719751Y-89330064D01*
X131719750Y-89330064D01*
X130477064Y-90572750D01*
X130477064Y-90572751D01*
X130477062Y-90572753D01*
X130425690Y-90643461D01*
X130344250Y-90755552D01*
X130241669Y-90956877D01*
X130241668Y-90956880D01*
X130171847Y-91171770D01*
X130136500Y-91394943D01*
X130136500Y-92064034D01*
X130116815Y-92131073D01*
X130100181Y-92151715D01*
X129715064Y-92536831D01*
X129715064Y-92536832D01*
X129715062Y-92536834D01*
X129663588Y-92607682D01*
X129582250Y-92719633D01*
X129479669Y-92920958D01*
X129479668Y-92920961D01*
X129409847Y-93135851D01*
X129374500Y-93359024D01*
X127111500Y-93359024D01*
X127111500Y-93289767D01*
X127111501Y-93289347D01*
X127111754Y-93214845D01*
X127142827Y-84032664D01*
X127145648Y-83199024D01*
X129374500Y-83199024D01*
X129374500Y-86472975D01*
X129409847Y-86696148D01*
X129479668Y-86911038D01*
X129479669Y-86911041D01*
X129549281Y-87047661D01*
X129582250Y-87112366D01*
X129715062Y-87295166D01*
X129874834Y-87454938D01*
X130057634Y-87587750D01*
X130156378Y-87638062D01*
X130258958Y-87690330D01*
X130258961Y-87690331D01*
X130366406Y-87725241D01*
X130473853Y-87760153D01*
X130697024Y-87795500D01*
X130697025Y-87795500D01*
X130922975Y-87795500D01*
X130922976Y-87795500D01*
X131146147Y-87760153D01*
X131361041Y-87690330D01*
X131562366Y-87587750D01*
X131745166Y-87454938D01*
X131904938Y-87295166D01*
X132037750Y-87112366D01*
X132140330Y-86911041D01*
X132210153Y-86696147D01*
X132245500Y-86472976D01*
X132245500Y-83957966D01*
X132265185Y-83890927D01*
X132281819Y-83870285D01*
X132297986Y-83854118D01*
X132329375Y-83831313D01*
X132333021Y-83829455D01*
X133681070Y-83829455D01*
X133681071Y-83829456D01*
X133795876Y-83866758D01*
X134005754Y-83900000D01*
X134218246Y-83900000D01*
X134428120Y-83866758D01*
X134542928Y-83829455D01*
X134112001Y-83398528D01*
X134112000Y-83398528D01*
X133681070Y-83829455D01*
X132333021Y-83829455D01*
X132338089Y-83826872D01*
X132350571Y-83820513D01*
X132539738Y-83683076D01*
X132705076Y-83517738D01*
X132842513Y-83328571D01*
X132948666Y-83120234D01*
X133020922Y-82897855D01*
X133034437Y-82812521D01*
X133064364Y-82749391D01*
X133069228Y-82744242D01*
X133600054Y-82213416D01*
X133661377Y-82179931D01*
X133731069Y-82184915D01*
X133754755Y-82200138D01*
X133711901Y-82242993D01*
X133646075Y-82357007D01*
X133612000Y-82484174D01*
X133612000Y-82615826D01*
X133646075Y-82742993D01*
X133711901Y-82857007D01*
X133804993Y-82950099D01*
X133919007Y-83015925D01*
X134046174Y-83050000D01*
X134177826Y-83050000D01*
X134304993Y-83015925D01*
X134419007Y-82950099D01*
X134512099Y-82857007D01*
X134577925Y-82742993D01*
X134612000Y-82615826D01*
X134612000Y-82484174D01*
X134577925Y-82357007D01*
X134512099Y-82242993D01*
X134470535Y-82201429D01*
X134509906Y-82179932D01*
X134579598Y-82184916D01*
X134623945Y-82213417D01*
X135130181Y-82719653D01*
X135163666Y-82780976D01*
X135166500Y-82807334D01*
X135166500Y-83464168D01*
X135166501Y-83464193D01*
X135169335Y-83500204D01*
X135214129Y-83654388D01*
X135214131Y-83654393D01*
X135295863Y-83792595D01*
X135295869Y-83792603D01*
X135409396Y-83906130D01*
X135409400Y-83906133D01*
X135409402Y-83906135D01*
X135547607Y-83987869D01*
X135588268Y-83999682D01*
X135701791Y-84032664D01*
X135701794Y-84032664D01*
X135701796Y-84032665D01*
X135737819Y-84035500D01*
X137566180Y-84035499D01*
X137602204Y-84032665D01*
X137756393Y-83987869D01*
X137894598Y-83906135D01*
X138008135Y-83792598D01*
X138089869Y-83654393D01*
X138129571Y-83517738D01*
X138134664Y-83500208D01*
X138134665Y-83500202D01*
X138135848Y-83485166D01*
X138137500Y-83464181D01*
X138137499Y-83046289D01*
X138157183Y-82979253D01*
X138209987Y-82933498D01*
X138279146Y-82923554D01*
X138342702Y-82952579D01*
X138379430Y-83007974D01*
X138409668Y-83101038D01*
X138409669Y-83101041D01*
X138481412Y-83241843D01*
X138512250Y-83302366D01*
X138645062Y-83485166D01*
X138804834Y-83644938D01*
X138987634Y-83777750D01*
X139016785Y-83792603D01*
X139188958Y-83880330D01*
X139188961Y-83880331D01*
X139268379Y-83906135D01*
X139403853Y-83950153D01*
X139627024Y-83985500D01*
X139627025Y-83985500D01*
X139852975Y-83985500D01*
X139852976Y-83985500D01*
X140076147Y-83950153D01*
X140291041Y-83880330D01*
X140468766Y-83789775D01*
X144348750Y-83789775D01*
X144435588Y-83817990D01*
X144637683Y-83850000D01*
X144842317Y-83850000D01*
X145044411Y-83817990D01*
X145131247Y-83789775D01*
X145131248Y-83789775D01*
X144740001Y-83398528D01*
X144740000Y-83398528D01*
X144348750Y-83789775D01*
X140468766Y-83789775D01*
X140492366Y-83777750D01*
X140675166Y-83644938D01*
X140834938Y-83485166D01*
X140967750Y-83302366D01*
X141070330Y-83101041D01*
X141140153Y-82886147D01*
X141175500Y-82662976D01*
X141175500Y-82437024D01*
X141140153Y-82213853D01*
X141081878Y-82034500D01*
X141070331Y-81998961D01*
X141070329Y-81998958D01*
X141048133Y-81955396D01*
X141034317Y-81928280D01*
X141010123Y-81880795D01*
X140997227Y-81812125D01*
X141023504Y-81747385D01*
X141080610Y-81707128D01*
X141120608Y-81700500D01*
X143511468Y-81700500D01*
X143578507Y-81720185D01*
X143624262Y-81772989D01*
X143634206Y-81842147D01*
X143621953Y-81880795D01*
X143535244Y-82050968D01*
X143472009Y-82245582D01*
X143440000Y-82447682D01*
X143440000Y-82652317D01*
X143472010Y-82854418D01*
X143500222Y-82941248D01*
X144228054Y-82213416D01*
X144289377Y-82179931D01*
X144359068Y-82184915D01*
X144403416Y-82213416D01*
X144457157Y-82267157D01*
X144419920Y-82304394D01*
X144367259Y-82395606D01*
X144340000Y-82497339D01*
X144340000Y-82602661D01*
X144367259Y-82704394D01*
X144419920Y-82795606D01*
X144494394Y-82870080D01*
X144585606Y-82922741D01*
X144687339Y-82950000D01*
X144792661Y-82950000D01*
X144894394Y-82922741D01*
X144985606Y-82870080D01*
X145060080Y-82795606D01*
X145112741Y-82704394D01*
X145140000Y-82602661D01*
X145140000Y-82497339D01*
X145112741Y-82395606D01*
X145060080Y-82304394D01*
X145022843Y-82267157D01*
X145076583Y-82213417D01*
X145137906Y-82179932D01*
X145207598Y-82184916D01*
X145251945Y-82213417D01*
X145896472Y-82857944D01*
X145926722Y-82907307D01*
X145989668Y-83101038D01*
X145989669Y-83101041D01*
X146061412Y-83241843D01*
X146092250Y-83302366D01*
X146225062Y-83485166D01*
X146384834Y-83644938D01*
X146567634Y-83777750D01*
X146596785Y-83792603D01*
X146768958Y-83880330D01*
X146768961Y-83880331D01*
X146848379Y-83906135D01*
X146983853Y-83950153D01*
X147207024Y-83985500D01*
X147207025Y-83985500D01*
X147432975Y-83985500D01*
X147432976Y-83985500D01*
X147656147Y-83950153D01*
X147871041Y-83880330D01*
X148072366Y-83777750D01*
X148255166Y-83644938D01*
X148414938Y-83485166D01*
X148547750Y-83302366D01*
X148650330Y-83101041D01*
X148720153Y-82886147D01*
X148755500Y-82662976D01*
X148755500Y-82437024D01*
X156044500Y-82437024D01*
X156044500Y-82662975D01*
X156079847Y-82886148D01*
X156149668Y-83101038D01*
X156149669Y-83101041D01*
X156221412Y-83241843D01*
X156252250Y-83302366D01*
X156385062Y-83485166D01*
X156544834Y-83644938D01*
X156727634Y-83777750D01*
X156756785Y-83792603D01*
X156928958Y-83880330D01*
X156928961Y-83880331D01*
X157008379Y-83906135D01*
X157143853Y-83950153D01*
X157367024Y-83985500D01*
X157367025Y-83985500D01*
X157592975Y-83985500D01*
X157592976Y-83985500D01*
X157816147Y-83950153D01*
X158031041Y-83880330D01*
X158232366Y-83777750D01*
X158415166Y-83644938D01*
X158574938Y-83485166D01*
X158707750Y-83302366D01*
X158810330Y-83101041D01*
X158880153Y-82886147D01*
X158915500Y-82662976D01*
X158915500Y-82437024D01*
X158880153Y-82213853D01*
X158821878Y-82034500D01*
X158810331Y-81998961D01*
X158810330Y-81998958D01*
X158752150Y-81884775D01*
X158707750Y-81797634D01*
X158574938Y-81614834D01*
X158415166Y-81455062D01*
X158232366Y-81322250D01*
X158031041Y-81219669D01*
X158031038Y-81219668D01*
X157816148Y-81149847D01*
X157704561Y-81132173D01*
X157592976Y-81114500D01*
X157367024Y-81114500D01*
X157292633Y-81126282D01*
X157143851Y-81149847D01*
X156928961Y-81219668D01*
X156928958Y-81219669D01*
X156727633Y-81322250D01*
X156624246Y-81397366D01*
X156544834Y-81455062D01*
X156544832Y-81455064D01*
X156544831Y-81455064D01*
X156385064Y-81614831D01*
X156385064Y-81614832D01*
X156385062Y-81614834D01*
X156328024Y-81693339D01*
X156252250Y-81797633D01*
X156149669Y-81998958D01*
X156149668Y-81998961D01*
X156079847Y-82213851D01*
X156044500Y-82437024D01*
X148755500Y-82437024D01*
X148755500Y-81305654D01*
X148720153Y-81082483D01*
X148676918Y-80949418D01*
X148650331Y-80867591D01*
X148650330Y-80867588D01*
X148596716Y-80762366D01*
X148547750Y-80666264D01*
X148414938Y-80483464D01*
X148255166Y-80323692D01*
X147101536Y-79170062D01*
X146918736Y-79037250D01*
X146717411Y-78934669D01*
X146717408Y-78934668D01*
X146502518Y-78864847D01*
X146390931Y-78847173D01*
X146279346Y-78829500D01*
X146279345Y-78829500D01*
X132578111Y-78829500D01*
X132578087Y-78829499D01*
X132572976Y-78829499D01*
X132347024Y-78829499D01*
X132305026Y-78836150D01*
X132123855Y-78864845D01*
X131998734Y-78905499D01*
X131998735Y-78905500D01*
X131908954Y-78934671D01*
X131707633Y-79037250D01*
X131614906Y-79104621D01*
X131524834Y-79170062D01*
X131524832Y-79170064D01*
X131524831Y-79170064D01*
X131365059Y-79329837D01*
X130619393Y-80075502D01*
X130619392Y-80075502D01*
X130619393Y-80075503D01*
X130477061Y-80217835D01*
X130344250Y-80400633D01*
X130241669Y-80601958D01*
X130241668Y-80601961D01*
X130171847Y-80816851D01*
X130136500Y-81040024D01*
X130136500Y-81904034D01*
X130116815Y-81971073D01*
X130100181Y-81991715D01*
X129715064Y-82376831D01*
X129715064Y-82376832D01*
X129715062Y-82376834D01*
X129663588Y-82447682D01*
X129582250Y-82559633D01*
X129479669Y-82760958D01*
X129479668Y-82760961D01*
X129409847Y-82975851D01*
X129374500Y-83199024D01*
X127145648Y-83199024D01*
X127145666Y-83193732D01*
X127153069Y-81006073D01*
X127180030Y-73039024D01*
X129374500Y-73039024D01*
X129374500Y-76312975D01*
X129409847Y-76536148D01*
X129479668Y-76751038D01*
X129479669Y-76751041D01*
X129561537Y-76911715D01*
X129582250Y-76952366D01*
X129715062Y-77135166D01*
X129874834Y-77294938D01*
X130057634Y-77427750D01*
X130156378Y-77478062D01*
X130258958Y-77530330D01*
X130258961Y-77530331D01*
X130334375Y-77554834D01*
X130473853Y-77600153D01*
X130697024Y-77635500D01*
X130697025Y-77635500D01*
X130922975Y-77635500D01*
X130922976Y-77635500D01*
X131146147Y-77600153D01*
X131361041Y-77530330D01*
X131562366Y-77427750D01*
X131745166Y-77294938D01*
X131904938Y-77135166D01*
X132037750Y-76952366D01*
X132140330Y-76751041D01*
X132210153Y-76536147D01*
X132245500Y-76312976D01*
X132245500Y-76087024D01*
X139534500Y-76087024D01*
X139534500Y-76312975D01*
X139569847Y-76536148D01*
X139639668Y-76751038D01*
X139639669Y-76751041D01*
X139721537Y-76911715D01*
X139742250Y-76952366D01*
X139875062Y-77135166D01*
X140034834Y-77294938D01*
X140217634Y-77427750D01*
X140316378Y-77478062D01*
X140418958Y-77530330D01*
X140418961Y-77530331D01*
X140494375Y-77554834D01*
X140633853Y-77600153D01*
X140857024Y-77635500D01*
X159994802Y-77635500D01*
X160061841Y-77655185D01*
X160082483Y-77671819D01*
X163630334Y-81219670D01*
X167123484Y-84712819D01*
X167156969Y-84774142D01*
X167151985Y-84843834D01*
X167110113Y-84899767D01*
X167044649Y-84924184D01*
X167035803Y-84924500D01*
X140857024Y-84924500D01*
X140782633Y-84936282D01*
X140633851Y-84959847D01*
X140418961Y-85029668D01*
X140418958Y-85029669D01*
X140217633Y-85132250D01*
X140169181Y-85167453D01*
X140034834Y-85265062D01*
X140034832Y-85265064D01*
X140034831Y-85265064D01*
X139875064Y-85424831D01*
X139875064Y-85424832D01*
X139875062Y-85424834D01*
X139830446Y-85486243D01*
X139742250Y-85607633D01*
X139639669Y-85808958D01*
X139639668Y-85808961D01*
X139569847Y-86023851D01*
X139534500Y-86247024D01*
X139534500Y-86472975D01*
X139569847Y-86696148D01*
X139639668Y-86911038D01*
X139639669Y-86911041D01*
X139709281Y-87047661D01*
X139742250Y-87112366D01*
X139875062Y-87295166D01*
X140034834Y-87454938D01*
X140217634Y-87587750D01*
X140316378Y-87638062D01*
X140418958Y-87690330D01*
X140418961Y-87690331D01*
X140526406Y-87725241D01*
X140633853Y-87760153D01*
X140857024Y-87795500D01*
X166994034Y-87795500D01*
X167061073Y-87815185D01*
X167081715Y-87831819D01*
X170990061Y-91740165D01*
X170990062Y-91740166D01*
X171149834Y-91899938D01*
X171332634Y-92032750D01*
X171469572Y-92102523D01*
X171493800Y-92114868D01*
X171533961Y-92135331D01*
X171606682Y-92158959D01*
X171748853Y-92205153D01*
X171972024Y-92240500D01*
X171972025Y-92240500D01*
X172197975Y-92240500D01*
X172197976Y-92240500D01*
X172421147Y-92205153D01*
X172636041Y-92135330D01*
X172837366Y-92032750D01*
X173020166Y-91899938D01*
X173179938Y-91740166D01*
X173312750Y-91557366D01*
X173387951Y-91409775D01*
X179353750Y-91409775D01*
X179440588Y-91437990D01*
X179642683Y-91470000D01*
X179847317Y-91470000D01*
X180049411Y-91437990D01*
X180136247Y-91409775D01*
X180136248Y-91409775D01*
X179745001Y-91018528D01*
X179745000Y-91018528D01*
X179353750Y-91409775D01*
X173387951Y-91409775D01*
X173415330Y-91356041D01*
X173485153Y-91141147D01*
X173520500Y-90917976D01*
X173520500Y-90692024D01*
X173485153Y-90468853D01*
X173415330Y-90253959D01*
X173320417Y-90067682D01*
X178445000Y-90067682D01*
X178445000Y-90272317D01*
X178477010Y-90474418D01*
X178505222Y-90561248D01*
X178505223Y-90561248D01*
X178896472Y-90170000D01*
X178843811Y-90117339D01*
X179345000Y-90117339D01*
X179345000Y-90222661D01*
X179372259Y-90324394D01*
X179424920Y-90415606D01*
X179499394Y-90490080D01*
X179590606Y-90542741D01*
X179692339Y-90570000D01*
X179797661Y-90570000D01*
X179899394Y-90542741D01*
X179990606Y-90490080D01*
X180065080Y-90415606D01*
X180117741Y-90324394D01*
X180145000Y-90222661D01*
X180145000Y-90169999D01*
X180593528Y-90169999D01*
X180593528Y-90170001D01*
X180984775Y-90561248D01*
X180984775Y-90561247D01*
X181012990Y-90474411D01*
X181045000Y-90272317D01*
X181045000Y-90067682D01*
X181012990Y-89865588D01*
X180984775Y-89778750D01*
X180593528Y-90169999D01*
X180145000Y-90169999D01*
X180145000Y-90117339D01*
X180117741Y-90015606D01*
X180065080Y-89924394D01*
X179990606Y-89849920D01*
X179899394Y-89797259D01*
X179797661Y-89770000D01*
X179692339Y-89770000D01*
X179590606Y-89797259D01*
X179499394Y-89849920D01*
X179424920Y-89924394D01*
X179372259Y-90015606D01*
X179345000Y-90117339D01*
X178843811Y-90117339D01*
X178505223Y-89778751D01*
X178505222Y-89778751D01*
X178477010Y-89865581D01*
X178445000Y-90067682D01*
X173320417Y-90067682D01*
X173312750Y-90052634D01*
X173179938Y-89869834D01*
X173020166Y-89710062D01*
X172240326Y-88930222D01*
X179353751Y-88930222D01*
X179353751Y-88930223D01*
X179745000Y-89321472D01*
X179745001Y-89321472D01*
X180136248Y-88930223D01*
X180136248Y-88930222D01*
X180049418Y-88902010D01*
X179847317Y-88870000D01*
X179642683Y-88870000D01*
X179440581Y-88902010D01*
X179353751Y-88930222D01*
X172240326Y-88930222D01*
X171544879Y-88234775D01*
X176773750Y-88234775D01*
X176860588Y-88262990D01*
X177062683Y-88295000D01*
X177267317Y-88295000D01*
X177469411Y-88262990D01*
X177556247Y-88234775D01*
X177556248Y-88234775D01*
X177165001Y-87843528D01*
X177165000Y-87843528D01*
X176773750Y-88234775D01*
X171544879Y-88234775D01*
X170919303Y-87609199D01*
X170885818Y-87547876D01*
X170890802Y-87478184D01*
X170932674Y-87422251D01*
X170968664Y-87403588D01*
X171041425Y-87379947D01*
X171242750Y-87277366D01*
X171425550Y-87144554D01*
X171585322Y-86984782D01*
X171652237Y-86892682D01*
X175865000Y-86892682D01*
X175865000Y-87097317D01*
X175897010Y-87299418D01*
X175925222Y-87386248D01*
X175925223Y-87386248D01*
X176316472Y-86995000D01*
X176263811Y-86942339D01*
X176765000Y-86942339D01*
X176765000Y-87047661D01*
X176792259Y-87149394D01*
X176844920Y-87240606D01*
X176919394Y-87315080D01*
X177010606Y-87367741D01*
X177112339Y-87395000D01*
X177217661Y-87395000D01*
X177319394Y-87367741D01*
X177410606Y-87315080D01*
X177485080Y-87240606D01*
X177537741Y-87149394D01*
X177565000Y-87047661D01*
X177565000Y-86994999D01*
X178013528Y-86994999D01*
X178013528Y-86995001D01*
X178404775Y-87386248D01*
X178404775Y-87386247D01*
X178432990Y-87299411D01*
X178465000Y-87097317D01*
X178465000Y-86892682D01*
X178432990Y-86690588D01*
X178404775Y-86603750D01*
X178013528Y-86994999D01*
X177565000Y-86994999D01*
X177565000Y-86942339D01*
X177537741Y-86840606D01*
X177485080Y-86749394D01*
X177410606Y-86674920D01*
X177319394Y-86622259D01*
X177217661Y-86595000D01*
X177112339Y-86595000D01*
X177010606Y-86622259D01*
X176919394Y-86674920D01*
X176844920Y-86749394D01*
X176792259Y-86840606D01*
X176765000Y-86942339D01*
X176263811Y-86942339D01*
X175925223Y-86603751D01*
X175925222Y-86603751D01*
X175897010Y-86690581D01*
X175865000Y-86892682D01*
X171652237Y-86892682D01*
X171708727Y-86814930D01*
X171708728Y-86814929D01*
X171713434Y-86808450D01*
X171718134Y-86801982D01*
X171820715Y-86600657D01*
X171890538Y-86385764D01*
X171925885Y-86162592D01*
X171925885Y-85936640D01*
X171923932Y-85924309D01*
X171906334Y-85813197D01*
X171897151Y-85755222D01*
X176773751Y-85755222D01*
X176773751Y-85755223D01*
X177165000Y-86146472D01*
X177165001Y-86146472D01*
X177556248Y-85755223D01*
X177556248Y-85755222D01*
X177469418Y-85727010D01*
X177267317Y-85695000D01*
X177062683Y-85695000D01*
X176860581Y-85727010D01*
X176773751Y-85755222D01*
X171897151Y-85755222D01*
X171890538Y-85713468D01*
X171820713Y-85498571D01*
X171746226Y-85352384D01*
X171718134Y-85297250D01*
X171691282Y-85260292D01*
X171585322Y-85114450D01*
X171425550Y-84954678D01*
X171425549Y-84954677D01*
X171422438Y-84951566D01*
X171422423Y-84951552D01*
X161575936Y-75105064D01*
X161575935Y-75105063D01*
X161575934Y-75105062D01*
X161393134Y-74972250D01*
X161191809Y-74869669D01*
X161191806Y-74869668D01*
X160976916Y-74799847D01*
X160865329Y-74782173D01*
X160753744Y-74764500D01*
X140857024Y-74764500D01*
X140782633Y-74776282D01*
X140633851Y-74799847D01*
X140418961Y-74869668D01*
X140418958Y-74869669D01*
X140217633Y-74972250D01*
X140120289Y-75042975D01*
X140034834Y-75105062D01*
X140034832Y-75105064D01*
X140034831Y-75105064D01*
X139875064Y-75264831D01*
X139875064Y-75264832D01*
X139875062Y-75264834D01*
X139818024Y-75343339D01*
X139742250Y-75447633D01*
X139639669Y-75648958D01*
X139639668Y-75648961D01*
X139569847Y-75863851D01*
X139534500Y-76087024D01*
X132245500Y-76087024D01*
X132245500Y-73797966D01*
X132265185Y-73730927D01*
X132281819Y-73710285D01*
X132297986Y-73694118D01*
X132329375Y-73671313D01*
X132333021Y-73669455D01*
X133681070Y-73669455D01*
X133681071Y-73669456D01*
X133795876Y-73706758D01*
X134005754Y-73740000D01*
X134218246Y-73740000D01*
X134428120Y-73706758D01*
X134542928Y-73669455D01*
X134112001Y-73238528D01*
X134112000Y-73238528D01*
X133681070Y-73669455D01*
X132333021Y-73669455D01*
X132338089Y-73666872D01*
X132350571Y-73660513D01*
X132539738Y-73523076D01*
X132705076Y-73357738D01*
X132842513Y-73168571D01*
X132948666Y-72960234D01*
X133020922Y-72737855D01*
X133034437Y-72652521D01*
X133064364Y-72589391D01*
X133069228Y-72584242D01*
X133600054Y-72053416D01*
X133661377Y-72019931D01*
X133731069Y-72024915D01*
X133754755Y-72040138D01*
X133711901Y-72082993D01*
X133646075Y-72197007D01*
X133612000Y-72324174D01*
X133612000Y-72455826D01*
X133646075Y-72582993D01*
X133711901Y-72697007D01*
X133804993Y-72790099D01*
X133919007Y-72855925D01*
X134046174Y-72890000D01*
X134177826Y-72890000D01*
X134304993Y-72855925D01*
X134419007Y-72790099D01*
X134512099Y-72697007D01*
X134577925Y-72582993D01*
X134612000Y-72455826D01*
X134612000Y-72324174D01*
X134577925Y-72197007D01*
X134512099Y-72082993D01*
X134470535Y-72041429D01*
X134509906Y-72019932D01*
X134579598Y-72024916D01*
X134623945Y-72053417D01*
X135130181Y-72559653D01*
X135163666Y-72620976D01*
X135166500Y-72647334D01*
X135166500Y-73304168D01*
X135166501Y-73304193D01*
X135169335Y-73340204D01*
X135214129Y-73494388D01*
X135214131Y-73494393D01*
X135295863Y-73632595D01*
X135295869Y-73632603D01*
X135409396Y-73746130D01*
X135409400Y-73746133D01*
X135409402Y-73746135D01*
X135547607Y-73827869D01*
X135588268Y-73839682D01*
X135701791Y-73872664D01*
X135701794Y-73872664D01*
X135701796Y-73872665D01*
X135737819Y-73875500D01*
X137566180Y-73875499D01*
X137602204Y-73872665D01*
X137756393Y-73827869D01*
X137894598Y-73746135D01*
X138008135Y-73632598D01*
X138089869Y-73494393D01*
X138129571Y-73357738D01*
X138134664Y-73340208D01*
X138134665Y-73340202D01*
X138137499Y-73304188D01*
X138137500Y-73304181D01*
X138137499Y-72886289D01*
X138157183Y-72819253D01*
X138209987Y-72773498D01*
X138279146Y-72763554D01*
X138342702Y-72792579D01*
X138379430Y-72847974D01*
X138409668Y-72941038D01*
X138409669Y-72941041D01*
X138512250Y-73142366D01*
X138645062Y-73325166D01*
X138804834Y-73484938D01*
X138987634Y-73617750D01*
X139016785Y-73632603D01*
X139188958Y-73720330D01*
X139188961Y-73720331D01*
X139268379Y-73746135D01*
X139403853Y-73790153D01*
X139627024Y-73825500D01*
X139627025Y-73825500D01*
X139852975Y-73825500D01*
X139852976Y-73825500D01*
X140076147Y-73790153D01*
X140291041Y-73720330D01*
X140468766Y-73629775D01*
X144348750Y-73629775D01*
X144435588Y-73657990D01*
X144637683Y-73690000D01*
X144842317Y-73690000D01*
X145044411Y-73657990D01*
X145131247Y-73629775D01*
X145131248Y-73629775D01*
X144740001Y-73238528D01*
X144740000Y-73238528D01*
X144348750Y-73629775D01*
X140468766Y-73629775D01*
X140492366Y-73617750D01*
X140675166Y-73484938D01*
X140834938Y-73325166D01*
X140967750Y-73142366D01*
X141070330Y-72941041D01*
X141140153Y-72726147D01*
X141175500Y-72502976D01*
X141175500Y-72277024D01*
X141140153Y-72053853D01*
X141070330Y-71838959D01*
X141038637Y-71776758D01*
X141010123Y-71720795D01*
X140997227Y-71652125D01*
X141023504Y-71587385D01*
X141080610Y-71547128D01*
X141120608Y-71540500D01*
X143511468Y-71540500D01*
X143578507Y-71560185D01*
X143624262Y-71612989D01*
X143634206Y-71682147D01*
X143621953Y-71720795D01*
X143535244Y-71890968D01*
X143472009Y-72085582D01*
X143440000Y-72287682D01*
X143440000Y-72492317D01*
X143472010Y-72694418D01*
X143500222Y-72781248D01*
X144228054Y-72053416D01*
X144289377Y-72019931D01*
X144359068Y-72024915D01*
X144403416Y-72053416D01*
X144457157Y-72107157D01*
X144419920Y-72144394D01*
X144367259Y-72235606D01*
X144340000Y-72337339D01*
X144340000Y-72442661D01*
X144367259Y-72544394D01*
X144419920Y-72635606D01*
X144494394Y-72710080D01*
X144585606Y-72762741D01*
X144687339Y-72790000D01*
X144792661Y-72790000D01*
X144894394Y-72762741D01*
X144985606Y-72710080D01*
X145060080Y-72635606D01*
X145112741Y-72544394D01*
X145140000Y-72442661D01*
X145140000Y-72337339D01*
X145112741Y-72235606D01*
X145060080Y-72144394D01*
X145022843Y-72107157D01*
X145076583Y-72053417D01*
X145137906Y-72019932D01*
X145207598Y-72024916D01*
X145251945Y-72053417D01*
X145896472Y-72697944D01*
X145926722Y-72747307D01*
X145989668Y-72941038D01*
X145989669Y-72941041D01*
X146092250Y-73142366D01*
X146225062Y-73325166D01*
X146384834Y-73484938D01*
X146567634Y-73617750D01*
X146596785Y-73632603D01*
X146768958Y-73720330D01*
X146768961Y-73720331D01*
X146848379Y-73746135D01*
X146983853Y-73790153D01*
X147207024Y-73825500D01*
X147207025Y-73825500D01*
X147432975Y-73825500D01*
X147432976Y-73825500D01*
X147656147Y-73790153D01*
X147871041Y-73720330D01*
X148072366Y-73617750D01*
X148255166Y-73484938D01*
X148414938Y-73325166D01*
X148547750Y-73142366D01*
X148650330Y-72941041D01*
X148720153Y-72726147D01*
X148755500Y-72502976D01*
X148755500Y-72277024D01*
X156044500Y-72277024D01*
X156044500Y-72502976D01*
X156047221Y-72520153D01*
X156079847Y-72726148D01*
X156149668Y-72941038D01*
X156149669Y-72941041D01*
X156252250Y-73142366D01*
X156385062Y-73325166D01*
X156544834Y-73484938D01*
X156727634Y-73617750D01*
X156756785Y-73632603D01*
X156928958Y-73720330D01*
X156928961Y-73720331D01*
X157008379Y-73746135D01*
X157143853Y-73790153D01*
X157367024Y-73825500D01*
X157367025Y-73825500D01*
X157592975Y-73825500D01*
X157592976Y-73825500D01*
X157816147Y-73790153D01*
X158031041Y-73720330D01*
X158232366Y-73617750D01*
X158415166Y-73484938D01*
X158519293Y-73380811D01*
X171869500Y-73380811D01*
X171869500Y-75209168D01*
X171869501Y-75209193D01*
X171872335Y-75245204D01*
X171917129Y-75399388D01*
X171917131Y-75399393D01*
X171998863Y-75537595D01*
X171998869Y-75537603D01*
X172112396Y-75651130D01*
X172112405Y-75651137D01*
X172181543Y-75692025D01*
X172229226Y-75743094D01*
X172241730Y-75811836D01*
X172218741Y-75871642D01*
X172084486Y-76056429D01*
X171978335Y-76264763D01*
X171906077Y-76487148D01*
X171869500Y-76718089D01*
X171869500Y-76951910D01*
X171906077Y-77182851D01*
X171913431Y-77205484D01*
X171919500Y-77243802D01*
X171919500Y-80122975D01*
X171954847Y-80346148D01*
X172024668Y-80561038D01*
X172024669Y-80561041D01*
X172094281Y-80697661D01*
X172127250Y-80762366D01*
X172260062Y-80945166D01*
X172260064Y-80945167D01*
X172260064Y-80945168D01*
X176066936Y-84752039D01*
X176066950Y-84752054D01*
X176070061Y-84755165D01*
X176070062Y-84755166D01*
X176229834Y-84914938D01*
X176412634Y-85047750D01*
X176613959Y-85150330D01*
X176666659Y-85167453D01*
X176828853Y-85220154D01*
X177052024Y-85255501D01*
X177052025Y-85255501D01*
X177277975Y-85255501D01*
X177277976Y-85255501D01*
X177501147Y-85220154D01*
X177716041Y-85150330D01*
X177917366Y-85047750D01*
X178100166Y-84914938D01*
X178259938Y-84755166D01*
X178392750Y-84572366D01*
X178495330Y-84371041D01*
X178565154Y-84156147D01*
X178600501Y-83932976D01*
X178600501Y-83707024D01*
X178565154Y-83483853D01*
X178525846Y-83362878D01*
X178506193Y-83302390D01*
X178506193Y-83302389D01*
X178499132Y-83280663D01*
X178495330Y-83268959D01*
X178392750Y-83067634D01*
X178259938Y-82884834D01*
X178100166Y-82725062D01*
X178100165Y-82725061D01*
X178097054Y-82721950D01*
X178097039Y-82721936D01*
X177308982Y-81933879D01*
X177259878Y-81884775D01*
X179353750Y-81884775D01*
X179440588Y-81912990D01*
X179642683Y-81945000D01*
X179847317Y-81945000D01*
X180049411Y-81912990D01*
X180136247Y-81884775D01*
X180136248Y-81884775D01*
X179745001Y-81493528D01*
X179745000Y-81493528D01*
X179353750Y-81884775D01*
X177259878Y-81884775D01*
X176000601Y-80625497D01*
X175917786Y-80542682D01*
X178445000Y-80542682D01*
X178445000Y-80747317D01*
X178477010Y-80949418D01*
X178505222Y-81036248D01*
X178505223Y-81036248D01*
X178896472Y-80645000D01*
X178843811Y-80592339D01*
X179345000Y-80592339D01*
X179345000Y-80697661D01*
X179372259Y-80799394D01*
X179424920Y-80890606D01*
X179499394Y-80965080D01*
X179590606Y-81017741D01*
X179692339Y-81045000D01*
X179797661Y-81045000D01*
X179899394Y-81017741D01*
X179990606Y-80965080D01*
X180065080Y-80890606D01*
X180117741Y-80799394D01*
X180145000Y-80697661D01*
X180145000Y-80644999D01*
X180593528Y-80644999D01*
X180593528Y-80645001D01*
X180984775Y-81036248D01*
X180984775Y-81036247D01*
X181012990Y-80949411D01*
X181045000Y-80747317D01*
X181045000Y-80542682D01*
X181012990Y-80340588D01*
X180984775Y-80253750D01*
X180593528Y-80644999D01*
X180145000Y-80644999D01*
X180145000Y-80592339D01*
X180117741Y-80490606D01*
X180065080Y-80399394D01*
X179990606Y-80324920D01*
X179899394Y-80272259D01*
X179797661Y-80245000D01*
X179692339Y-80245000D01*
X179590606Y-80272259D01*
X179499394Y-80324920D01*
X179424920Y-80399394D01*
X179372259Y-80490606D01*
X179345000Y-80592339D01*
X178843811Y-80592339D01*
X178505223Y-80253751D01*
X178505222Y-80253751D01*
X178477010Y-80340581D01*
X178445000Y-80542682D01*
X175917786Y-80542682D01*
X174826819Y-79451715D01*
X174801432Y-79405222D01*
X179353751Y-79405222D01*
X179353751Y-79405223D01*
X179745000Y-79796472D01*
X179745001Y-79796472D01*
X180136248Y-79405223D01*
X180136248Y-79405222D01*
X180049418Y-79377010D01*
X179847317Y-79345000D01*
X179642683Y-79345000D01*
X179440581Y-79377010D01*
X179353751Y-79405222D01*
X174801432Y-79405222D01*
X174793334Y-79390392D01*
X174790500Y-79364034D01*
X174790500Y-78709775D01*
X176773750Y-78709775D01*
X176860588Y-78737990D01*
X177062683Y-78770000D01*
X177267317Y-78770000D01*
X177469411Y-78737990D01*
X177556247Y-78709775D01*
X177556248Y-78709775D01*
X177165001Y-78318528D01*
X177165000Y-78318528D01*
X176773750Y-78709775D01*
X174790500Y-78709775D01*
X174790500Y-77367682D01*
X175865000Y-77367682D01*
X175865000Y-77572317D01*
X175897010Y-77774418D01*
X175925222Y-77861248D01*
X175925223Y-77861248D01*
X176316472Y-77470000D01*
X176263811Y-77417339D01*
X176765000Y-77417339D01*
X176765000Y-77522661D01*
X176792259Y-77624394D01*
X176844920Y-77715606D01*
X176919394Y-77790080D01*
X177010606Y-77842741D01*
X177112339Y-77870000D01*
X177217661Y-77870000D01*
X177319394Y-77842741D01*
X177410606Y-77790080D01*
X177485080Y-77715606D01*
X177537741Y-77624394D01*
X177565000Y-77522661D01*
X177565000Y-77469999D01*
X178013528Y-77469999D01*
X178013528Y-77470001D01*
X178404775Y-77861248D01*
X178404775Y-77861247D01*
X178432990Y-77774411D01*
X178465000Y-77572317D01*
X178465000Y-77367682D01*
X178432990Y-77165588D01*
X178404775Y-77078750D01*
X178013528Y-77469999D01*
X177565000Y-77469999D01*
X177565000Y-77417339D01*
X177537741Y-77315606D01*
X177485080Y-77224394D01*
X177410606Y-77149920D01*
X177319394Y-77097259D01*
X177217661Y-77070000D01*
X177112339Y-77070000D01*
X177010606Y-77097259D01*
X176919394Y-77149920D01*
X176844920Y-77224394D01*
X176792259Y-77315606D01*
X176765000Y-77417339D01*
X176263811Y-77417339D01*
X175925223Y-77078751D01*
X175925222Y-77078751D01*
X175897010Y-77165581D01*
X175865000Y-77367682D01*
X174790500Y-77367682D01*
X174790500Y-77243802D01*
X174796569Y-77205484D01*
X174803922Y-77182855D01*
X174840500Y-76951911D01*
X174840500Y-76718089D01*
X174803922Y-76487145D01*
X174731666Y-76264766D01*
X174731664Y-76264763D01*
X174731664Y-76264761D01*
X174714065Y-76230222D01*
X176773751Y-76230222D01*
X176773751Y-76230223D01*
X177165000Y-76621472D01*
X177165001Y-76621472D01*
X177556248Y-76230223D01*
X177556248Y-76230222D01*
X177469418Y-76202010D01*
X177267317Y-76170000D01*
X177062683Y-76170000D01*
X176860581Y-76202010D01*
X176773751Y-76230222D01*
X174714065Y-76230222D01*
X174625513Y-76056429D01*
X174531758Y-75927385D01*
X174508279Y-75861578D01*
X174524105Y-75793524D01*
X174574211Y-75744830D01*
X174632077Y-75730500D01*
X177277975Y-75730500D01*
X177277976Y-75730500D01*
X177501147Y-75695153D01*
X177716041Y-75625330D01*
X177917366Y-75522750D01*
X178100166Y-75389938D01*
X178259938Y-75230166D01*
X178392750Y-75047366D01*
X178495330Y-74846041D01*
X178565153Y-74631147D01*
X178600500Y-74407976D01*
X178600500Y-74182024D01*
X178565153Y-73958853D01*
X178510339Y-73790152D01*
X178495331Y-73743961D01*
X178495330Y-73743958D01*
X178421811Y-73599669D01*
X178392750Y-73542634D01*
X178259938Y-73359834D01*
X178100166Y-73200062D01*
X177917366Y-73067250D01*
X177888225Y-73052402D01*
X177716041Y-72964669D01*
X177716038Y-72964668D01*
X177501148Y-72894847D01*
X177389561Y-72877173D01*
X177277976Y-72859500D01*
X177277975Y-72859500D01*
X174485195Y-72859500D01*
X174450600Y-72854576D01*
X174305208Y-72812335D01*
X174305202Y-72812334D01*
X174269181Y-72809500D01*
X172440831Y-72809500D01*
X172440806Y-72809501D01*
X172404795Y-72812335D01*
X172250611Y-72857129D01*
X172250606Y-72857131D01*
X172112404Y-72938863D01*
X172112396Y-72938869D01*
X171998869Y-73052396D01*
X171998863Y-73052404D01*
X171917131Y-73190606D01*
X171917129Y-73190611D01*
X171872335Y-73344791D01*
X171872334Y-73344797D01*
X171869500Y-73380811D01*
X158519293Y-73380811D01*
X158574938Y-73325166D01*
X158707750Y-73142366D01*
X158810330Y-72941041D01*
X158880153Y-72726147D01*
X158915500Y-72502976D01*
X158915500Y-72277024D01*
X158880153Y-72053853D01*
X158810330Y-71838959D01*
X158810330Y-71838958D01*
X158758062Y-71736378D01*
X158707750Y-71637634D01*
X158574938Y-71454834D01*
X158415166Y-71295062D01*
X158232366Y-71162250D01*
X158203378Y-71147480D01*
X158031041Y-71059669D01*
X158031038Y-71059668D01*
X157816148Y-70989847D01*
X157704561Y-70972173D01*
X157592976Y-70954500D01*
X157367024Y-70954500D01*
X157292633Y-70966282D01*
X157143851Y-70989847D01*
X156928961Y-71059668D01*
X156928958Y-71059669D01*
X156727633Y-71162250D01*
X156623339Y-71238024D01*
X156544834Y-71295062D01*
X156544832Y-71295064D01*
X156544831Y-71295064D01*
X156385064Y-71454831D01*
X156385064Y-71454832D01*
X156385062Y-71454834D01*
X156371802Y-71473085D01*
X156252250Y-71637633D01*
X156149669Y-71838958D01*
X156149668Y-71838961D01*
X156079847Y-72053851D01*
X156054033Y-72216834D01*
X156044500Y-72277024D01*
X148755500Y-72277024D01*
X148755500Y-71696256D01*
X148720153Y-71473085D01*
X148650330Y-71258191D01*
X148650330Y-71258190D01*
X148593920Y-71147480D01*
X148547750Y-71056866D01*
X148414938Y-70874066D01*
X148255166Y-70714294D01*
X146550934Y-69010062D01*
X146368134Y-68877250D01*
X146166809Y-68774669D01*
X146166806Y-68774668D01*
X145951916Y-68704847D01*
X145840329Y-68687173D01*
X145728744Y-68669500D01*
X133278498Y-68669500D01*
X133052546Y-68669500D01*
X132940960Y-68687173D01*
X132829373Y-68704847D01*
X132758289Y-68727944D01*
X132687204Y-68751041D01*
X132687203Y-68751041D01*
X132614486Y-68774667D01*
X132614480Y-68774669D01*
X132413152Y-68877252D01*
X132309767Y-68952366D01*
X132230362Y-69010056D01*
X132230357Y-69010060D01*
X130477064Y-70763353D01*
X130477064Y-70763354D01*
X130477062Y-70763356D01*
X130420024Y-70841861D01*
X130344250Y-70946155D01*
X130241669Y-71147480D01*
X130241668Y-71147483D01*
X130171847Y-71362373D01*
X130136500Y-71585546D01*
X130136500Y-71744034D01*
X130116815Y-71811073D01*
X130100181Y-71831715D01*
X129715064Y-72216831D01*
X129715064Y-72216832D01*
X129715062Y-72216834D01*
X129663588Y-72287682D01*
X129582250Y-72399633D01*
X129479669Y-72600958D01*
X129479668Y-72600961D01*
X129409847Y-72815851D01*
X129374500Y-73039024D01*
X127180030Y-73039024D01*
X127202700Y-66340167D01*
X127214413Y-62879024D01*
X129374500Y-62879024D01*
X129374500Y-66152975D01*
X129409847Y-66376148D01*
X129479668Y-66591038D01*
X129479669Y-66591041D01*
X129580013Y-66787975D01*
X129582250Y-66792366D01*
X129715062Y-66975166D01*
X129874834Y-67134938D01*
X130057634Y-67267750D01*
X130156378Y-67318062D01*
X130258958Y-67370330D01*
X130258961Y-67370331D01*
X130366406Y-67405241D01*
X130473853Y-67440153D01*
X130697024Y-67475500D01*
X130697025Y-67475500D01*
X130922975Y-67475500D01*
X130922976Y-67475500D01*
X131146147Y-67440153D01*
X131361041Y-67370330D01*
X131562366Y-67267750D01*
X131745166Y-67134938D01*
X131904938Y-66975166D01*
X132037750Y-66792366D01*
X132140330Y-66591041D01*
X132210153Y-66376147D01*
X132245500Y-66152976D01*
X132245500Y-63637966D01*
X132265185Y-63570927D01*
X132281819Y-63550285D01*
X132297986Y-63534118D01*
X132329375Y-63511313D01*
X132333021Y-63509455D01*
X133681070Y-63509455D01*
X133681071Y-63509456D01*
X133795876Y-63546758D01*
X134005754Y-63580000D01*
X134218246Y-63580000D01*
X134428120Y-63546758D01*
X134542928Y-63509455D01*
X134112001Y-63078528D01*
X134112000Y-63078528D01*
X133681070Y-63509455D01*
X132333021Y-63509455D01*
X132338089Y-63506872D01*
X132350571Y-63500513D01*
X132539738Y-63363076D01*
X132705076Y-63197738D01*
X132842513Y-63008571D01*
X132948666Y-62800234D01*
X133020922Y-62577855D01*
X133034437Y-62492521D01*
X133064364Y-62429391D01*
X133069228Y-62424242D01*
X133600054Y-61893416D01*
X133661377Y-61859931D01*
X133731069Y-61864915D01*
X133754755Y-61880138D01*
X133711901Y-61922993D01*
X133646075Y-62037007D01*
X133612000Y-62164174D01*
X133612000Y-62295826D01*
X133646075Y-62422993D01*
X133711901Y-62537007D01*
X133804993Y-62630099D01*
X133919007Y-62695925D01*
X134046174Y-62730000D01*
X134177826Y-62730000D01*
X134304993Y-62695925D01*
X134419007Y-62630099D01*
X134512099Y-62537007D01*
X134577925Y-62422993D01*
X134612000Y-62295826D01*
X134612000Y-62164174D01*
X134577925Y-62037007D01*
X134512099Y-61922993D01*
X134470535Y-61881429D01*
X134509906Y-61859932D01*
X134579598Y-61864916D01*
X134623945Y-61893417D01*
X135130181Y-62399653D01*
X135163666Y-62460976D01*
X135166500Y-62487334D01*
X135166500Y-63144168D01*
X135166501Y-63144193D01*
X135169335Y-63180204D01*
X135214129Y-63334388D01*
X135214131Y-63334393D01*
X135295863Y-63472595D01*
X135295869Y-63472603D01*
X135409396Y-63586130D01*
X135409400Y-63586133D01*
X135409402Y-63586135D01*
X135547607Y-63667869D01*
X135588268Y-63679682D01*
X135701791Y-63712664D01*
X135701794Y-63712664D01*
X135701796Y-63712665D01*
X135737819Y-63715500D01*
X137566180Y-63715499D01*
X137602204Y-63712665D01*
X137756393Y-63667869D01*
X137894598Y-63586135D01*
X138008135Y-63472598D01*
X138089869Y-63334393D01*
X138129571Y-63197738D01*
X138134664Y-63180208D01*
X138134665Y-63180202D01*
X138137499Y-63144188D01*
X138137500Y-63144181D01*
X138137499Y-62726289D01*
X138157183Y-62659253D01*
X138209987Y-62613498D01*
X138279146Y-62603554D01*
X138342702Y-62632579D01*
X138379430Y-62687974D01*
X138409668Y-62781038D01*
X138409669Y-62781041D01*
X138473783Y-62906871D01*
X138512250Y-62982366D01*
X138645062Y-63165166D01*
X138804834Y-63324938D01*
X138987634Y-63457750D01*
X139016785Y-63472603D01*
X139188958Y-63560330D01*
X139188961Y-63560331D01*
X139268379Y-63586135D01*
X139403853Y-63630153D01*
X139627024Y-63665500D01*
X139627025Y-63665500D01*
X139852975Y-63665500D01*
X139852976Y-63665500D01*
X140076147Y-63630153D01*
X140291041Y-63560330D01*
X140468766Y-63469775D01*
X144348750Y-63469775D01*
X144435588Y-63497990D01*
X144637683Y-63530000D01*
X144842317Y-63530000D01*
X145044411Y-63497990D01*
X145131247Y-63469775D01*
X145131248Y-63469775D01*
X144740001Y-63078528D01*
X144740000Y-63078528D01*
X144348750Y-63469775D01*
X140468766Y-63469775D01*
X140492366Y-63457750D01*
X140675166Y-63324938D01*
X140834938Y-63165166D01*
X140967750Y-62982366D01*
X141070330Y-62781041D01*
X141140153Y-62566147D01*
X141175500Y-62342976D01*
X141175500Y-62117024D01*
X141140153Y-61893853D01*
X141086914Y-61730000D01*
X141070331Y-61678961D01*
X141070329Y-61678958D01*
X141048133Y-61635396D01*
X141038637Y-61616758D01*
X141010123Y-61560795D01*
X140997227Y-61492125D01*
X141023504Y-61427385D01*
X141080610Y-61387128D01*
X141120608Y-61380500D01*
X143511468Y-61380500D01*
X143578507Y-61400185D01*
X143624262Y-61452989D01*
X143634206Y-61522147D01*
X143621953Y-61560795D01*
X143535244Y-61730968D01*
X143472009Y-61925582D01*
X143440000Y-62127682D01*
X143440000Y-62332317D01*
X143472010Y-62534418D01*
X143500222Y-62621248D01*
X144228054Y-61893416D01*
X144289377Y-61859931D01*
X144359068Y-61864915D01*
X144403416Y-61893416D01*
X144457157Y-61947157D01*
X144419920Y-61984394D01*
X144367259Y-62075606D01*
X144340000Y-62177339D01*
X144340000Y-62282661D01*
X144367259Y-62384394D01*
X144419920Y-62475606D01*
X144494394Y-62550080D01*
X144585606Y-62602741D01*
X144687339Y-62630000D01*
X144792661Y-62630000D01*
X144894394Y-62602741D01*
X144985606Y-62550080D01*
X145060080Y-62475606D01*
X145112741Y-62384394D01*
X145140000Y-62282661D01*
X145140000Y-62177339D01*
X145112741Y-62075606D01*
X145060080Y-61984394D01*
X145022843Y-61947157D01*
X145076583Y-61893417D01*
X145137906Y-61859932D01*
X145207598Y-61864916D01*
X145251945Y-61893417D01*
X145896472Y-62537944D01*
X145926722Y-62587307D01*
X145989668Y-62781038D01*
X145989669Y-62781041D01*
X146053783Y-62906871D01*
X146092250Y-62982366D01*
X146225062Y-63165166D01*
X146384834Y-63324938D01*
X146567634Y-63457750D01*
X146596785Y-63472603D01*
X146768958Y-63560330D01*
X146768961Y-63560331D01*
X146848379Y-63586135D01*
X146983853Y-63630153D01*
X147207024Y-63665500D01*
X147207025Y-63665500D01*
X147432975Y-63665500D01*
X147432976Y-63665500D01*
X147656147Y-63630153D01*
X147871041Y-63560330D01*
X148072366Y-63457750D01*
X148255166Y-63324938D01*
X148414938Y-63165166D01*
X148547750Y-62982366D01*
X148650330Y-62781041D01*
X148720153Y-62566147D01*
X148755500Y-62342976D01*
X148755500Y-60985654D01*
X148720153Y-60762483D01*
X148650330Y-60547589D01*
X148650330Y-60547588D01*
X148547749Y-60346263D01*
X148496375Y-60275553D01*
X148414938Y-60163464D01*
X148255166Y-60003692D01*
X147101536Y-58850062D01*
X146918736Y-58717250D01*
X146717411Y-58614669D01*
X146717408Y-58614668D01*
X146502518Y-58544847D01*
X146390931Y-58527173D01*
X146279346Y-58509500D01*
X132767895Y-58509500D01*
X132541943Y-58509500D01*
X132541938Y-58509500D01*
X132318774Y-58544845D01*
X132164224Y-58595061D01*
X132164225Y-58595062D01*
X132103873Y-58614671D01*
X131902552Y-58717250D01*
X131798258Y-58793024D01*
X131719753Y-58850062D01*
X131719751Y-58850064D01*
X131719750Y-58850064D01*
X130477064Y-60092750D01*
X130477064Y-60092751D01*
X130477062Y-60092753D01*
X130425690Y-60163461D01*
X130344250Y-60275552D01*
X130241669Y-60476877D01*
X130241668Y-60476880D01*
X130171847Y-60691770D01*
X130136500Y-60914943D01*
X130136500Y-61584034D01*
X130116815Y-61651073D01*
X130100181Y-61671715D01*
X129715064Y-62056831D01*
X129715064Y-62056832D01*
X129715062Y-62056834D01*
X129663588Y-62127682D01*
X129582250Y-62239633D01*
X129479669Y-62440958D01*
X129479668Y-62440961D01*
X129409847Y-62655851D01*
X129374500Y-62879024D01*
X127214413Y-62879024D01*
X127214431Y-62873732D01*
X127241947Y-54742711D01*
X128832500Y-54742711D01*
X128832500Y-54985288D01*
X128864161Y-55225785D01*
X128926947Y-55460104D01*
X129019773Y-55684205D01*
X129019776Y-55684212D01*
X129141064Y-55894289D01*
X129141066Y-55894292D01*
X129141067Y-55894293D01*
X129288733Y-56086736D01*
X129288739Y-56086743D01*
X129460256Y-56258260D01*
X129460262Y-56258265D01*
X129652711Y-56405936D01*
X129862788Y-56527224D01*
X130086900Y-56620054D01*
X130321211Y-56682838D01*
X130501586Y-56706584D01*
X130561711Y-56714500D01*
X130561712Y-56714500D01*
X130804289Y-56714500D01*
X130852388Y-56708167D01*
X131044789Y-56682838D01*
X131279100Y-56620054D01*
X131503212Y-56527224D01*
X131713289Y-56405936D01*
X131905738Y-56258265D01*
X132077265Y-56086738D01*
X132224936Y-55894289D01*
X132346224Y-55684212D01*
X132439054Y-55460100D01*
X132501838Y-55225789D01*
X132533500Y-54985288D01*
X132533500Y-54742712D01*
X132533500Y-54742711D01*
X221288500Y-54742711D01*
X221288500Y-54985288D01*
X221320161Y-55225785D01*
X221382947Y-55460104D01*
X221475773Y-55684205D01*
X221475776Y-55684212D01*
X221597064Y-55894289D01*
X221597066Y-55894292D01*
X221597067Y-55894293D01*
X221744733Y-56086736D01*
X221744739Y-56086743D01*
X221916256Y-56258260D01*
X221916262Y-56258265D01*
X222108711Y-56405936D01*
X222318788Y-56527224D01*
X222542900Y-56620054D01*
X222777211Y-56682838D01*
X222957586Y-56706584D01*
X223017711Y-56714500D01*
X223017712Y-56714500D01*
X223260289Y-56714500D01*
X223308388Y-56708167D01*
X223500789Y-56682838D01*
X223735100Y-56620054D01*
X223959212Y-56527224D01*
X224169289Y-56405936D01*
X224361738Y-56258265D01*
X224533265Y-56086738D01*
X224680936Y-55894289D01*
X224802224Y-55684212D01*
X224895054Y-55460100D01*
X224957838Y-55225789D01*
X224989500Y-54985288D01*
X224989500Y-54742712D01*
X224957838Y-54502211D01*
X224895054Y-54267900D01*
X224802224Y-54043788D01*
X224680936Y-53833711D01*
X224533265Y-53641262D01*
X224533260Y-53641256D01*
X224361743Y-53469739D01*
X224361736Y-53469733D01*
X224169293Y-53322067D01*
X224169292Y-53322066D01*
X224169289Y-53322064D01*
X223959212Y-53200776D01*
X223959205Y-53200773D01*
X223735104Y-53107947D01*
X223500785Y-53045161D01*
X223260289Y-53013500D01*
X223260288Y-53013500D01*
X223017712Y-53013500D01*
X223017711Y-53013500D01*
X222777214Y-53045161D01*
X222542895Y-53107947D01*
X222318794Y-53200773D01*
X222318785Y-53200777D01*
X222108706Y-53322067D01*
X221916263Y-53469733D01*
X221916256Y-53469739D01*
X221744739Y-53641256D01*
X221744733Y-53641263D01*
X221597067Y-53833706D01*
X221475777Y-54043785D01*
X221475773Y-54043794D01*
X221382947Y-54267895D01*
X221320161Y-54502214D01*
X221288500Y-54742711D01*
X132533500Y-54742711D01*
X132501838Y-54502211D01*
X132439054Y-54267900D01*
X132346224Y-54043788D01*
X132224936Y-53833711D01*
X132077265Y-53641262D01*
X132077260Y-53641256D01*
X131905743Y-53469739D01*
X131905736Y-53469733D01*
X131713293Y-53322067D01*
X131713292Y-53322066D01*
X131713289Y-53322064D01*
X131503212Y-53200776D01*
X131503205Y-53200773D01*
X131279104Y-53107947D01*
X131044785Y-53045161D01*
X130804289Y-53013500D01*
X130804288Y-53013500D01*
X130561712Y-53013500D01*
X130561711Y-53013500D01*
X130321214Y-53045161D01*
X130086895Y-53107947D01*
X129862794Y-53200773D01*
X129862785Y-53200777D01*
X129652706Y-53322067D01*
X129460263Y-53469733D01*
X129460256Y-53469739D01*
X129288739Y-53641256D01*
X129288733Y-53641263D01*
X129141067Y-53833706D01*
X129019777Y-54043785D01*
X129019773Y-54043794D01*
X128926947Y-54267895D01*
X128864161Y-54502214D01*
X128832500Y-54742711D01*
X127241947Y-54742711D01*
X127241962Y-54738233D01*
X127247479Y-53107947D01*
X127252903Y-51505079D01*
X127272814Y-51438108D01*
X127325773Y-51392532D01*
X127376902Y-51381500D01*
X226586500Y-51381500D01*
X226653539Y-51401185D01*
G37*
%TD.AperFunction*%
%TD*%
%TA.AperFunction,NonConductor*%
G36*
X206212940Y-78494674D02*
G01*
X206268874Y-78536545D01*
X206287538Y-78572538D01*
X206314668Y-78656038D01*
X206314669Y-78656041D01*
X206417250Y-78857366D01*
X206550062Y-79040166D01*
X206550064Y-79040168D01*
X206558181Y-79048285D01*
X206591666Y-79109608D01*
X206594500Y-79135966D01*
X206594500Y-79457522D01*
X206574815Y-79524561D01*
X206522011Y-79570316D01*
X206452853Y-79580260D01*
X206397615Y-79557841D01*
X206258256Y-79456592D01*
X206063383Y-79357298D01*
X206063380Y-79357297D01*
X205855376Y-79289714D01*
X205639364Y-79255500D01*
X205638888Y-79255463D01*
X205638717Y-79255398D01*
X205634544Y-79254737D01*
X205634682Y-79253860D01*
X205573600Y-79230578D01*
X205532130Y-79174346D01*
X205527644Y-79104621D01*
X205560937Y-79044165D01*
X206081928Y-78523173D01*
X206143249Y-78489690D01*
X206212940Y-78494674D01*
G37*
%TD.AperFunction*%
%TA.AperFunction,NonConductor*%
G36*
X208791787Y-59895185D02*
G01*
X208812429Y-59911819D01*
X212538485Y-63637875D01*
X212571970Y-63699198D01*
X212566986Y-63768890D01*
X212525114Y-63824823D01*
X212489124Y-63843486D01*
X212446624Y-63857295D01*
X212446616Y-63857298D01*
X212251739Y-63956595D01*
X212074806Y-64085142D01*
X211920142Y-64239806D01*
X211810318Y-64390969D01*
X211754989Y-64433635D01*
X211685375Y-64439614D01*
X211623580Y-64407009D01*
X211609682Y-64390969D01*
X211499857Y-64239806D01*
X211345193Y-64085142D01*
X211168260Y-63956595D01*
X211168259Y-63956594D01*
X211168257Y-63956593D01*
X211105825Y-63924782D01*
X210973383Y-63857298D01*
X210973380Y-63857297D01*
X210765376Y-63789714D01*
X210549361Y-63755500D01*
X210549356Y-63755500D01*
X210330644Y-63755500D01*
X210330639Y-63755500D01*
X210114623Y-63789714D01*
X209906619Y-63857297D01*
X209906616Y-63857298D01*
X209711739Y-63956595D01*
X209534806Y-64085142D01*
X209380142Y-64239806D01*
X209270318Y-64390969D01*
X209214989Y-64433635D01*
X209145375Y-64439614D01*
X209083580Y-64407009D01*
X209069682Y-64390969D01*
X208959857Y-64239806D01*
X208805193Y-64085142D01*
X208628260Y-63956595D01*
X208628259Y-63956594D01*
X208628257Y-63956593D01*
X208565825Y-63924782D01*
X208433383Y-63857298D01*
X208433380Y-63857297D01*
X208225376Y-63789714D01*
X208009361Y-63755500D01*
X208009356Y-63755500D01*
X207790644Y-63755500D01*
X207790639Y-63755500D01*
X207574623Y-63789714D01*
X207366619Y-63857297D01*
X207366616Y-63857298D01*
X207171739Y-63956595D01*
X206994806Y-64085142D01*
X206840142Y-64239806D01*
X206730318Y-64390969D01*
X206674989Y-64433635D01*
X206605375Y-64439614D01*
X206543580Y-64407009D01*
X206529682Y-64390969D01*
X206419857Y-64239806D01*
X206265193Y-64085142D01*
X206088260Y-63956595D01*
X206088259Y-63956594D01*
X206088257Y-63956593D01*
X206025825Y-63924782D01*
X205893383Y-63857298D01*
X205893380Y-63857297D01*
X205685376Y-63789714D01*
X205469361Y-63755500D01*
X205469356Y-63755500D01*
X205250644Y-63755500D01*
X205250639Y-63755500D01*
X205034623Y-63789714D01*
X204826619Y-63857297D01*
X204826616Y-63857298D01*
X204631743Y-63956592D01*
X204452385Y-64086903D01*
X204386578Y-64110382D01*
X204318525Y-64094556D01*
X204269830Y-64044450D01*
X204255500Y-63986584D01*
X204255500Y-63576027D01*
X204255501Y-63576002D01*
X204255501Y-63344940D01*
X204220154Y-63121769D01*
X204150331Y-62906876D01*
X204150329Y-62906873D01*
X204150329Y-62906871D01*
X204060208Y-62730000D01*
X204047750Y-62705550D01*
X204047748Y-62705547D01*
X204047747Y-62705545D01*
X204011644Y-62655854D01*
X204011643Y-62655853D01*
X203980870Y-62613498D01*
X203914938Y-62522750D01*
X203755166Y-62362978D01*
X203755165Y-62362977D01*
X203752054Y-62359866D01*
X203752039Y-62359852D01*
X201479369Y-60087181D01*
X201445884Y-60025858D01*
X201450868Y-59956166D01*
X201492740Y-59900233D01*
X201558204Y-59875816D01*
X201567050Y-59875500D01*
X208724748Y-59875500D01*
X208791787Y-59895185D01*
G37*
%TD.AperFunction*%
%TA.AperFunction,NonConductor*%
G36*
X221350703Y-79871253D02*
G01*
X221357181Y-79877285D01*
X222048181Y-80568285D01*
X222081666Y-80629608D01*
X222084500Y-80655966D01*
X222084500Y-91429034D01*
X222064815Y-91496073D01*
X222048181Y-91516715D01*
X221357181Y-92207715D01*
X221295858Y-92241200D01*
X221226166Y-92236216D01*
X221170233Y-92194344D01*
X221145816Y-92128880D01*
X221145500Y-92120034D01*
X221145500Y-79964966D01*
X221165185Y-79897927D01*
X221217989Y-79852172D01*
X221287147Y-79842228D01*
X221350703Y-79871253D01*
G37*
%TD.AperFunction*%
M02*
